<svg width="40" height="40" viewBox="0 0 40 40" fill="none" xmlns="http://www.w3.org/2000/svg">
<path fill-rule="evenodd" clip-rule="evenodd" d="M19.9987 36.6693C29.2034 36.6693 36.6654 29.2073 36.6654 20.0026C36.6654 10.7979 29.2034 3.33594 19.9987 3.33594C10.794 3.33594 3.33203 10.7979 3.33203 20.0026C3.33203 29.2073 10.794 36.6693 19.9987 36.6693ZM21.2487 15.0026C21.2487 14.3122 20.6891 13.7526 19.9987 13.7526C19.3083 13.7526 18.7487 14.3122 18.7487 15.0026V18.7526H14.9987C14.3083 18.7526 13.7487 19.3122 13.7487 20.0026C13.7487 20.693 14.3083 21.2526 14.9987 21.2526H18.7487V25.0026C18.7487 25.693 19.3083 26.2526 19.9987 26.2526C20.6891 26.2526 21.2487 25.693 21.2487 25.0026V21.2526H24.9987C25.6891 21.2526 26.2487 20.693 26.2487 20.0026C26.2487 19.3122 25.6891 18.7526 24.9987 18.7526H21.2487V15.0026Z" fill="white"/>
</svg>
