<svg width="70" height="70" viewBox="0 0 70 70" fill="none" xmlns="http://www.w3.org/2000/svg">
<g clip-path="url(#clip0_2310_89441)">
<rect width="70" height="70" rx="23.3333" fill="#434343"/>
<g clip-path="url(#clip1_2310_89441)">
<path d="M43.981 10.5C44.0896 10.5 44.1982 10.5 44.313 10.5C44.5794 13.791 43.3232 16.2501 41.7966 18.0308C40.2986 19.7993 38.2473 21.5145 34.9297 21.2543C34.7083 18.0104 35.9666 15.7337 37.4912 13.957C38.9051 12.3013 41.4974 10.8279 43.981 10.5Z" fill="white"/>
<path d="M54.0242 44.7553C54.0242 44.7881 54.0242 44.8167 54.0242 44.8475C53.0918 47.6713 51.7618 50.0914 50.1389 52.3374C48.6573 54.3763 46.8417 57.1202 43.5998 57.1202C40.7986 57.1202 38.9379 55.319 36.0669 55.2698C33.03 55.2206 31.3599 56.7759 28.5832 57.1673C28.2656 57.1673 27.948 57.1673 27.6365 57.1673C25.5975 56.8723 23.952 55.2575 22.7532 53.8025C19.2183 49.5033 16.4867 43.9499 15.9785 36.8433C15.9785 36.1465 15.9785 35.4519 15.9785 34.7551C16.1937 29.669 18.665 25.5337 21.9499 23.5296C23.6835 22.464 26.0668 21.5562 28.7205 21.9619C29.8578 22.1381 31.0197 22.5275 32.0382 22.9127C33.0034 23.2836 34.2103 23.9414 35.3538 23.9066C36.1284 23.8841 36.8989 23.4804 37.6797 23.1955C39.9666 22.3697 42.2084 21.423 45.1634 21.8676C48.7147 22.4045 51.2352 23.9824 52.7926 26.4169C49.7884 28.3288 47.4134 31.21 47.8191 36.1301C48.1798 40.5995 50.7782 43.2143 54.0242 44.7553Z" fill="white"/>
</g>
</g>
<defs>
<clipPath id="clip0_2310_89441">
<rect width="70" height="70" fill="white"/>
</clipPath>
<clipPath id="clip1_2310_89441">
<rect width="46.6667" height="46.6667" fill="white" transform="translate(11.667 10.5)"/>
</clipPath>
</defs>
</svg>
