<svg width="83" height="82" viewBox="0 0 83 82" fill="none" xmlns="http://www.w3.org/2000/svg">
<g clip-path="url(#clip0_4454_71858)">
<path d="M82.8721 41C82.8721 63.6437 64.5157 82 41.8721 82C19.2284 82 0.87207 63.6437 0.87207 41C0.87207 18.3563 19.2284 0 41.8721 0C64.5157 0 82.8721 18.3563 82.8721 41Z" fill="white"/>
<path fill-rule="evenodd" clip-rule="evenodd" d="M41.8721 69.3846C57.5485 69.3846 70.2567 56.6764 70.2567 41C70.2567 25.3236 57.5485 12.6154 41.8721 12.6154C26.1957 12.6154 13.4875 25.3236 13.4875 41C13.4875 56.6764 26.1957 69.3846 41.8721 69.3846ZM41.8721 82C64.5157 82 82.8721 63.6437 82.8721 41C82.8721 18.3563 64.5157 0 41.8721 0C19.2284 0 0.87207 18.3563 0.87207 41C0.87207 63.6437 19.2284 82 41.8721 82Z" fill="url(#paint0_linear_4454_71858)"/>
<mask id="mask0_4454_71858" style="mask-type:alpha" maskUnits="userSpaceOnUse" x="0" y="0" width="83" height="82">
<path d="M41.8711 82C64.5148 82 82.8711 63.6437 82.8711 41C82.8711 18.3563 64.5148 0 41.8711 0C19.2274 0 0.871094 18.3563 0.871094 41C0.871094 63.6437 19.2274 82 41.8711 82Z" fill="white"/>
</mask>
<g mask="url(#mask0_4454_71858)">
<path d="M69.5116 18.6483C73.4368 25.4469 79.3212 29.8168 84.3104 30.1871C82.0594 18.705 75.3797 8.8098 66.1231 2.35352C65.0807 6.82113 66.1967 12.9067 69.5116 18.6483Z" fill="white" fill-opacity="0.5"/>
<path d="M14.1807 18.6601C10.2555 25.4586 4.371 29.8285 -0.618164 30.1988C1.63283 18.7166 8.31256 8.82151 17.5691 2.36523C18.6116 6.83285 17.4956 12.9185 14.1807 18.6601Z" fill="white" fill-opacity="0.5"/>
<path d="M85.1068 52.8574C79.9089 53.2207 73.7781 57.5076 69.6886 64.1771C66.2351 69.8097 65.0724 75.7798 66.1584 80.1626C75.8024 73.8289 82.7616 64.1216 85.1068 52.8574Z" fill="white" fill-opacity="0.5"/>
<path d="M14.0578 64.1771C9.96836 57.5076 3.83761 53.2207 -1.36035 52.8574C0.98485 64.1216 7.94413 73.8289 17.5881 80.1626C18.6742 75.7798 17.5114 69.8097 14.0578 64.1771Z" fill="white" fill-opacity="0.5"/>
</g>
<path d="M41.872 73.5896C59.8708 73.5896 74.4617 58.9987 74.4617 40.9999C74.4617 23.0011 59.8708 8.41016 41.872 8.41016C23.8732 8.41016 9.28223 23.0011 9.28223 40.9999C9.28223 58.9987 23.8732 73.5896 41.872 73.5896Z" fill="#283F5B" stroke="white" stroke-width="2.10256"/>
</g>
<defs>
<linearGradient id="paint0_linear_4454_71858" x1="41.8721" y1="0" x2="41.8721" y2="82" gradientUnits="userSpaceOnUse">
<stop stop-color="#3592FF"/>
<stop offset="1" stop-color="#0F4F9A"/>
</linearGradient>
<clipPath id="clip0_4454_71858">
<rect width="82" height="82" fill="white" transform="translate(0.87207)"/>
</clipPath>
</defs>
</svg>
