<svg width="82" height="82" viewBox="0 0 82 82" fill="none" xmlns="http://www.w3.org/2000/svg">
<path d="M82 41C82 63.6437 63.6437 82 41 82C18.3563 82 0 63.6437 0 41C0 18.3563 18.3563 0 41 0C63.6437 0 82 18.3563 82 41Z" fill="white"/>
<path fill-rule="evenodd" clip-rule="evenodd" d="M41 69.3846C56.6764 69.3846 69.3846 56.6764 69.3846 41C69.3846 25.3236 56.6764 12.6154 41 12.6154C25.3236 12.6154 12.6154 25.3236 12.6154 41C12.6154 56.6764 25.3236 69.3846 41 69.3846ZM41 82C63.6437 82 82 63.6437 82 41C82 18.3563 63.6437 0 41 0C18.3563 0 0 18.3563 0 41C0 63.6437 18.3563 82 41 82Z" fill="url(#paint0_linear_6739_214152)"/>
<mask id="mask0_6739_214152" style="mask-type:alpha" maskUnits="userSpaceOnUse" x="0" y="0" width="82" height="82">
<circle cx="41" cy="41" r="41" fill="white"/>
</mask>
<g mask="url(#mask0_6739_214152)">
<path d="M68.6394 18.6483C72.5645 25.4469 78.449 29.8168 83.4382 30.1871C81.1872 18.705 74.5074 8.8098 65.2509 2.35352C64.2084 6.82113 65.3245 12.9068 68.6394 18.6483Z" fill="white" fill-opacity="0.5"/>
<path d="M13.3088 18.6599C9.38364 25.4585 3.49915 29.8284 -1.49001 30.1987C0.760981 18.7166 7.44071 8.82142 16.6973 2.36514C17.7397 6.83275 16.6237 12.9184 13.3088 18.6599Z" fill="white" fill-opacity="0.5"/>
<path d="M84.2345 52.8581C79.0365 53.2214 72.9058 57.5084 68.8163 64.1779C65.3627 69.8105 64.2 75.7806 65.2861 80.1634C74.93 73.8297 81.8893 64.1223 84.2345 52.8581Z" fill="white" fill-opacity="0.5"/>
<path d="M13.1857 64.1779C9.09628 57.5084 2.96554 53.2214 -2.23242 52.8581C0.112776 64.1223 7.07205 73.8297 16.716 80.1634C17.8021 75.7806 16.6393 69.8105 13.1857 64.1779Z" fill="white" fill-opacity="0.5"/>
</g>
<path d="M40.9994 73.5901C58.9982 73.5901 73.5891 58.9992 73.5891 41.0004C73.5891 23.0016 58.9982 8.41063 40.9994 8.41063C23.0006 8.41063 8.40966 23.0016 8.40966 41.0004C8.40966 58.9992 23.0006 73.5901 40.9994 73.5901Z" fill="#606060" stroke="white" stroke-width="2.10256"/>
<defs>
<linearGradient id="paint0_linear_6739_214152" x1="41" y1="0" x2="41" y2="82" gradientUnits="userSpaceOnUse">
<stop stop-color="#D1CFD0"/>
<stop offset="1" stop-color="#8C8C8C"/>
</linearGradient>
</defs>
</svg>
