<svg width="83" height="82" viewBox="0 0 83 82" fill="none" xmlns="http://www.w3.org/2000/svg">
<g clip-path="url(#clip0_4454_71846)">
<path d="M82.5898 41C82.5898 63.6437 64.2335 82 41.5898 82C18.9462 82 0.589844 63.6437 0.589844 41C0.589844 18.3563 18.9462 0 41.5898 0C64.2335 0 82.5898 18.3563 82.5898 41Z" fill="white"/>
<path fill-rule="evenodd" clip-rule="evenodd" d="M41.5898 69.3846C57.2662 69.3846 69.9745 56.6764 69.9745 41C69.9745 25.3236 57.2662 12.6154 41.5898 12.6154C25.9134 12.6154 13.2052 25.3236 13.2052 41C13.2052 56.6764 25.9134 69.3846 41.5898 69.3846ZM41.5898 82C64.2335 82 82.5898 63.6437 82.5898 41C82.5898 18.3563 64.2335 0 41.5898 0C18.9462 0 0.589844 18.3563 0.589844 41C0.589844 63.6437 18.9462 82 41.5898 82Z" fill="url(#paint0_linear_4454_71846)"/>
<mask id="mask0_4454_71846" style="mask-type:alpha" maskUnits="userSpaceOnUse" x="0" y="0" width="83" height="82">
<path d="M41.5898 82C64.2335 82 82.5898 63.6437 82.5898 41C82.5898 18.3563 64.2335 0 41.5898 0C18.9462 0 0.589844 18.3563 0.589844 41C0.589844 63.6437 18.9462 82 41.5898 82Z" fill="white"/>
</mask>
<g mask="url(#mask0_4454_71846)">
<path d="M69.2294 18.6483C73.1546 25.4469 79.039 29.8168 84.0282 30.1871C81.7772 18.705 75.0974 8.8098 65.8409 2.35352C64.7984 6.82113 65.9145 12.9067 69.2294 18.6483Z" fill="white" fill-opacity="0.5"/>
<path d="M13.8985 18.6601C9.97326 25.4586 4.08878 29.8285 -0.900391 30.1988C1.35061 18.7166 8.03033 8.82151 17.2869 2.36523C18.3293 6.83285 17.2134 12.9185 13.8985 18.6601Z" fill="white" fill-opacity="0.5"/>
<path d="M84.8246 52.8574C79.6267 53.2207 73.4959 57.5076 69.4064 64.1771C65.9528 69.8097 64.7901 75.7798 65.8762 80.1626C75.5201 73.8289 82.4794 64.1216 84.8246 52.8574Z" fill="white" fill-opacity="0.5"/>
<path d="M13.7756 64.1771C9.68612 57.5076 3.55538 53.2207 -1.64258 52.8574C0.702618 64.1216 7.66189 73.8289 17.3058 80.1626C18.392 75.7798 17.2291 69.8097 13.7756 64.1771Z" fill="white" fill-opacity="0.5"/>
</g>
<path d="M41.5897 73.5896C59.5885 73.5896 74.1795 58.9987 74.1795 40.9999C74.1795 23.0011 59.5885 8.41016 41.5897 8.41016C23.591 8.41016 9 23.0011 9 40.9999C9 58.9987 23.591 73.5896 41.5897 73.5896Z" fill="#36593F" stroke="white" stroke-width="2.10256"/>
</g>
<defs>
<linearGradient id="paint0_linear_4454_71846" x1="41.5898" y1="0" x2="41.5898" y2="82" gradientUnits="userSpaceOnUse">
<stop stop-color="#63CE51"/>
<stop offset="1" stop-color="#2F8121"/>
</linearGradient>
<clipPath id="clip0_4454_71846">
<rect width="82" height="82" fill="white" transform="translate(0.589844)"/>
</clipPath>
</defs>
</svg>
