<svg width="83" height="82" viewBox="0 0 83 82" fill="none" xmlns="http://www.w3.org/2000/svg">
<g clip-path="url(#clip0_4454_71834)">
<path d="M82.4102 41C82.4102 63.6437 64.0538 82 41.4102 82C18.7665 82 0.410156 63.6437 0.410156 41C0.410156 18.3563 18.7665 0 41.4102 0C64.0538 0 82.4102 18.3563 82.4102 41Z" fill="white"/>
<path fill-rule="evenodd" clip-rule="evenodd" d="M41.4102 69.3846C57.0866 69.3846 69.7948 56.6764 69.7948 41C69.7948 25.3236 57.0866 12.6154 41.4102 12.6154C25.7338 12.6154 13.0255 25.3236 13.0255 41C13.0255 56.6764 25.7338 69.3846 41.4102 69.3846ZM41.4102 82C64.0538 82 82.4102 63.6437 82.4102 41C82.4102 18.3563 64.0538 0 41.4102 0C18.7665 0 0.410156 18.3563 0.410156 41C0.410156 63.6437 18.7665 82 41.4102 82Z" fill="url(#paint0_linear_4454_71834)"/>
<mask id="mask0_4454_71834" style="mask-type:alpha" maskUnits="userSpaceOnUse" x="0" y="0" width="83" height="82">
<path d="M41.4102 82C64.0538 82 82.4102 63.6437 82.4102 41C82.4102 18.3563 64.0538 0 41.4102 0C18.7665 0 0.410156 18.3563 0.410156 41C0.410156 63.6437 18.7665 82 41.4102 82Z" fill="white"/>
</mask>
<g mask="url(#mask0_4454_71834)">
<path d="M69.0497 18.6483C72.9749 25.4469 78.8593 29.8168 83.8485 30.1871C81.5975 18.705 74.9177 8.8098 65.6612 2.35352C64.6188 6.82113 65.7348 12.9067 69.0497 18.6483Z" fill="white" fill-opacity="0.5"/>
<path d="M13.7188 18.6601C9.79357 25.4586 3.9091 29.8285 -1.08008 30.1988C1.17092 18.7166 7.85065 8.82151 17.1072 2.36523C18.1496 6.83285 17.0337 12.9185 13.7188 18.6601Z" fill="white" fill-opacity="0.5"/>
<path d="M84.6449 52.8574C79.447 53.2207 73.3162 57.5076 69.2267 64.1771C65.7732 69.8097 64.6104 75.7798 65.6965 80.1626C75.3405 73.8289 82.2997 64.1216 84.6449 52.8574Z" fill="white" fill-opacity="0.5"/>
<path d="M13.5959 64.1771C9.50643 57.5076 3.37569 53.2207 -1.82227 52.8574C0.52293 64.1216 7.4822 73.8289 17.1261 80.1626C18.2123 75.7798 17.0495 69.8097 13.5959 64.1771Z" fill="white" fill-opacity="0.5"/>
</g>
<path d="M41.4101 73.5896C59.4088 73.5896 73.9998 58.9987 73.9998 40.9999C73.9998 23.0011 59.4088 8.41016 41.4101 8.41016C23.4113 8.41016 8.82031 23.0011 8.82031 40.9999C8.82031 58.9987 23.4113 73.5896 41.4101 73.5896Z" fill="#632631" stroke="white" stroke-width="2.10256"/>
</g>
<defs>
<linearGradient id="paint0_linear_4454_71834" x1="41.4102" y1="0" x2="41.4102" y2="82" gradientUnits="userSpaceOnUse">
<stop stop-color="#FF4B6B"/>
<stop offset="1" stop-color="#CB072A"/>
</linearGradient>
<clipPath id="clip0_4454_71834">
<rect width="82" height="82" fill="white" transform="translate(0.410156)"/>
</clipPath>
</defs>
</svg>
