<svg width="70" height="70" viewBox="0 0 70 70" fill="none" xmlns="http://www.w3.org/2000/svg">
<rect x="17.25" y="18.1875" width="39.375" height="35.625" fill="#656565"/>
<g clip-path="url(#clip0_7611_172561)">
<g filter="url(#filter0_d_7611_172561)">
<path d="M5 35C5 51.5625 18.4375 65 35 65C51.5625 65 65 51.5625 65 35C65 18.4375 51.5625 5 35 5C18.4375 5.0125 5.0125 18.4375 5 35ZM46.225 33.4C47.0375 32.5625 48.3875 32.5375 49.225 33.35C50.0625 34.1625 50.0875 35.5125 49.275 36.35C49.2625 36.3625 49.2375 36.3875 49.225 36.4L36.5 49.125C35.675 49.95 34.325 49.95 33.5 49.125L20.775 36.4C19.9625 35.5625 19.9875 34.2125 20.825 33.4C21.65 32.6 22.95 32.6 23.775 33.4L35 44.625L46.225 33.4ZM44.5125 22.8C45.2 22.0875 46.3375 22.0625 47.05 22.75C47.7625 23.4375 47.7875 24.575 47.1 25.2875C47.0875 25.3 47.075 25.3125 47.05 25.3375L36.275 36.1125C35.575 36.8125 34.4375 36.8125 33.7375 36.1125L22.9625 25.3375C22.275 24.625 22.2875 23.4875 23.0125 22.8C23.7125 22.125 24.8125 22.125 25.5125 22.8L35.0125 32.3L44.5125 22.8Z" fill="white"/>
</g>
</g>
<defs>
<filter id="filter0_d_7611_172561" x="0" y="0" width="72" height="72" filterUnits="userSpaceOnUse" color-interpolation-filters="sRGB">
<feFlood flood-opacity="0" result="BackgroundImageFix"/>
<feColorMatrix in="SourceAlpha" type="matrix" values="0 0 0 0 0 0 0 0 0 0 0 0 0 0 0 0 0 0 127 0" result="hardAlpha"/>
<feOffset dx="1" dy="1"/>
<feGaussianBlur stdDeviation="3"/>
<feComposite in2="hardAlpha" operator="out"/>
<feColorMatrix type="matrix" values="0 0 0 0 0 0 0 0 0 0 0 0 0 0 0 0 0 0 0.5 0"/>
<feBlend mode="normal" in2="BackgroundImageFix" result="effect1_dropShadow_7611_172561"/>
<feBlend mode="normal" in="SourceGraphic" in2="effect1_dropShadow_7611_172561" result="shape"/>
</filter>
<clipPath id="clip0_7611_172561">
<rect width="70" height="70" fill="white"/>
</clipPath>
</defs>
</svg>
