<svg width="30" height="30" viewBox="0 0 30 30" fill="none" xmlns="http://www.w3.org/2000/svg">
<path d="M12 27H18" stroke="#0097EC" stroke-width="2" stroke-linecap="round"/>
<path d="M16.7136 23.2693L16.7136 24.2693L16.7136 24.2693L16.7136 23.2693ZM13.4013 23.2693L13.4013 22.2693L13.4013 22.2693L13.4013 23.2693ZM20.9768 19.3549L21.9768 19.3549V19.3549L20.9768 19.3549ZM22 16.6573L22.7071 17.3644L22.7443 17.3273L22.7774 17.2864L22 16.6573ZM8.0341 16.6992L7.2605 17.3329L7.29193 17.3713L7.32699 17.4063L8.0341 16.6992ZM16.7136 22.2693L13.4013 22.2693L13.4013 24.2693L16.7136 24.2693L16.7136 22.2693ZM21.9768 19.3549C21.9768 18.8545 21.9885 18.5733 22.0696 18.3082C22.1423 18.0708 22.295 17.7765 22.7071 17.3644L21.2929 15.9502C20.705 16.5381 20.3461 17.1053 20.1571 17.7231C19.9767 18.313 19.9768 18.8806 19.9768 19.3549L21.9768 19.3549ZM13.4013 22.2693C11.3333 22.2693 10.1197 20.5542 10.1197 19.4455L8.11968 19.4455C8.11968 21.6386 10.2086 24.2693 13.4013 24.2693L13.4013 22.2693ZM16.7136 24.2693C19.9224 24.2693 21.9768 21.6189 21.9768 19.3549L19.9768 19.3549C19.9768 20.5739 18.7591 22.2693 16.7136 22.2693L16.7136 24.2693ZM10.1197 19.4455C10.1197 18.908 10.1019 18.3288 9.89859 17.7313C9.68942 17.1165 9.31552 16.5664 8.74121 15.9921L7.32699 17.4063C7.75268 17.832 7.92157 18.1297 8.00519 18.3755C8.09468 18.6385 8.11968 18.9324 8.11968 19.4455L10.1197 19.4455ZM7 11C7 6.58172 10.5817 3 15 3V1C9.47715 1 5 5.47715 5 11H7ZM15 3C19.4183 3 23 6.58172 23 11H25C25 5.47715 20.5228 1 15 1V3ZM23 11C23 12.9061 22.3346 14.6541 21.2226 16.0283L22.7774 17.2864C24.167 15.5691 25 13.3805 25 11H23ZM8.8077 16.0655C7.67745 14.6857 7 12.9233 7 11H5C5 13.4021 5.84821 15.6088 7.2605 17.3329L8.8077 16.0655Z" fill="#0097EC"/>
</svg>
