<svg width="96" height="96" viewBox="0 0 96 96" fill="none" xmlns="http://www.w3.org/2000/svg">
<g clip-path="url(#clip0_2413_58894)">
<path d="M48 96C74.5097 96 96 74.5097 96 48C96 21.4903 74.5097 0 48 0C21.4903 0 0 21.4903 0 48C0 74.5097 21.4903 96 48 96Z" fill="url(#paint0_linear_2413_58894)"/>
<path d="M36.0702 45.9295C37.4502 37.0595 38.5602 35.9395 47.4402 34.5595C38.5702 33.1795 37.4502 32.0695 36.0702 23.1895C34.6902 32.0595 33.5802 33.1795 24.7002 34.5595C33.5702 35.9395 34.6902 37.0495 36.0702 45.9295Z" fill="white"/>
<path d="M60.83 45.9295C62.21 37.0595 63.32 35.9395 72.2 34.5595C63.33 33.1795 62.21 32.0695 60.83 23.1895C59.45 32.0595 58.34 33.1795 49.46 34.5595C58.33 35.9395 59.45 37.0495 60.83 45.9295Z" fill="white"/>
<path d="M42.5205 45.3302C42.5205 48.6902 45.2505 51.4202 48.6105 51.4202C51.9705 51.4202 54.7005 48.6902 54.7005 45.3302C54.7005 41.9702 51.9705 39.2402 48.6105 39.2402C45.2505 39.2402 42.5205 41.9702 42.5205 45.3302ZM50.8405 41.4302C51.8605 41.4302 52.6805 42.2602 52.6805 43.2702C52.6805 44.2802 51.8505 45.1102 50.8405 45.1102C49.8305 45.1102 49.0005 44.2802 49.0005 43.2702C49.0005 42.2602 49.8305 41.4302 50.8405 41.4302Z" fill="white"/>
<path d="M70.8504 49.7291C68.7504 47.8691 64.7804 48.2891 63.6104 49.1191C60.9804 51.0091 54.2604 53.6291 48.5204 53.5591C42.7804 53.6191 36.0504 50.9991 33.4304 49.1191C32.2704 48.2891 28.3004 47.8691 26.1904 49.7291C24.2704 51.4191 20.9704 55.6591 26.4504 63.4991C33.9604 74.2291 47.4204 74.2391 48.5204 74.2191C49.6204 74.2391 63.0804 74.2191 70.5904 63.4991C76.0704 55.6591 72.7704 51.4191 70.8504 49.7291ZM48.6104 65.9291V65.9691C48.6104 65.9691 48.5004 65.9691 48.3104 65.9491C48.1204 65.9591 48.0104 65.9691 48.0104 65.9691V65.9291C45.2104 65.6991 33.4504 64.2291 29.7704 55.4391C31.7204 56.8491 37.4504 61.2291 48.3104 61.1591C59.1704 61.2291 64.9004 56.8491 66.8504 55.4391C63.1704 64.2191 51.4104 65.6991 48.6104 65.9291Z" fill="white"/>
</g>
<defs>
<linearGradient id="paint0_linear_2413_58894" x1="48" y1="1.13" x2="48" y2="97.13" gradientUnits="userSpaceOnUse">
<stop stop-color="#EA55F2"/>
<stop offset="1" stop-color="#C57CE5"/>
</linearGradient>
<clipPath id="clip0_2413_58894">
<rect width="96" height="96" fill="white"/>
</clipPath>
</defs>
</svg>
