<svg width="96" height="96" viewBox="0 0 96 96" fill="none" xmlns="http://www.w3.org/2000/svg">
<g clip-path="url(#clip0_2413_58869)">
<path d="M48 96C74.5097 96 96 74.5097 96 48C96 21.4903 74.5097 0 48 0C21.4903 0 0 21.4903 0 48C0 74.5097 21.4903 96 48 96Z" fill="url(#paint0_linear_2413_58869)"/>
<path d="M62.97 36.62V36.29C62.97 32.82 60.16 30 56.68 30H30.25C26.78 30 23.96 32.81 23.96 36.29V57.67C23.96 61.14 26.77 63.96 30.25 63.96H56.68C60.15 63.96 62.97 61.15 62.97 57.67C62.97 57.45 63.19 57.29 63.4 57.36L72.02 60.42C72.78 60.69 73.58 60.13 73.58 59.32V34.97C73.58 34.16 72.78 33.6 72.02 33.87L63.4 36.93C63.19 37.01 62.97 36.85 62.97 36.62ZM37.94 56.56V37.47C37.94 37.22 38.21 37.06 38.43 37.19L54.71 46.73C54.92 46.86 54.92 47.17 54.71 47.29L38.43 56.83C38.21 56.96 37.94 56.8 37.94 56.55V56.56Z" fill="white"/>
</g>
<defs>
<linearGradient id="paint0_linear_2413_58869" x1="48.01" y1="1.2" x2="47.99" y2="97.2" gradientUnits="userSpaceOnUse">
<stop stop-color="#3AF8A4"/>
<stop offset="1" stop-color="#24C9B4"/>
</linearGradient>
<clipPath id="clip0_2413_58869">
<rect width="96" height="96" fill="white"/>
</clipPath>
</defs>
</svg>
