<svg width="96" height="96" viewBox="0 0 96 96" fill="none" xmlns="http://www.w3.org/2000/svg">
<g clip-path="url(#clip0_2413_58901)">
<path d="M48 96C74.5097 96 96 74.5097 96 48C96 21.4903 74.5097 0 48 0C21.4903 0 0 21.4903 0 48C0 74.5097 21.4903 96 48 96Z" fill="url(#paint0_linear_2413_58901)"/>
<path d="M50.7903 50.6992H47.6503C46.8936 50.6992 46.2803 51.3126 46.2803 52.0692V55.8292C46.2803 56.5858 46.8936 57.1992 47.6503 57.1992H50.7903C51.5469 57.1992 52.1603 56.5858 52.1603 55.8292V52.0692C52.1603 51.3126 51.5469 50.6992 50.7903 50.6992Z" fill="white"/>
<path d="M53.9597 55.8289C53.9597 57.5789 52.5397 58.9989 50.7897 58.9989H47.6397C45.8897 58.9989 44.4697 57.5789 44.4697 55.8289V55.1989L23.7197 47.6289V63.8989C23.7197 68.3289 27.3097 71.9289 31.7497 71.9289H66.5697C70.9997 71.9289 74.5997 68.3389 74.5997 63.8989V47.6289L53.9597 55.1589V55.8289Z" fill="white"/>
<path d="M66.5697 35.2095H59.3197C58.9597 31.0195 54.5397 27.6895 49.1597 27.6895C43.7797 27.6895 39.3697 31.0195 38.9997 35.2095H31.7497C27.3197 35.2095 23.7197 38.7995 23.7197 43.2395V45.7195L44.4697 53.2895V52.0695C44.4697 50.3195 45.8897 48.8995 47.6397 48.8995H50.7897C52.5397 48.8995 53.9597 50.3195 53.9597 52.0695V53.2495L74.5997 45.7195V43.2395C74.5997 38.8095 71.0097 35.2095 66.5697 35.2095ZM42.0197 35.2095C42.4297 32.7095 45.5297 30.6895 49.1697 30.6895C52.8097 30.6895 55.9097 32.7095 56.3197 35.2095H42.0297H42.0197Z" fill="white"/>
</g>
<defs>
<linearGradient id="paint0_linear_2413_58901" x1="48" y1="1.13" x2="48" y2="97.13" gradientUnits="userSpaceOnUse">
<stop stop-color="#1FBBE4"/>
<stop offset="1" stop-color="#1CDBC1"/>
</linearGradient>
<clipPath id="clip0_2413_58901">
<rect width="96" height="96" fill="white"/>
</clipPath>
</defs>
</svg>
