<svg width="74" height="74" viewBox="0 0 74 74" fill="none" xmlns="http://www.w3.org/2000/svg">
<g filter="url(#filter0_d_4500_40678)">
<rect x="3" y="3" width="66" height="66" rx="33" fill="white"/>
</g>
<path d="M26.8337 18.125C27.5931 18.125 28.2087 18.7406 28.2087 19.5H43.792C43.792 18.7406 44.4076 18.125 45.167 18.125C45.9264 18.125 46.542 18.7406 46.542 19.5H47.0003C51.0504 19.5 54.3337 22.7832 54.3337 26.8333V38.2917C54.3337 39.0511 53.7181 39.6667 52.9587 39.6667C52.1993 39.6667 51.5837 39.0511 51.5837 38.2917V26.8333C51.5837 24.302 49.5316 22.25 47.0003 22.25H46.542V25C46.542 25.7594 45.9264 26.375 45.167 26.375C44.4076 26.375 43.792 25.7594 43.792 25V22.25H28.2087V25C28.2087 25.7594 27.5931 26.375 26.8337 26.375C26.0743 26.375 25.4587 25.7594 25.4587 25V22.25H25.0003C22.469 22.25 20.417 24.302 20.417 26.8333V47C20.417 49.5313 22.469 51.5833 25.0003 51.5833H38.292C39.0514 51.5833 39.667 52.1989 39.667 52.9583C39.667 53.7177 39.0514 54.3333 38.292 54.3333H25.0003C20.9502 54.3333 17.667 51.0501 17.667 47V26.8333C17.667 22.7832 20.9502 19.5 25.0003 19.5H25.4587C25.4587 18.7406 26.0743 18.125 26.8337 18.125Z" fill="#34C759"/>
<path d="M28.667 32.3333C28.667 33.3459 27.8462 34.1667 26.8337 34.1667C25.8211 34.1667 25.0003 33.3459 25.0003 32.3333C25.0003 31.3208 25.8211 30.5 26.8337 30.5C27.8462 30.5 28.667 31.3208 28.667 32.3333Z" fill="#34C759"/>
<path d="M36.0003 34.1667C37.0128 34.1667 37.8337 33.3459 37.8337 32.3333C37.8337 31.3208 37.0128 30.5 36.0003 30.5C34.9878 30.5 34.167 31.3208 34.167 32.3333C34.167 33.3459 34.9878 34.1667 36.0003 34.1667Z" fill="#34C759"/>
<path d="M47.0003 32.3333C47.0003 33.3459 46.1795 34.1667 45.167 34.1667C44.1545 34.1667 43.3337 33.3459 43.3337 32.3333C43.3337 31.3208 44.1545 30.5 45.167 30.5C46.1795 30.5 47.0003 31.3208 47.0003 32.3333Z" fill="#34C759"/>
<path d="M26.8337 40.5833C27.8462 40.5833 28.667 39.7625 28.667 38.75C28.667 37.7375 27.8462 36.9167 26.8337 36.9167C25.8211 36.9167 25.0003 37.7375 25.0003 38.75C25.0003 39.7625 25.8211 40.5833 26.8337 40.5833Z" fill="#34C759"/>
<path d="M37.8337 38.75C37.8337 39.7625 37.0128 40.5833 36.0003 40.5833C34.9878 40.5833 34.167 39.7625 34.167 38.75C34.167 37.7375 34.9878 36.9167 36.0003 36.9167C37.0128 36.9167 37.8337 37.7375 37.8337 38.75Z" fill="#34C759"/>
<path d="M47.0003 38.75L47.0003 38.7641C46.8487 38.7547 46.6959 38.75 46.542 38.75C45.4421 38.75 44.3987 38.9922 43.4623 39.4261C43.3793 39.2169 43.3337 38.9888 43.3337 38.75C43.3337 37.7375 44.1545 36.9167 45.167 36.9167C46.1795 36.9167 47.0003 37.7375 47.0003 38.75Z" fill="#34C759"/>
<path d="M28.667 45.1667C28.667 46.1792 27.8462 47 26.8337 47C25.8211 47 25.0003 46.1792 25.0003 45.1667C25.0003 44.1541 25.8211 43.3333 26.8337 43.3333C27.8462 43.3333 28.667 44.1541 28.667 45.1667Z" fill="#34C759"/>
<path d="M36.0003 47C37.0128 47 37.8337 46.1792 37.8337 45.1667C37.8337 44.1541 37.0128 43.3333 36.0003 43.3333C34.9878 43.3333 34.167 44.1541 34.167 45.1667C34.167 46.1792 34.9878 47 36.0003 47Z" fill="#34C759"/>
<path d="M48.3753 45.1667C48.3753 44.4073 47.7597 43.7917 47.0003 43.7917C46.2409 43.7917 45.6253 44.4073 45.6253 45.1667V47.7333C45.6253 48.4927 46.2409 49.1083 47.0003 49.1083H48.8337C49.5931 49.1083 50.2087 48.4927 50.2087 47.7333C50.2087 46.9739 49.5931 46.3583 48.8337 46.3583H48.3753V45.1667Z" fill="#34C759"/>
<path fill-rule="evenodd" clip-rule="evenodd" d="M47.0003 54.3333C51.0504 54.3333 54.3337 51.0501 54.3337 47C54.3337 42.9499 51.0504 39.6667 47.0003 39.6667C42.9502 39.6667 39.667 42.9499 39.667 47C39.667 51.0501 42.9502 54.3333 47.0003 54.3333ZM47.0003 51.5833C49.5316 51.5833 51.5837 49.5313 51.5837 47C51.5837 44.4687 49.5316 42.4167 47.0003 42.4167C44.469 42.4167 42.417 44.4687 42.417 47C42.417 49.5313 44.469 51.5833 47.0003 51.5833Z" fill="#34C759"/>
<defs>
<filter id="filter0_d_4500_40678" x="0" y="0" width="74" height="74" filterUnits="userSpaceOnUse" color-interpolation-filters="sRGB">
<feFlood flood-opacity="0" result="BackgroundImageFix"/>
<feColorMatrix in="SourceAlpha" type="matrix" values="0 0 0 0 0 0 0 0 0 0 0 0 0 0 0 0 0 0 127 0" result="hardAlpha"/>
<feOffset dx="1" dy="1"/>
<feGaussianBlur stdDeviation="2"/>
<feComposite in2="hardAlpha" operator="out"/>
<feColorMatrix type="matrix" values="0 0 0 0 0 0 0 0 0 0 0 0 0 0 0 0 0 0 0.25 0"/>
<feBlend mode="normal" in2="BackgroundImageFix" result="effect1_dropShadow_4500_40678"/>
<feBlend mode="normal" in="SourceGraphic" in2="effect1_dropShadow_4500_40678" result="shape"/>
</filter>
</defs>
</svg>
