<svg width="96" height="96" viewBox="0 0 96 96" fill="none" xmlns="http://www.w3.org/2000/svg">
<g clip-path="url(#clip0_2413_58879)">
<g clip-path="url(#clip1_2413_58879)">
<path d="M48 96C74.5097 96 96 74.5097 96 48C96 21.4903 74.5097 0 48 0C21.4903 0 0 21.4903 0 48C0 74.5097 21.4903 96 48 96Z" fill="url(#paint0_linear_2413_58879)"/>
<path d="M44.0398 27.8909C30.7698 27.8909 20.0098 38.6509 20.0098 51.9209C20.0098 65.1909 30.7698 75.9509 44.0398 75.9509C57.3098 75.9509 68.0698 65.1909 68.0698 51.9209H44.0398V27.8909Z" fill="white"/>
<path d="M52.1396 19.8809V43.9109H76.1696C76.1696 30.6409 65.4096 19.8809 52.1396 19.8809Z" fill="white"/>
</g>
</g>
<defs>
<linearGradient id="paint0_linear_2413_58879" x1="48" y1="0" x2="48" y2="96" gradientUnits="userSpaceOnUse">
<stop stop-color="#F87C3A"/>
<stop offset="1" stop-color="#E29522"/>
</linearGradient>
<clipPath id="clip0_2413_58879">
<rect width="96" height="96" fill="white"/>
</clipPath>
<clipPath id="clip1_2413_58879">
<rect width="96" height="96" fill="white"/>
</clipPath>
</defs>
</svg>
