<svg width="80" height="80" viewBox="0 0 80 80" fill="none" xmlns="http://www.w3.org/2000/svg">
<g clip-path="url(#clip0_4876_39668)">
<path d="M66.1707 23.775L56.227 13.8313C55.5405 13.1448 54.4275 13.1448 53.7411 13.8313L48.293 19.2793L35.7453 22.2535C35.4282 22.3287 35.1381 22.4905 34.9077 22.721L23.5938 34.0349L29.0889 40.5549L37.2409 32.4029C37.9183 31.7256 38.8427 31.3099 39.8003 31.3299H45.7333V33.0211L47.2907 38.5291C47.5047 39.286 48.1955 39.8087 48.9822 39.8087C51.3132 39.8087 53.5488 38.8827 55.197 37.2344L66.1706 26.2609C66.8572 25.5744 66.8572 24.4613 66.1707 23.775Z" fill="#FFDECF"/>
<path d="M66.1707 23.775L56.227 13.8313C55.5405 13.1448 54.4275 13.1448 53.7411 13.8313L48.293 19.2793L37.7734 21.7727V31.9599C38.3679 31.5503 39.0745 31.3148 39.8003 31.3299H45.7333V33.0211L47.2907 38.5291C47.5047 39.286 48.1955 39.8087 48.9822 39.8087C51.3132 39.8087 53.5488 38.8827 55.197 37.2344L66.1705 26.2609C66.8572 25.5744 66.8572 24.4613 66.1707 23.775Z" fill="#FFCDBE"/>
<path d="M63.7891 70H11.7578C10.787 70 10 69.213 10 68.2422V56.2891C10 55.3183 10.787 54.5312 11.7578 54.5312H63.7891C64.7598 54.5312 65.5469 55.3183 65.5469 56.2891V68.2422C65.5469 69.213 64.7598 70 63.7891 70Z" fill="#FFC178"/>
<path d="M63.7891 54.5312H37.7734V70H63.7891C64.7598 70 65.5469 69.213 65.5469 68.2422V56.2891C65.5469 55.3183 64.7598 54.5312 63.7891 54.5312Z" fill="#FF936B"/>
<path d="M63.1787 41.9376C63.0375 41.09 62.3042 40.4688 61.4448 40.4688H14.1011C13.2418 40.4688 12.5085 41.09 12.3672 41.9376L10.0234 56.0001H65.5225L63.1787 41.9376Z" fill="#FFF16B"/>
<path d="M63.1792 41.9376C63.038 41.09 62.3046 40.4688 61.4453 40.4688H37.7734V56.0001H65.523L63.1792 41.9376Z" fill="#FFC178"/>
<path d="M54.1797 51.0332H21.3672C20.3964 51.0332 19.6094 50.2462 19.6094 49.2754C19.6094 48.3046 20.3964 47.5176 21.3672 47.5176H54.1797C55.1505 47.5176 55.9375 48.3046 55.9375 49.2754C55.9375 50.2462 55.1505 51.0332 54.1797 51.0332Z" fill="#FFC178"/>
<path d="M54.1797 47.5176H37.7734V51.0332H54.1797C55.1505 51.0332 55.9375 50.2462 55.9375 49.2754C55.9375 48.3046 55.1505 47.5176 54.1797 47.5176Z" fill="#FF936B"/>
<path d="M51.8359 31.3281H23.7109C22.7402 31.3281 21.9531 32.1152 21.9531 33.0859V51.033H53.5938V33.0859C53.5938 32.1152 52.8067 31.3281 51.8359 31.3281Z" fill="#FFF5F5"/>
<path d="M53.5938 33.0859C53.5938 32.1152 52.8067 31.3281 51.8359 31.3281H37.7734V51.033H53.5938V33.0859Z" fill="#E2DFF4"/>
<path d="M45.7344 31.3269V33.018L47.2918 38.5261C47.5058 39.283 48.1966 39.8056 48.9833 39.8056C51.3143 39.8056 53.5498 38.8796 55.1981 37.2314L66.1716 26.2578L45.7344 31.3269Z" fill="#FFCDBE"/>
<path d="M69.4858 26.2589L66.1712 29.5734C65.4847 30.2599 64.3718 30.2599 63.6853 29.5734L50.427 16.3153C49.7405 15.6288 49.7405 14.5159 50.427 13.8294L53.7415 10.5149C54.428 9.82838 55.5409 9.82838 56.2274 10.5149L69.4858 23.773C70.1721 24.4595 70.1721 25.5724 69.4858 26.2589Z" fill="#E2DFF4"/>
<path d="M48.7992 31.3105L50.6655 37.5447C51.0032 38.6723 50.1586 39.8066 48.9816 39.8066H40.0371C37.691 39.8066 35.7891 37.9047 35.7891 35.5586C35.7891 33.2125 37.691 31.3105 40.0371 31.3105H48.7992Z" fill="#FFDECF"/>
<path d="M50.6662 37.5447L48.7998 31.3105H40.0377C39.2051 31.3105 38.429 31.551 37.7734 31.965V39.1521C38.429 39.5662 39.2051 39.8066 40.0377 39.8066H48.9823C50.1592 39.8066 51.0037 38.6723 50.6662 37.5447Z" fill="#FFCDBE"/>
<path d="M40.0372 31.3105H48.7994C49.7702 31.3105 50.5572 30.5236 50.5572 29.5527C50.5572 29.0673 50.3605 28.6279 50.0424 28.3097C49.7244 27.9917 49.2849 27.7948 48.7994 27.7949H40.0373C37.9661 27.7949 36.0172 28.6032 34.5495 30.0708C34.1621 30.4582 33.822 30.88 33.5293 31.3279H39.6613C39.7856 31.3169 39.9109 31.3105 40.0372 31.3105Z" fill="#FFCDBE"/>
<path d="M50.0429 28.3097C49.7248 27.9917 49.2854 27.7948 48.7998 27.7949H40.0377C39.2594 27.7949 38.4982 27.9092 37.7734 28.1296V31.3278H39.6618C39.7861 31.3169 39.9114 31.3105 40.0377 31.3105H48.8C49.7707 31.3105 50.5578 30.5236 50.5578 29.5527C50.5578 29.0672 50.361 28.6278 50.0429 28.3097Z" fill="#FFBEAA"/>
</g>
<defs>
<clipPath id="clip0_4876_39668">
<rect width="60" height="60" fill="white" transform="translate(10 10)"/>
</clipPath>
</defs>
</svg>
