<svg width="96" height="96" viewBox="0 0 96 96" fill="none" xmlns="http://www.w3.org/2000/svg">
<g clip-path="url(#clip0_2413_58885)">
<path d="M48 96C74.5097 96 96 74.5097 96 48C96 21.4903 74.5097 0 48 0C21.4903 0 0 21.4903 0 48C0 74.5097 21.4903 96 48 96Z" fill="url(#paint0_linear_2413_58885)"/>
<path d="M33.3302 31.71C34.8102 31.71 36.0002 30.51 36.0002 29.04V24.59C36.0002 23.11 34.8002 21.92 33.3302 21.92C31.8602 21.92 30.6602 23.12 30.6602 24.59V29.04C30.6602 30.52 31.8602 31.71 33.3302 31.71Z" fill="white"/>
<path d="M45.0499 31.71C46.5299 31.71 47.7199 30.51 47.7199 29.04V24.59C47.7199 23.11 46.5199 21.92 45.0499 21.92C43.5799 21.92 42.3799 23.12 42.3799 24.59V29.04C42.3799 30.52 43.5799 31.71 45.0499 31.71Z" fill="white"/>
<path d="M56.7706 31.71C58.2506 31.71 59.4406 30.51 59.4406 29.04V24.59C59.4406 23.11 58.2406 21.92 56.7706 21.92C55.3006 21.92 54.1006 23.12 54.1006 24.59V29.04C54.1006 30.52 55.3006 31.71 56.7706 31.71Z" fill="white"/>
<path d="M63.74 52.5508C58.24 52.5508 53.79 57.0108 53.79 62.5008C53.79 67.9908 58.25 72.4508 63.74 72.4508C69.23 72.4508 73.69 67.9908 73.69 62.5008C73.69 57.0108 69.23 52.5508 63.74 52.5508ZM69.04 69.2408L64.81 65.0108C64.14 65.4008 63.37 65.6408 62.54 65.6408C60.03 65.6408 57.98 63.5908 57.98 61.0808C57.98 58.5708 60.02 56.5208 62.54 56.5208C65.06 56.5208 67.1 58.5608 67.1 61.0808C67.1 62.1108 66.74 63.0508 66.16 63.8208L70.31 67.9708L69.04 69.2408Z" fill="white"/>
<path d="M62.5403 58.3204C61.0203 58.3204 59.7803 59.5604 59.7803 61.0804C59.7803 62.6004 61.0203 63.8404 62.5403 63.8404C64.0603 63.8404 65.3003 62.6004 65.3003 61.0804C65.3003 59.5604 64.0603 58.3204 62.5403 58.3204Z" fill="white"/>
<path d="M50.7802 62.4992C50.7802 55.3592 56.5902 49.5492 63.7302 49.5492C64.8302 49.5492 65.8802 49.6992 66.9002 49.9592V30.6392C66.9002 28.6992 65.3302 27.1192 63.3802 27.1192H61.9302V29.0392C61.9302 31.8892 59.6102 34.2092 56.7602 34.2092C53.9102 34.2092 51.5902 31.8892 51.5902 29.0392V27.1192H50.2202V29.0392C50.2202 31.8892 47.9002 34.2092 45.0502 34.2092C42.2002 34.2092 39.8802 31.8892 39.8802 29.0392V27.1192H38.5102V29.0392C38.5102 31.8892 36.1902 34.2092 33.3402 34.2092C30.4902 34.2092 28.1702 31.8892 28.1702 29.0392V27.1192H27.5102C25.5702 27.1192 23.9902 28.6892 23.9902 30.6392V71.9392C23.9902 73.8792 25.5602 75.4592 27.5102 75.4592H63.4002C63.4002 75.4592 63.4802 75.4492 63.5202 75.4492C56.4802 75.3192 50.8002 69.5692 50.8002 62.5092L50.7802 62.4992ZM32.1602 42.1692H59.7802C61.2802 42.1692 62.4902 43.3792 62.4902 44.8792C62.4902 46.3792 61.2802 47.5892 59.7802 47.5892H32.1602C30.6602 47.5892 29.4502 46.3792 29.4502 44.8792C29.4502 43.3792 30.6602 42.1692 32.1602 42.1692ZM43.6602 68.6892H32.1702C30.6702 68.6892 29.4602 67.4792 29.4602 65.9792C29.4602 64.4792 30.6702 63.2692 32.1702 63.2692H43.6602C45.1602 63.2692 46.3702 64.4792 46.3702 65.9792C46.3702 67.4792 45.1602 68.6892 43.6602 68.6892ZM46.1702 58.1392H32.1602C30.6602 58.1392 29.4502 56.9292 29.4502 55.4292C29.4502 53.9292 30.6602 52.7192 32.1602 52.7192H46.1702C47.6702 52.7192 48.8802 53.9292 48.8802 55.4292C48.8802 56.9292 47.6702 58.1392 46.1702 58.1392Z" fill="white"/>
</g>
<defs>
<linearGradient id="paint0_linear_2413_58885" x1="48" y1="1.13" x2="48" y2="97.13" gradientUnits="userSpaceOnUse">
<stop stop-color="#25DB86"/>
<stop offset="1" stop-color="#94E226"/>
</linearGradient>
<clipPath id="clip0_2413_58885">
<rect width="96" height="96" fill="white"/>
</clipPath>
</defs>
</svg>
