<svg width="74" height="74" viewBox="0 0 74 74" fill="none" xmlns="http://www.w3.org/2000/svg">
<g filter="url(#filter0_d_4500_40676)">
<rect x="3" y="3" width="66" height="66" rx="33" fill="#34C759"/>
</g>
<path d="M21.7035 21.7035C21.2337 22.1732 20.875 23.074 20.875 25C20.875 25.7594 20.2594 26.375 19.5 26.375C18.7406 26.375 18.125 25.7594 18.125 25C18.125 22.8759 18.4912 21.0267 19.7589 19.7589C21.0267 18.4912 22.8759 18.125 25 18.125C25.7594 18.125 26.375 18.7406 26.375 19.5C26.375 20.2594 25.7594 20.875 25 20.875C23.074 20.875 22.1732 21.2337 21.7035 21.7035Z" fill="white"/>
<path d="M29.3999 33.0667C30.6149 33.0667 31.5999 32.0817 31.5999 30.8667C31.5999 29.6516 30.6149 28.6667 29.3999 28.6667C28.1849 28.6667 27.1999 29.6516 27.1999 30.8667C27.1999 32.0817 28.1849 33.0667 29.3999 33.0667Z" fill="white"/>
<path fill-rule="evenodd" clip-rule="evenodd" d="M28.6667 24.2668H43.3333C47.3834 24.2668 50.6667 27.5501 50.6667 31.6002V40.4002C50.6667 44.4503 47.3834 47.7335 43.3333 47.7335H28.6667C24.6166 47.7335 21.3333 44.4503 21.3333 40.4002V31.6002C21.3333 27.5501 24.6166 24.2668 28.6667 24.2668ZM43.3333 27.0168H28.6667C26.1354 27.0168 24.0833 29.0689 24.0833 31.6002V40.4002C24.0833 41.9625 24.865 43.3422 26.0586 44.1696L28.4743 39.8026C29.3841 38.3981 31.4674 38.4856 32.2561 39.9616C33.1594 41.6519 35.6427 41.4561 36.27 39.6451L37.8117 35.1939C38.4241 33.4256 40.8565 33.2518 41.7141 34.9151L46.0556 44.0879C47.1846 43.2531 47.9167 41.9121 47.9167 40.4002V31.6002C47.9167 29.0689 45.8646 27.0168 43.3333 27.0168Z" fill="white"/>
<path d="M47 18.125C46.2406 18.125 45.625 18.7406 45.625 19.5C45.625 20.2594 46.2406 20.875 47 20.875C48.926 20.875 49.8268 21.2337 50.2965 21.7035C50.7663 22.1732 51.125 23.074 51.125 25C51.125 25.7594 51.7406 26.375 52.5 26.375C53.2594 26.375 53.875 25.7594 53.875 25C53.875 22.8759 53.5088 21.0267 52.2411 19.7589C50.9733 18.4912 49.1241 18.125 47 18.125Z" fill="white"/>
<path d="M52.5 45.625C53.2594 45.625 53.875 46.2406 53.875 47C53.875 49.1241 53.5088 50.9733 52.2411 52.2411C50.9733 53.5088 49.1241 53.875 47 53.875C46.2406 53.875 45.625 53.2594 45.625 52.5C45.625 51.7406 46.2406 51.125 47 51.125C48.926 51.125 49.8268 50.7663 50.2965 50.2965C50.7663 49.8268 51.125 48.926 51.125 47C51.125 46.2406 51.7406 45.625 52.5 45.625Z" fill="white"/>
<path d="M20.875 47C20.875 46.2406 20.2594 45.625 19.5 45.625C18.7406 45.625 18.125 46.2406 18.125 47C18.125 49.1241 18.4912 50.9733 19.7589 52.2411C21.0267 53.5088 22.8759 53.875 25 53.875C25.7594 53.875 26.375 53.2594 26.375 52.5C26.375 51.7406 25.7594 51.125 25 51.125C23.074 51.125 22.1732 50.7663 21.7035 50.2965C21.2337 49.8268 20.875 48.926 20.875 47Z" fill="white"/>
<defs>
<filter id="filter0_d_4500_40676" x="0" y="0" width="74" height="74" filterUnits="userSpaceOnUse" color-interpolation-filters="sRGB">
<feFlood flood-opacity="0" result="BackgroundImageFix"/>
<feColorMatrix in="SourceAlpha" type="matrix" values="0 0 0 0 0 0 0 0 0 0 0 0 0 0 0 0 0 0 127 0" result="hardAlpha"/>
<feOffset dx="1" dy="1"/>
<feGaussianBlur stdDeviation="2"/>
<feComposite in2="hardAlpha" operator="out"/>
<feColorMatrix type="matrix" values="0 0 0 0 0 0 0 0 0 0 0 0 0 0 0 0 0 0 0.25 0"/>
<feBlend mode="normal" in2="BackgroundImageFix" result="effect1_dropShadow_4500_40676"/>
<feBlend mode="normal" in="SourceGraphic" in2="effect1_dropShadow_4500_40676" result="shape"/>
</filter>
</defs>
</svg>
