<svg width="74" height="74" viewBox="0 0 74 74" fill="none" xmlns="http://www.w3.org/2000/svg">
<g filter="url(#filter0_d_4500_40673)">
<rect x="3" y="3" width="66" height="66" rx="33" fill="#34C759"/>
</g>
<path d="M35.0233 50.6254L34.4774 49.2282L35.0233 50.6254ZM26.5725 52.2482L25.8225 53.5472H25.8225L26.5725 52.2482ZM23.7524 44.1181L22.2695 44.344L23.7524 44.1181ZM24.7739 38.6967L26.0729 39.4467L24.7739 38.6967ZM23.5569 41.2744L22.0828 40.9966H22.0828L23.5569 41.2744ZM39.2076 47.0301L40.5067 47.7801L39.2076 47.0301ZM37.5838 49.3728L38.5614 50.5105H38.5614L37.5838 49.3728ZM32.6873 24.9903L31.3883 24.2403L32.6873 24.9903ZM45.822 32.5736L37.9086 46.2801L40.5067 47.7801L48.4201 34.0736L45.822 32.5736ZM26.0729 39.4467L33.9863 25.7403L31.3883 24.2403L23.4748 37.9467L26.0729 39.4467ZM34.4774 49.2282C32.1949 50.12 30.6343 50.7257 29.4279 51.0076C28.2607 51.2803 27.7155 51.1761 27.3225 50.9491L25.8225 53.5472C27.1637 54.3216 28.6052 54.2806 30.1104 53.9289C31.5764 53.5864 33.374 52.8802 35.5692 52.0225L34.4774 49.2282ZM22.2695 44.344C22.6244 46.6739 22.9115 48.5838 23.3479 50.0246C23.796 51.504 24.4812 52.7728 25.8225 53.5472L27.3225 50.9491C26.9294 50.7222 26.5666 50.3022 26.2191 49.155C25.86 47.9693 25.6043 46.3148 25.2353 43.8923L22.2695 44.344ZM23.4748 37.9467C22.8023 39.1117 22.2724 39.9903 22.0828 40.9966L25.031 41.5521C25.1041 41.1638 25.2981 40.7888 26.0729 39.4467L23.4748 37.9467ZM25.2353 43.8923C25.002 42.3602 24.9578 41.9404 25.031 41.5521L22.0828 40.9966C21.8932 42.003 22.067 43.0141 22.2695 44.344L25.2353 43.8923ZM37.9086 46.2801C37.1337 47.6222 36.906 47.9776 36.6063 48.2351L38.5614 50.5105C39.3381 49.8431 39.8341 48.945 40.5067 47.7801L37.9086 46.2801ZM35.5692 52.0225C36.8221 51.533 37.7847 51.1779 38.5614 50.5105L36.6063 48.2351C36.3066 48.4926 35.9209 48.6643 34.4774 49.2282L35.5692 52.0225ZM43.3208 23.2391C45.0586 24.2424 46.2296 24.9222 47.0376 25.5457C47.8111 26.1426 48.0674 26.5523 48.1717 26.9417L51.0695 26.1652C50.7272 24.8875 49.9096 23.9726 48.8704 23.1707C47.8657 22.3953 46.4851 21.6019 44.8208 20.641L43.3208 23.2391ZM48.4201 34.0736C49.381 32.4093 50.1799 31.032 50.6623 29.8581C51.1613 28.644 51.4119 27.4429 51.0695 26.1652L48.1717 26.9417C48.2761 27.331 48.2589 27.814 47.8875 28.7177C47.4996 29.6616 46.8253 30.8359 45.822 32.5736L48.4201 34.0736ZM44.8208 20.641C43.1565 19.6802 41.7792 18.8813 40.6053 18.3988C39.3912 17.8998 38.1901 17.6492 36.9124 17.9916L37.6889 20.8894C38.0783 20.7851 38.5612 20.8022 39.4649 21.1736C40.4088 21.5616 41.5831 22.2358 43.3208 23.2391L44.8208 20.641ZM33.9863 25.7403C34.9896 24.0025 35.6694 22.8315 36.2929 22.0235C36.8898 21.25 37.2995 20.9937 37.6889 20.8894L36.9124 17.9916C35.6347 18.334 34.7198 19.1515 33.9179 20.1907C33.1425 21.1955 32.3491 22.576 31.3883 24.2403L33.9863 25.7403ZM47.871 32.0246L33.4373 23.6913L31.9373 26.2893L46.371 34.6227L47.871 32.0246Z" fill="#F2F2F2"/>
<defs>
<filter id="filter0_d_4500_40673" x="0" y="0" width="74" height="74" filterUnits="userSpaceOnUse" color-interpolation-filters="sRGB">
<feFlood flood-opacity="0" result="BackgroundImageFix"/>
<feColorMatrix in="SourceAlpha" type="matrix" values="0 0 0 0 0 0 0 0 0 0 0 0 0 0 0 0 0 0 127 0" result="hardAlpha"/>
<feOffset dx="1" dy="1"/>
<feGaussianBlur stdDeviation="2"/>
<feComposite in2="hardAlpha" operator="out"/>
<feColorMatrix type="matrix" values="0 0 0 0 0 0 0 0 0 0 0 0 0 0 0 0 0 0 0.25 0"/>
<feBlend mode="normal" in2="BackgroundImageFix" result="effect1_dropShadow_4500_40673"/>
<feBlend mode="normal" in="SourceGraphic" in2="effect1_dropShadow_4500_40673" result="shape"/>
</filter>
</defs>
</svg>