<svg width="96" height="96" viewBox="0 0 96 96" fill="none" xmlns="http://www.w3.org/2000/svg">
<g clip-path="url(#clip0_2413_58913)">
<path d="M48 96C74.5097 96 96 74.5097 96 48C96 21.4903 74.5097 0 48 0C21.4903 0 0 21.4903 0 48C0 74.5097 21.4903 96 48 96Z" fill="url(#paint0_linear_2413_58913)"/>
<path d="M50.1005 55.4615C49.7305 55.4615 49.3705 55.4015 49.0205 55.2815L30.3105 48.7715V60.2315C30.3105 64.0315 39.1705 67.1115 50.1105 67.1115C61.0505 67.1115 69.9106 64.0315 69.9106 60.2315V48.7715L51.1905 55.2815C50.8405 55.4015 50.4705 55.4615 50.1105 55.4615H50.1005Z" fill="white"/>
<path d="M26.3202 54.1209C26.4702 50.3209 28.0802 46.3909 28.8302 44.7609L50.1102 52.1609L85.0202 40.0209L50.1102 27.8809L15.2002 40.0209L25.7902 43.7109C24.8902 45.7109 23.2602 49.9009 23.1202 54.1009C21.7602 54.7109 20.8202 56.0609 20.8202 57.6409C20.8202 58.8309 21.3702 59.8909 22.2102 60.6009C21.5702 64.3709 20.2002 72.9509 20.8202 74.6809C22.9702 74.6309 28.4102 74.6809 28.4102 74.6809C28.4102 74.6809 27.3902 67.1209 27.3802 60.4509C28.1202 59.7409 28.5902 58.7509 28.5902 57.6409C28.5902 56.0709 27.6602 54.7309 26.3202 54.1209Z" fill="white"/>
</g>
<defs>
<linearGradient id="paint0_linear_2413_58913" x1="48" y1="1.13" x2="48" y2="97.13" gradientUnits="userSpaceOnUse">
<stop stop-color="#7760F0"/>
<stop offset="1" stop-color="#1B93D3"/>
</linearGradient>
<clipPath id="clip0_2413_58913">
<rect width="96" height="96" fill="white"/>
</clipPath>
</defs>
</svg>
