<svg width="96" height="96" viewBox="0 0 96 96" fill="none" xmlns="http://www.w3.org/2000/svg">
<g clip-path="url(#clip0_2413_58908)">
<path d="M48 96C74.5097 96 96 74.5097 96 48C96 21.4903 74.5097 0 48 0C21.4903 0 0 21.4903 0 48C0 74.5097 21.4903 96 48 96Z" fill="url(#paint0_linear_2413_58908)"/>
<path d="M70.1008 59.12V58H36.5908C33.5308 58 31.0508 60.48 31.0508 63.54C31.0508 66.6 33.5308 69.08 36.5908 69.08H70.1008V67.96C69.9608 68.01 67.9708 66.02 67.9708 63.54C67.9708 61.06 69.9608 59.07 70.1008 59.12Z" fill="white"/>
<path d="M28.3504 63.5398C28.3504 58.9998 32.0504 55.2998 36.5904 55.2998H70.0004V32.5198C70.0004 28.9698 67.1204 26.0898 63.5704 26.0898H55.9404V46.2798L52.4704 41.0398L49.0004 46.2798V26.0898H32.3704C28.8204 26.0898 25.9404 28.9698 25.9404 32.5198V67.5498C25.9404 71.0998 28.8204 73.9798 32.3704 73.9798H69.9904V71.7798H36.5804C32.0404 71.7798 28.3404 68.0798 28.3404 63.5398H28.3504Z" fill="white"/>
</g>
<defs>
<linearGradient id="paint0_linear_2413_58908" x1="48" y1="1.13" x2="48" y2="97.13" gradientUnits="userSpaceOnUse">
<stop stop-color="#EF7379"/>
<stop offset="1" stop-color="#DC4B3E"/>
</linearGradient>
<clipPath id="clip0_2413_58908">
<rect width="96" height="96" fill="white"/>
</clipPath>
</defs>
</svg>
