<svg width="80" height="80" viewBox="0 0 80 80" fill="none" xmlns="http://www.w3.org/2000/svg">
<rect width="80" height="80" rx="40" fill="#FFD0D0" fill-opacity="0.8"/>
<path d="M19.2207 55.9407L60.7786 14.3828" stroke="#FC7E7E" stroke-width="3.66688" stroke-linecap="round"/>
<path d="M30.7966 51.8465C29.9275 52.7156 30.111 54.1737 31.2318 54.678C33.214 55.5699 35.3565 56.1686 37.6041 56.4191C37.9468 56.4573 38.166 56.818 38.166 57.1628V60.3323C38.166 61.2506 37.4812 62.014 36.5903 62.2367L34.6656 62.7179C33.6833 62.9635 33.086 63.9589 33.3316 64.9413C33.5772 65.9236 34.5726 66.5209 35.555 66.2753L37.4797 65.7941C39.1341 65.3805 40.8649 65.3805 42.5193 65.7941L44.444 66.2753C45.4263 66.5209 46.4218 65.9236 46.6673 64.9413C46.9129 63.9589 46.3157 62.9635 45.3333 62.7179L43.4086 62.2367C42.5178 62.014 41.8329 61.2506 41.8329 60.3323V57.1628C41.8329 56.818 42.0531 56.4572 42.3958 56.419C53.0813 55.2278 61.3896 46.1649 61.3896 35.1616C61.3896 34.149 60.5687 33.3282 59.5561 33.3282C58.5436 33.3282 57.7227 34.149 57.7227 35.1616C57.7227 44.9499 49.7878 52.8848 39.9995 52.8848C37.5247 52.8848 35.1683 52.3776 33.0287 51.4614C32.2706 51.1367 31.3798 51.2633 30.7966 51.8465Z" fill="#FC7E7E"/>
<path d="M38.879 43.7641C37.7591 44.884 38.2519 46.7503 39.8356 46.7722C39.8901 46.773 39.9448 46.7734 39.9995 46.7734C46.4125 46.7734 51.6113 41.5746 51.6113 35.1616C51.6113 33.6376 49.7687 32.8744 48.6911 33.952L48.2717 34.3714C48.0621 34.581 47.9444 34.8652 47.9444 35.1616C47.9444 39.5494 44.3873 43.1065 39.9995 43.1065C39.7128 43.1065 39.4333 43.2098 39.2306 43.4125L38.879 43.7641Z" fill="#FC7E7E"/>
<path d="M34.0103 40.382C34.7493 41.2291 34.9017 42.5556 34.1069 43.3505C33.4819 43.9755 32.4806 44.0544 31.851 43.4342C29.7131 41.3281 28.3877 38.3996 28.3877 35.1616V25.3833C28.3877 18.9703 33.5865 13.7715 39.9995 13.7715C46.4125 13.7715 51.6113 18.9703 51.6113 25.3833C51.6113 25.6796 51.4935 25.9638 51.284 26.1734L50.8645 26.5928C49.7869 27.6704 47.9444 26.9072 47.9444 25.3833C47.9444 20.9954 44.3873 17.4384 39.9995 17.4384C35.6116 17.4384 32.0546 20.9954 32.0546 25.3833V35.1616C32.0546 37.1599 32.7923 38.9859 34.0103 40.382Z" fill="#FC7E7E"/>
<path d="M27.2104 47.4316C27.9513 48.2036 28.0152 49.4422 27.2585 50.1988C26.5858 50.8716 25.5019 50.9179 24.831 50.2432C20.9857 46.3758 18.6094 41.0462 18.6094 35.1616C18.6094 34.149 19.4302 33.3282 20.4428 33.3282C21.4554 33.3282 22.2763 34.149 22.2763 35.1616C22.2763 39.9237 24.1544 44.2471 27.2104 47.4316Z" fill="#FC7E7E"/>
</svg>
