<svg width="96" height="96" viewBox="0 0 96 96" fill="none" xmlns="http://www.w3.org/2000/svg">
<g clip-path="url(#clip0_2413_58872)">
<g clip-path="url(#clip1_2413_58872)">
<path d="M48 96C74.5097 96 96 74.5097 96 48C96 21.4903 74.5097 0 48 0C21.4903 0 0 21.4903 0 48C0 74.5097 21.4903 96 48 96Z" fill="url(#paint0_linear_2413_58872)"/>
<path d="M64.4145 29.6883L57.2388 30.6508C55.8977 30.8307 54.9564 32.0637 55.1363 33.4048L59.5382 66.2209C59.7181 67.562 60.9511 68.5033 62.2922 68.3234L69.4679 67.3609C70.809 67.181 71.7503 65.948 71.5704 64.6069L67.1685 31.7908C66.9886 30.4497 65.7556 29.5084 64.4145 29.6883Z" fill="white"/>
<path d="M48.7701 30.4395H41.5301C40.1801 30.4395 39.0801 31.5395 39.0801 32.8895V65.9995C39.0801 67.3495 40.1801 68.4494 41.5301 68.4494H48.7701C50.1201 68.4494 51.2201 67.3495 51.2201 65.9995V32.8895C51.2201 31.5395 50.1201 30.4395 48.7701 30.4395ZM47.4801 53.8095H42.8101C41.8101 53.8095 40.9901 52.9995 40.9901 51.9895C40.9901 50.9795 41.8001 50.1695 42.8101 50.1695H47.4801C48.4801 50.1695 49.3001 50.9795 49.3001 51.9895C49.3001 52.9995 48.4901 53.8095 47.4801 53.8095ZM47.4801 47.8295H42.8101C41.8101 47.8295 40.9901 47.0195 40.9901 46.0095C40.9901 44.9995 41.8001 44.1895 42.8101 44.1895H47.4801C48.4801 44.1895 49.3001 44.9995 49.3001 46.0095C49.3001 47.0195 48.4901 47.8295 47.4801 47.8295Z" fill="white"/>
<path d="M33.6304 30.4395H26.3904C25.0404 30.4395 23.9404 31.5395 23.9404 32.8895V65.9995C23.9404 67.3495 25.0404 68.4494 26.3904 68.4494H33.6304C34.9804 68.4494 36.0804 67.3495 36.0804 65.9995V32.8895C36.0804 31.5395 34.9804 30.4395 33.6304 30.4395ZM32.3504 56.4195H27.6804C26.6804 56.4195 25.8604 55.6095 25.8604 54.5995C25.8604 53.5895 26.6704 52.7795 27.6804 52.7795H32.3504C33.3504 52.7795 34.1704 53.5895 34.1704 54.5995C34.1704 55.6095 33.3604 56.4195 32.3504 56.4195ZM32.3504 50.8195H27.6804C26.6804 50.8195 25.8604 50.0095 25.8604 48.9995C25.8604 47.9895 26.6704 47.1795 27.6804 47.1795H32.3504C33.3504 47.1795 34.1704 47.9895 34.1704 48.9995C34.1704 50.0095 33.3604 50.8195 32.3504 50.8195ZM32.3504 44.8395H27.6804C26.6804 44.8395 25.8604 44.0295 25.8604 43.0195C25.8604 42.0095 26.6704 41.1995 27.6804 41.1995H32.3504C33.3504 41.1995 34.1704 42.0095 34.1704 43.0195C34.1704 44.0295 33.3604 44.8395 32.3504 44.8395Z" fill="white"/>
</g>
</g>
<defs>
<linearGradient id="paint0_linear_2413_58872" x1="48" y1="1.79" x2="48" y2="97.79" gradientUnits="userSpaceOnUse">
<stop stop-color="#4992F1"/>
<stop offset="1" stop-color="#24ABC9"/>
</linearGradient>
<clipPath id="clip0_2413_58872">
<rect width="96" height="96" fill="white"/>
</clipPath>
<clipPath id="clip1_2413_58872">
<rect width="96" height="96" fill="white"/>
</clipPath>
</defs>
</svg>
