<svg width="80" height="80" viewBox="0 0 80 80" fill="none" xmlns="http://www.w3.org/2000/svg">
<rect width="80" height="80" rx="40" fill="#EDFFE9"/>
<path d="M61.3878 35.1102C61.3878 34.0977 60.567 33.2769 59.5545 33.2769C58.542 33.2769 57.7211 34.0977 57.7211 35.1102H61.3878ZM22.2767 35.1102C22.2767 34.0977 21.4559 33.2769 20.4434 33.2769C19.4308 33.2769 18.61 34.0977 18.61 35.1102H22.2767ZM34.6654 62.665C33.6831 62.9106 33.0859 63.9059 33.3314 64.8882C33.577 65.8705 34.5724 66.4677 35.5547 66.2222L34.6654 62.665ZM37.0346 63.9624L36.5899 62.1838L36.5899 62.1838L37.0346 63.9624ZM42.9632 63.9624L43.4079 62.1838L43.4079 62.1838L42.9632 63.9624ZM44.4432 66.2222C45.4254 66.4677 46.4208 65.8705 46.6664 64.8882C46.912 63.9059 46.3147 62.9106 45.3325 62.665L44.4432 66.2222ZM39.9989 63.5975L39.9989 65.4308L39.9989 63.5975ZM47.9434 25.3325V35.1102H51.61V25.3325H47.9434ZM32.0545 35.1102V25.3325H28.3878V35.1102H32.0545ZM39.9989 43.0547C35.6113 43.0547 32.0545 39.4978 32.0545 35.1102H28.3878C28.3878 41.5229 33.5863 46.7214 39.9989 46.7214V43.0547ZM47.9434 35.1102C47.9434 39.4978 44.3865 43.0547 39.9989 43.0547V46.7214C46.4116 46.7214 51.61 41.5229 51.61 35.1102H47.9434ZM39.9989 17.388C44.3865 17.388 47.9434 20.9449 47.9434 25.3325H51.61C51.61 18.9198 46.4116 13.7214 39.9989 13.7214V17.388ZM39.9989 13.7214C33.5863 13.7214 28.3878 18.9198 28.3878 25.3325H32.0545C32.0545 20.9449 35.6113 17.388 39.9989 17.388V13.7214ZM57.7211 35.1102C57.7211 44.898 49.7866 52.8325 39.9989 52.8325V56.4991C51.8117 56.4991 61.3878 46.923 61.3878 35.1102H57.7211ZM39.9989 52.8325C30.2112 52.8325 22.2767 44.898 22.2767 35.1102H18.61C18.61 46.923 28.1862 56.4991 39.9989 56.4991V52.8325ZM38.1656 54.6658V61.9991H41.8323V54.6658H38.1656ZM35.5547 66.2222L37.4792 65.741L36.5899 62.1838L34.6654 62.665L35.5547 66.2222ZM42.5186 65.741L44.4432 66.2222L45.3325 62.665L43.4079 62.1838L42.5186 65.741ZM37.4792 65.741C38.3064 65.5342 39.1527 65.4308 39.9989 65.4308L39.9989 61.7642C38.854 61.7642 37.709 61.9041 36.5899 62.1838L37.4792 65.741ZM39.9989 65.4308C40.8452 65.4308 41.6914 65.5342 42.5186 65.741L43.4079 62.1838C42.2888 61.9041 41.1438 61.7642 39.9989 61.7642L39.9989 65.4308ZM38.1656 61.9991V63.5975H41.8323V61.9991H38.1656Z" fill="#34C759"/>
</svg>
