<svg width="80" height="80" viewBox="0 0 80 80" fill="none" xmlns="http://www.w3.org/2000/svg">
<g clip-path="url(#clip0_4876_39689)">
<path d="M40 62.7344C32.957 62.7344 26.3357 59.9917 21.3556 55.0116C16.3755 50.0315 13.6328 43.4102 13.6328 36.3672C13.6328 29.3242 16.3755 22.7029 21.3556 17.7228C26.3357 12.7427 32.957 10 40 10C47.043 10 53.6643 12.7427 58.6444 17.7228C63.6245 22.7029 66.3672 29.3242 66.3672 36.3672C66.3672 43.4102 63.6245 50.0315 58.6444 55.0116C53.6643 59.9917 47.043 62.7344 40 62.7344Z" fill="#FF6C6C"/>
<path d="M58.6444 55.0116C63.6245 50.0315 66.3672 43.4102 66.3672 36.3672C66.3672 29.3242 63.6245 22.7029 58.6444 17.7228C53.6643 12.7427 47.043 10 40 10V62.7344C47.043 62.7344 53.6643 59.9917 58.6444 55.0116Z" fill="#FF1F3E"/>
<path d="M40 59.2188C52.6206 59.2188 62.8516 48.9878 62.8516 36.3672C62.8516 23.7466 52.6206 13.5156 40 13.5156C27.3794 13.5156 17.1484 23.7466 17.1484 36.3672C17.1484 48.9878 27.3794 59.2188 40 59.2188Z" fill="#FFF5F5"/>
<path d="M62.8516 36.3672C62.8516 23.7668 52.6004 13.5156 40 13.5156V59.2188C52.6004 59.2188 62.8516 48.9675 62.8516 36.3672Z" fill="#ECE9E8"/>
<path d="M39.3242 38.7598L42.4039 37.0617L59.1363 67.4087L56.0566 69.1067L39.3242 38.7598Z" fill="#2C0652"/>
<path d="M20.8965 67.3965L37.6289 37.0495L40.7086 38.7476L23.9762 69.0945L20.8965 67.3965Z" fill="#4B1B7A"/>
<path d="M54.0625 46.3281C56.9749 46.3281 59.3359 43.9671 59.3359 41.0547C59.3359 38.1422 56.9749 35.7812 54.0625 35.7812C51.1501 35.7812 48.7891 38.1422 48.7891 41.0547C48.7891 43.9671 51.1501 46.3281 54.0625 46.3281Z" fill="#00FF94"/>
<path d="M54.0625 35.7812V46.3281C56.9703 46.3281 59.3359 43.9625 59.3359 41.0547C59.3359 38.1469 56.9703 35.7812 54.0625 35.7812Z" fill="#00DD80"/>
<path d="M25.9375 46.3281C28.8499 46.3281 31.2109 43.9671 31.2109 41.0547C31.2109 38.1422 28.8499 35.7812 25.9375 35.7812C23.0251 35.7812 20.6641 38.1422 20.6641 41.0547C20.6641 43.9671 23.0251 46.3281 25.9375 46.3281Z" fill="#FFE89C"/>
<path d="M25.9375 35.7812V46.3281C28.8453 46.3281 31.2109 43.9625 31.2109 41.0547C31.2109 38.1469 28.8453 35.7812 25.9375 35.7812Z" fill="#FFCD00"/>
<path d="M40 27.5781C42.9124 27.5781 45.2734 25.2171 45.2734 22.3047C45.2734 19.3922 42.9124 17.0312 40 17.0312C37.0876 17.0312 34.7266 19.3922 34.7266 22.3047C34.7266 25.2171 37.0876 27.5781 40 27.5781Z" fill="#FF6C6C"/>
<path d="M51.7188 33.4375C54.6312 33.4375 56.9922 31.0765 56.9922 28.1641C56.9922 25.2516 54.6312 22.8906 51.7188 22.8906C48.8063 22.8906 46.4453 25.2516 46.4453 28.1641C46.4453 31.0765 48.8063 33.4375 51.7188 33.4375Z" fill="#FFE89C"/>
<path d="M51.7188 22.8906V33.4375C54.6265 33.4375 56.9922 31.0718 56.9922 28.1641C56.9922 25.2563 54.6265 22.8906 51.7188 22.8906Z" fill="#FFCD00"/>
<path d="M25.0963 32.8133C24.1841 32.481 23.7138 31.4723 24.0461 30.5601C25.0677 27.7551 26.8085 25.2638 29.0803 23.3553C29.8236 22.7308 30.9325 22.8273 31.557 23.5706C32.1815 24.3139 32.085 25.4227 31.3417 26.0472C29.541 27.5599 28.1605 29.5365 27.3496 31.7632C27.0172 32.6752 26.0085 33.1455 25.0963 32.8133Z" fill="#613394"/>
<path d="M40 41.6406C42.9124 41.6406 45.2734 39.2796 45.2734 36.3672C45.2734 33.4547 42.9124 31.0938 40 31.0938C37.0876 31.0938 34.7266 33.4547 34.7266 36.3672C34.7266 39.2796 37.0876 41.6406 40 41.6406Z" fill="#613394"/>
<path d="M45.2734 22.3047C45.2734 19.3969 42.9078 17.0312 40 17.0312V27.5781C42.9078 27.5781 45.2734 25.2125 45.2734 22.3047Z" fill="#FF1F3E"/>
<path d="M45.2734 36.3672C45.2734 33.4594 42.9078 31.0938 40 31.0938V41.6406C42.9078 41.6406 45.2734 39.275 45.2734 36.3672Z" fill="#4B1B7A"/>
<path d="M68.2422 69.998H11.7578C10.787 69.998 10 69.211 10 68.2402C10 67.2695 10.787 66.4824 11.7578 66.4824H68.2422C69.213 66.4824 70 67.2695 70 68.2402C70 69.211 69.213 69.998 68.2422 69.998Z" fill="#613394"/>
<path d="M68.2422 66.4824H40V69.998H68.2422C69.213 69.998 70 69.211 70 68.2402C70 67.2695 69.213 66.4824 68.2422 66.4824Z" fill="#4B1B7A"/>
</g>
<defs>
<clipPath id="clip0_4876_39689">
<rect width="60" height="60" fill="white" transform="translate(10 10)"/>
</clipPath>
</defs>
</svg>
