<svg width="50" height="50" viewBox="0 0 50 50" fill="none" xmlns="http://www.w3.org/2000/svg">
<path d="M35.0332 29.267C35.0332 30.7674 36.246 31.9802 37.7464 31.9802C39.2468 31.9802 40.4596 30.7674 40.4596 29.267C40.4596 27.7665 39.2468 26.5537 37.7464 26.5537C36.246 26.5537 35.0332 27.7665 35.0332 29.267Z" fill="url(#paint0_linear_17583_227587)"/>
<path d="M50 16.4996C50 13.6739 47.7119 11.3857 44.8862 11.3857H5.11378C2.28807 11.3857 0 13.6739 0 16.4996V43.4695C0 46.2953 2.28807 48.5834 5.11378 48.5834H44.8862C47.7119 48.5834 50 46.2953 50 43.4695V35.1672H38.5847C35.3213 35.1672 32.6832 32.529 32.6832 29.2656C32.6832 26.0022 35.3213 23.364 38.5847 23.364H50V16.4996Z" fill="url(#paint1_linear_17583_227587)"/>
<path d="M39.1604 3.14747C38.2976 1.28446 36.0846 0.484241 34.2341 1.34698L18.0176 8.88653H41.836L39.1604 3.14747Z" fill="url(#paint2_linear_17583_227587)"/>
<defs>
<linearGradient id="paint0_linear_17583_227587" x1="37.7464" y1="55.6116" x2="37.7464" y2="-5.43001" gradientUnits="userSpaceOnUse">
<stop stop-color="#F556B0"/>
<stop offset="1" stop-color="#FA89D5"/>
</linearGradient>
<linearGradient id="paint1_linear_17583_227587" x1="24.9937" y1="71.2771" x2="24.9937" y2="71.2771" gradientUnits="userSpaceOnUse">
<stop stop-color="#F556B0"/>
<stop offset="1" stop-color="#FA89D5"/>
</linearGradient>
<linearGradient id="paint2_linear_17583_227587" x1="29.9331" y1="55.6118" x2="29.9331" y2="-5.42987" gradientUnits="userSpaceOnUse">
<stop stop-color="#F556B0"/>
<stop offset="1" stop-color="#FA89D5"/>
</linearGradient>
</defs>
</svg>
