<svg width="50" height="50" viewBox="0 0 50 50" fill="none" xmlns="http://www.w3.org/2000/svg">
<path d="M41.4702 6.65999C35.5002 2.88999 30.1202 5.54999 27.2402 7.7C27.2702 7.73 27.3202 7.73999 27.3502 7.77999L34.7202 15.34C35.3002 15.93 35.2902 16.88 34.6902 17.46C34.1002 18.04 33.1502 18.03 32.5702 17.43L25.2002 9.87C25.1302 9.8 25.1002 9.70999 25.0502 9.63999L25.0102 9.67999C25.0102 9.67999 17.4302 1.04999 8.55017 6.65999C-0.329828 12.27 1.08017 21.33 3.77017 24.42C5.34017 26.22 20.0702 42.72 22.1802 44.18C23.7302 45.25 25.0002 45.24 25.0002 45.24C25.0002 45.24 26.2702 45.24 27.8202 44.18C29.9302 42.72 44.6602 26.22 46.2302 24.42C48.9302 21.33 50.3302 12.27 41.4502 6.65999H41.4702Z" fill="url(#paint0_linear_2413_56385)"/>
<defs>
<linearGradient id="paint0_linear_2413_56385" x1="25.0002" y1="45.24" x2="25.0002" y2="4.75999" gradientUnits="userSpaceOnUse">
<stop stop-color="#F55959"/>
<stop offset="1" stop-color="#FA8686"/>
</linearGradient>
</defs>
</svg>
