<svg width="96" height="96" viewBox="0 0 96 96" fill="none" xmlns="http://www.w3.org/2000/svg">
<g clip-path="url(#clip0_2413_56424)">
<path d="M54.5199 23.5601C52.4665 23.0401 50.3065 22.7734 48.0932 22.7734C33.4265 22.7734 21.5332 34.6668 21.5332 49.3334C21.5332 64.0001 33.4265 75.8801 48.0932 75.8801C51.0932 75.8801 53.9865 75.3868 56.6799 74.4534L46.6799 49.3868L54.5199 23.5601Z" fill="#AEAEB1"/>
<path d="M69.7198 29.5334C66.7731 26.0801 62.9464 23.4134 58.5864 21.8534L52.1064 43.2267L69.7198 29.5334Z" fill="#34C759"/>
<path d="M69.8394 34.1201L49.7061 49.7735L59.1461 73.4668C68.2927 69.2934 74.6394 60.0535 74.6394 49.3335C74.6394 43.6668 72.8661 38.4268 69.8394 34.1201Z" fill="#AEAEB1"/>
</g>
<defs>
<clipPath id="clip0_2413_56424">
<rect width="96" height="96" fill="white"/>
</clipPath>
</defs>
</svg>
