<svg width="96" height="96" viewBox="0 0 96 96" fill="none" xmlns="http://www.w3.org/2000/svg">
<path d="M63.1863 23.5466H32.2797C31.3063 23.5466 30.3997 24.0533 29.8797 24.8933L19.173 42.52C18.533 43.5733 18.653 44.9066 19.4663 45.8266L45.6263 75.4666C46.7463 76.7333 48.7063 76.7333 49.8263 75.4666L75.9863 45.8266C76.7997 44.9066 76.9197 43.56 76.2797 42.52L65.573 24.8933C65.0663 24.0533 64.1597 23.5466 63.173 23.5466H63.1863ZM50.573 48.6933L47.7463 51.52L44.9197 48.6933L39.3597 43.1333C38.573 42.3466 38.573 41.08 39.3597 40.3066C40.1463 39.52 41.413 39.52 42.1863 40.3066L47.7463 45.8666L53.3063 40.3066C54.093 39.52 55.3597 39.52 56.133 40.3066C56.9197 41.0933 56.9197 42.36 56.133 43.1333L50.573 48.6933Z" fill="#AEAEB1"/>
</svg>
