<svg width="50" height="50" viewBox="0 0 50 50" fill="none" xmlns="http://www.w3.org/2000/svg">
<path d="M38.3448 2H11.6667C10.8266 2 10.044 2.43734 9.59511 3.16242L0.353326 18.3774C-0.19911 19.2866 -0.0955279 20.4375 0.606525 21.2317L23.1873 46.8163C24.1541 47.9097 25.8459 47.9097 26.8127 46.8163L49.3935 21.2317C50.0955 20.4375 50.1991 19.2751 49.6467 18.3774L40.4049 3.16242C39.9675 2.43734 39.1849 2 38.3333 2H38.3448ZM27.4572 23.7061L25.0173 26.146L22.5773 23.7061L17.7781 18.9068C17.099 18.2278 17.099 17.1344 17.7781 16.4669C18.4571 15.7879 19.5505 15.7879 20.218 16.4669L25.0173 21.2662L29.8165 16.4669C30.4956 15.7879 31.5889 15.7879 32.2565 16.4669C32.9355 17.1459 32.9355 18.2393 32.2565 18.9068L27.4572 23.7061Z" fill="url(#paint0_linear_6454_175734)"/>
<defs>
<linearGradient id="paint0_linear_6454_175734" x1="25.0058" y1="47.6335" x2="25.0058" y2="2" gradientUnits="userSpaceOnUse">
<stop stop-color="#F99553"/>
<stop offset="1" stop-color="#FCC083"/>
</linearGradient>
</defs>
</svg>
