<svg width="50" height="50" viewBox="0 0 50 50" fill="none" xmlns="http://www.w3.org/2000/svg">
<g clip-path="url(#clip0_2413_56457)">
<path d="M29.5899 30.2134C33.9299 28.2434 36.7899 23.5834 35.9999 18.3534C35.2599 13.4734 31.2399 9.60342 26.3399 9.04342C19.5999 8.26342 13.8799 13.5134 13.8799 20.0934C13.8799 24.6034 16.5599 28.4734 20.4199 30.2234C11.6499 33.4434 9.34991 40.5034 8.74991 43.6834C8.58991 44.5234 9.23991 45.2934 10.0899 45.2934H39.9199C40.7699 45.2934 41.4199 44.5234 41.2599 43.6834C40.6599 40.5034 38.3599 33.4534 29.5899 30.2234V30.2134Z" fill="url(#paint0_linear_2413_56457)"/>
<path d="M15.6503 29.8434C13.0403 27.3334 11.4803 23.8234 11.4803 20.0934C11.4803 18.1834 11.8803 16.3734 12.6003 14.7234C8.78031 15.1334 5.80031 18.3734 5.80031 22.3034C5.80031 25.3934 7.64031 28.0434 10.2803 29.2434C4.27031 31.4534 2.69031 36.2834 2.28031 38.4634C2.17031 39.0334 2.62031 39.5634 3.20031 39.5634H7.46031C8.68031 36.4834 11.0503 32.6234 15.6503 29.8434Z" fill="url(#paint1_linear_2413_56457)"/>
<path d="M40.2701 29.2434C43.2401 27.8934 45.2001 24.6934 44.6601 21.1134C44.1501 17.7734 41.3901 15.1234 38.0401 14.7334C37.8301 14.7134 37.6201 14.7034 37.4201 14.6934C37.8701 15.7334 38.2001 16.8434 38.3701 18.0034C39.0501 22.5234 37.5001 26.8834 34.3701 29.8634C38.9701 32.6534 41.3301 36.4934 42.5501 39.5734H47.3501C47.9301 39.5734 48.3801 39.0434 48.2701 38.4734C47.8601 36.2934 46.2801 31.4534 40.2701 29.2534V29.2434Z" fill="url(#paint2_linear_2413_56457)"/>
</g>
<defs>
<linearGradient id="paint0_linear_2413_56457" x1="24.9999" y1="47.6034" x2="24.9999" y2="15.7434" gradientUnits="userSpaceOnUse">
<stop stop-color="#3257EB"/>
<stop offset="1" stop-color="#82A7FD"/>
</linearGradient>
<linearGradient id="paint1_linear_2413_56457" x1="8.95031" y1="47.6034" x2="8.95031" y2="15.7434" gradientUnits="userSpaceOnUse">
<stop stop-color="#3257EB"/>
<stop offset="1" stop-color="#82A7FD"/>
</linearGradient>
<linearGradient id="paint2_linear_2413_56457" x1="41.3301" y1="47.6034" x2="41.3301" y2="15.7434" gradientUnits="userSpaceOnUse">
<stop stop-color="#3257EB"/>
<stop offset="1" stop-color="#82A7FD"/>
</linearGradient>
<clipPath id="clip0_2413_56457">
<rect width="47" height="38.5417" fill="white" transform="translate(2 8.33337)"/>
</clipPath>
</defs>
</svg>
