<svg width="96" height="96" viewBox="0 0 96 96" fill="none" xmlns="http://www.w3.org/2000/svg">
<g clip-path="url(#clip0_2413_56406)">
<path d="M27.9863 53.2933H45.813V75.0533H31.3997C29.5197 75.0533 27.9863 73.52 27.9863 71.64V53.2933Z" fill="#AEAEB1"/>
<path d="M68.1733 53.2933V71.64C68.1733 73.52 66.64 75.0533 64.76 75.0533H50.3467V53.2933H68.1733Z" fill="#34C759"/>
<path d="M68.16 33.2133H64.9867C66.3067 31.3333 66.8133 29.2399 66.32 27.1199C65.6267 24.1466 63.04 21.9999 59.8933 21.7999C52.1733 21.2799 49.1467 29.9333 48.28 33.1999H47.8267C46.96 29.9199 43.9333 21.2799 36.2133 21.7999C33.0667 21.9999 30.48 24.1466 29.7867 27.1199C29.2933 29.2266 29.7867 31.3333 31.12 33.2133H27.9733C25.7733 33.2133 24 34.9866 24 37.1866V44.7999C24 46.9866 25.7733 48.7733 27.96 48.7733H45.7867V38.6399H50.3067V48.7733H68.1333C70.32 48.7733 72.0933 46.9866 72.0933 44.7999V37.1866C72.0933 34.9866 70.32 33.2133 68.12 33.2133H68.16ZM33.2933 27.9466C33.6267 26.5066 34.8667 25.5066 36.44 25.3999C40.8667 25.0933 43.1333 30.3066 44.0533 33.2133H36.2667C33.9733 31.6799 32.8667 29.7466 33.28 27.9466H33.2933ZM59.84 33.2133H52.0533C52.9733 30.3066 55.24 25.0933 59.6667 25.3999C61.24 25.5066 62.48 26.5066 62.8133 27.9466C63.24 29.7466 62.12 31.6799 59.8267 33.2133H59.84Z" fill="#AEAEB1"/>
</g>
<defs>
<clipPath id="clip0_2413_56406">
<rect width="96" height="96" fill="white"/>
</clipPath>
</defs>
</svg>
