<svg width="50" height="50" viewBox="0 0 50 50" fill="none" xmlns="http://www.w3.org/2000/svg">
<path d="M39.3103 19.06C39.3103 10.16 31.0803 2.94995 20.9403 2.94995C10.8003 2.94995 2.57031 10.17 2.57031 19.07C2.57031 24.34 5.47031 29.01 9.93031 31.95V40.0299L17.1003 34.82C18.3403 35.05 19.6203 35.18 20.9403 35.18C31.0903 35.18 39.3103 27.96 39.3103 19.07V19.06ZM11.9703 21.72C10.5903 21.72 9.48031 20.5999 9.48031 19.2299C9.48031 17.8599 10.6003 16.74 11.9703 16.74C13.3403 16.74 14.4603 17.8599 14.4603 19.2299C14.4603 20.5999 13.3403 21.72 11.9703 21.72ZM29.9103 16.73C31.2903 16.73 32.4003 17.85 32.4003 19.22C32.4003 20.59 31.2803 21.7099 29.9103 21.7099C28.5403 21.7099 27.4203 20.59 27.4203 19.22C27.4203 17.85 28.5403 16.73 29.9103 16.73ZM18.4403 19.2299C18.4403 17.8499 19.5603 16.74 20.9303 16.74C22.3003 16.74 23.4203 17.8599 23.4203 19.2299C23.4203 20.5999 22.3003 21.72 20.9303 21.72C19.5603 21.72 18.4403 20.5999 18.4403 19.2299Z" fill="url(#paint0_linear_2413_56387)"/>
<path d="M41.6602 14.38C42.0802 15.88 42.3102 17.45 42.3102 19.07C42.3102 29.61 32.7202 38.19 20.9402 38.19C19.9202 38.19 18.8902 38.12 17.8602 37.98L17.2402 38.43C20.4402 40.79 24.5602 42.21 29.0602 42.21C30.3702 42.21 31.6502 42.09 32.8902 41.85L40.0702 47.06V38.98C44.5302 36.04 47.4302 31.37 47.4302 26.1C47.4302 21.48 45.2102 17.31 41.6602 14.38Z" fill="url(#paint1_linear_2413_56387)"/>
<defs>
<linearGradient id="paint0_linear_2413_56387" x1="20.9403" y1="2.94995" x2="20.9403" y2="40.0199" gradientUnits="userSpaceOnUse">
<stop stop-color="#18DC97"/>
<stop offset="1" stop-color="#0CC068"/>
</linearGradient>
<linearGradient id="paint1_linear_2413_56387" x1="32.3302" y1="14.38" x2="32.3302" y2="47.05" gradientUnits="userSpaceOnUse">
<stop stop-color="#18DC97"/>
<stop offset="1" stop-color="#0CC068"/>
</linearGradient>
</defs>
</svg>
