<svg width="50" height="50" viewBox="0 0 50 50" fill="none" xmlns="http://www.w3.org/2000/svg">
<path d="M43.2995 27.9501C40.0095 27.0801 38.5295 29.7601 38.5295 29.7601C38.5295 29.7601 37.0495 27.0701 33.7595 27.9501C30.4695 28.8301 26.9695 34.0701 38.5295 41.6001C50.0895 34.0701 46.5995 28.8301 43.2995 27.9501Z" fill="url(#paint0_linear_2413_56398)"/>
<path d="M27.8502 30.86C28.0302 29.71 28.5302 28.66 29.2202 27.77C27.6902 27.3 26.2002 26.97 24.9302 26.75C29.3902 25.18 32.6002 20.94 32.6002 15.94C32.6002 9.60997 27.4702 4.46997 21.1302 4.46997C14.7902 4.46997 9.66016 9.59997 9.66016 15.94C9.66016 20.94 12.8602 25.18 17.3302 26.75C11.9102 27.7 2.69016 30.49 2.06016 38.53C1.54016 45.19 25.2902 46.67 35.5702 42.97C28.4502 37.91 27.4102 33.63 27.8502 30.86Z" fill="url(#paint1_linear_2413_56398)"/>
<defs>
<linearGradient id="paint0_linear_2413_56398" x1="38.5295" y1="27.7801" x2="38.5295" y2="41.6001" gradientUnits="userSpaceOnUse">
<stop stop-color="#97AFFB"/>
<stop offset="1" stop-color="#465CEA"/>
</linearGradient>
<linearGradient id="paint1_linear_2413_56398" x1="18.8102" y1="4.46997" x2="18.8102" y2="44.95" gradientUnits="userSpaceOnUse">
<stop stop-color="#97AFFB"/>
<stop offset="1" stop-color="#465CEA"/>
</linearGradient>
</defs>
</svg>
