<svg width="50" height="50" viewBox="0 0 50 50" fill="none" xmlns="http://www.w3.org/2000/svg">
<path d="M5.44828 31.6552C4.64842 31.6552 4 32.3036 4 33.1034C4 33.9033 4.64842 34.5517 5.44828 34.5517H11.2414C12.0412 34.5517 12.6897 33.9033 12.6897 33.1034C12.6897 32.3036 12.0412 31.6552 11.2414 31.6552H5.44828Z" fill="#FAFAFA"/>
<path d="M5.44828 31.6552C4.64842 31.6552 4 32.3036 4 33.1034C4 33.9033 4.64842 34.5517 5.44828 34.5517H11.2414C12.0412 34.5517 12.6897 33.9033 12.6897 33.1034C12.6897 32.3036 12.0412 31.6552 11.2414 31.6552H5.44828Z" fill="url(#paint0_linear_2413_56396)"/>
<path d="M5.44828 37.4483C4.64842 37.4483 4 38.0967 4 38.8966C4 39.6964 4.64842 40.3448 5.44828 40.3448H17.0345C17.8343 40.3448 18.4828 39.6964 18.4828 38.8966C18.4828 38.0967 17.8343 37.4483 17.0345 37.4483H5.44828Z" fill="#FAFAFA"/>
<path d="M5.44828 37.4483C4.64842 37.4483 4 38.0967 4 38.8966C4 39.6964 4.64842 40.3448 5.44828 40.3448H17.0345C17.8343 40.3448 18.4828 39.6964 18.4828 38.8966C18.4828 38.0967 17.8343 37.4483 17.0345 37.4483H5.44828Z" fill="url(#paint1_linear_2413_56396)"/>
<path d="M9.52053 12.036L9.31034 11.8621C9.90587 11.0424 10.5396 10.4395 11.3593 9.84397C13.8973 8 17.5178 8 24.7586 8H28.6207C35.8616 8 39.482 8 42.02 9.84397C42.8397 10.4395 43.4235 10.9763 44.019 11.796L43.7764 12.0372L39.3198 16.4939C36.0724 19.7412 33.7378 22.0715 31.7241 23.6079C29.7438 25.1188 28.2451 25.7248 26.6894 25.7248C25.1337 25.7248 23.635 25.1188 21.6547 23.6079C19.641 22.0715 17.3063 19.7412 14.059 16.4939L10.3065 12.7414L9.52053 12.036Z" fill="#FAFAFA"/>
<path d="M9.52053 12.036L9.31034 11.8621C9.90587 11.0424 10.5396 10.4395 11.3593 9.84397C13.8973 8 17.5178 8 24.7586 8H28.6207C35.8616 8 39.482 8 42.02 9.84397C42.8397 10.4395 43.4235 10.9763 44.019 11.796L43.7764 12.0372L39.3198 16.4939C36.0724 19.7412 33.7378 22.0715 31.7241 23.6079C29.7438 25.1188 28.2451 25.7248 26.6894 25.7248C25.1337 25.7248 23.635 25.1188 21.6547 23.6079C19.641 22.0715 17.3063 19.7412 14.059 16.4939L10.3065 12.7414L9.52053 12.036Z" fill="url(#paint2_linear_2413_56396)"/>
<path d="M7.37931 25.3793C7.37931 20.2815 7.37931 16.9783 8.02277 14.5838L8.31365 14.8449L12.0892 18.6204C15.2412 21.7724 17.7113 24.2425 19.8977 25.9107C22.1356 27.6182 24.2458 28.6214 26.6894 28.6214C29.133 28.6214 31.2431 27.6182 33.4811 25.9107C35.6675 24.2426 38.1376 21.7724 41.2896 18.6204L45.3501 14.5599C46 16.9563 46 20.2646 46 25.3793C46 32.6202 46 36.2406 44.156 38.7786C43.5605 39.5983 42.8397 40.3191 42.02 40.9147C39.482 42.7586 35.8616 42.7586 28.6207 42.7586H24.7586C22.0004 42.7586 19.7675 42.7586 17.9197 42.6567C19.626 42.2565 20.8966 40.7249 20.8966 38.8966C20.8966 36.7636 19.1674 35.0345 17.0345 35.0345H14.5868C14.9154 34.4664 15.1034 33.8069 15.1034 33.1034C15.1034 30.9705 13.3743 29.2414 11.2414 29.2414H7.39323C7.37931 28.0805 7.37931 26.7996 7.37931 25.3793Z" fill="#FAFAFA"/>
<path d="M7.37931 25.3793C7.37931 20.2815 7.37931 16.9783 8.02277 14.5838L8.31365 14.8449L12.0892 18.6204C15.2412 21.7724 17.7113 24.2425 19.8977 25.9107C22.1356 27.6182 24.2458 28.6214 26.6894 28.6214C29.133 28.6214 31.2431 27.6182 33.4811 25.9107C35.6675 24.2426 38.1376 21.7724 41.2896 18.6204L45.3501 14.5599C46 16.9563 46 20.2646 46 25.3793C46 32.6202 46 36.2406 44.156 38.7786C43.5605 39.5983 42.8397 40.3191 42.02 40.9147C39.482 42.7586 35.8616 42.7586 28.6207 42.7586H24.7586C22.0004 42.7586 19.7675 42.7586 17.9197 42.6567C19.626 42.2565 20.8966 40.7249 20.8966 38.8966C20.8966 36.7636 19.1674 35.0345 17.0345 35.0345H14.5868C14.9154 34.4664 15.1034 33.8069 15.1034 33.1034C15.1034 30.9705 13.3743 29.2414 11.2414 29.2414H7.39323C7.37931 28.0805 7.37931 26.7996 7.37931 25.3793Z" fill="url(#paint3_linear_2413_56396)"/>
<defs>
<linearGradient id="paint0_linear_2413_56396" x1="15.8677" y1="38.9992" x2="36.7629" y2="3.08122" gradientUnits="userSpaceOnUse">
<stop stop-color="#8962F4"/>
<stop offset="1" stop-color="#B7A1FC"/>
</linearGradient>
<linearGradient id="paint1_linear_2413_56396" x1="15.8677" y1="38.9992" x2="36.7629" y2="3.08122" gradientUnits="userSpaceOnUse">
<stop stop-color="#8962F4"/>
<stop offset="1" stop-color="#B7A1FC"/>
</linearGradient>
<linearGradient id="paint2_linear_2413_56396" x1="15.8677" y1="38.9992" x2="36.7629" y2="3.08122" gradientUnits="userSpaceOnUse">
<stop stop-color="#8962F4"/>
<stop offset="1" stop-color="#B7A1FC"/>
</linearGradient>
<linearGradient id="paint3_linear_2413_56396" x1="15.8677" y1="38.9992" x2="36.7629" y2="3.08122" gradientUnits="userSpaceOnUse">
<stop stop-color="#8962F4"/>
<stop offset="1" stop-color="#B7A1FC"/>
</linearGradient>
</defs>
</svg>
