<svg width="50" height="50" viewBox="0 0 50 50" fill="none" xmlns="http://www.w3.org/2000/svg">
<path d="M26.4272 29.7408L6.61719 18.2308V42.2208C6.61719 43.8808 7.96719 45.2308 9.62719 45.2308H43.2272C44.8872 45.2308 46.2372 43.8808 46.2372 42.2208V18.2308L26.4272 29.7408Z" fill="url(#paint0_linear_2413_56462)"/>
<path d="M40.7077 18.8909V7.31087C40.7077 5.97087 39.6277 4.89087 38.2877 4.89087H14.5577C13.2177 4.89087 12.1377 5.97087 12.1377 7.31087V18.8909L26.4177 27.1909L40.6977 18.8909H40.7077ZM17.3877 8.51087H35.6077C36.3277 8.51087 36.9177 9.10087 36.9177 9.82087C36.9177 10.5409 36.3277 11.1309 35.6077 11.1309H17.3877C16.6677 11.1309 16.0777 10.5409 16.0777 9.82087C16.0777 9.10087 16.6677 8.51087 17.3877 8.51087ZM16.0777 14.9609C16.0777 14.2409 16.6677 13.6509 17.3877 13.6509H27.7577C28.4777 13.6509 29.0677 14.2409 29.0677 14.9609C29.0677 15.6809 28.4777 16.2709 27.7577 16.2709H17.3877C16.6677 16.2709 16.0777 15.6809 16.0777 14.9609Z" fill="url(#paint1_linear_2413_56462)"/>
<defs>
<linearGradient id="paint0_linear_2413_56462" x1="26.4272" y1="47.3408" x2="26.4272" y2="16.1208" gradientUnits="userSpaceOnUse">
<stop stop-color="#F99553"/>
<stop offset="1" stop-color="#FCC184"/>
</linearGradient>
<linearGradient id="paint1_linear_2413_56462" x1="26.4277" y1="-10.7391" x2="26.4277" y2="-10.7391" gradientUnits="userSpaceOnUse">
<stop stop-color="#F99553"/>
<stop offset="1" stop-color="#FCC184"/>
</linearGradient>
</defs>
</svg>
