<svg width="50" height="50" viewBox="0 0 50 50" fill="none" xmlns="http://www.w3.org/2000/svg">
<path d="M41.6699 16.48C39.9499 8.27999 32.6799 2.10999 23.9799 2.10999C15.2799 2.10999 8.00992 8.27999 6.27992 16.48C4.53992 16.62 3.16992 18.05 3.16992 19.83V27.09C3.16992 28.95 4.67992 30.46 6.53992 30.46C7.83992 30.46 8.94992 29.72 9.51992 28.64C10.9099 33.76 14.6699 36.98 16.7399 37.52C13.0999 33.24 13.0699 29.08 14.0999 26.17C14.3899 25.34 15.2399 24.87 16.0999 25.02C17.1099 25.19 23.1799 24.62 26.4799 22.3C29.1099 20.45 29.6799 17.25 29.7899 16.46C32.7199 18.17 34.3299 20.68 35.1299 23.13C35.9299 25.58 35.1299 33.24 31.4999 37.52C33.5199 37 37.1599 33.9 38.6199 28.98C39.1099 29.7 39.8799 30.22 40.7699 30.4C40.2099 33.33 37.6499 41.13 26.3899 41.54C25.9099 40.46 24.8299 39.71 23.5699 39.71C21.8599 39.71 20.4799 41.09 20.4799 42.8C20.4799 44.51 21.8599 45.89 23.5699 45.89C25.0199 45.89 26.2299 44.89 26.5599 43.54C39.7899 43 42.3599 32.93 42.8199 30.15C43.9799 29.62 44.7899 28.45 44.7899 27.09V19.83C44.7899 18.06 43.4199 16.62 41.6799 16.48H41.6699ZM25.0799 8.76999V8.74999C25.0799 8.74999 24.7099 8.71999 24.1199 8.72999C23.5199 8.72999 23.1699 8.74999 23.1699 8.74999V8.76999C20.1199 8.96999 14.1599 10.09 11.3199 15.63C10.6899 16.86 10.2099 18.04 9.84992 19.19C9.70992 18.44 9.30992 17.79 8.75992 17.31C10.1199 10.15 16.4199 4.71999 23.9699 4.71999C31.5199 4.71999 37.8099 10.15 39.1699 17.31C38.7399 17.69 38.4099 18.18 38.2199 18.74C37.8799 17.73 37.4399 16.7 36.8999 15.63C34.0699 10.11 28.1299 8.97999 25.0699 8.76999H25.0799Z" fill="url(#paint0_linear_2413_56454)"/>
<defs>
<linearGradient id="paint0_linear_2413_56454" x1="23.9799" y1="45.89" x2="23.9799" y2="2.10999" gradientUnits="userSpaceOnUse">
<stop stop-color="#F55656"/>
<stop offset="1" stop-color="#FA8888"/>
</linearGradient>
</defs>
</svg>
