<svg width="96" height="96" viewBox="0 0 96 96" fill="none" xmlns="http://www.w3.org/2000/svg">
<g clip-path="url(#clip0_2413_56412)">
<path d="M63.093 50.8533C56.5997 50.8533 51.333 56.1199 51.333 62.6133C51.333 69.1066 56.5997 74.3733 63.093 74.3733C69.5863 74.3733 74.853 69.1066 74.853 62.6133C74.853 56.1199 69.5863 50.8533 63.093 50.8533ZM69.493 64.4399H64.9197V69.0133H61.2797V64.4399H56.7063V60.7999H61.2797V56.2266H64.9197V60.7999H69.493V64.4399Z" fill="#34C759"/>
<path d="M45.4934 46.0533C52.1797 46.0533 57.6001 40.633 57.6001 33.9466C57.6001 27.2603 52.1797 21.84 45.4934 21.84C38.8071 21.84 33.3867 27.2603 33.3867 33.9466C33.3867 40.633 38.8071 46.0533 45.4934 46.0533Z" fill="#AEAEB1"/>
<path d="M52.7862 53.1332C50.6262 52.6799 48.2262 52.3732 45.4796 52.2799C20.2796 53.1199 21.1996 71.4799 21.1996 71.4799H52.2129C50.2396 69.0666 49.0529 65.9866 49.0529 62.6266C49.0529 58.9599 50.4796 55.6399 52.7729 53.1332H52.7862Z" fill="#AEAEB1"/>
</g>
<defs>
<clipPath id="clip0_2413_56412">
<rect width="96" height="96" fill="white"/>
</clipPath>
</defs>
</svg>
