<svg width="50" height="50" viewBox="0 0 50 50" fill="none" xmlns="http://www.w3.org/2000/svg">
<path d="M39.5677 29.0227C39.5677 29.0227 42.5271 35.2966 42.1355 39.3942C41.7531 43.4827 40.0594 44.1201 40.0594 44.1201H35.2607C35.2607 44.1201 37.1911 42.0531 35.7706 37.1451C35.5429 43.7104 33.5579 44.1201 33.5579 44.1201H28.7682C28.7682 44.1201 29.6879 41.1061 29.269 37.5639C28.6043 41.1061 26.8651 44.1201 26.8651 44.1201H22.3213C22.3213 44.1201 23.3138 41.4885 22.6036 37.6641C22.5581 41.015 20.8006 44.1201 20.8006 44.1201H16.6302C16.6302 44.1201 18.0325 42.0986 17.6956 37.7005C16.9398 42.5721 14.9365 44.1201 14.9365 44.1201C14.9365 44.1201 13.1791 44.0473 10.074 44.1201C6.96894 44.193 7.05089 39.8131 8.30749 38.4745C10.7114 35.9249 12.1866 29.0227 12.1866 29.0227H39.5677Z" fill="url(#paint0_linear_2413_56466)"/>
<path d="M9.42788 25.9177L13.8351 17.4037C14.0172 17.0668 14.3723 16.8483 14.7639 16.8483H21.2836C21.8573 16.8483 22.3217 16.3839 22.3217 15.8102V5.03806C22.3217 4.4644 22.7861 4 23.3597 4H28.2222C28.7959 4 29.2694 4.4644 29.2694 5.03806V15.8102C29.2694 16.3839 29.7338 16.8483 30.3075 16.8483H36.8272C37.2097 16.8483 37.5648 17.0668 37.7469 17.4037L42.1541 25.9177C42.5183 26.6097 42.0175 27.4292 41.2344 27.4292H10.3476C9.57357 27.4292 9.07275 26.6097 9.42788 25.9177Z" fill="url(#paint1_linear_2413_56466)"/>
<defs>
<linearGradient id="paint0_linear_2413_56466" x1="24.8345" y1="48.3725" x2="24.8345" y2="18.3962" gradientUnits="userSpaceOnUse">
<stop stop-color="#04A0F3"/>
<stop offset="1" stop-color="#09CAF9"/>
</linearGradient>
<linearGradient id="paint1_linear_2413_56466" x1="25.791" y1="48.3726" x2="25.791" y2="18.3963" gradientUnits="userSpaceOnUse">
<stop stop-color="#04A0F3"/>
<stop offset="1" stop-color="#09CAF9"/>
</linearGradient>
</defs>
</svg>
