<svg width="50" height="50" viewBox="0 0 50 50" fill="none" xmlns="http://www.w3.org/2000/svg">
<path d="M25.0001 11.2695C14.8301 11.2695 6.58008 19.5195 6.58008 29.6895C6.58008 39.8595 14.8301 48.1095 25.0001 48.1095C35.1701 48.1095 43.4201 39.8595 43.4201 29.6895C43.4201 19.5195 35.1701 11.2695 25.0001 11.2695ZM34.5501 28.5695L29.6801 32.1095L31.5401 37.8295C31.8701 38.8295 30.7201 39.6695 29.8701 39.0495L25.0001 35.5095L20.1301 39.0495C19.2801 39.6695 18.1301 38.8395 18.4601 37.8295L20.3201 32.1095L15.4501 28.5695C14.6001 27.9495 15.0401 26.5995 16.0901 26.5995H22.1001L23.9601 20.8795C24.2901 19.8795 25.7001 19.8795 26.0301 20.8795L27.8901 26.5995H33.9001C34.9501 26.5995 35.3901 27.9495 34.5401 28.5695H34.5501Z" fill="url(#paint0_linear_12388_188420)"/>
<path d="M11.3999 14.5104C14.6799 11.5604 18.9099 9.67039 23.5699 9.33039L20.0299 1.90039L5.41992 1.95039L11.3999 14.4904V14.5104Z" fill="url(#paint1_linear_12388_188420)"/>
<path d="M38.6197 14.4796L44.5797 1.93965L29.9697 1.88965L26.4297 9.32965C31.0997 9.65965 35.3197 11.5496 38.6197 14.4996V14.4796Z" fill="url(#paint2_linear_12388_188420)"/>
<defs>
<linearGradient id="paint0_linear_12388_188420" x1="25.0001" y1="51.2595" x2="25.0001" y2="-1.68047" gradientUnits="userSpaceOnUse">
<stop stop-color="#F55757"/>
<stop offset="1" stop-color="#FA8787"/>
</linearGradient>
<linearGradient id="paint1_linear_12388_188420" x1="14.4899" y1="-10.9996" x2="14.4899" y2="-10.9996" gradientUnits="userSpaceOnUse">
<stop stop-color="#F55757"/>
<stop offset="1" stop-color="#FA8787"/>
</linearGradient>
<linearGradient id="paint2_linear_12388_188420" x1="35.5097" y1="51.2596" x2="35.5097" y2="-1.68035" gradientUnits="userSpaceOnUse">
<stop stop-color="#F55757"/>
<stop offset="1" stop-color="#FA8787"/>
</linearGradient>
</defs>
</svg>
