<svg width="50" height="50" viewBox="0 0 50 50" fill="none" xmlns="http://www.w3.org/2000/svg">
<path fill-rule="evenodd" clip-rule="evenodd" d="M9 3C5.68629 3 3 5.68629 3 9V41C3 44.3137 5.68629 47 9 47H41C44.3137 47 47 44.3137 47 41V9C47 5.68629 44.3137 3 41 3H9ZM18.76 17.01H15.97V25.05C15.97 28.71 15.61 33.66 10.9 36.48C11.53 36.96 12.43 37.92 12.82 38.55C17.89 35.1 18.76 29.52 18.76 25.08V17.01ZM19.87 31.11L17.53 32.79C19 34.5 20.86 36.84 21.73 38.28L24.19 36.36C23.26 34.98 21.31 32.73 19.87 31.11ZM22.75 12.18H11.92V30.57H14.62V15.39H19.93V30.42H22.75V20.7128C23.5474 21.2922 24.6225 22.1774 25.12 22.65C25.9711 21.4585 26.7879 19.9469 27.528 18.27H34.9409C34.8141 24.2887 34.6643 28.3202 34.4327 30.8957C34.0545 29.0741 33.2213 26.3286 32.44 24.18L29.95 24.96C30.2843 25.9382 30.6136 27.0391 30.906 28.1256L27.7522 28.74C28.8454 26.4291 29.8929 23.6613 30.58 21.09L27.31 20.16C26.74 23.46 25.42 27.06 25 27.96C24.55 28.95 24.13 29.55 23.62 29.73C24.01 30.54 24.49 32.04 24.67 32.7C25.2989 32.2899 26.2766 31.9794 31.5552 30.792C31.6727 31.339 31.7696 31.8434 31.84 32.28L34.3911 31.3341C34.2022 33.2169 33.9612 34.2274 33.64 34.62C33.31 35.04 33.01 35.16 32.5 35.16C31.84 35.16 30.52 35.16 29.02 35.04C29.65 36.03 30.07 37.59 30.13 38.61C31.66 38.67 33.16 38.67 34.15 38.49C35.26 38.28 35.98 37.95 36.73 36.84C37.81 35.34 38.08 30.48 38.38 16.68C38.41 16.23 38.41 15.03 38.41 15.03H36.52H34.99H28.7947C29.2213 13.7963 29.6008 12.5303 29.92 11.28L26.47 10.53C25.6999 13.9128 24.3752 17.3965 22.75 19.779V12.18Z" fill="url(#paint0_linear_16427_227423)"/>
<defs>
<linearGradient id="paint0_linear_16427_227423" x1="25" y1="3" x2="25" y2="47" gradientUnits="userSpaceOnUse">
<stop stop-color="#FC8080"/>
<stop offset="1" stop-color="#F96352"/>
</linearGradient>
</defs>
</svg>
