<svg width="50" height="50" viewBox="0 0 50 50" fill="none" xmlns="http://www.w3.org/2000/svg">
<path d="M48.1303 18.75L33.8703 15.58L26.2103 2.59996C25.7003 1.73996 24.5303 1.73996 24.0203 2.59996L16.6003 15.18L1.89032 18.45C0.910321 18.67 0.550321 19.78 1.21032 20.53L10.8803 31.47L9.44032 46.47C9.34032 47.47 10.2903 48.15 11.2103 47.75L24.6003 41.93L38.4303 47.93C39.3503 48.33 40.2903 47.64 40.2003 46.65L38.8103 32.11L48.7903 20.82C49.4503 20.07 49.0903 18.96 48.1103 18.74H48.1303V18.75ZM19.8803 29.21C18.4403 29.21 17.2703 27.48 17.2703 25.34C17.2703 23.2 18.4403 21.47 19.8803 21.47C21.3203 21.47 22.4903 23.2 22.4903 25.34C22.4903 27.48 21.3203 29.21 19.8803 29.21ZM30.1603 29.21C28.7103 29.21 27.5503 27.48 27.5503 25.34C27.5503 23.2 28.7103 21.47 30.1603 21.47C31.6103 21.47 32.7703 23.2 32.7703 25.34C32.7703 27.48 31.6003 29.21 30.1603 29.21Z" fill="url(#paint0_linear_2413_56380)"/>
<defs>
<linearGradient id="paint0_linear_2413_56380" x1="25.0003" y1="48.05" x2="25.0003" y2="1.94996" gradientUnits="userSpaceOnUse">
<stop stop-color="#F9BF54"/>
<stop offset="1" stop-color="#FCDB81"/>
</linearGradient>
</defs>
</svg>
