<svg width="50" height="50" viewBox="0 0 50 50" fill="none" xmlns="http://www.w3.org/2000/svg">
<path fill-rule="evenodd" clip-rule="evenodd" d="M34.5717 0.00195312L27.5547 11.1733C30.1047 11.5896 32.455 12.788 34.3181 14.6509C36.667 16.9999 37.9604 20.1228 37.9604 23.4447C37.9604 26.4665 36.8896 29.3235 34.9281 31.5831C37.9783 33.2817 40.5249 35.7787 42.2834 38.7906V20.2806H47.309L34.5717 0.00195312ZM17.8639 13.6423L15.4289 9.76562L2.69141 30.0443H7.71708V40.8484C9.42255 36.9165 12.3934 33.6566 16.1135 31.585C14.152 29.3254 13.0812 26.4683 13.0812 23.4466C13.0812 20.1247 14.3749 17.0017 16.7237 14.6528C17.0861 14.2906 17.4669 13.9535 17.8639 13.6423ZM24.6757 42.0918H26.6479L28.5543 49.9988H22.7695L24.6757 42.0918ZM19.0201 34.0456C18.8257 33.926 18.6342 33.8008 18.4458 33.6699C12.8994 36.3212 9.05859 41.987 9.05859 48.5334V49.9976H19.7581L21.9841 40.7643L19.0201 34.0456ZM32.0921 34.0053C32.2641 33.8979 32.4337 33.7861 32.6008 33.6699C38.1471 36.3213 41.988 41.9869 41.988 48.5335V49.9977H31.5692L29.2461 40.3612L32.0921 34.0053ZM25.5175 35.8851C24.6277 35.8851 23.7524 35.7913 22.9023 35.6104L24.473 39.1706H26.5678L28.165 35.6035C27.3046 35.7891 26.4185 35.8851 25.5175 35.8851ZM35.0316 23.4474C35.0316 28.6986 30.7747 32.9554 25.5236 32.9554C20.2725 32.9554 16.0156 28.6986 16.0156 23.4474C16.0156 18.1963 20.2725 13.9395 25.5236 13.9395C30.7747 13.9395 35.0316 18.1963 35.0316 23.4474Z" fill="url(#paint0_linear_17583_227562)"/>
<defs>
<linearGradient id="paint0_linear_17583_227562" x1="25.3104" y1="17.7421" x2="25.4802" y2="40.1827" gradientUnits="userSpaceOnUse">
<stop stop-color="#A882FF"/>
<stop offset="1" stop-color="#8351FF"/>
</linearGradient>
</defs>
</svg>
