<svg width="96" height="96" viewBox="0 0 96 96" fill="none" xmlns="http://www.w3.org/2000/svg">
<g clip-path="url(#clip0_2413_56418)">
<path d="M58.626 51.2C58.626 52.8 59.9193 54.0933 61.5193 54.0933C63.1193 54.0933 64.4126 52.8 64.4126 51.2C64.4126 49.6 63.1193 48.3066 61.5193 48.3066C59.9193 48.3066 58.626 49.6 58.626 51.2Z" fill="#34C759"/>
<path d="M74.5866 37.5866C74.5866 34.5733 72.1466 32.1333 69.1333 32.1333H26.7199C23.7066 32.1333 21.2666 34.5733 21.2666 37.5866V66.3466C21.2666 69.36 23.7066 71.8 26.7199 71.8H69.1333C72.1466 71.8 74.5866 69.36 74.5866 66.3466V57.4933H62.4133C58.9333 57.4933 56.1199 54.68 56.1199 51.2C56.1199 47.72 58.9333 44.9066 62.4133 44.9066H74.5866V37.5866Z" fill="#AEAEB1"/>
<path d="M63.0271 23.3466C62.1071 21.36 59.7471 20.5066 57.7738 21.4266L40.4805 29.4666H65.8805L63.0271 23.3466Z" fill="#34C759"/>
</g>
<defs>
<clipPath id="clip0_2413_56418">
<rect width="96" height="96" fill="white"/>
</clipPath>
</defs>
</svg>
