<svg width="96" height="96" viewBox="0 0 96 96" fill="none" xmlns="http://www.w3.org/2000/svg">
<path d="M22.17 40.781C21.1617 38.0724 24.1903 35.6445 26.6147 37.2179L58.7556 56.0765C61.2616 57.7028 60.1099 61.593 57.1225 61.593H32.746C31.4928 61.593 30.3716 60.814 29.9345 59.6396L22.17 40.781Z" fill="#AEAEB1"/>
<path d="M73.3441 40.7447C74.3628 38.0426 71.3499 35.6025 68.9184 37.1604L36.2905 56.0671C33.7675 57.6837 34.9125 61.593 37.909 61.593H62.6549C63.9035 61.593 65.0215 60.8197 65.462 59.6513L73.3441 40.7447Z" fill="#AEAEB1"/>
<path d="M45.0749 31.6449C46.172 29.4034 49.3668 29.4034 50.4639 31.6449L64.1378 57.581C65.1134 59.5742 63.6623 61.8999 61.4432 61.8999H34.0955C31.8765 61.8999 30.4254 59.5742 31.401 57.581L45.0749 31.6449Z" fill="#AEAEB1"/>
<path d="M45.0749 31.6449C46.172 29.4034 49.3668 29.4034 50.4639 31.6449L64.1378 57.581C65.1134 59.5742 63.6623 61.8999 61.4432 61.8999H34.0955C31.8765 61.8999 30.4254 59.5742 31.401 57.581L45.0749 31.6449Z" fill="#AEAEB1"/>
<path d="M51.1729 23.3769C51.1729 25.2419 49.6496 26.7538 47.7706 26.7538C45.8916 26.7538 44.3683 25.2419 44.3683 23.3769C44.3683 21.5119 45.8916 20 47.7706 20C49.6496 20 51.1729 21.5119 51.1729 23.3769Z" fill="#AEAEB1"/>
<path d="M23.6689 33.2006C23.6689 34.7266 22.4226 35.9636 20.8852 35.9636C19.3479 35.9636 18.1016 34.7266 18.1016 33.2006C18.1016 31.6747 19.3479 30.4377 20.8852 30.4377C22.4226 30.4377 23.6689 31.6747 23.6689 33.2006Z" fill="#AEAEB1"/>
<path d="M77.2965 33.2006C77.2965 34.7266 76.0502 35.9636 74.5128 35.9636C72.9754 35.9636 71.7291 34.7266 71.7291 33.2006C71.7291 31.6747 72.9754 30.4377 74.5128 30.4377C76.0502 30.4377 77.2965 31.6747 77.2965 33.2006Z" fill="#AEAEB1"/>
<path d="M30.5244 68.8535C30.5244 67.5887 31.5497 66.5635 32.8144 66.5635H62.0733C63.3381 66.5635 64.3633 67.5887 64.3633 68.8535V68.8535C64.3633 70.1182 63.3381 71.1435 62.0733 71.1435H32.8144C31.5497 71.1435 30.5244 70.1182 30.5244 68.8535V68.8535Z" fill="#34C759"/>
</svg>
