<svg width="50" height="50" viewBox="0 0 50 50" fill="none" xmlns="http://www.w3.org/2000/svg">
<path d="M45.2 20.45C43.23 21.02 40.58 19.47 38.96 16.67C37.35 13.89 37.34 10.84 38.8 9.4C36.64 7.44 34.07 5.92 31.23 5C30.74 7 28.07 8.52 24.84 8.52C21.61 8.52 18.93 7 18.44 5C15.6 5.92 13.04 7.44 10.87 9.4C12.33 10.84 12.32 13.89 10.71 16.67C9.09 19.47 6.44 21.02 4.47 20.45C4.16 21.87 4 23.33 4 24.83C4 26.33 4.16 27.79 4.47 29.21C6.44 28.64 9.09 30.19 10.71 32.99C12.32 35.77 12.33 38.82 10.87 40.26C13.04 42.22 15.6 43.74 18.44 44.66C18.93 42.66 21.61 41.14 24.84 41.14C28.07 41.14 30.74 42.66 31.23 44.66C34.07 43.74 36.64 42.22 38.8 40.26C37.34 38.82 37.35 35.77 38.96 32.99C40.58 30.19 43.23 28.64 45.2 29.21C45.51 27.79 45.68 26.33 45.68 24.83C45.68 23.33 45.51 21.87 45.2 20.45ZM25.05 33.67C20.06 33.79 16 29.78 16 24.83C16 19.88 19.95 15.99 24.84 15.99C29.73 15.99 33.83 20.11 33.68 25.12C33.53 29.73 29.67 33.56 25.06 33.67H25.05Z" fill="url(#paint0_linear_2413_56473)"/>
<defs>
<linearGradient id="paint0_linear_2413_56473" x1="24.84" y1="44.66" x2="24.84" y2="5" gradientUnits="userSpaceOnUse">
<stop stop-color="#865BF6"/>
<stop offset="1" stop-color="#B296FE"/>
</linearGradient>
</defs>
</svg>
