<svg width="50" height="50" viewBox="0 0 50 50" fill="none" xmlns="http://www.w3.org/2000/svg">
<path fill-rule="evenodd" clip-rule="evenodd" d="M9 3C5.68629 3 3 5.68629 3 9V41C3 44.3137 5.68629 47 9 47H41C44.3137 47 47 44.3137 47 41V9C47 5.68629 44.3137 3 41 3H9ZM26.92 10.68H23.23V13.29H14.17V16.38H23.23V18.33H12.19V21.39H18.524L16.81 23.37C18.67 24.03 20.98 25.14 22.12 26.04L23.98 23.79C22.7736 22.9367 20.4707 21.9103 18.6561 21.39H33.5818C33.0782 22.2845 32.5256 23.1312 32.02 23.79L34.72 25.35C36.07 23.79 37.51 21.39 38.56 19.2L35.98 18.15L35.41 18.33H34.81H26.92V16.38H36.28V13.29H26.92V10.68ZM18.1431 28.32H11.77V31.44H22.2404C20.4585 33.4845 17.3091 34.8915 11.59 35.79C12.25 36.54 13.06 37.92 13.33 38.82C21.0802 37.4606 24.7579 35.0312 26.5946 31.44H38.17V28.32H27.7129C28.1518 26.4947 28.3572 24.4472 28.51 22.17H24.76C24.6098 24.5457 24.4419 26.5835 23.9132 28.32H18.9988L20.47 26.4C19.24 25.53 16.87 24.57 15.07 24.09L13.45 26.22C15.0132 26.7069 16.9266 27.544 18.1431 28.32ZM27.61 32.13L26.05 34.83C30.13 35.85 34.33 37.38 36.91 38.64L38.86 35.67C36.19 34.5 31.69 33.06 27.61 32.13Z" fill="url(#paint0_linear_16427_227430)"/>
<defs>
<linearGradient id="paint0_linear_16427_227430" x1="25" y1="3" x2="25" y2="47" gradientUnits="userSpaceOnUse">
<stop stop-color="#47FFAF"/>
<stop offset="1" stop-color="#34C759"/>
</linearGradient>
</defs>
</svg>
