<svg width="44" height="44" viewBox="0 0 44 44" fill="none" xmlns="http://www.w3.org/2000/svg">
<g clip-path="url(#clip0_2310_89522)">
<path d="M8.96668 13.9526C10.2324 13.7235 11.9132 13.7235 14.4526 13.7235H17.1346C20.8897 13.7235 22.7673 13.7235 24.2016 14.4642C25.4632 15.1158 26.4889 16.1555 27.1317 17.4344C27.8625 18.8882 27.8625 20.7914 27.8625 24.5977V28.2662C27.8625 28.6463 27.8625 28.8363 27.855 28.9969C27.7338 31.5935 26.1824 33.805 23.9799 34.8418M8.96668 13.9526C8.36074 14.0622 7.84994 14.2244 7.38559 14.4642C6.12397 15.1158 5.09824 16.1555 4.45541 17.4344C3.72461 18.8882 3.72461 20.7914 3.72461 24.5977V30.3452C3.72461 33.1766 5.98905 35.4719 8.78239 35.4719H9.58934C10.6341 35.4719 11.3485 36.5415 10.9605 37.5248C10.4127 38.9128 11.9898 40.1677 13.19 39.2988L16.691 36.764C16.7267 36.7381 16.7446 36.7252 16.7621 36.7127C17.8805 35.9139 19.2132 35.4809 20.5814 35.4721C20.6028 35.4719 20.6314 35.4719 20.6887 35.4719C21.107 35.4719 21.3162 35.4719 21.4746 35.4643C22.3668 35.4215 23.2128 35.2029 23.9799 34.8418M8.96668 13.9526C9.06284 12.1402 9.29174 10.8791 9.83662 9.80976C10.6631 8.18767 11.9819 6.86888 13.604 6.04238C15.4481 5.10278 17.8621 5.10278 22.6901 5.10278H26.1384C30.9664 5.10278 33.3805 5.10278 35.2245 6.04238C36.8466 6.86888 38.1654 8.18767 38.9919 9.80976C39.9315 11.6538 39.9315 14.0678 39.9315 18.8959V26.1861C39.9315 29.7776 37.0201 32.689 33.4287 32.689H32.3911C31.0479 32.689 30.1294 34.0457 30.6282 35.2929C31.3325 37.0535 29.3048 38.6453 27.7617 37.5431L23.9799 34.8418" stroke="#656565" stroke-width="2.63158"/>
<path d="M12.3448 25.7925C12.3448 26.7447 11.5728 27.5166 10.6206 27.5166C9.66841 27.5166 8.89648 26.7447 8.89648 25.7925C8.89648 24.8403 9.66841 24.0684 10.6206 24.0684C11.5728 24.0684 12.3448 24.8403 12.3448 25.7925Z" fill="#656565"/>
<path d="M17.5172 25.7925C17.5172 26.7447 16.7453 27.5166 15.793 27.5166C14.8408 27.5166 14.0689 26.7447 14.0689 25.7925C14.0689 24.8403 14.8408 24.0684 15.793 24.0684C16.7453 24.0684 17.5172 24.8403 17.5172 25.7925Z" fill="#656565"/>
<path d="M22.6896 25.7925C22.6896 26.7447 21.9177 27.5166 20.9654 27.5166C20.0132 27.5166 19.2413 26.7447 19.2413 25.7925C19.2413 24.8403 20.0132 24.0684 20.9654 24.0684C21.9177 24.0684 22.6896 24.8403 22.6896 25.7925Z" fill="#656565"/>
</g>
<defs>
<clipPath id="clip0_2310_89522">
<rect width="40" height="38.6207" fill="white" transform="translate(2 3.03442)"/>
</clipPath>
</defs>
</svg>
