<svg width="30" height="30" viewBox="0 0 30 30" fill="none" xmlns="http://www.w3.org/2000/svg">
<path d="M16 10C16 9.44772 15.5523 9 15 9C14.4477 9 14 9.44772 14 10H16ZM17.7477 18.991C18.226 19.2672 18.8376 19.1033 19.1137 18.625C19.3898 18.1467 19.226 17.5351 18.7477 17.259L17.7477 18.991ZM3.1253 3.28163C2.69404 3.62664 2.62412 4.25593 2.96913 4.6872C3.31414 5.11846 3.94343 5.18838 4.3747 4.84337L3.1253 3.28163ZM7.49969 2.34337C7.93096 1.99836 8.00088 1.36907 7.65587 0.937805C7.31086 0.506543 6.68157 0.436622 6.2503 0.781631L7.49969 2.34337ZM25.6253 4.84337C26.0566 5.18838 26.6859 5.11846 27.0309 4.6872C27.3759 4.25593 27.306 3.62664 26.8747 3.28163L25.6253 4.84337ZM23.7497 0.781631C23.3184 0.436622 22.6891 0.506543 22.3441 0.937805C21.9991 1.36907 22.069 1.99836 22.5003 2.34337L23.7497 0.781631ZM15.3349 16.0566L16.201 15.5566L15.3349 16.0566ZM14 10L14 13.3632H16L16 10H14ZM18.7477 17.259L18 16.8273L17.0001 18.5594L17.7477 18.991L18.7477 17.259ZM26.5 15C26.5 21.3513 21.3513 26.5 15 26.5V28.5C22.4558 28.5 28.5 22.4558 28.5 15H26.5ZM15 26.5C8.64873 26.5 3.5 21.3513 3.5 15H1.5C1.5 22.4558 7.54416 28.5 15 28.5V26.5ZM3.5 15C3.5 8.64873 8.64873 3.5 15 3.5V1.5C7.54416 1.5 1.5 7.54416 1.5 15H3.5ZM15 3.5C21.3513 3.5 26.5 8.64873 26.5 15H28.5C28.5 7.54416 22.4558 1.5 15 1.5V3.5ZM4.3747 4.84337L7.49969 2.34337L6.2503 0.781631L3.1253 3.28163L4.3747 4.84337ZM26.8747 3.28163L23.7497 0.781631L22.5003 2.34337L25.6253 4.84337L26.8747 3.28163ZM14 13.3632C14 14.0482 13.9989 14.6338 14.0467 15.1188C14.0967 15.6257 14.2055 16.1004 14.4689 16.5566L16.201 15.5566C16.1295 15.4327 16.0708 15.2651 16.037 14.9226C16.0011 14.5581 16 14.0871 16 13.3632H14ZM18 16.8273C17.3731 16.4654 16.9658 16.2289 16.6681 16.0156C16.3883 15.8151 16.2725 15.6805 16.201 15.5566L14.4689 16.5566C14.7324 17.0129 15.089 17.3445 15.503 17.6412C15.8992 17.9251 16.4068 18.2169 17.0001 18.5594L18 16.8273Z" fill="#434343"/>
</svg>
