<svg width="60" height="60" viewBox="0 0 60 60" fill="none" xmlns="http://www.w3.org/2000/svg">
<g clip-path="url(#clip0_2310_89416)">
<path d="M43.805 18.139C44.342 17.602 44.342 16.7314 43.805 16.1945C43.268 15.6575 42.3974 15.6575 41.8605 16.1945L29.9994 28.0556L18.1383 16.1945C17.6013 15.6575 16.7307 15.6575 16.1937 16.1945C15.6568 16.7315 15.6568 17.6021 16.1937 18.139L28.0548 30.0001L16.1938 41.8611C15.6568 42.3981 15.6568 43.2687 16.1938 43.8057C16.7308 44.3427 17.6014 44.3427 18.1383 43.8057L29.9994 31.9447L41.8604 43.8057C42.3974 44.3427 43.268 44.3427 43.805 43.8057C44.3419 43.2687 44.3419 42.3981 43.805 41.8611L31.9439 30.0001L43.805 18.139Z" fill="#434343"/>
</g>
<defs>
<clipPath id="clip0_2310_89416">
<rect width="28.4167" height="28.4167" fill="white" transform="translate(15.791 15.7917)"/>
</clipPath>
</defs>
</svg>
