<svg width="121" height="120" viewBox="0 0 121 120" fill="none" xmlns="http://www.w3.org/2000/svg">
<rect x="0.166016" width="120" height="120" rx="22" fill="url(#paint0_linear_2413_56724)"/>
<path d="M53.739 41.8081C56.1769 35.7305 57.3958 32.6917 59.3762 32.2706C59.8969 32.1598 60.4351 32.1598 60.9558 32.2706C62.9362 32.6917 64.1551 35.7305 66.593 41.8081C67.9794 45.2643 68.6725 46.9924 69.9696 48.1678C70.3334 48.4975 70.7283 48.7911 71.1488 49.0445C72.648 49.9481 74.5194 50.1157 78.2623 50.4509C84.5983 51.0183 87.7664 51.3021 88.7338 53.1084C88.9342 53.4825 89.0704 53.8875 89.1368 54.3067C89.4576 56.3305 87.1286 58.4494 82.4706 62.6871L81.1772 63.8639C78.9995 65.8452 77.9107 66.8358 77.2809 68.0721C76.9031 68.8137 76.6498 69.6123 76.5311 70.4361C76.3332 71.8094 76.652 73.2464 77.2897 76.1206L77.5176 77.1475C78.6612 82.3019 79.233 84.879 78.5192 86.1458C77.878 87.2837 76.697 88.0122 75.3924 88.0745C73.9401 88.1438 71.8936 86.4763 67.8007 83.1411C65.1041 80.9438 63.7558 79.8452 62.2591 79.416C60.8913 79.0238 59.4408 79.0238 58.073 79.416C56.5762 79.8452 55.2279 80.9438 52.5313 83.1411C48.4384 86.4763 46.392 88.1438 44.9396 88.0745C43.635 88.0122 42.454 87.2837 41.8128 86.1458C41.0991 84.879 41.6709 82.3019 42.8145 77.1475L43.0423 76.1206C43.68 73.2464 43.9988 71.8094 43.801 70.4361C43.6823 69.6123 43.429 68.8137 43.0512 68.0721C42.4214 66.8358 41.3325 65.8452 39.1549 63.864L37.8614 62.6872C33.2034 58.4494 30.8745 56.3305 31.1952 54.3067C31.2616 53.8875 31.3979 53.4825 31.5982 53.1084C32.5657 51.3021 35.7337 51.0183 42.0697 50.4509C45.8126 50.1157 47.6841 49.9481 49.1832 49.0445C49.6037 48.7911 49.9986 48.4975 50.3624 48.1678C51.6595 46.9924 52.3527 45.2643 53.739 41.8081Z" fill="url(#paint1_linear_2413_56724)"/>
<defs>
<linearGradient id="paint0_linear_2413_56724" x1="60.166" y1="0" x2="60.166" y2="120" gradientUnits="userSpaceOnUse">
<stop stop-color="#FFE9E9" stop-opacity="0.65"/>
<stop offset="1" stop-color="#FEA2A4" stop-opacity="0.58"/>
</linearGradient>
<linearGradient id="paint1_linear_2413_56724" x1="60.166" y1="32.1875" x2="60.166" y2="88.0766" gradientUnits="userSpaceOnUse">
<stop stop-color="#FFAAA2"/>
<stop offset="1" stop-color="#FF5F5E"/>
</linearGradient>
</defs>
</svg>
