<svg width="121" height="120" viewBox="0 0 121 120" fill="none" xmlns="http://www.w3.org/2000/svg">
<rect x="0.333984" width="120" height="120" rx="22" fill="url(#paint0_linear_2413_56730)"/>
<path fill-rule="evenodd" clip-rule="evenodd" d="M85.6178 46.7818C84.1523 47.9753 82.2821 48.6909 80.2448 48.6909C75.5423 48.6909 71.7302 44.8788 71.7302 40.1763C71.7302 38.139 72.4458 36.2688 73.6393 34.8033C71.1092 34.5 67.8331 34.5 63.2157 34.5H57.5394C49.5917 34.5 45.6179 34.5 42.5823 36.0467C39.9121 37.4072 37.7412 39.5782 36.3807 42.2483C34.834 45.2839 34.834 49.2578 34.834 57.2054V69.2062C34.834 75.1181 39.6266 79.9108 45.5386 79.9108H47.2465C49.4577 79.9108 50.9697 82.1441 50.1485 84.1971C48.9892 87.0954 52.3271 89.7156 54.8672 87.9013L62.2769 82.6086L62.4274 82.5015C64.7944 80.8335 67.6151 79.9296 70.5107 79.9111L70.7379 79.9108C71.6233 79.9108 72.066 79.9108 72.4013 79.8949C79.7112 79.5488 85.5592 73.7008 85.9052 66.391C85.9211 66.0556 85.9211 65.6588 85.9211 64.8652V57.2054C85.9211 52.588 85.9211 49.3119 85.6178 46.7818ZM49.0248 60.0436C50.5923 60.0436 51.863 58.7729 51.863 57.2054C51.863 55.6379 50.5923 54.3672 49.0248 54.3672C47.4574 54.3672 46.1867 55.6379 46.1867 57.2054C46.1867 58.7729 47.4574 60.0436 49.0248 60.0436ZM60.3775 60.0436C61.945 60.0436 63.2157 58.7729 63.2157 57.2054C63.2157 55.6379 61.945 54.3672 60.3775 54.3672C58.8101 54.3672 57.5394 55.6379 57.5394 57.2054C57.5394 58.7729 58.8101 60.0436 60.3775 60.0436ZM74.5684 57.2054C74.5684 58.7729 73.2977 60.0436 71.7302 60.0436C70.1628 60.0436 68.8921 58.7729 68.8921 57.2054C68.8921 55.6379 70.1628 54.3672 71.7302 54.3672C73.2977 54.3672 74.5684 55.6379 74.5684 57.2054Z" fill="url(#paint1_linear_2413_56730)"/>
<path d="M85.9211 40.1763C85.9211 43.3113 83.3797 45.8527 80.2448 45.8527C77.1098 45.8527 74.5684 43.3113 74.5684 40.1763C74.5684 37.0414 77.1098 34.5 80.2448 34.5C83.3797 34.5 85.9211 37.0414 85.9211 40.1763Z" fill="url(#paint2_linear_2413_56730)"/>
<defs>
<linearGradient id="paint0_linear_2413_56730" x1="60.334" y1="0" x2="60.334" y2="120" gradientUnits="userSpaceOnUse">
<stop stop-color="#D4FBFF" stop-opacity="0.65"/>
<stop offset="1" stop-color="#87E5FF" stop-opacity="0.58"/>
</linearGradient>
<linearGradient id="paint1_linear_2413_56730" x1="60.3775" y1="34.5" x2="60.3775" y2="88.5" gradientUnits="userSpaceOnUse">
<stop stop-color="#4DECFE"/>
<stop offset="1" stop-color="#06CADF"/>
</linearGradient>
<linearGradient id="paint2_linear_2413_56730" x1="60.3775" y1="34.5" x2="60.3775" y2="88.5" gradientUnits="userSpaceOnUse">
<stop stop-color="#4DECFE"/>
<stop offset="1" stop-color="#06CADF"/>
</linearGradient>
</defs>
</svg>
