<svg width="44" height="45" viewBox="0 0 44 45" fill="none" xmlns="http://www.w3.org/2000/svg">
    <path d="m13.233 38.887-.215 1.358.215-1.358zm-7.62-7.62 1.358-.215-1.358.215zm32.774 0 1.358.215-1.358-.215zm-7.62 7.62.215 1.358-.215-1.358zm7-19.046a1.375 1.375 0 1 0-2.2 1.651l2.2-1.651zM8.432 21.492a1.375 1.375 0 0 0-2.199-1.651l2.2 1.651zM23.375 6a1.375 1.375 0 1 0-2.75 0h2.75zm-7.63 17.48a1.375 1.375 0 1 0-2.156 1.708l2.155-1.709zm1.484 4.085-1.077.855 1.077-.855zm9.542 0-1.078-.854 1.078.854zm3.64-2.377a1.375 1.375 0 1 0-2.155-1.709l2.155 1.709zm-8.87 6.442-.217 1.358.216-1.358zm.919 0 .216 1.358-.216-1.358zm14.665-5.463V28h2.75v-1.833h-2.75zM27.5 37.625h-11v2.75h11v-2.75zM6.875 28v-1.833h-2.75V28h2.75zm9.625 9.625c-1.756 0-2.473-.004-3.052-.096l-.43 2.716c.846.134 1.831.13 3.482.13v-2.75zM4.125 28c0 1.65-.004 2.636.13 3.482l2.716-.43c-.092-.578-.096-1.296-.096-3.052h-2.75zm9.323 9.53a7.792 7.792 0 0 1-6.477-6.478l-2.716.43a10.542 10.542 0 0 0 8.763 8.763l.43-2.716zM37.125 28c0 1.756-.004 2.474-.096 3.052l2.716.43c.134-.846.13-1.831.13-3.482h-2.75zM27.5 40.375c1.65 0 2.636.004 3.482-.13l-.43-2.716c-.578.092-1.296.096-3.052.096v2.75zm9.53-9.323a7.792 7.792 0 0 1-6.478 6.477l.43 2.716a10.542 10.542 0 0 0 8.763-8.763l-2.716-.43zm2.845-4.885a10.5 10.5 0 0 0-2.108-6.326l-2.2 1.651a7.75 7.75 0 0 1 1.558 4.675h2.75zm-33 0a7.75 7.75 0 0 1 1.557-4.675l-2.199-1.651a10.501 10.501 0 0 0-2.108 6.326h2.75zM20.625 6v23.833h2.75V6h-2.75zm-7.036 19.188 2.563 3.232 2.155-1.709-2.563-3.232-2.155 1.709zm14.259 3.232 2.563-3.232-2.155-1.709-2.563 3.232 2.155 1.709zm-11.696 0c1.001 1.262 1.823 2.303 2.558 3.04.741.744 1.563 1.36 2.614 1.528l.433-2.716c-.195-.03-.506-.158-1.099-.752-.598-.601-1.309-1.494-2.351-2.809l-2.155 1.709zm9.541-1.709c-1.043 1.315-1.753 2.208-2.351 2.809-.593.594-.904.721-1.099.752l.433 2.716c1.05-.167 1.873-.784 2.614-1.528.735-.737 1.557-1.778 2.558-3.04l-2.155-1.709zm-4.369 6.277c.224.036.45.054.676.054v-2.75c-.08 0-.162-.007-.243-.02l-.433 2.716zm.676.054c.226 0 .452-.018.676-.054l-.433-2.716c-.081.013-.162.02-.243.02v2.75zm-1.375-3.209v1.834h2.75v-1.834h-2.75z" fill="currentColor"/>
</svg>
