<svg width="44" height="44" viewBox="0 0 44 44" fill="none" xmlns="http://www.w3.org/2000/svg">
<path d="M23.375 16.5625C23.375 15.8376 22.7874 15.25 22.0625 15.25C21.3376 15.25 20.75 15.8376 20.75 16.5625V28.7009C20.7251 28.6815 20.6997 28.6614 20.6739 28.6406C20.1093 28.1872 19.4381 27.5128 18.4409 26.5067L15.9947 24.0386C15.4844 23.5237 14.6534 23.52 14.1386 24.0303C13.6237 24.5406 13.62 25.3716 14.1303 25.8864L16.6299 28.4085C17.5598 29.3467 18.3354 30.1293 19.0302 30.6873C19.7589 31.2725 20.5248 31.7177 21.4579 31.8366C21.8594 31.8878 22.2656 31.8878 22.6671 31.8366C23.6002 31.7177 24.3661 31.2725 25.0948 30.6873C25.7896 30.1293 26.5652 29.3467 27.4951 28.4084L29.9947 25.8864C30.505 25.3716 30.5013 24.5406 29.9864 24.0303C29.4716 23.52 28.6406 23.5237 28.1303 24.0386L25.6841 26.5067C24.6869 27.5128 24.0157 28.1872 23.4511 28.6406C23.4322 28.6558 23.4136 28.6706 23.3952 28.6851C23.3884 28.6904 23.3817 28.6956 23.375 28.7009V16.5625Z" fill="#656565"/>
<path fill-rule="evenodd" clip-rule="evenodd" d="M27.3574 3.0514C25.8573 3 24.112 3 22.0819 3H21.9833C18.7694 2.99999 16.2501 2.99997 14.2513 3.21652C12.2116 3.43751 10.559 3.89657 9.14791 4.92177C8.29366 5.54242 7.54242 6.29366 6.92177 7.14791C5.89657 8.55898 5.43751 10.2116 5.21652 12.2513C4.99997 14.2501 4.99999 16.7694 5 19.9833V23.6417C4.99999 26.8556 4.99997 29.3749 5.21652 31.3737C5.43751 33.4134 5.89657 35.066 6.92177 36.4771C7.54242 37.3313 8.29366 38.0826 9.14791 38.7032C10.559 39.7284 12.2116 40.1875 14.2513 40.4085C16.25 40.625 18.7693 40.625 21.9831 40.625H22.1417C25.3556 40.625 27.875 40.625 29.8737 40.4085C31.9134 40.1875 33.566 39.7284 34.9771 38.7032C35.8313 38.0826 36.5826 37.3313 37.2032 36.4771C38.2284 35.066 38.6875 33.4134 38.9085 31.3737C39.125 29.375 39.125 26.8557 39.125 23.6419V20.0432C39.125 18.0131 39.125 16.2677 39.0736 14.7676C38.9613 11.489 38.6065 9.07932 37.2032 7.14791C36.5826 6.29366 35.8313 5.54242 34.9771 4.92177C33.0457 3.51852 30.636 3.16372 27.3574 3.0514ZM10.6908 7.04544C11.5799 6.39954 12.7177 6.02304 14.5341 5.82625C16.375 5.6268 18.7522 5.625 22.0625 5.625C23.5471 5.625 24.8481 5.62509 26.0032 5.64393C26.0108 6.47457 26.0367 7.08606 26.1239 7.63662C26.8058 11.9423 30.1827 15.3192 34.4884 16.0011C35.0389 16.0883 35.6504 16.1142 36.4811 16.1218C36.4999 17.2769 36.5 18.5779 36.5 20.0625V23.5625C36.5 26.8728 36.4982 29.25 36.2988 31.0909C36.102 32.9073 35.7255 34.0451 35.0796 34.9342C34.6208 35.5656 34.0656 36.1208 33.4342 36.5796C32.5451 37.2255 31.4073 37.602 29.5909 37.7988C27.75 37.9982 25.3728 38 22.0625 38C18.7522 38 16.375 37.9982 14.5341 37.7988C12.7177 37.602 11.5799 37.2255 10.6908 36.5796C10.0594 36.1208 9.50418 35.5656 9.04544 34.9342C8.39954 34.0451 8.02304 32.9073 7.82625 31.0909C7.6268 29.25 7.625 26.8728 7.625 23.5625V20.0625C7.625 16.7522 7.6268 14.375 7.82625 12.5341C8.02304 10.7177 8.39954 9.57986 9.04544 8.69085C9.50418 8.05944 10.0594 7.50418 10.6908 7.04544ZM28.7166 7.22598C28.6597 6.86717 28.6381 6.45167 28.6299 5.74302C31.0105 5.90712 32.3851 6.28326 33.4342 7.04544C34.0656 7.50418 34.6208 8.05944 35.0796 8.69085C35.8417 9.73989 36.2179 11.1145 36.382 13.4951C35.6733 13.4869 35.2578 13.4653 34.899 13.4084C31.7166 12.9044 29.2206 10.4084 28.7166 7.22598Z" fill="#656565"/>
</svg>
