<svg width="30" height="30" viewBox="0 0 30 30" fill="none" xmlns="http://www.w3.org/2000/svg">
<path d="M3.73047 7.54668C3.73047 3.82749 6.74546 0.8125 10.4646 0.8125H16.622C18.408 0.8125 20.1209 1.52199 21.3838 2.7849L23.7328 5.13385C24.9957 6.39676 25.7052 8.10962 25.7052 9.89563V14.6353C25.7052 15.2225 25.2291 15.6986 24.6419 15.6986C24.0546 15.6986 23.5786 15.2225 23.5786 14.6353V9.89563C23.5786 8.67362 23.0931 7.50167 22.229 6.63758L19.8801 4.28862C19.016 3.42452 17.844 2.93908 16.622 2.93908H10.4646C7.91994 2.93908 5.85705 5.00197 5.85705 7.54668V21.7239C5.85705 24.2686 7.91994 26.3315 10.4646 26.3315H14.7178C15.305 26.3315 15.7811 26.8075 15.7811 27.3948C15.7811 27.982 15.305 28.4581 14.7178 28.4581H10.4646C6.74546 28.4581 3.73047 25.4431 3.73047 21.7239V7.54668Z" fill="#AEAEB1"/>
<path d="M7.98363 16.053C7.98363 15.4658 8.45968 14.9897 9.04692 14.9897H17.5533C18.1405 14.9897 18.6165 15.4658 18.6165 16.053C18.6165 16.6402 18.1405 17.1163 17.5533 17.1163H9.04692C8.45968 17.1163 7.98363 16.6402 7.98363 16.053Z" fill="#AEAEB1"/>
<path d="M9.04692 9.31883C8.45968 9.31883 7.98363 9.79488 7.98363 10.3821C7.98363 10.9694 8.45968 11.4454 9.04692 11.4454H14.7178C15.305 11.4454 15.7811 10.9694 15.7811 10.3821C15.7811 9.79488 15.305 9.31883 14.7178 9.31883H9.04692Z" fill="#AEAEB1"/>
<path d="M7.98363 21.7239C7.98363 21.1367 8.45968 20.6606 9.04692 20.6606H13.3001C13.8873 20.6606 14.3634 21.1367 14.3634 21.7239C14.3634 22.3111 13.8873 22.7872 13.3001 22.7872H9.04692C8.45968 22.7872 7.98363 22.3111 7.98363 21.7239Z" fill="#AEAEB1"/>
<path fill-rule="evenodd" clip-rule="evenodd" d="M22.6124 17.8197C22.8986 17.3544 23.5497 17.3544 23.8358 17.8197L25.3017 20.2036C25.4001 20.3638 25.5525 20.4794 25.7287 20.5278L28.3522 21.2473C28.8643 21.3878 29.0655 22.0347 28.7302 22.4627L27.0127 24.6556C26.8974 24.8029 26.8392 24.9901 26.8496 25.1801L27.0051 28.0087C27.0355 28.5608 26.5087 28.9606 26.0154 28.7598L23.4881 27.7312C23.3183 27.6621 23.1299 27.6621 22.9602 27.7312L20.4329 28.7598C19.9396 28.9606 19.4128 28.5608 19.4431 28.0087L19.5987 25.1801C19.6091 24.9901 19.5509 24.8029 19.4356 24.6556L17.7181 22.4627C17.3828 22.0347 17.584 21.3878 18.0961 21.2473L20.7195 20.5278C20.8957 20.4794 21.0482 20.3638 21.1466 20.2036L22.6124 17.8197ZM22.9581 21.3175L23.2241 20.8849L23.4902 21.3175C23.8621 21.9224 24.4536 22.3831 25.1662 22.5786L25.8018 22.7529L25.3385 23.3444C24.8994 23.905 24.688 24.6018 24.7262 25.2968L24.7624 25.9539L24.2897 25.7615C23.606 25.4833 22.8423 25.4833 22.1585 25.7615L21.6859 25.9539L21.7221 25.2968C21.7603 24.6018 21.5489 23.905 21.1098 23.3444L20.6465 22.7529L21.2821 22.5786C21.9947 22.3831 22.5862 21.9224 22.9581 21.3175Z" fill="#AEAEB1"/>
</svg>
