<svg width="44" height="44" viewBox="0 0 44 44" fill="none" xmlns="http://www.w3.org/2000/svg">
    <path d="M31.291 14.207a4.25 4.25 0 0 1-4.25 4.25v2.5a6.75 6.75 0 0 0 6.75-6.75h-2.5zm-4.25 4.25a4.25 4.25 0 0 1-4.25-4.25h-2.5a6.75 6.75 0 0 0 6.75 6.75v-2.5zm-4.25-4.25a4.25 4.25 0 0 1 4.25-4.25v-2.5a6.75 6.75 0 0 0-6.75 6.75h2.5zm4.25-4.25a4.25 4.25 0 0 1 4.25 4.25h2.5a6.75 6.75 0 0 0-6.75-6.75v2.5zm-5.5 16.5h11v-2.5h-11v2.5zm11 8.5h-11v2.5h11v-2.5zm-11 0a4.25 4.25 0 0 1-4.25-4.25h-2.5a6.75 6.75 0 0 0 6.75 6.75v-2.5zm15.25-4.25a4.25 4.25 0 0 1-4.25 4.25v2.5a6.75 6.75 0 0 0 6.75-6.75h-2.5zm-4.25-4.25a4.25 4.25 0 0 1 4.25 4.25h2.5a6.75 6.75 0 0 0-6.75-6.75v2.5zm-11-2.5a6.75 6.75 0 0 0-6.75 6.75h2.5a4.25 4.25 0 0 1 4.25-4.25v-2.5zM19.254 19.045c-.29-.465-.832-.713-1.379-.713a4.125 4.125 0 1 1 0-8.25c.547 0 1.09-.248 1.379-.713l.038-.061c.482-.76.238-1.836-.656-1.934a6.875 6.875 0 1 0 0 13.667c.894-.099 1.138-1.175.657-1.935l-.04-.061zM13.674 33.58c-.209-.348-.576-.581-.98-.581h-.319a4.125 4.125 0 1 1 0-8.25h.318c.405 0 .772-.234.98-.581.508-.848-.043-2.17-1.03-2.17h-.268a6.875 6.875 0 1 0 0 13.75h.267c.988 0 1.54-1.32 1.032-2.168z" fill="#656565"/>
</svg>
