<svg width="60" height="60" viewBox="0 0 60 60" fill="none" xmlns="http://www.w3.org/2000/svg">
<path d="M14.3735 48.939L15.4756 47.4221H15.4756L14.3735 48.939ZM12.2443 46.8098L10.7274 47.9119H10.7274L12.2443 46.8098ZM43.2152 46.8098L41.6983 45.7077H41.6983L43.2152 46.8098ZM41.086 48.939L39.9839 47.4221H39.9839L41.086 48.939ZM14.3735 17.9681L13.2714 16.4512H13.2714L14.3735 17.9681ZM12.2443 20.0973L10.7274 18.9952H10.7274L12.2443 20.0973ZM31.5569 18.0188C32.5924 18.0312 33.4419 17.2019 33.4543 16.1664C33.4667 15.131 32.6374 14.2815 31.6019 14.2691L31.5569 18.0188ZM46.9142 29.5814C46.9018 28.546 46.0524 27.7166 45.0169 27.729C43.9814 27.7414 43.1521 28.5909 43.1645 29.6264L46.9142 29.5814ZM25.5103 31.8376C24.7781 32.5698 24.7781 33.757 25.5103 34.4892C26.2426 35.2214 27.4298 35.2214 28.162 34.4892L25.5103 31.8376ZM36.3552 8.15035C35.3197 8.15497 34.484 8.99817 34.4886 10.0337C34.4932 11.0692 35.3364 11.9049 36.372 11.9003L36.3552 8.15035ZM41.1413 10.004L41.1497 11.879L41.1413 10.004ZM49.9955 18.8582L51.8705 18.8666L49.9955 18.8582ZM48.0992 23.6276C48.0946 24.6631 48.9303 25.5063 49.9659 25.5109C51.0014 25.5156 51.8446 24.6798 51.8492 23.6443L48.0992 23.6276ZM48.1596 10.987L49.3072 9.50417L49.3072 9.50417L48.1596 10.987ZM49.0126 11.8399L50.4954 10.6924L50.4954 10.6924L49.0126 11.8399ZM48.5705 11.4291L47.4204 9.9482L47.3277 10.0202L47.2446 10.1033L48.5705 11.4291ZM27.7298 48.9021C24.0792 48.9021 21.4919 48.8995 19.4957 48.6832C17.5346 48.4707 16.3676 48.0702 15.4756 47.4221L13.2714 50.4559C14.9092 51.6459 16.8116 52.1644 19.0917 52.4114C21.3368 52.6546 24.1627 52.6521 27.7298 52.6521V48.9021ZM8.53125 33.4536C8.53125 37.0206 8.52868 39.8465 8.77192 42.0916C9.01896 44.3717 9.53744 46.2741 10.7274 47.9119L13.7612 45.7077C13.1131 44.8157 12.7126 43.6488 12.5001 41.6876C12.2838 39.6915 12.2812 37.1041 12.2812 33.4536H8.53125ZM15.4756 47.4221C14.8177 46.9441 14.2392 46.3656 13.7612 45.7077L10.7274 47.9119C11.4367 48.8882 12.2952 49.7467 13.2714 50.4559L15.4756 47.4221ZM43.1783 33.4536C43.1783 37.1041 43.1757 39.6915 42.9594 41.6876C42.7469 43.6488 42.3464 44.8157 41.6983 45.7077L44.7321 47.9119C45.9221 46.2741 46.4405 44.3717 46.6876 42.0916C46.9308 39.8465 46.9283 37.0206 46.9283 33.4536H43.1783ZM27.7298 52.6521C31.2968 52.6521 34.1227 52.6546 36.3678 52.4114C38.6479 52.1644 40.5503 51.6459 42.1881 50.4559L39.9839 47.4221C39.0919 48.0702 37.9249 48.4707 35.9638 48.6832C33.9676 48.8995 31.3803 48.9021 27.7298 48.9021V52.6521ZM41.6983 45.7077C41.2203 46.3656 40.6418 46.9441 39.9839 47.4221L42.1881 50.4559C43.1643 49.7467 44.0228 48.8882 44.7321 47.9119L41.6983 45.7077ZM27.7298 14.2551C24.1627 14.2551 21.3368 14.2525 19.0917 14.4957C16.8116 14.7428 14.9092 15.2613 13.2714 16.4512L15.4756 19.485C16.3676 18.8369 17.5346 18.4364 19.4957 18.2239C21.4919 18.0076 24.0792 18.0051 27.7298 18.0051V14.2551ZM12.2812 33.4536C12.2812 29.803 12.2838 27.2157 12.5001 25.2195C12.7126 23.2584 13.1131 22.0914 13.7612 21.1994L10.7274 18.9952C9.53744 20.633 9.01896 22.5354 8.77192 24.8156C8.52868 27.0606 8.53125 29.8865 8.53125 33.4536H12.2812ZM13.2714 16.4512C12.2952 17.1605 11.4367 18.019 10.7274 18.9952L13.7612 21.1994C14.2392 20.5415 14.8177 19.963 15.4756 19.485L13.2714 16.4512ZM27.7298 18.0051C29.1484 18.0051 30.4133 18.0051 31.5569 18.0188L31.6019 14.2691C30.4313 14.255 29.1425 14.2551 27.7298 14.2551V18.0051ZM46.9283 33.4536C46.9283 32.0408 46.9283 30.752 46.9142 29.5814L43.1645 29.6264C43.1782 30.77 43.1783 32.0349 43.1783 33.4536H46.9283ZM36.372 11.9003L41.1497 11.879L41.1329 8.12903L36.3552 8.15035L36.372 11.9003ZM48.1206 18.8499L48.0992 23.6276L51.8492 23.6443L51.8705 18.8666L48.1206 18.8499ZM41.1497 11.879C43.0988 11.8703 44.4022 11.8673 45.387 11.9749C46.3341 12.0783 46.7462 12.2641 47.0121 12.4698L49.3072 9.50417C48.2699 8.70144 47.0779 8.38722 45.7941 8.24703C44.5481 8.11095 42.9939 8.12073 41.1329 8.12903L41.1497 11.879ZM51.8705 18.8666C51.8788 17.0056 51.8886 15.4515 51.7525 14.2054C51.6123 12.9216 51.2981 11.7296 50.4954 10.6924L47.5297 12.9875C47.7355 13.2533 47.9213 13.6654 48.0247 14.6125C48.1322 15.5973 48.1293 16.9007 48.1206 18.8499L51.8705 18.8666ZM28.162 34.4892L49.8963 12.7549L47.2446 10.1033L25.5103 31.8376L28.162 34.4892ZM47.0121 12.4698C47.1102 12.5457 47.2032 12.6278 47.2906 12.7155L49.9465 10.0681C49.7459 9.8668 49.5323 9.67843 49.3072 9.50417L47.0121 12.4698ZM47.2906 12.7155C47.3758 12.801 47.4557 12.8918 47.5297 12.9875L50.4954 10.6924C50.3254 10.4728 50.1421 10.2643 49.9465 10.0681L47.2906 12.7155ZM49.7205 12.91L49.7686 12.8726L47.4685 9.91088L47.4204 9.9482L49.7205 12.91Z" fill="white"/>
</svg>
