<svg width="40" height="40" viewBox="0 0 40 40" fill="none" xmlns="http://www.w3.org/2000/svg">
<path d="M17.529 4.19324C17.2251 3.97064 16.8218 3.93774 16.4858 4.10813C16.1499 4.27852 15.9381 4.62327 15.9381 5C15.9381 7.98566 15.1991 13.1523 11.7319 16.5984C8.03012 20.2778 7.18074 24.7379 8.74592 28.5305C10.2964 32.2875 14.1264 35.1762 19.353 35.9881C19.4506 36.0033 19.5498 36.0039 19.6475 35.99C22.4104 35.5966 26.3547 34.5909 28.9962 31.5171C31.6932 28.3787 32.8066 23.3667 30.5015 15.4884C30.3894 15.1052 30.0601 14.8255 29.6639 14.7767C29.2676 14.728 28.8803 14.9196 28.6787 15.2642C28.609 15.3833 28.5384 15.5055 28.4666 15.6297C28.0478 16.3546 27.5885 17.1497 27.0261 17.8172C26.6522 18.2609 26.2885 18.5797 25.9289 18.7738C25.5968 16.9864 24.8389 14.5955 23.6967 12.2037C22.2897 9.25735 20.2367 6.17632 17.529 4.19324Z" fill="url(#paint0_linear_2413_59028)" stroke="#F6F6F6" stroke-width="2" stroke-linejoin="round"/>
<path d="M19.5 35C9.18741 33.6875 14.4374 20.1875 19.8749 15.6875C18.9374 22.4375 24.1382 22.03 24.7499 28.25C25.1249 32.0625 23.6249 34.625 19.5 35Z" fill="url(#paint1_linear_2413_59028)"/>
<path d="M19.9736 35C13.2426 33.6667 16.1439 25.6667 19.2035 23C19.2036 27.6667 22.875 27 22.875 31C22.875 33.6667 21.5855 34.8421 19.9736 35Z" fill="url(#paint2_linear_2413_59028)"/>
<defs>
<linearGradient id="paint0_linear_2413_59028" x1="19.875" y1="5" x2="19.875" y2="35" gradientUnits="userSpaceOnUse">
<stop stop-color="#FF364E"/>
<stop offset="1" stop-color="#CB0D00"/>
</linearGradient>
<linearGradient id="paint1_linear_2413_59028" x1="19.204" y1="15.6875" x2="19.204" y2="35" gradientUnits="userSpaceOnUse">
<stop stop-color="#FFD600"/>
<stop offset="1" stop-color="#F67600"/>
</linearGradient>
<linearGradient id="paint2_linear_2413_59028" x1="19.375" y1="23" x2="19.375" y2="35" gradientUnits="userSpaceOnUse">
<stop stop-color="#ED8000"/>
<stop offset="1" stop-color="#FFD541"/>
</linearGradient>
</defs>
</svg>
