<svg width="40" height="40" viewBox="0 0 40 40" fill="none" xmlns="http://www.w3.org/2000/svg">
<path fill-rule="evenodd" clip-rule="evenodd" d="M12.5132 4.05571C12.8951 3.72446 13.439 3.65588 13.8912 3.88196L16.6657 5.26914L19.4398 3.882C19.7917 3.70602 20.206 3.70602 20.5579 3.882L23.3319 5.26914L26.1065 3.88196C26.5587 3.65588 27.1026 3.72446 27.4845 4.05571C27.8665 4.38697 28.0112 4.91568 27.8514 5.3953L27.1101 7.61906C27.6568 7.40525 28.2307 7.2076 28.8084 7.04615C29.6654 6.80665 30.5775 6.63344 31.448 6.62508C32.3087 6.61681 33.2394 6.76901 34.0258 7.29329C34.6002 7.67623 34.7554 8.45232 34.3725 9.02673C33.9896 9.60114 33.2135 9.75635 32.6391 9.37341C32.4255 9.23102 32.0575 9.11934 31.472 9.12496C30.8963 9.13049 30.2146 9.24894 29.4813 9.45389C28.9095 9.61368 28.3347 9.81792 27.7923 10.0384C32.4203 13.0643 35.1902 19.0567 34.9981 24.6264C34.885 27.9051 33.7489 31.1426 31.2733 33.6183C28.7927 36.0988 25.0857 37.6967 20.0531 37.9155C20.017 37.9171 19.9807 37.9171 19.9445 37.9155C14.912 37.6967 11.205 36.0988 8.72442 33.6183C6.24875 31.1426 5.11271 27.9051 4.99962 24.6264C4.7908 18.5723 8.08148 12.0189 13.4541 9.31852L12.1463 5.3953C11.9864 4.91568 12.1312 4.38697 12.5132 4.05571ZM14.9403 11.3791C10.399 13.4373 7.31091 19.1123 7.49813 24.5403C7.59343 27.3032 8.54077 29.8991 10.4922 31.8505C12.431 33.7893 15.4781 35.2087 19.9988 35.4154C24.5196 35.2087 27.5667 33.7893 29.5055 31.8505C31.4569 29.8991 32.4042 27.3032 32.4995 24.5403C32.6876 19.0879 29.5707 13.3861 24.9958 11.3514C20.643 13.045 16.8635 12.2717 14.9403 11.3791ZM23.9953 9.0577C20.3682 10.4363 17.3479 9.73163 16.0255 9.12719L15.4723 7.46751L16.1068 7.78474C16.4587 7.96068 16.8729 7.96067 17.2248 7.7847L19.9988 6.39758L22.7728 7.7847C23.1248 7.96067 23.539 7.96068 23.8909 7.78474L24.5254 7.46751L23.9953 9.0577Z" fill="white"/>
<path fill-rule="evenodd" clip-rule="evenodd" d="M19.8401 17.2917C20.4154 17.2917 20.8818 17.7581 20.8818 18.3334V18.3444C22.8439 18.5478 24.3738 20.2063 24.3738 22.2222C24.3738 22.7975 23.9075 23.2639 23.3322 23.2639C22.7569 23.2639 22.2905 22.7975 22.2905 22.2222C22.2905 21.3594 21.6886 20.6372 20.8818 20.4525V23.3238C22.8149 23.3503 24.3738 24.9257 24.3738 26.8651C24.3738 28.8046 22.8149 30.3799 20.8817 30.4064C20.8766 30.9773 20.4122 31.4385 19.8401 31.4385C19.2648 31.4385 18.7984 30.9721 18.7984 30.3968V30.3396C16.9912 30.0002 15.6238 28.4137 15.6238 26.508C15.6238 25.9327 16.0902 25.4663 16.6655 25.4663C17.2408 25.4663 17.7072 25.9327 17.7072 26.508C17.7072 27.2532 18.1562 27.8935 18.7984 28.1732V25.388C17.0149 25.2043 15.6238 23.6972 15.6238 21.8651C15.6238 20.033 17.0149 18.5259 18.7984 18.3422V18.3334C18.7984 17.7581 19.2648 17.2917 19.8401 17.2917ZM18.7984 20.4533C18.1707 20.6161 17.7072 21.1865 17.7072 21.8651C17.7072 22.5437 18.1707 23.1141 18.7984 23.2768V20.4533ZM20.8818 25.4076V28.3226C21.6642 28.2965 22.2905 27.6539 22.2905 26.8651C22.2905 26.0763 21.6642 25.4337 20.8818 25.4076Z" fill="white"/>
</svg>
