<svg width="200" height="200" viewBox="0 0 200 200" fill="none" xmlns="http://www.w3.org/2000/svg">
<g clip-path="url(#clip0_14595_420481)">
<path d="M79.8438 70.9766C78.1313 70.9766 76.3164 70.9766 74.5016 71.1773H74.1997C41.144 74.3018 14 105.679 14 140.649C14 181.265 51.726 186.001 79.8438 186.001C107.761 186.001 140.313 181.769 144.848 148.41C149.584 109.306 118.543 70.9766 79.8438 70.9766Z" fill="#FF6060"/>
<path d="M144.848 148.41C140.312 181.769 107.761 186.001 79.8438 186.001V70.9766C118.543 70.9766 149.584 109.306 144.848 148.41Z" fill="#EB3D54"/>
<path d="M114.815 30.7299L104.737 61.3003H54.9522L44.8741 30.7299C44.2679 29.2182 44.571 27.5044 45.4778 26.1948C46.4856 24.8852 47.9973 24.0781 49.6101 24.0781H65.634C67.6496 18.232 73.2937 14 79.8444 14C86.3952 14 91.9382 18.232 94.0549 24.0781H110.079C111.692 24.0781 113.203 24.8852 114.211 26.1948C115.118 27.5044 115.421 29.2182 114.815 30.7299Z" fill="#FF6060"/>
<path d="M114.814 30.7299L104.736 61.3003H79.8438V14C86.3945 14 91.9375 18.232 94.0542 24.0781H110.078C111.691 24.0781 113.203 24.8852 114.21 26.1948C115.117 27.5044 115.42 29.2182 114.814 30.7299Z" fill="#EB3D54"/>
<path d="M115.117 64.7266C115.117 70.2695 110.582 74.8047 105.039 74.8047H54.6484C49.1055 74.8047 44.5703 70.2695 44.5703 64.7266C44.5703 59.1836 49.1055 54.6484 54.6484 54.6484H105.039C110.582 54.6484 115.117 59.1836 115.117 64.7266Z" fill="#FFDA2D"/>
<path d="M115.117 64.7266C115.117 70.2695 110.582 74.8047 105.039 74.8047H79.8438V54.6484H105.039C110.582 54.6484 115.117 59.1836 115.117 64.7266Z" fill="#FDBF00"/>
<path fill-rule="evenodd" clip-rule="evenodd" d="M80 101H75.232V110.288H68.68C67.384 107.552 64.936 104.096 62.56 101.504L55.288 104.816C56.512 106.472 57.88 108.344 58.96 110.288H48.592V125.48H56.944V117.632H80V101ZM80 120.656H60.256V134.984H80V129.728H68.392V125.912H80V120.656ZM80 137.576H55.864V157.52H63.928V144.128H80V137.576ZM80 146.504H75.448C74.08 156.368 70.768 160.184 46 161.84C47.368 163.64 49.168 166.952 49.6 168.896C67.2079 167.337 75.7046 164.172 80 158.582V146.504Z" fill="#EB3D54"/>
<path fill-rule="evenodd" clip-rule="evenodd" d="M80 96H75.232V105.288H68.68C67.384 102.552 64.936 99.096 62.56 96.504L55.288 99.816C56.512 101.472 57.88 103.344 58.96 105.288H48.592V120.48H56.944V112.632H80V96ZM80 115.656H60.256V129.984H80V124.728H68.392V120.912H80V115.656ZM80 132.576H55.864V152.52H63.928V139.128H80V132.576ZM80 141.504H75.448C74.08 151.368 70.768 155.184 46 156.84C47.368 158.64 49.168 161.952 49.6 163.896C67.2079 162.337 75.7046 159.172 80 153.582V141.504Z" fill="#FFDA2D"/>
<path fill-rule="evenodd" clip-rule="evenodd" d="M80 158.582C82.4492 155.395 83.5325 151.419 84.16 146.504H80V158.582ZM80 144.128H95.104V157.088H103.6V137.576H80V144.128ZM80 134.984H99.28V120.656H80V125.912H90.568V129.728H80V134.984ZM80 117.632H102.448V125.48H111.232V110.288H101.08C101.659 109.506 102.262 108.701 102.878 107.877L102.878 107.877C103.794 106.653 104.741 105.387 105.688 104.096L96.4 101.432C95.392 104.096 93.592 107.48 91.936 110.288H84.16V101H80V117.632ZM81.136 159.752L85.6 154.424C94.96 156.944 105.256 160.472 111.448 163.28L105.616 168.896C100 166.016 90.496 162.344 81.136 159.752Z" fill="#CD0C26"/>
<path fill-rule="evenodd" clip-rule="evenodd" d="M80 153.582C82.4492 150.395 83.5325 146.419 84.16 141.504H80V153.582ZM80 139.128H95.104V152.088H103.6V132.576H80V139.128ZM80 129.984H99.28V115.656H80V120.912H90.568V124.728H80V129.984ZM80 112.632H102.448V120.48H111.232V105.288H101.08C101.659 104.506 102.262 103.701 102.878 102.877L102.878 102.877C103.794 101.653 104.741 100.387 105.688 99.096L96.4 96.432C95.392 99.096 93.592 102.48 91.936 105.288H84.16V96H80V112.632ZM81.136 154.752L85.6 149.424C94.96 151.944 105.256 155.472 111.448 158.28L105.616 163.896C100 161.016 90.496 157.344 81.136 154.752Z" fill="#FDBF00"/>
<g clip-path="url(#clip1_14595_420481)">
<path d="M143 185C165.091 185 183 167.091 183 145C183 122.909 165.091 105 143 105C120.909 105 103 122.909 103 145C103 167.091 120.909 185 143 185Z" fill="#FFCE33"/>
<path d="M143.001 177.004C160.37 177.004 174.451 162.923 174.451 145.554C174.451 128.184 160.37 114.104 143.001 114.104C125.631 114.104 111.551 128.184 111.551 145.554C111.551 162.923 125.631 177.004 143.001 177.004Z" fill="#FFA200"/>
</g>
<path d="M155.521 145.666V135.818H147.169V145.666H155.521ZM160.166 131.312V150.211H142.758V131.312H160.166ZM142.134 150.929L139.597 154.796C138.934 153.481 137.685 151.447 136.475 149.613V166H132.064V151.288C130.62 154.557 128.981 157.627 127.225 159.74C126.795 158.345 125.703 156.311 125 155.115C127.342 152.524 129.723 148.258 131.245 144.43H125.664V140.004H132.064V135.22C130.152 135.539 128.239 135.778 126.444 135.977C126.288 134.941 125.703 133.346 125.234 132.309C130.152 131.592 135.655 130.395 139.285 129L141.744 132.907C140.182 133.466 138.348 133.984 136.475 134.383V140.004H141.822V144.43H136.475V145.028C137.763 146.144 141.314 149.932 142.134 150.929ZM145.178 153.401L149.784 154.477C148.574 158.903 146.31 163.249 143.89 165.96C143.032 165.163 141.119 163.847 139.987 163.209C142.329 160.857 144.203 157.149 145.178 153.401ZM152.906 154.756L156.965 153.202C158.995 156.551 161.219 161.016 162 163.967L157.59 165.761C156.887 162.89 154.819 158.265 152.906 154.756Z" fill="#ED8026"/>
<path d="M155.521 142.666V132.818H147.169V142.666H155.521ZM160.166 128.312V147.211H142.758V128.312H160.166ZM142.134 147.929L139.597 151.796C138.934 150.481 137.685 148.447 136.475 146.613V163H132.064V148.288C130.62 151.557 128.981 154.627 127.225 156.74C126.795 155.345 125.703 153.311 125 152.115C127.342 149.524 129.723 145.258 131.245 141.43H125.664V137.004H132.064V132.22C130.152 132.539 128.239 132.778 126.444 132.977C126.288 131.941 125.703 130.346 125.234 129.309C130.152 128.592 135.655 127.395 139.285 126L141.744 129.907C140.182 130.466 138.348 130.984 136.475 131.383V137.004H141.822V141.43H136.475V142.028C137.763 143.144 141.314 146.932 142.134 147.929ZM145.178 150.401L149.784 151.477C148.574 155.903 146.31 160.249 143.89 162.96C143.032 162.163 141.119 160.847 139.987 160.209C142.329 157.857 144.203 154.149 145.178 150.401ZM152.906 151.756L156.965 150.202C158.995 153.551 161.219 158.016 162 160.967L157.59 162.761C156.887 159.89 154.819 155.265 152.906 151.756Z" fill="#FFD44B"/>
</g>
<defs>
<clipPath id="clip0_14595_420481">
<rect width="172" height="172" fill="white" transform="translate(14 14)"/>
</clipPath>
<clipPath id="clip1_14595_420481">
<rect width="80" height="80" fill="white" transform="translate(103 105)"/>
</clipPath>
</defs>
</svg>
