<svg width="44" height="44" viewBox="0 0 44 44" fill="none" xmlns="http://www.w3.org/2000/svg">
<path d="M36.9952 34.2784C39.3718 32.5218 40.9217 29.9386 40.9217 27.0454C40.9217 21.7756 35.7553 17.5391 29.4522 17.5391C23.1491 17.5391 18.0859 21.7756 18.0859 27.0454C18.0859 32.3152 23.1491 36.5517 29.4522 36.5517C30.7954 36.5517 32.0354 36.345 33.172 36.035C33.5853 35.9317 33.9987 36.035 34.102 36.1383L36.6852 37.585C36.9952 37.7916 37.3052 37.585 37.2019 37.1716L36.5819 34.8984C36.5819 34.5884 36.7886 34.3817 36.9952 34.2784ZM25.629 25.4954C25.3995 25.5562 25.1592 25.5635 24.9265 25.5166C24.6938 25.4698 24.4749 25.3702 24.2868 25.2254C24.0987 25.0807 23.9464 24.8946 23.8415 24.6817C23.7367 24.4687 23.6822 24.2345 23.6822 23.9971C23.6822 23.7598 23.7367 23.5256 23.8415 23.3126C23.9464 23.0997 24.0987 22.9136 24.2868 22.7689C24.4749 22.6241 24.6938 22.5245 24.9265 22.4776C25.1592 22.4308 25.3995 22.4381 25.629 22.4989C25.9595 22.5864 26.2519 22.7808 26.4604 23.0518C26.669 23.3228 26.7821 23.6552 26.7821 23.9971C26.7821 24.3391 26.669 24.6715 26.4604 24.9425C26.2519 25.2135 25.9595 25.4079 25.629 25.4954ZM33.2754 25.4954C33.0459 25.5562 32.8056 25.5635 32.5729 25.5166C32.3401 25.4698 32.1213 25.3702 31.9332 25.2254C31.7451 25.0807 31.5927 24.8946 31.4879 24.6817C31.3831 24.4687 31.3286 24.2345 31.3286 23.9971C31.3286 23.7598 31.3831 23.5256 31.4879 23.3126C31.5927 23.0997 31.7451 22.9136 31.9332 22.7689C32.1213 22.6241 32.3401 22.5245 32.5729 22.4776C32.8056 22.4308 33.0459 22.4381 33.2754 22.4989C33.6059 22.5864 33.8982 22.7808 34.1068 23.0518C34.3154 23.3228 34.4284 23.6552 34.4284 23.9971C34.4284 24.3391 34.3154 24.6715 34.1068 24.9425C33.8982 25.2135 33.6059 25.4079 33.2754 25.4954Z" fill="#00C70A"/>
<path d="M16.6395 7C9.09643 7 3 12.1665 3 18.4696C3 21.8794 4.7566 24.9793 7.64982 27.0459C7.95981 27.2526 8.16647 27.5625 8.06314 28.0792L7.33983 30.5591C7.2365 31.0757 7.64982 31.2824 7.95981 31.1791L11.0597 29.4225C11.3697 29.2158 11.783 29.1125 12.1963 29.2158C14.8829 30.0424 17.1561 29.8358 17.4661 29.8358C14.9862 21.1561 23.5625 16.1963 30.1756 16.6096C29.1423 11.2365 23.4592 7 16.6395 7ZM12.093 16.6096C11.8195 16.6755 11.5347 16.6784 11.2599 16.6183C10.9851 16.5581 10.7276 16.4364 10.5066 16.2624C10.2857 16.0883 10.1071 15.8664 9.98431 15.6133C9.86152 15.3603 9.79772 15.0826 9.79772 14.8014C9.79772 14.5201 9.86152 14.2425 9.98431 13.9894C10.1071 13.7364 10.2857 13.5144 10.5066 13.3404C10.7276 13.1663 10.9851 13.0446 11.2599 12.9845C11.5347 12.9243 11.8195 12.9273 12.093 12.9931C12.499 13.0908 12.8602 13.3223 13.1186 13.6504C13.3771 13.9784 13.5176 14.3838 13.5176 14.8014C13.5176 15.2189 13.3771 15.6244 13.1186 15.9524C12.8602 16.2804 12.499 16.5119 12.093 16.6096ZM21.2893 16.6096C21.0158 16.6755 20.731 16.6784 20.4562 16.6183C20.1815 16.5581 19.9239 16.4364 19.703 16.2624C19.482 16.0883 19.3034 15.8664 19.1806 15.6133C19.0578 15.3603 18.994 15.0826 18.994 14.8014C18.994 14.5201 19.0578 14.2425 19.1806 13.9894C19.3034 13.7364 19.482 13.5144 19.703 13.3404C19.9239 13.1663 20.1815 13.0446 20.4562 12.9845C20.731 12.9243 21.0158 12.9273 21.2893 12.9931C21.6953 13.0908 22.0565 13.3223 22.315 13.6504C22.5734 13.9784 22.7139 14.3838 22.7139 14.8014C22.7139 15.2189 22.5734 15.6244 22.315 15.9524C22.0565 16.2804 21.6953 16.5119 21.2893 16.6096Z" fill="#00C70A"/>
</svg>
