<svg width="44" height="44" viewBox="0 0 44 44" fill="none" xmlns="http://www.w3.org/2000/svg">
<g clip-path="url(#clip0_2310_71313)">
<mask id="mask0_2310_71313" style="mask-type:luminance" maskUnits="userSpaceOnUse" x="3" y="2" width="39" height="40">
<path d="M3.00098 2.93418H41.1343V41.0675H3.00098V2.93418Z" fill="white"/>
</mask>
<g mask="url(#mask0_2310_71313)">
<path d="M33.4319 26.5392C33.9636 25.9464 34.2884 25.1628 34.2884 24.3048C34.2884 22.457 32.7794 20.9585 30.9309 20.9585H25.4194V15.447C25.4194 12.3673 22.9138 9.8611 19.8335 9.8611H18.9174L17.5365 16.7646C16.9794 19.5531 14.9491 21.821 12.2396 22.6834L10.598 23.2674L9.08984 31.008L10.598 38.908L12.9873 39.4487C17.3957 40.5197 21.9315 41.0679 26.4681 41.0679H28.7024C30.551 41.0679 32.054 39.5597 32.054 37.7111C32.054 37.2754 31.969 36.8583 31.8172 36.4762C33.239 36.0882 34.2884 34.7863 34.2884 33.2423C34.2884 32.3851 33.9636 31.6016 33.4319 31.008C33.9636 30.4151 34.2884 29.6316 34.2884 28.7736C34.2884 27.9163 33.9636 27.1328 33.4319 26.5392Z" fill="#FFCEBF"/>
<path d="M31.8172 36.4762C31.969 36.8583 32.054 37.2754 32.054 37.7111C32.054 39.5597 30.551 41.0679 28.7024 41.0679H26.4681C21.9315 41.0679 17.3957 40.5197 12.9873 39.4487L10.598 38.908L9.08984 31.008H33.4319C33.9636 31.6016 34.2884 32.3851 34.2884 33.2423C34.2884 34.7863 33.239 36.0882 31.8172 36.4762Z" fill="#FFC0AB"/>
<path d="M3.00098 38.9077H10.5979V23.2671H3.00098V38.9077Z" fill="#7ED8F6"/>
<path d="M10.5979 38.9077H3.00098V31.0077H10.5979V38.9077Z" fill="#6AA9FF"/>
<path d="M41.1348 7.5503C41.1348 10.3031 38.8795 12.133 35.7582 14.6668C34.1054 16.0074 33.9192 16.178 33.3145 16.6785C32.6069 16.0931 32.5674 16.0432 30.8707 14.6668C27.7494 12.133 25.4941 10.3031 25.4941 7.5503C25.4941 4.96215 27.4573 2.93483 29.9629 2.93483C31.2819 2.93483 32.4348 3.49491 33.3145 4.55773C34.1941 3.49491 35.347 2.93483 36.666 2.93483C39.1716 2.93483 41.1348 4.96215 41.1348 7.5503Z" fill="#FF8856"/>
<path d="M41.1348 7.5503C41.1348 10.3031 38.8795 12.133 35.7582 14.6668C34.1054 16.0074 33.9192 16.178 33.3145 16.6785V4.55773C34.1941 3.49491 35.347 2.93483 36.666 2.93483C39.1716 2.93483 41.1348 4.96215 41.1348 7.5503Z" fill="#FF4949"/>
</g>
</g>
<defs>
<clipPath id="clip0_2310_71313">
<rect width="38.1333" height="38.1333" fill="white" transform="translate(3 2.93335)"/>
</clipPath>
</defs>
</svg>
