<svg width="96" height="96" viewBox="0 0 96 96" fill="none" xmlns="http://www.w3.org/2000/svg">
<g clip-path="url(#clip0_2413_56518)">
<path d="M48 96C74.5097 96 96 74.5097 96 48C96 21.4903 74.5097 0 48 0C21.4903 0 0 21.4903 0 48C0 74.5097 21.4903 96 48 96Z" fill="url(#paint0_linear_2413_56518)"/>
<path d="M46.875 48.549C53.7095 48.549 59.25 43.0085 59.25 36.174C59.25 29.3394 53.7095 23.799 46.875 23.799C40.0405 23.799 34.5 29.3394 34.5 36.174C34.5 43.0085 40.0405 48.549 46.875 48.549Z" fill="white"/>
<path fill-rule="evenodd" clip-rule="evenodd" d="M50.0813 69.9509C47.7435 67.4399 46.3125 64.0739 46.3125 60.3749C46.3125 56.5882 47.8133 53.1479 50.2523 50.6189C49.1498 50.5334 48.0225 50.4884 46.875 50.4884C39.4005 50.4884 32.7833 52.3582 28.6748 55.1594C25.5405 57.2969 23.8125 60.0127 23.8125 62.8634V66.1259C23.8125 67.1407 24.2153 68.1149 24.933 68.8304C25.6508 69.5482 26.6228 69.9509 27.6375 69.9509H50.0813Z" fill="white"/>
<path fill-rule="evenodd" clip-rule="evenodd" d="M60.375 48.5625C53.8545 48.5625 48.5625 53.8545 48.5625 60.375C48.5625 66.8955 53.8545 72.1875 60.375 72.1875C66.8955 72.1875 72.1875 66.8955 72.1875 60.375C72.1875 53.8545 66.8955 48.5625 60.375 48.5625ZM54.939 62.3415L58.314 64.5915C58.9822 65.037 59.8755 64.9493 60.4425 64.38L66.0675 58.755C66.7268 58.098 66.7268 57.027 66.0675 56.37C65.4105 55.7108 64.3395 55.7108 63.6825 56.37L59.034 61.0162L56.811 59.5335C56.037 59.016 54.9885 59.2275 54.471 60.0015C53.9535 60.7755 54.165 61.824 54.939 62.3415Z" fill="white"/>
</g>
<defs>
<linearGradient id="paint0_linear_2413_56518" x1="48" y1="1.13" x2="48" y2="97.13" gradientUnits="userSpaceOnUse">
<stop stop-color="#B4F5B1"/>
<stop offset="1" stop-color="#34C759"/>
</linearGradient>
<clipPath id="clip0_2413_56518">
<rect width="96" height="96" fill="white"/>
</clipPath>
</defs>
</svg>
