<svg width="96" height="96" viewBox="0 0 96 96" fill="none" xmlns="http://www.w3.org/2000/svg">
<g clip-path="url(#clip0_2413_56525)">
<path d="M48 96C74.5097 96 96 74.5097 96 48C96 21.4903 74.5097 0 48 0C21.4903 0 0 21.4903 0 48C0 74.5097 21.4903 96 48 96Z" fill="url(#paint0_linear_2413_56525)"/>
<g clip-path="url(#clip1_2413_56525)">
<path d="M48.0003 36.1611L53.9358 39.2819L52.802 32.6724L57.607 27.9898L50.9682 27.0257L48.0003 21L45.0323 27.0257L38.3936 27.9898L43.1986 32.6724L42.0648 39.2819L48.0003 36.1611Z" fill="white"/>
<path d="M68.0538 37.7831L65.0858 31.7689L62.1179 37.7831L55.4824 38.7472L60.2841 43.4286L59.1503 50.0393L65.0858 46.9185L71.0246 50.0393L69.8876 43.4286L75.0003 38.7472L68.0538 37.7831Z" fill="white"/>
<path d="M26.1128 43.4286L24.9757 50.0393L30.9145 46.9185L36.85 50.0393L35.7162 43.4286L40.5179 38.7472L33.8824 37.7831L30.9145 31.7689L27.9465 37.7831L21 38.7472L26.1128 43.4286Z" fill="white"/>
<path d="M55.9102 51.1641C55.9102 46.8028 52.3613 43.2539 48 43.2539C43.6387 43.2539 40.0898 46.8028 40.0898 51.1641C40.0898 55.5254 43.6387 59.0742 48 59.0742C52.3613 59.0742 55.9102 55.5254 55.9102 51.1641Z" fill="white"/>
<path d="M36.9258 70.1484V75H59.0742V70.1484C59.0742 64.0428 54.1057 59.0742 48 59.0742C41.8943 59.0742 36.9258 64.0428 36.9258 70.1484Z" fill="white"/>
<path d="M71.7302 73.3125C71.7302 68.9512 68.1814 65.4023 63.8201 65.4023C63.0019 65.4023 62.2282 65.563 61.4854 65.7946C61.9332 67.1755 62.2381 68.6204 62.2381 70.1484V75H71.7302V73.3125Z" fill="white"/>
<path d="M70.1484 59.0742C70.1484 55.5843 67.3103 52.7461 63.8203 52.7461C60.3304 52.7461 57.4922 55.5843 57.4922 59.0742C57.4922 59.2757 57.533 59.466 57.5515 59.6625C59.1117 61.0847 60.3699 62.8204 61.1782 64.8058C61.9849 65.1795 62.8744 65.4023 63.8203 65.4023C67.3103 65.4023 70.1484 62.5642 70.1484 59.0742Z" fill="white"/>
<path d="M38.4485 59.6625C38.467 59.466 38.5078 59.2757 38.5078 59.0742C38.5078 55.5843 35.6696 52.7461 32.1797 52.7461C28.6897 52.7461 25.8516 55.5843 25.8516 59.0742C25.8516 62.5642 28.6897 65.4023 32.1797 65.4023C33.1256 65.4023 34.0151 65.1795 34.8218 64.8062C35.6301 62.8204 36.8883 61.0847 38.4485 59.6625Z" fill="white"/>
<path d="M24.2695 73.3125V75H33.7617V70.1484C33.7617 68.6204 34.0666 67.1755 34.5144 65.7946C33.7716 65.563 32.9979 65.4023 32.1797 65.4023C27.8184 65.4023 24.2695 68.9512 24.2695 73.3125Z" fill="white"/>
</g>
</g>
<defs>
<linearGradient id="paint0_linear_2413_56525" x1="48" y1="1.13" x2="48" y2="97.13" gradientUnits="userSpaceOnUse">
<stop stop-color="#AADFFE"/>
<stop offset="1" stop-color="#3697FF"/>
</linearGradient>
<clipPath id="clip0_2413_56525">
<rect width="96" height="96" fill="white"/>
</clipPath>
<clipPath id="clip1_2413_56525">
<rect width="54" height="54" fill="white" transform="translate(21 21)"/>
</clipPath>
</defs>
</svg>
