<svg width="44" height="33" viewBox="0 0 44 33" fill="none" xmlns="http://www.w3.org/2000/svg">
<g clip-path="url(#clip0_4942_80541)">
<mask id="mask0_4942_80541" style="mask-type:luminance" maskUnits="userSpaceOnUse" x="0" y="0" width="44" height="34">
<rect y="0.00195312" width="44" height="33" fill="white"/>
</mask>
<g mask="url(#mask0_4942_80541)">
<path fill-rule="evenodd" clip-rule="evenodd" d="M0 0.00195312V33.002H44V0.00195312H0Z" fill="#EA1A1A"/>
<mask id="mask1_4942_80541" style="mask-type:luminance" maskUnits="userSpaceOnUse" x="0" y="0" width="44" height="34">
<path fill-rule="evenodd" clip-rule="evenodd" d="M0 0.00195312V33.002H44V0.00195312H0Z" fill="white"/>
</mask>
<g mask="url(#mask1_4942_80541)">
<path fill-rule="evenodd" clip-rule="evenodd" d="M21.8197 15.9176C21.8197 15.9176 13.8589 8.81816 23.3586 4.68164C23.3586 4.68164 26.1212 7.72949 24.0487 11.1511C23.3687 12.2733 22.7953 13.0747 22.3643 13.6769L22.3643 13.6769C21.4813 14.9108 21.1965 15.3087 21.8197 15.9176ZM10.0706 10.8202C9.5239 21.1668 19.4334 17.2202 19.4334 17.2202C18.6105 17.5052 18.3819 17.0726 17.6732 15.7317L17.6732 15.7317C17.3271 15.0769 16.8666 14.2056 16.1665 13.0955C14.0326 9.7117 10.0706 10.8202 10.0706 10.8202ZM25.0766 16.2645C25.0766 16.2645 35.2955 19.3238 28.4424 27.0948C28.4424 27.0948 24.6483 25.5037 25.0766 21.5266C25.2171 20.2225 25.397 19.2539 25.5323 18.5259L25.5323 18.5259L25.5323 18.5259C25.8094 17.0337 25.8989 16.5523 25.0766 16.2645ZM22.3906 18.6497C22.3906 18.6497 24.2226 29.1579 14.2079 26.5023C14.2079 26.5023 13.9353 22.3974 17.6842 21.0025C18.9139 20.5448 19.8609 20.2726 20.5726 20.0681L20.5727 20.0681L20.5727 20.0681C22.0307 19.649 22.501 19.5138 22.3906 18.6497ZM35.0323 14.1309C28.7685 5.87789 23.7506 15.2902 23.7506 15.2902C24.1951 14.5411 24.649 14.7238 26.0558 15.2899C26.7429 15.5664 27.6574 15.9344 28.9091 16.33C32.7233 17.5355 35.0323 14.1309 35.0323 14.1309Z" fill="white"/>
<path d="M13.6816 14.2222L14.2619 13.8535C15.5356 15.8581 17.1887 16.8445 19.2516 16.8445V17.532C16.9437 17.532 15.0769 16.4181 13.6816 14.2222Z" fill="#EA1A1A"/>
<path fill-rule="evenodd" clip-rule="evenodd" d="M29.9062 14.7832C30.4758 14.7832 30.9375 14.3215 30.9375 13.752C30.9375 13.1824 30.4758 12.7207 29.9062 12.7207C29.3367 12.7207 28.875 13.1824 28.875 13.752C28.875 14.3215 29.3367 14.7832 29.9062 14.7832Z" fill="#EA1A1A"/>
<path fill-rule="evenodd" clip-rule="evenodd" d="M27.4434 21.6289C28.0129 21.6289 28.4746 21.1672 28.4746 20.5977C28.4746 20.0281 28.0129 19.5664 27.4434 19.5664C26.8738 19.5664 26.4121 20.0281 26.4121 20.5977C26.4121 21.1672 26.8738 21.6289 27.4434 21.6289Z" fill="#EA1A1A"/>
<path fill-rule="evenodd" clip-rule="evenodd" d="M19.1934 24.3789C19.7629 24.3789 20.2246 23.9172 20.2246 23.3477C20.2246 22.7781 19.7629 22.3164 19.1934 22.3164C18.6238 22.3164 18.1621 22.7781 18.1621 23.3477C18.1621 23.9172 18.6238 24.3789 19.1934 24.3789Z" fill="#EA1A1A"/>
<path fill-rule="evenodd" clip-rule="evenodd" d="M13.6934 14.7539C14.2629 14.7539 14.7246 14.2922 14.7246 13.7227C14.7246 13.1531 14.2629 12.6914 13.6934 12.6914C13.1238 12.6914 12.6621 13.1531 12.6621 13.7227C12.6621 14.2922 13.1238 14.7539 13.6934 14.7539Z" fill="#EA1A1A"/>
<path fill-rule="evenodd" clip-rule="evenodd" d="M21.9434 10.6289C22.5129 10.6289 22.9746 10.1672 22.9746 9.59766C22.9746 9.02811 22.5129 8.56641 21.9434 8.56641C21.3738 8.56641 20.9121 9.02811 20.9121 9.59766C20.9121 10.1672 21.3738 10.6289 21.9434 10.6289Z" fill="#EA1A1A"/>
<path d="M21.4966 9.69982L22.1011 10.0274C20.9562 12.1394 20.8755 14.0874 21.8449 15.9107L21.2379 16.2335C20.1554 14.1976 20.2462 12.0066 21.4966 9.69982Z" fill="#EA1A1A"/>
<path d="M30.2697 13.3192L30.1666 13.9989C27.4774 13.5912 25.4644 14.1586 24.0861 15.6894L23.5752 15.2293C25.1215 13.512 27.3669 12.8791 30.2697 13.3192Z" fill="#EA1A1A"/>
<path d="M27.9835 21.1278L27.3095 21.2635C26.7728 18.597 25.5512 16.8994 23.6413 16.1278L23.8989 15.4904C26.0416 16.3561 27.4042 18.2496 27.9835 21.1278Z" fill="#EA1A1A"/>
<path d="M19.1222 23.5835L18.7642 22.9966C21.0863 21.5803 22.2636 19.8517 22.3355 17.7931L23.0226 17.8171C22.942 20.1267 21.6287 22.0547 19.1222 23.5835Z" fill="#EA1A1A"/>
</g>
</g>
</g>
<defs>
<clipPath id="clip0_4942_80541">
<rect width="44" height="33" rx="10" fill="white"/>
</clipPath>
</defs>
</svg>
