<svg width="44" height="44" viewBox="0 0 44 44" fill="none" xmlns="http://www.w3.org/2000/svg">
<g clip-path="url(#clip0_2310_71276)">
<path d="M23.0027 5.76876L24.5214 5.10043C25.5559 4.64468 26.7675 4.94336 27.4716 5.82744L28.5057 7.1251C28.9408 7.6715 29.5856 8.00953 30.282 8.05767L31.9374 8.17117C33.0649 8.24882 33.9989 9.07633 34.2119 10.1863L34.5242 11.8157C34.6557 12.5016 35.0692 13.1007 35.6641 13.4669L37.0767 14.3369C38.0391 14.9293 38.4815 16.0963 38.1544 17.1778L37.6737 18.7661C37.4713 19.4344 37.5591 20.1572 37.9154 20.7577L38.7623 22.1847C39.3389 23.1566 39.1885 24.3952 38.3958 25.201L37.2324 26.3837C36.7425 26.8816 36.4843 27.5623 36.5208 28.2598L36.6076 29.9169C36.6666 31.0455 35.9575 32.0723 34.8812 32.4173L33.3014 32.924C32.6363 33.1373 32.0916 33.6201 31.7996 34.2543L31.1063 35.7618C30.6341 36.7885 29.5293 37.3687 28.4158 37.174L26.7815 36.8883C26.0935 36.7681 25.3865 36.9421 24.8334 37.3683L23.5189 38.3806C22.6236 39.0704 21.3758 39.0704 20.4805 38.3806L19.166 37.3683C18.6129 36.9421 17.9059 36.7678 17.2179 36.8883L15.5836 37.174C14.4701 37.3687 13.3653 36.7885 12.8931 35.7618L12.1998 34.2543C11.9078 33.6201 11.3632 33.1373 10.698 32.924L9.11818 32.4173C8.04189 32.0723 7.3328 31.0455 7.39183 29.9165L7.47862 28.2598C7.51482 27.5623 7.2569 26.8816 6.76707 26.3837L5.60364 25.201C4.81092 24.3952 4.66053 23.1566 5.23715 22.1847L6.08398 20.7577C6.44029 20.1572 6.52813 19.4344 6.32573 18.7661L5.84504 17.1778C5.51755 16.0959 5.9603 14.9293 6.92273 14.3369L8.3353 13.4669C8.93019 13.1007 9.34377 12.5016 9.47518 11.8157L9.78756 10.1863C10.0005 9.07633 10.9345 8.24882 12.0621 8.17117L13.7174 8.05732C14.4139 8.00953 15.0587 7.67115 15.4937 7.1251L16.5278 5.82744C17.232 4.94336 18.4435 4.64468 19.478 5.10008L20.9967 5.76876C21.6359 6.05022 22.3636 6.05022 23.0027 5.76876Z" fill="#FED066"/>
<path d="M23.0027 5.76876L24.5214 5.10043C25.5559 4.64468 26.7675 4.94336 27.4716 5.82744L28.5057 7.1251C28.9408 7.6715 29.5856 8.00953 30.282 8.05767L31.9374 8.17117C33.0649 8.24882 33.9989 9.07633 34.2119 10.1863L34.5242 11.8157C34.6557 12.5016 35.0692 13.1007 35.6641 13.4669L37.0767 14.3369C38.0391 14.9293 38.4815 16.0963 38.1544 17.1778L37.6737 18.7661C37.4713 19.4344 37.5591 20.1572 37.9154 20.7577L38.7623 22.1847C39.3389 23.1566 39.1885 24.3952 38.3958 25.201L37.2324 26.3837C36.7425 26.8816 36.4843 27.5623 36.5208 28.2598L36.6076 29.9169C36.6666 31.0455 35.9575 32.0723 34.8812 32.4173L33.3014 32.924C32.6363 33.1373 32.0916 33.6201 31.7996 34.2543L31.1063 35.7618C30.6341 36.7885 29.5293 37.3687 28.4158 37.174L26.7815 36.8883C26.0935 36.7681 25.3865 36.9421 24.8334 37.3683L23.5189 38.3806C22.6236 39.0704 21.3758 39.0704 20.4805 38.3806L19.166 37.3683C18.6129 36.9421 17.9059 36.7678 17.2179 36.8883L15.5836 37.174C14.4701 37.3687 13.3653 36.7885 12.8931 35.7618L12.1998 34.2543C11.9078 33.6201 11.3632 33.1373 10.698 32.924L9.11818 32.4173C8.04189 32.0723 7.3328 31.0455 7.39183 29.9165L7.47862 28.2598C7.51482 27.5623 7.2569 26.8816 6.76707 26.3837L5.60364 25.201C4.81092 24.3952 4.66053 23.1566 5.23715 22.1847L6.08398 20.7577C6.44029 20.1572 6.52813 19.4344 6.32573 18.7661L5.84504 17.1778C5.51755 16.0959 5.9603 14.9293 6.92273 14.3369L8.3353 13.4669C8.93019 13.1007 9.34377 12.5016 9.47518 11.8157L9.78756 10.1863C10.0005 9.07633 10.9345 8.24882 12.0621 8.17117L13.7174 8.05732C14.4139 8.00953 15.0587 7.67115 15.4937 7.1251L16.5278 5.82744C17.232 4.94336 18.4435 4.64468 19.478 5.10008L20.9967 5.76876C21.6359 6.05022 22.3636 6.05022 23.0027 5.76876Z" fill="#FED066"/>
<path d="M33.7078 21.891C33.7078 28.3571 28.4662 33.5987 22.0004 33.5987C15.5346 33.5987 10.293 28.3571 10.293 21.891C10.293 15.4252 15.5346 10.1836 22.0004 10.1836C28.4662 10.1836 33.7078 15.4252 33.7078 21.891Z" fill="#FF7E51"/>
<path d="M22.0001 10.1836C21.1799 10.1836 20.3791 10.2683 19.6064 10.4289C24.9243 11.5336 28.9202 16.2453 28.9202 21.891C28.9202 27.5363 24.9243 32.248 19.6064 33.3531C20.3791 33.5137 21.1799 33.5984 22.0001 33.5984C28.4659 33.5984 33.7075 28.3568 33.7075 21.891C33.7075 15.4248 28.4659 10.1836 22.0001 10.1836Z" fill="#FF5243"/>
<path d="M38.7631 22.1847L37.9163 20.7577C37.56 20.1572 37.4722 19.4344 37.6746 18.7661L38.1552 17.1778C38.4824 16.0959 38.04 14.9293 37.0776 14.3369L35.665 13.4669C35.0701 13.1004 34.6565 12.5013 34.5251 11.8157L34.2127 10.186C33.9998 9.07598 33.0658 8.24882 31.9382 8.17117L30.2829 8.05732C29.5864 8.00953 28.9416 7.67115 28.5066 7.1251L27.4725 5.82744C26.7683 4.94336 25.5567 4.64468 24.5223 5.10008L23.543 5.53122C29.9297 8.21614 34.4148 14.5309 34.4148 21.8937C34.4148 28.1814 31.1437 33.7048 26.2107 36.856C26.4004 36.8451 26.5919 36.8549 26.782 36.8883L28.4167 37.174C29.5302 37.3683 30.6349 36.7885 31.1072 35.7618L31.8005 34.2543C32.0921 33.6201 32.6371 33.1373 33.3023 32.924L34.8821 32.4173C35.9584 32.0723 36.6671 31.0455 36.6081 29.9165L36.5217 28.2598C36.4851 27.5623 36.7434 26.8816 37.2332 26.3837L38.3966 25.201C39.1894 24.3952 39.3398 23.1566 38.7631 22.1847Z" fill="#F5B556"/>
<path d="M22.2674 13.7873L23.9607 18.9987C23.9983 19.1146 24.1065 19.193 24.2284 19.193H29.7079C29.9806 19.193 30.0941 19.5422 29.8734 19.7025L25.4404 22.9233C25.3416 22.9953 25.3005 23.1221 25.3381 23.2381L27.0314 28.4495C27.1158 28.7091 26.8188 28.9249 26.5982 28.7643L22.1651 25.5435C22.0664 25.4718 21.9325 25.4718 21.8341 25.5435L17.4011 28.7643C17.18 28.9249 16.8831 28.7091 16.9675 28.4495L18.6608 23.2381C18.6984 23.1221 18.6573 22.9953 18.5585 22.9233L14.1255 19.7025C13.9048 19.5422 14.0179 19.193 14.291 19.193H19.7704C19.8924 19.193 20.0006 19.1146 20.0382 18.9987L21.7315 13.7873C21.8158 13.5276 22.183 13.5276 22.2674 13.7873Z" fill="#F2F2F2"/>
</g>
<defs>
<clipPath id="clip0_2310_71276">
<rect width="44" height="44" fill="white"/>
</clipPath>
</defs>
</svg>
