<svg width="30" height="30" viewBox="0 0 30 30" fill="none" xmlns="http://www.w3.org/2000/svg">
<path d="M25.9375 12.5C25.9375 11.9822 25.5178 11.5625 25 11.5625C24.4822 11.5625 24.0625 11.9822 24.0625 12.5H25.9375ZM5.9375 12.5C5.9375 11.9822 5.51777 11.5625 5 11.5625C4.48223 11.5625 4.0625 11.9822 4.0625 12.5H5.9375ZM12.2726 26.5905C11.7703 26.7161 11.4649 27.2251 11.5905 27.7274C11.7161 28.2297 12.2251 28.5351 12.7274 28.4095L12.2726 26.5905ZM13.4842 27.254L13.2568 26.3445L13.4842 27.254ZM16.5158 27.254L16.7432 26.3445H16.7432L16.5158 27.254ZM17.2726 28.4095C17.7749 28.5351 18.2839 28.2297 18.4095 27.7274C18.5351 27.2251 18.2297 26.7161 17.7274 26.5905L17.2726 28.4095ZM19.0625 7.5V12.5H20.9375V7.5H19.0625ZM10.9375 12.5V7.5H9.0625V12.5H10.9375ZM15 16.5625C12.7563 16.5625 10.9375 14.7437 10.9375 12.5H9.0625C9.0625 15.7792 11.7208 18.4375 15 18.4375V16.5625ZM19.0625 12.5C19.0625 14.7437 17.2437 16.5625 15 16.5625V18.4375C18.2792 18.4375 20.9375 15.7792 20.9375 12.5H19.0625ZM15 3.4375C17.2437 3.4375 19.0625 5.25634 19.0625 7.5H20.9375C20.9375 4.22081 18.2792 1.5625 15 1.5625V3.4375ZM15 1.5625C11.7208 1.5625 9.0625 4.22081 9.0625 7.5H10.9375C10.9375 5.25634 12.7563 3.4375 15 3.4375V1.5625ZM24.0625 12.5C24.0625 17.5051 20.0051 21.5625 15 21.5625V23.4375C21.0406 23.4375 25.9375 18.5406 25.9375 12.5H24.0625ZM15 21.5625C9.99492 21.5625 5.9375 17.5051 5.9375 12.5H4.0625C4.0625 18.5406 8.95939 23.4375 15 23.4375V21.5625ZM14.0625 22.5V26.25H15.9375V22.5H14.0625ZM12.7274 28.4095L13.7115 28.1635L13.2568 26.3445L12.2726 26.5905L12.7274 28.4095ZM16.2885 28.1635L17.2726 28.4095L17.7274 26.5905L16.7432 26.3445L16.2885 28.1635ZM13.7115 28.1635C14.1345 28.0577 14.5673 28.0049 15 28.0049V26.1299C14.4145 26.1299 13.829 26.2014 13.2568 26.3445L13.7115 28.1635ZM15 28.0049C15.4327 28.0049 15.8655 28.0577 16.2885 28.1635L16.7432 26.3445C16.171 26.2014 15.5855 26.1299 15 26.1299V28.0049ZM14.0625 26.25V27.0674H15.9375V26.25H14.0625Z" fill="#34C759"/>
</svg>
