<svg width="100" height="100" viewBox="0 0 100 100" fill="none" xmlns="http://www.w3.org/2000/svg">
<g clip-path="url(#clip0_19689_2958)">
<g clip-path="url(#clip1_19689_2958)">
<path d="M63.2895 52.5031H62.5019C60.4707 52.5031 58.8242 50.8566 58.8242 48.8254C58.8242 46.7949 60.4707 45.1484 62.5019 45.1484H63.2895C71.5564 45.1484 79.4198 41.176 84.3253 34.5217C85.244 33.2752 84.8023 32.0697 84.5696 31.6085C84.3376 31.1481 83.6293 30.0773 82.0801 30.0773H75.4337C73.4024 30.0773 71.756 28.4309 71.756 26.3996C71.756 24.3684 73.4024 22.7227 75.4337 22.7227H82.0801C85.93 22.7227 89.3994 24.8569 91.1345 28.2925C92.8703 31.7281 92.5295 35.787 90.2454 38.8854C83.96 47.4124 73.8831 52.5031 63.2895 52.5031Z" fill="#FAB838"/>
<path d="M51.7274 80.4237H48.1945L42.6016 60.2871H57.5012L51.7274 80.4237Z" fill="#FAD200"/>
<path d="M75.3989 15.1377H25.1944C24.3131 15.1377 23.5414 15.7408 23.3426 16.599C22.885 18.5682 22.6386 20.6182 22.627 22.7237H18.6431C14.8292 22.7237 11.2697 24.783 9.50145 28.1624C7.68998 31.6254 8.00991 35.7491 10.3229 38.8871C15.1996 45.5025 22.359 50.0478 30.2699 51.754C35.3095 59.0222 42.4185 64.3623 50.297 64.3623C65.5799 64.3623 77.9698 44.2632 77.9698 28.9795V22.8836C77.9698 20.722 77.7205 18.6187 77.2522 16.6004C77.0526 15.7415 76.2808 15.1377 75.3989 15.1377ZM16.2437 34.5234C15.3242 33.2769 15.7659 32.0707 15.9987 31.6103C16.2314 31.1498 16.9397 30.0791 18.4889 30.0791H22.6472C22.7942 33.9852 23.7136 38.1586 25.2542 42.2031C21.7436 40.3823 18.6395 37.7739 16.2437 34.5234Z" fill="#FAD200"/>
<path d="M53.2658 60.2871L47.8516 79.1699L48.2003 80.4237H51.7332L57.507 60.2871H53.2658Z" fill="#FAB700"/>
<path d="M91.1336 28.2943C89.3978 24.8587 85.9284 22.7244 82.0792 22.7244H77.7292C77.7169 20.6189 77.4712 18.569 77.0137 16.6004C76.8141 15.7415 76.0424 15.1377 75.1611 15.1377H67.8951C68.3462 17.1192 68.5861 19.18 68.5861 21.2977V27.3943C68.5861 42.1512 57.0349 61.3965 42.4805 62.7043C44.8893 63.7656 47.4307 64.363 50.0578 64.363C57.9169 64.363 65.01 59.0482 70.0474 51.8066C78.0578 50.1429 85.3166 45.5724 90.2445 38.8871C92.5286 35.7887 92.8694 31.7299 91.1336 28.2943ZM84.3244 34.5234C81.868 37.856 78.6688 40.5148 75.0495 42.34C76.621 38.253 77.5591 34.0299 77.7083 30.0791H82.0792C83.6284 30.0791 84.3367 31.1498 84.5687 31.6103C84.8014 32.0707 85.2431 33.2769 84.3244 34.5234Z" fill="#FAB700"/>
<path d="M17.2524 61.6243C21.5714 62.6259 24.8579 65.3244 26.273 66.6574C26.6441 67.0069 26.5007 67.6258 26.0136 67.7764C24.1561 68.3507 20.0172 69.3278 15.6989 68.3262C11.3799 67.3253 8.09277 64.6269 6.67832 63.2939C6.30724 62.9437 6.45063 62.3254 6.93772 62.1748C8.79459 61.5998 12.9342 60.6228 17.2524 61.6243Z" fill="#1DC2FF"/>
<path d="M10.4939 52.8192C12.8321 55.1574 13.9165 58.1282 14.3554 59.6918C14.4951 60.189 14.0347 60.6494 13.5375 60.5104C11.9739 60.0708 9.00309 58.9864 6.66489 56.6482C4.32598 54.31 3.24155 51.3392 2.80273 49.7756C2.66294 49.2777 3.12338 48.8172 3.62128 48.957C5.18416 49.3958 8.15572 50.481 10.4939 52.8192Z" fill="#1DC2FF"/>
<path d="M23.729 64.5985C21.6294 65.1555 18.0064 65.7838 14.2451 64.9119C11.6533 64.311 9.43472 63.099 7.76736 61.9375C7.45536 62.0204 7.17723 62.1011 6.93656 62.1753C6.45019 62.3259 6.30752 62.9448 6.6786 63.2943C8.09377 64.6273 11.3802 67.3258 15.6985 68.3266C20.0168 69.3282 24.1556 68.3511 26.0132 67.7769C26.501 67.6255 26.6422 67.0059 26.2697 66.6557C25.7041 66.1225 24.8387 65.3717 23.729 64.5985Z" fill="#00A2FF"/>
<path d="M6.66469 53.5043C5.23295 52.0733 4.27245 50.4052 3.64125 48.9677C3.63404 48.9655 3.62756 48.9641 3.62107 48.9619C3.12317 48.8221 2.66346 49.2826 2.80253 49.7797C3.24134 51.3433 4.3265 54.3142 6.66469 56.6524C9.00216 58.9906 11.973 60.075 13.5366 60.5138C14.0352 60.6543 14.4942 60.1924 14.3544 59.6938C14.1837 59.0878 13.9163 58.27 13.5164 57.36C11.9485 56.9183 8.99352 55.8338 6.66469 53.5043Z" fill="#00A2FF"/>
<path d="M82.7458 61.6243C78.4275 62.6259 75.1403 65.3244 73.7252 66.6574C73.3541 67.0069 73.4975 67.6258 73.9853 67.7764C75.8421 68.3507 79.981 69.3278 84.3 68.3262C88.6183 67.3253 91.9054 64.6269 93.3199 63.2939C93.691 62.9437 93.5476 62.3254 93.0605 62.1748C91.2036 61.5998 87.0648 60.6228 82.7458 61.6243Z" fill="#1DC2FF"/>
<path d="M89.5079 52.819C87.1697 55.1572 86.0853 58.128 85.6465 59.6916C85.5067 60.1888 85.9671 60.6492 86.4643 60.5101C88.0279 60.0706 90.9987 58.9862 93.3377 56.648C95.6759 54.3098 96.7603 51.3389 97.1991 49.7753C97.3389 49.2782 96.8785 48.8177 96.3813 48.9568C94.8177 49.3956 91.8468 50.4808 89.5079 52.819Z" fill="#1DC2FF"/>
<path d="M76.2676 64.5985C78.3673 65.1555 81.9902 65.7838 85.7522 64.9119C88.3434 64.311 90.5619 63.099 92.2293 61.9375C92.5413 62.0204 92.8194 62.1011 93.0601 62.1753C93.5465 62.3259 93.6891 62.9448 93.3181 63.2943C91.9036 64.6273 88.6164 67.3258 84.2982 68.3266C79.9799 69.3282 75.841 68.3511 73.9842 67.7769C73.4956 67.6255 73.3544 67.0059 73.7269 66.6557C74.2933 66.1225 75.158 65.3717 76.2676 64.5985Z" fill="#00A2FF"/>
<path d="M93.3365 53.5043C94.7675 52.0733 95.728 50.4052 96.36 48.9677C96.3664 48.9655 96.3729 48.9641 96.3794 48.9619C96.8773 48.8221 97.3377 49.2826 97.198 49.7797C96.7591 51.3433 95.674 54.3142 93.3365 56.6524C90.9983 58.9906 88.0275 60.075 86.4639 60.5138C85.9653 60.6543 85.5063 60.1924 85.6468 59.6938C85.8168 59.0878 86.0842 58.27 86.4841 57.36C88.052 56.9183 91.007 55.8338 93.3365 53.5043Z" fill="#00A2FF"/>
<path d="M29.4685 67.8513C33.8344 67.081 37.9156 68.2771 39.7393 68.9494C40.2177 69.1259 40.3287 69.7514 39.9389 70.0807C38.4553 71.3366 35.029 73.8564 30.6632 74.6266C26.2974 75.3962 22.2162 74.2001 20.3924 73.5278C19.914 73.3513 19.8037 72.7258 20.1928 72.3965C21.6765 71.1406 25.1027 68.6208 29.4685 67.8513Z" fill="#1DC2FF"/>
<path d="M36.2335 67.9795C34.5136 69.3132 31.439 71.2926 27.6568 71.9598C25.1925 72.3943 22.8197 72.2019 20.8915 71.8316C20.6256 72.0376 20.3922 72.2286 20.1926 72.3972C19.8035 72.7265 19.9144 73.3519 20.3929 73.5277C22.2166 74.2007 26.2978 75.3961 30.6629 74.6266C35.0288 73.857 38.4543 71.3373 39.9386 70.0813C40.3277 69.7521 40.2175 69.1266 39.739 68.9501C38.9443 68.6575 37.7215 68.2656 36.2335 67.9795Z" fill="#00A2FF"/>
<path d="M70.5343 67.8513C66.1685 67.081 62.0873 68.2771 60.2635 68.9494C59.7851 69.1259 59.6748 69.7514 60.0639 70.0807C61.5476 71.3366 64.9738 73.8564 69.3396 74.6266C73.7054 75.3962 77.7867 74.2001 79.6104 73.5278C80.0888 73.3513 80.1991 72.7258 79.81 72.3965C78.3264 71.1406 74.9001 68.6208 70.5343 67.8513Z" fill="#1DC2FF"/>
<path d="M63.7688 67.9795C65.4888 69.3132 68.5634 71.2926 72.3456 71.9598C74.8099 72.3943 77.1826 72.2019 79.1108 71.8316C79.3767 72.0376 79.6109 72.2286 79.8098 72.3972C80.1989 72.7265 80.0879 73.3519 79.6095 73.5277C77.7857 74.2007 73.7045 75.3961 69.3394 74.6266C64.9736 73.857 61.5481 71.3373 60.0645 70.0813C59.6746 69.7521 59.7849 69.1266 60.2641 68.9501C61.0581 68.6575 62.2816 68.2656 63.7688 67.9795Z" fill="#00A2FF"/>
<path d="M62.1612 84.8217C63.0662 84.8217 63.6081 83.8215 63.121 83.0585C60.0874 78.3086 55.3649 75.2549 50.0602 75.2549C44.7548 75.2549 40.0323 78.3086 36.9995 83.0585C36.5124 83.8208 37.0535 84.8217 37.9586 84.8217H62.1612Z" fill="#FAD200"/>
<path d="M50.0583 75.2549C49.0596 75.2549 48.0825 75.3651 47.1328 75.5726C51.8294 76.5973 55.8414 80.0437 58.2762 84.8209H62.1592C63.0635 84.8209 63.6054 83.8208 63.1183 83.0585C60.0855 78.3086 55.363 75.2549 50.0583 75.2549Z" fill="#FAB700"/>
<path d="M40.382 38.4219H62.782V41.0469H40.382V38.4219ZM50.057 36.9219H53.182C53.0654 38.0552 52.882 39.1052 52.632 40.0719C52.382 41.0219 52.0154 41.8969 51.532 42.6969C51.0487 43.4969 50.382 44.2135 49.532 44.8469C48.6987 45.4635 47.6154 46.0052 46.282 46.4719C44.9654 46.9385 43.3487 47.3219 41.432 47.6219C41.332 47.2385 41.1404 46.7969 40.857 46.2969C40.5737 45.7969 40.2904 45.3969 40.007 45.0969C41.7404 44.8635 43.182 44.5802 44.332 44.2469C45.482 43.8969 46.4154 43.4885 47.132 43.0219C47.8487 42.5385 48.3987 41.9969 48.782 41.3969C49.1654 40.7969 49.4404 40.1302 49.607 39.3969C49.7904 38.6469 49.9404 37.8219 50.057 36.9219ZM53.357 40.4969C54.1404 41.8635 55.3737 42.8885 57.057 43.5719C58.7404 44.2552 60.857 44.6802 63.407 44.8469C63.207 45.0469 62.9904 45.3052 62.757 45.6219C62.5237 45.9385 62.307 46.2635 62.107 46.5969C61.907 46.9302 61.7487 47.2385 61.632 47.5219C59.7654 47.2885 58.132 46.9135 56.732 46.3969C55.3487 45.8969 54.1654 45.2052 53.182 44.3219C52.1987 43.4385 51.3654 42.3469 50.682 41.0469L53.357 40.4969ZM40.382 26.6219L42.607 25.4219C43.0404 25.9552 43.4737 26.5719 43.907 27.2719C44.3404 27.9552 44.6487 28.5552 44.832 29.0719L42.457 30.4219C42.2737 29.9052 41.982 29.2885 41.582 28.5719C41.1987 27.8552 40.7987 27.2052 40.382 26.6219ZM45.407 24.1719H48.307V36.9469H45.407V24.1719ZM39.907 33.0469C40.6737 32.6969 41.5987 32.2469 42.682 31.6969C43.7654 31.1302 44.8737 30.5385 46.007 29.9219L46.782 32.2719C45.8487 32.8719 44.882 33.4635 43.882 34.0469C42.8987 34.6302 41.982 35.1719 41.132 35.6719L39.907 33.0469ZM51.657 30.7719L53.782 29.4719C54.1487 29.7719 54.5237 30.1135 54.907 30.4969C55.2904 30.8802 55.657 31.2552 56.007 31.6219C56.357 31.9885 56.632 32.3302 56.832 32.6469L54.582 34.0969C54.382 33.7802 54.1237 33.4302 53.807 33.0469C53.4904 32.6469 53.1404 32.2552 52.757 31.8719C52.3737 31.4719 52.007 31.1052 51.657 30.7719ZM53.082 26.2469H60.757V28.7469H53.082V26.2469ZM53.682 24.0969L56.532 25.0469C55.7987 26.2135 54.8737 27.3385 53.757 28.4219C52.657 29.5052 51.4987 30.3969 50.282 31.0969C50.1487 30.8802 49.9737 30.6385 49.757 30.3719C49.557 30.0885 49.3404 29.8219 49.107 29.5719C48.8904 29.3052 48.6904 29.0802 48.507 28.8969C49.2237 28.5135 49.9154 28.0635 50.582 27.5469C51.2654 27.0135 51.8737 26.4469 52.407 25.8469C52.957 25.2469 53.382 24.6635 53.682 24.0969ZM60.357 26.2469H60.932L61.457 26.1969L63.232 26.9969C62.582 29.0635 61.6237 30.7635 60.357 32.0969C59.107 33.4135 57.607 34.4552 55.857 35.2219C54.1237 35.9885 52.207 36.5552 50.107 36.9219C50.0237 36.6885 49.8904 36.4135 49.707 36.0969C49.5237 35.7802 49.3237 35.4719 49.107 35.1719C48.907 34.8552 48.7154 34.6052 48.532 34.4219C50.532 34.1552 52.332 33.7385 53.932 33.1719C55.532 32.5885 56.8737 31.7802 57.957 30.7469C59.057 29.6969 59.857 28.3469 60.357 26.6969V26.2469Z" fill="white"/>
</g>
</g>
<defs>
<clipPath id="clip0_19689_2958">
<rect width="100" height="100" fill="white"/>
</clipPath>
<clipPath id="clip1_19689_2958">
<rect width="94.4444" height="94.4444" fill="white" transform="translate(2.77734 2.77832)"/>
</clipPath>
</defs>
</svg>
