<svg width="60" height="60" viewBox="0 0 60 60" fill="none" xmlns="http://www.w3.org/2000/svg">
<path fill-rule="evenodd" clip-rule="evenodd" d="M35.25 8.00098C35.25 7.03448 36.0335 6.25098 37 6.25098H52C52.9665 6.25098 53.75 7.03448 53.75 8.00098V23.001C53.75 23.9675 52.9665 24.751 52 24.751C51.0335 24.751 50.25 23.9675 50.25 23.001V12.2259L33.45 29.0258C35.516 31.6279 36.75 34.9203 36.75 38.501C36.75 46.9233 29.9223 53.751 21.5 53.751C13.0777 53.751 6.25 46.9233 6.25 38.501C6.25 30.0786 13.0777 23.251 21.5 23.251C25.0806 23.251 28.373 24.485 30.9751 26.551L47.7751 9.75098H37C36.0335 9.75098 35.25 8.96747 35.25 8.00098ZM29.4891 29.8848C27.3926 27.94 24.5852 26.751 21.5 26.751C15.0107 26.751 9.75 32.0116 9.75 38.501C9.75 44.9903 15.0107 50.251 21.5 50.251C27.9893 50.251 33.25 44.9903 33.25 38.501C33.25 35.4158 32.061 32.6083 30.1161 30.5119C29.9899 30.4379 29.8709 30.3467 29.7626 30.2384C29.6542 30.1301 29.5631 30.0111 29.4891 29.8848Z" fill="currentColor"/>
</svg>
