<svg width="80" height="80" viewBox="0 0 80 80" fill="none" xmlns="http://www.w3.org/2000/svg">
<path d="M38.8226 47.0539C38.8226 47.0539 31.7638 58.8186 28.2344 59.9951L37.6461 69.4068L51.7638 65.8774L59.9991 51.7598L48.2344 36.4656L39.9991 31.7598L38.8226 47.0539Z" fill="#FED066"/>
<path d="M61.8724 36.9767C61.0035 35.8433 59.9457 34.8611 58.9634 33.8788C56.4322 31.6121 53.561 29.9876 51.1432 27.6076C45.5141 22.0918 44.2674 12.9871 47.8564 5.99805C44.2674 6.86696 41.1318 8.83146 38.4495 10.9849C28.6648 18.8429 24.8113 32.7077 29.4203 44.608C29.5715 44.9858 29.7226 45.3636 29.7226 45.8547C29.7226 46.6859 29.1559 47.4415 28.4003 47.7437C27.5314 48.1215 26.6247 47.8948 25.9069 47.2903C25.6925 47.1107 25.5132 46.893 25.378 46.6481C21.109 41.2457 20.429 33.5011 23.3002 27.3053C16.9911 32.4433 13.5532 41.1324 14.0444 49.3304C14.271 51.2193 14.4977 53.1083 15.1399 54.9972C15.6688 57.264 16.6889 59.5307 17.8222 61.533C21.9024 68.0687 28.967 72.7533 36.5605 73.6978C44.6452 74.7178 53.2966 73.2444 59.4923 67.6531C66.4059 61.3818 68.8237 51.3327 65.2725 42.7191L64.7814 41.7368C63.988 39.999 61.8724 36.9767 61.8724 36.9767ZM49.9343 60.7774C48.8765 61.6841 47.1386 62.6663 45.7786 63.0441C41.5474 64.5553 37.3161 62.4397 34.8227 59.9463C39.3184 58.8885 42.0007 55.5639 42.7941 52.2016C43.4363 49.1793 42.2274 46.6859 41.7363 43.7769C41.2829 40.9813 41.3585 38.6012 42.3785 35.9945C43.0963 37.4301 43.8519 38.8657 44.7586 39.999C47.6675 43.7769 52.2388 45.4392 53.221 50.5771C53.3721 51.106 53.4477 51.6349 53.4477 52.2016C53.561 55.2995 52.201 58.6996 49.9343 60.7774Z" fill="url(#paint0_linear_4839_44338)"/>
<defs>
<linearGradient id="paint0_linear_4839_44338" x1="40.4481" y1="5.99805" x2="40.4481" y2="73.9981" gradientUnits="userSpaceOnUse">
<stop stop-color="#FF8856"/>
<stop offset="1" stop-color="#FF1616"/>
</linearGradient>
</defs>
</svg>
