<svg width="60" height="60" viewBox="0 0 60 60" fill="none" xmlns="http://www.w3.org/2000/svg">
<path d="M22.5 51.25L29.1817 39.4285C29.506 38.8548 29.7907 38.3511 30.0455 37.9055M30.0455 37.9055C30.8352 36.5243 31.3376 35.7015 31.8394 35.084C35.9945 29.9713 43.4046 28.9612 48.7765 32.7754C49.629 33.3806 50.5772 34.3272 52.4625 36.2125M30.0455 37.9055L28.75 37.5C25.7612 36.9022 24.2668 36.6034 22.8952 36.6325C19.2246 36.7104 15.7739 38.3981 13.4588 41.2477C12.5938 42.3124 11.9122 43.6755 10.5491 46.4018L10.2746 46.9509L9.97187 47.4623M52.4625 36.2125C52.5 34.4012 52.5 32.3476 52.5 30C52.5 20.6257 52.5 15.9385 50.1127 12.6527C49.3417 11.5915 48.4085 10.6583 47.3473 9.88729C44.0615 7.5 39.3743 7.5 30 7.5C20.6257 7.5 15.9385 7.5 12.6527 9.88729C11.5915 10.6583 10.6583 11.5915 9.88729 12.6527C7.5 15.9385 7.5 20.6257 7.5 30C7.5 39.3743 7.5 44.0615 9.88729 47.3473C9.91527 47.3858 9.94346 47.4242 9.97187 47.4623M52.4625 36.2125C52.3503 41.634 51.9022 44.8844 50.1127 47.3473C49.3417 48.4085 48.4085 49.3417 47.3473 50.1127C44.0615 52.5 39.3743 52.5 30 52.5C20.6257 52.5 15.9385 52.5 12.6527 50.1127C11.63 49.3697 10.7262 48.476 9.97187 47.4623M22.5 22.5C22.5 25.2614 24.7386 27.5 27.5 27.5C30.2614 27.5 32.5 25.2614 32.5 22.5C32.5 19.7386 30.2614 17.5 27.5 17.5C24.7386 17.5 22.5 19.7386 22.5 22.5Z" stroke="currentColor" stroke-width="3.75" stroke-linecap="round"/>
</svg>
