<svg width="60" height="60" viewBox="0 0 60 60" fill="none" xmlns="http://www.w3.org/2000/svg">
<path d="M35 15.625C33.9645 15.625 33.125 16.4645 33.125 17.5C33.125 18.5355 33.9645 19.375 35 19.375V15.625ZM50 19.375C51.0355 19.375 51.875 18.5355 51.875 17.5C51.875 16.4645 51.0355 15.625 50 15.625V19.375ZM40.625 25C40.625 26.0355 41.4645 26.875 42.5 26.875C43.5355 26.875 44.375 26.0355 44.375 25H40.625ZM44.375 10C44.375 8.96447 43.5355 8.125 42.5 8.125C41.4645 8.125 40.625 8.96447 40.625 10H44.375ZM17.5 23.125C16.3095 23.125 15.5105 23.124 14.8919 23.0818C14.29 23.0407 13.997 22.967 13.8041 22.8871L12.3691 26.3517C13.095 26.6524 13.8438 26.769 14.6366 26.8231C15.4125 26.876 16.3608 26.875 17.5 26.875V23.125ZM8.125 17.5C8.125 18.6392 8.12398 19.5875 8.17692 20.3634C8.23101 21.1562 8.34762 21.905 8.64833 22.6309L12.1129 21.1959C12.033 21.003 11.9593 20.71 11.9182 20.1081C11.876 19.4895 11.875 18.6905 11.875 17.5H8.125ZM13.8041 22.8871C13.0384 22.57 12.43 21.9616 12.1129 21.1959L8.64833 22.6309C9.3461 24.3155 10.6845 25.6539 12.3691 26.3517L13.8041 22.8871ZM23.125 17.5C23.125 18.6905 23.124 19.4895 23.0818 20.1081C23.0407 20.71 22.967 21.003 22.8871 21.1959L26.3517 22.6309C26.6524 21.905 26.769 21.1562 26.8231 20.3634C26.876 19.5875 26.875 18.6392 26.875 17.5H23.125ZM17.5 26.875C18.6392 26.875 19.5875 26.876 20.3634 26.8231C21.1562 26.769 21.905 26.6524 22.6309 26.3517L21.1959 22.8871C21.003 22.967 20.71 23.0407 20.1081 23.0818C19.4895 23.124 18.6905 23.125 17.5 23.125V26.875ZM22.8871 21.1959C22.57 21.9616 21.9616 22.57 21.1959 22.8871L22.6309 26.3517C24.3155 25.6539 25.6539 24.3155 26.3517 22.6309L22.8871 21.1959ZM17.5 11.875C18.6905 11.875 19.4895 11.876 20.1081 11.9182C20.71 11.9593 21.003 12.033 21.1959 12.1129L22.6309 8.64833C21.905 8.34762 21.1562 8.23101 20.3634 8.17692C19.5875 8.12398 18.6392 8.125 17.5 8.125V11.875ZM26.875 17.5C26.875 16.3608 26.876 15.4125 26.8231 14.6366C26.769 13.8438 26.6524 13.095 26.3517 12.3691L22.8871 13.8041C22.967 13.997 23.0407 14.29 23.0818 14.8919C23.124 15.5105 23.125 16.3095 23.125 17.5H26.875ZM21.1959 12.1129C21.9616 12.43 22.57 13.0384 22.8871 13.8041L26.3517 12.3691C25.6539 10.6845 24.3155 9.3461 22.6309 8.64833L21.1959 12.1129ZM17.5 8.125C16.3608 8.125 15.4125 8.12398 14.6366 8.17692C13.8438 8.23101 13.095 8.34762 12.3691 8.64833L13.8041 12.1129C13.997 12.033 14.29 11.9593 14.8919 11.9182C15.5105 11.876 16.3095 11.875 17.5 11.875V8.125ZM11.875 17.5C11.875 16.3095 11.876 15.5105 11.9182 14.8919C11.9593 14.29 12.033 13.997 12.1129 13.8041L8.64833 12.3691C8.34762 13.095 8.23101 13.8438 8.17692 14.6366C8.12398 15.4125 8.125 16.3608 8.125 17.5H11.875ZM12.3691 8.64833C10.6845 9.3461 9.3461 10.6845 8.64833 12.3691L12.1129 13.8041C12.43 13.0384 13.0384 12.43 13.8041 12.1129L12.3691 8.64833ZM35 19.375H50V15.625H35V19.375ZM44.375 25V10H40.625V25H44.375ZM17.5 48.125C16.3095 48.125 15.5105 48.124 14.8919 48.0818C14.29 48.0407 13.997 47.967 13.8041 47.8871L12.3691 51.3517C13.095 51.6524 13.8438 51.769 14.6366 51.8231C15.4125 51.876 16.3608 51.875 17.5 51.875V48.125ZM8.125 42.5C8.125 43.6392 8.12398 44.5875 8.17692 45.3634C8.23101 46.1562 8.34762 46.905 8.64833 47.6309L12.1129 46.1959C12.033 46.003 11.9593 45.71 11.9182 45.1081C11.876 44.4895 11.875 43.6905 11.875 42.5H8.125ZM13.8041 47.8871C13.0384 47.57 12.43 46.9616 12.1129 46.1959L8.64833 47.6309C9.3461 49.3155 10.6845 50.6539 12.3691 51.3517L13.8041 47.8871ZM23.125 42.5C23.125 43.6905 23.124 44.4895 23.0818 45.1081C23.0407 45.71 22.967 46.003 22.8871 46.1959L26.3517 47.6309C26.6524 46.905 26.769 46.1562 26.8231 45.3634C26.876 44.5875 26.875 43.6392 26.875 42.5H23.125ZM17.5 51.875C18.6392 51.875 19.5875 51.876 20.3634 51.8231C21.1562 51.769 21.905 51.6524 22.6309 51.3517L21.1959 47.8871C21.003 47.967 20.71 48.0407 20.1081 48.0818C19.4895 48.124 18.6905 48.125 17.5 48.125V51.875ZM22.8871 46.1959C22.57 46.9616 21.9616 47.57 21.1959 47.8871L22.6309 51.3517C24.3155 50.6539 25.6539 49.3155 26.3517 47.6309L22.8871 46.1959ZM17.5 36.875C18.6905 36.875 19.4895 36.876 20.1081 36.9182C20.71 36.9593 21.003 37.033 21.1959 37.1129L22.6309 33.6483C21.905 33.3476 21.1562 33.231 20.3634 33.1769C19.5875 33.124 18.6392 33.125 17.5 33.125V36.875ZM26.875 42.5C26.875 41.3608 26.876 40.4125 26.8231 39.6366C26.769 38.8438 26.6524 38.095 26.3517 37.3691L22.8871 38.8041C22.967 38.997 23.0407 39.29 23.0818 39.8919C23.124 40.5105 23.125 41.3095 23.125 42.5H26.875ZM21.1959 37.1129C21.9616 37.43 22.57 38.0384 22.8871 38.8041L26.3517 37.3691C25.6539 35.6845 24.3155 34.3461 22.6309 33.6483L21.1959 37.1129ZM17.5 33.125C16.3608 33.125 15.4125 33.124 14.6366 33.1769C13.8438 33.231 13.095 33.3476 12.3691 33.6483L13.8041 37.1129C13.997 37.033 14.29 36.9593 14.8919 36.9182C15.5105 36.876 16.3095 36.875 17.5 36.875V33.125ZM11.875 42.5C11.875 41.3095 11.876 40.5105 11.9182 39.8919C11.9593 39.29 12.033 38.997 12.1129 38.8041L8.64833 37.3691C8.34762 38.095 8.23101 38.8438 8.17692 39.6366C8.12398 40.4125 8.125 41.3608 8.125 42.5H11.875ZM12.3691 33.6483C10.6845 34.3461 9.3461 35.6845 8.64833 37.3691L12.1129 38.8041C12.43 38.0384 13.0384 37.43 13.8041 37.1129L12.3691 33.6483ZM42.5 48.125C41.3095 48.125 40.5105 48.124 39.8919 48.0818C39.29 48.0407 38.997 47.967 38.8041 47.8871L37.3691 51.3517C38.095 51.6524 38.8438 51.769 39.6366 51.8231C40.4125 51.876 41.3608 51.875 42.5 51.875V48.125ZM33.125 42.5C33.125 43.6392 33.124 44.5875 33.1769 45.3634C33.231 46.1562 33.3476 46.905 33.6483 47.6309L37.1129 46.1959C37.033 46.003 36.9593 45.71 36.9182 45.1081C36.876 44.4895 36.875 43.6905 36.875 42.5H33.125ZM38.8041 47.8871C38.0384 47.57 37.43 46.9616 37.1129 46.1959L33.6483 47.6309C34.3461 49.3155 35.6845 50.6539 37.3691 51.3517L38.8041 47.8871ZM48.125 42.5C48.125 43.6905 48.124 44.4895 48.0818 45.1081C48.0407 45.71 47.967 46.003 47.8871 46.1959L51.3517 47.6309C51.6524 46.905 51.769 46.1562 51.8231 45.3634C51.876 44.5875 51.875 43.6392 51.875 42.5H48.125ZM42.5 51.875C43.6392 51.875 44.5875 51.876 45.3634 51.8231C46.1562 51.769 46.905 51.6524 47.6309 51.3517L46.1959 47.8871C46.003 47.967 45.71 48.0407 45.1081 48.0818C44.4895 48.124 43.6905 48.125 42.5 48.125V51.875ZM47.8871 46.1959C47.57 46.9616 46.9616 47.57 46.1959 47.8871L47.6309 51.3517C49.3155 50.6539 50.6539 49.3155 51.3517 47.6309L47.8871 46.1959ZM42.5 36.875C43.6905 36.875 44.4895 36.876 45.1081 36.9182C45.71 36.9593 46.003 37.033 46.1959 37.1129L47.6309 33.6483C46.905 33.3476 46.1562 33.231 45.3634 33.1769C44.5875 33.124 43.6392 33.125 42.5 33.125V36.875ZM51.875 42.5C51.875 41.3608 51.876 40.4125 51.8231 39.6366C51.769 38.8438 51.6524 38.095 51.3517 37.3691L47.8871 38.8041C47.967 38.997 48.0407 39.29 48.0818 39.8919C48.124 40.5105 48.125 41.3095 48.125 42.5H51.875ZM46.1959 37.1129C46.9616 37.43 47.57 38.0384 47.8871 38.8041L51.3517 37.3691C50.6539 35.6845 49.3155 34.3461 47.6309 33.6483L46.1959 37.1129ZM42.5 33.125C41.3608 33.125 40.4125 33.124 39.6366 33.1769C38.8438 33.231 38.095 33.3476 37.3691 33.6483L38.8041 37.1129C38.997 37.033 39.29 36.9593 39.8919 36.9182C40.5105 36.876 41.3095 36.875 42.5 36.875V33.125ZM36.875 42.5C36.875 41.3095 36.876 40.5105 36.9182 39.8919C36.9593 39.29 37.033 38.997 37.1129 38.8041L33.6483 37.3691C33.3476 38.095 33.231 38.8438 33.1769 39.6366C33.124 40.4125 33.125 41.3608 33.125 42.5H36.875ZM37.3691 33.6483C35.6845 34.3461 34.3461 35.6845 33.6483 37.3691L37.1129 38.8041C37.43 38.0384 38.0384 37.43 38.8041 37.1129L37.3691 33.6483Z" fill="white"/>
</svg>
