<svg width="80" height="80" viewBox="0 0 80 80" fill="none" xmlns="http://www.w3.org/2000/svg">
<g clip-path="url(#clip0_8941_416400)">
<path d="M70.1354 21.3157L58.6851 9.86533C57.8946 9.07484 56.613 9.07484 55.8225 9.86533L49.549 16.1388L35.1001 19.5637C34.7349 19.6502 34.4009 19.8366 34.1356 20.102L21.1074 33.1301L27.4352 40.638L36.8224 31.2509C37.6023 30.4709 38.6668 29.9922 39.7695 30.0153H46.6014V31.9627L48.3948 38.3053C48.6412 39.1769 49.4367 39.7787 50.3426 39.7787C53.0267 39.7787 55.6011 38.7124 57.499 36.8144L70.1352 24.1782C70.9259 23.3877 70.9259 22.106 70.1354 21.3157Z" fill="#FFDECF"/>
<path d="M70.1354 21.3157L58.6851 9.86533C57.8946 9.07484 56.613 9.07484 55.8225 9.86533L49.549 16.1388L37.4355 19.01V30.7408C38.1201 30.269 38.9337 29.9979 39.7695 30.0153H46.6014V31.9627L48.3948 38.3053C48.6412 39.1769 49.4367 39.7787 50.3426 39.7787C53.0267 39.7787 55.6011 38.7124 57.499 36.8144L70.1352 24.1782C70.9259 23.3877 70.9259 22.106 70.1354 21.3157Z" fill="#FFCDBE"/>
<path d="M67.392 74.5459H7.47727C6.3594 74.5459 5.45312 73.6396 5.45312 72.5218V58.7575C5.45312 57.6397 6.3594 56.7334 7.47727 56.7334H67.392C68.5099 56.7334 69.4162 57.6397 69.4162 58.7575V72.5218C69.4162 73.6396 68.5099 74.5459 67.392 74.5459Z" fill="#FF7C1F"/>
<path d="M67.3929 56.7334H37.4355V74.5459H67.3929C68.5108 74.5459 69.4171 73.6396 69.4171 72.5218V58.7575C69.4171 57.6397 68.5108 56.7334 67.3929 56.7334Z" fill="#F05431"/>
<path d="M66.6916 42.2314C66.529 41.2554 65.6845 40.54 64.6949 40.54H10.1779C9.18837 40.54 8.34403 41.2554 8.18129 42.2314L5.48242 58.4246H69.3904L66.6916 42.2314Z" fill="#FFD38D"/>
<path d="M66.6907 42.2314C66.5281 41.2554 65.6836 40.54 64.6941 40.54H37.4355V58.4246H69.3895L66.6907 42.2314Z" fill="#FF8B02"/>
<path d="M56.3258 52.7045H18.5417C17.4239 52.7045 16.5176 51.7983 16.5176 50.6804C16.5176 49.5625 17.4239 48.6562 18.5417 48.6562H56.3258C57.4437 48.6562 58.35 49.5625 58.35 50.6804C58.35 51.7983 57.4437 52.7045 56.3258 52.7045Z" fill="#A97E4C"/>
<path d="M56.3276 48.6562H37.4355V52.7045H56.3276C57.4455 52.7045 58.3517 51.7983 58.3517 50.6804C58.3517 49.5625 57.4455 48.6562 56.3276 48.6562Z" fill="#AD3B11"/>
<path d="M53.6273 30.0146H21.2409C20.1231 30.0146 19.2168 30.9209 19.2168 32.0388V52.7051H55.6515V32.0388C55.6515 30.9209 54.7452 30.0146 53.6273 30.0146Z" fill="#FFFCCB"/>
<path d="M55.6529 32.0388C55.6529 30.9209 54.7466 30.0146 53.6287 30.0146H37.4355V52.7051H55.6529V32.0388Z" fill="#FFABF4"/>
<path d="M46.5996 30.0139V31.9612L48.393 38.3038C48.6394 39.1754 49.4349 39.7773 50.3408 39.7773C53.0249 39.7773 55.5992 38.7109 57.4972 36.813L70.1334 24.1768L46.5996 30.0139Z" fill="#FFCDBE"/>
<path d="M73.9515 24.1774L70.1347 27.9942C69.3442 28.7847 68.0627 28.7847 67.2722 27.9942L52.005 12.7272C51.2145 11.9367 51.2145 10.6552 52.005 9.86468L55.8217 6.04795C56.6122 5.25745 57.8938 5.25745 58.6843 6.04795L73.9515 21.3149C74.7418 22.1054 74.7418 23.3869 73.9515 24.1774Z" fill="#E2DFF4"/>
<path d="M50.1318 29.9951L52.2809 37.1738C52.6697 38.4722 51.6971 39.7785 50.3418 39.7785H40.0421C37.3405 39.7785 35.1504 37.5884 35.1504 34.8868C35.1504 32.1852 37.3405 29.9951 40.0421 29.9951H50.1318Z" fill="#FFDECF"/>
<path d="M52.2817 37.1738L50.1326 29.9951H40.0429C39.0841 29.9951 38.1904 30.272 37.4355 30.7488V39.0248C38.1904 39.5016 39.0841 39.7785 40.0429 39.7785H50.3427C51.698 39.7785 52.6704 38.4722 52.2817 37.1738Z" fill="#FFCDBE"/>
<path d="M40.0428 29.9946H50.1326C51.2505 29.9946 52.1567 29.0884 52.1567 27.9704C52.1567 27.4115 51.9302 26.9055 51.5639 26.5391C51.1977 26.1729 50.6917 25.9462 50.1326 25.9463H40.0429C37.6579 25.9463 35.4137 26.877 33.7236 28.567C33.2775 29.0131 32.8859 29.4988 32.5488 30.0146H39.6099C39.753 30.0019 39.8973 29.9946 40.0428 29.9946Z" fill="#EBBDAF"/>
<path d="M51.564 26.5391C51.1977 26.1729 50.6917 25.9462 50.1326 25.9463H40.0429C39.1466 25.9463 38.2702 26.0779 37.4355 26.3317V30.0144H39.61C39.7532 30.0019 39.8974 29.9946 40.0429 29.9946H50.1328C51.2506 29.9946 52.1569 29.0884 52.1569 27.9704C52.1569 27.4114 51.9303 26.9053 51.564 26.5391Z" fill="#D58066"/>
</g>
<defs>
<clipPath id="clip0_8941_416400">
<rect width="69.0909" height="69.0909" fill="white" transform="translate(5.45508 5.4541)"/>
</clipPath>
</defs>
</svg>
