<svg width="44" height="44" viewBox="0 0 44 44" fill="none" xmlns="http://www.w3.org/2000/svg">
<g clip-path="url(#clip0_2310_71265)">
<path d="M13.2668 18.8145H4.74965C4.31309 18.8145 3.91928 18.5523 3.75084 18.1496C3.58247 17.7468 3.67228 17.2823 3.97886 16.9716L12.6042 8.22634C12.8077 8.02002 13.0853 7.90393 13.3751 7.90393H17.6336C18.0087 7.90393 18.3571 8.09808 18.5544 8.4172C18.7517 8.73624 18.7698 9.13464 18.6022 9.4703L14.2354 18.2155C14.0521 18.5826 13.6771 18.8145 13.2668 18.8145Z" fill="#A0EBFF"/>
<path d="M39.2508 18.8145H30.7337C30.3233 18.8145 29.9484 18.5826 29.765 18.2155L25.3982 9.4703C25.2306 9.13464 25.2488 8.73624 25.446 8.4172C25.6432 8.09815 25.9918 7.90393 26.3668 7.90393H30.6253C30.9151 7.90393 31.1927 8.02009 31.3962 8.22634L40.0216 16.9716C40.3281 17.2824 40.418 17.7469 40.2496 18.1496C40.0812 18.5524 39.6874 18.8145 39.2508 18.8145Z" fill="#73C8F0"/>
<path d="M12.0557 17.7037L17.6331 7.90393H26.3668L31.9272 17.7037H12.0557Z" fill="#D2F0FF"/>
<path d="M29.562 17.7009L21.0098 37.0231C20.7932 37.5124 20.9665 38.0866 21.4179 38.3742C21.5973 38.4885 21.7991 38.544 21.9993 38.544C22.3029 38.544 22.6027 38.4166 22.8149 38.1739L40.0657 18.4416C40.248 18.2331 40.3391 17.9676 40.3322 17.7008H29.562V17.7009Z" fill="#0073AA"/>
<path d="M14.4386 17.7008H3.66833C3.66146 17.9675 3.75255 18.233 3.93488 18.4416L21.1856 38.1739C21.3978 38.4166 21.6977 38.544 22.0012 38.544C22.2015 38.544 22.4034 38.4885 22.5827 38.3742C23.0339 38.0866 23.2073 37.5124 22.9908 37.0231L14.4386 17.7008Z" fill="#41B4E6"/>
<path d="M12.0557 17.7008L21.01 37.8994C21.1834 38.2912 21.5715 38.5439 22 38.5439C22.4285 38.5439 22.8166 38.2912 22.99 37.8994L31.9272 17.7008H12.0557Z" fill="#A0EBFF"/>
<path d="M21.9922 17.7037H31.9279L26.3675 7.90393H21.9922V17.7037Z" fill="#41B4E6"/>
<path d="M22 38.5439C22.4285 38.5439 22.8166 38.2912 22.99 37.8994L31.9272 17.7008H22V38.5439Z" fill="#73C8F0"/>
</g>
<defs>
<clipPath id="clip0_2310_71265">
<rect width="36.6669" height="36.6669" fill="white" transform="translate(3.66699 4.88892)"/>
</clipPath>
</defs>
</svg>
