<svg width="60" height="60" viewBox="0 0 60 60" fill="none" xmlns="http://www.w3.org/2000/svg">
<path d="M14.2797 26.8687L14.9231 23.3848C11.7353 22.8699 9.03526 22.4725 7.14505 22.6485C5.43379 22.8113 4.43716 23.4968 4.43716 25.1534C4.43716 28.1891 7.28748 30.9448 11.7305 32.9911C16.5109 35.2026 23.0867 36.5443 30.0001 36.5443C36.9134 36.5443 43.492 35.2026 48.2696 32.9991C52.7151 30.9504 55.5603 28.1975 55.5603 25.1614C55.5603 23.5022 54.5636 22.8166 52.855 22.6565C50.9619 22.4805 48.2592 22.8779 45.077 23.3928L45.7151 26.8659V26.8633C45.7626 27.05 45.7362 27.2501 45.6386 27.4155C45.5437 27.5835 45.3855 27.7036 45.1983 27.7516C34.2431 30.5819 24.0992 30.5792 14.768 27.7436C14.4015 27.6315 14.1848 27.2474 14.2797 26.8687ZM15.1842 21.9682L17.0589 11.799C17.5572 9.01142 19.9619 6.98668 22.7621 7.00007H37.2402C40.0404 6.98939 42.445 9.01142 42.9434 11.799L44.8181 21.9682C48.114 21.4346 50.9168 21.0212 52.9869 21.2159C55.5234 21.4533 57 22.531 57 25.1612C57 28.8265 53.8228 32.0326 48.8656 34.3108C43.9112 36.5915 37.1084 38 30 38C22.8916 38 16.0991 36.6022 11.1344 34.3134C6.18006 32.0327 3 28.8261 3 25.1611C3 22.5282 4.47919 21.4505 7.01308 21.2131C9.0829 21.0184 11.8884 21.4345 15.184 21.9654L15.1842 21.9682ZM17.0009 20.0208C25.4992 22.0001 34.2188 21.7707 42.9884 19.9354L41.533 12.0609C41.1638 9.96148 39.3498 8.4356 37.2404 8.45431H22.7623C20.6529 8.43564 18.8389 9.95882 18.4671 12.0609L17.0009 20.0208ZM43.2496 21.3626C34.3268 23.2272 25.402 23.4539 16.735 21.4479L15.7989 26.5323C24.524 29.0532 33.9895 29.0426 44.1962 26.5057L43.2496 21.3626Z" fill="currentColor"/>
<path fill-rule="evenodd" clip-rule="evenodd" d="M45.7324 26.9555C45.7521 27.1143 45.7203 27.277 45.6386 27.4155C45.5437 27.5835 45.3855 27.7036 45.1983 27.7516C34.2431 30.5819 24.0992 30.5792 14.768 27.7436C14.4015 27.6315 14.1848 27.2474 14.2797 26.8687L14.9231 23.3848C14.5883 23.3307 14.2589 23.2779 13.9353 23.227C11.1771 22.7928 8.83676 22.491 7.14505 22.6485C5.43379 22.8113 4.43716 23.4968 4.43716 25.1534C4.43716 28.1891 7.28748 30.9448 11.7305 32.9911C16.5109 35.2026 23.0867 36.5443 30.0001 36.5443C36.9134 36.5443 43.492 35.2026 48.2696 32.9991C52.7151 30.9504 55.5603 28.1975 55.5603 25.1614C55.5603 23.5022 54.5636 22.8166 52.855 22.6565C51.161 22.499 48.8187 22.8007 46.0647 23.2348C45.741 23.2858 45.4117 23.3386 45.077 23.3928L45.7151 26.8659C45.7225 26.8955 45.7287 26.9254 45.7324 26.9555ZM46.6915 26.6464C46.7911 27.0692 46.7316 27.5258 46.5047 27.9154C46.2736 28.3194 45.8912 28.6061 45.4472 28.7201C34.3435 31.5886 24.0105 31.5974 14.4772 28.7004L14.4756 28.6999C13.6053 28.4339 13.1012 27.5391 13.3009 26.6625L13.7536 24.2108C10.9973 23.7779 8.79037 23.5 7.23956 23.6441C6.47066 23.7172 6.03676 23.8963 5.80196 24.0985C5.61064 24.2633 5.43716 24.5411 5.43716 25.1534C5.43716 26.3375 5.98963 27.5503 7.13997 28.7517C8.29344 29.9563 9.99826 31.0923 12.1489 32.0828L12.1504 32.0835C16.7731 34.222 23.2 35.5443 30.0001 35.5443C36.8002 35.5443 43.2302 34.222 47.8508 32.091C50.0028 31.0993 51.7071 29.9632 52.8596 28.7591C54.0087 27.5584 54.5603 26.3461 54.5603 25.1614C54.5603 24.5472 54.3864 24.2688 54.1956 24.1043C53.9615 23.9026 53.5289 23.724 52.7618 23.6522C51.2083 23.5078 48.9985 23.7858 46.2455 24.2187L46.6915 26.6464ZM18.4671 12.0609L17.0009 20.0208C25.4992 22.0001 34.2188 21.7707 42.9884 19.9354L41.533 12.0609C41.1638 9.96148 39.3498 8.4356 37.2404 8.45431H22.7623C20.6529 8.43564 18.8389 9.95882 18.4671 12.0609ZM41.8264 19.1505L40.5481 12.234C40.262 10.6075 38.8611 9.43997 37.2493 9.45427L37.2404 9.45435L22.7535 9.45431C21.1412 9.44004 19.7401 10.6053 19.4518 12.235L19.4506 12.242L18.1589 19.2545C25.8885 20.903 33.8183 20.7183 41.8264 19.1505ZM17.0589 11.799C17.5572 9.01142 19.9619 6.98668 22.7621 7.00007H37.2402C40.0404 6.9894 42.445 9.01142 42.9434 11.799L44.8181 21.9682C48.114 21.4346 50.9168 21.0212 52.9869 21.2159C55.5234 21.4533 57 22.531 57 25.1612C57 28.8265 53.8228 32.0326 48.8656 34.3108C43.9112 36.5915 37.1084 38 30 38C22.8916 38 16.0991 36.6022 11.1344 34.3134C6.18006 32.0327 3 28.8261 3 25.1611C3 22.5282 4.47919 21.4505 7.01308 21.2131C9.05884 21.0207 11.8233 21.425 15.0693 21.947C15.1074 21.9531 15.1457 21.9593 15.184 21.9654L15.1842 21.9682L17.0589 11.799ZM14.3783 20.8241L16.0745 11.6231L16.075 11.6203C16.6583 8.36497 19.4713 5.98552 22.7644 6.00007H37.2384C40.5302 5.98848 43.3439 8.36408 43.9273 11.6204L43.9278 11.6231L45.6244 20.8261C48.495 20.372 51.0784 20.032 53.0801 20.2202M14.3783 20.8241C11.5081 20.3715 8.92158 20.0292 6.9198 20.2175C5.55511 20.3453 4.29866 20.7116 3.38126 21.5511C2.43152 22.4201 2 23.6505 2 25.1611C2 29.4505 5.68566 32.9058 10.7158 35.2216C15.8357 37.5819 22.7761 39 30 39C37.2248 39 44.175 37.571 49.2838 35.2191C54.3174 32.9057 58 29.4508 58 25.1612C58 23.6522 57.5693 22.4223 56.6197 21.5535C55.7026 20.7144 54.4458 20.3481 53.0801 20.2202M16.735 21.4479L15.7989 26.5323C24.524 29.0532 33.9895 29.0426 44.1962 26.5057L43.2497 21.3626C42.9229 21.4309 42.5961 21.4969 42.2693 21.5608C34.0084 23.1754 25.7538 23.3673 17.7119 21.6644C17.3859 21.5954 17.0603 21.5232 16.735 21.4479ZM17.5308 22.6482L16.948 25.8141C24.9782 27.9638 33.6691 27.9544 43.0414 25.7559L42.4503 22.5443C34.0932 24.1765 25.7136 24.3768 17.5308 22.6482Z" fill="currentColor"/>
<path d="M47 54.7255C46.431 54.8821 45.7409 55 44.9443 55C43.8983 55 42.8426 54.792 41.8051 54.3846C40.0932 53.7112 38.9189 52.0686 37.8826 51.0629C36.5763 49.7934 35.7082 49.0161 34.3983 49.0064C32.6525 49.0064 31.5254 49.98 30.8257 50.7123C30.5969 50.9514 30.2651 51.0886 29.914 51.0886C29.563 51.0886 29.23 50.9503 29.0036 50.7123C28.3027 49.9778 27.1719 49 25.454 49C24.1259 49.0086 23.2821 49.7795 22.0109 51.0393C20.9879 52.0515 19.8281 53.7016 18.1053 54.3792C17.069 54.7877 16.0206 54.9946 14.9915 54.9946C14.2191 54.9946 13.5521 54.8799 13 54.7255" stroke="currentColor" stroke-width="3.5" stroke-linecap="round" stroke-linejoin="round"/>
</svg>
