<svg width="31" height="30" viewBox="0 0 31 30" fill="none" xmlns="http://www.w3.org/2000/svg">
<rect x="0.5" width="30" height="30" rx="10" fill="#FF6969"/>
<path d="M6.42 13.86C7.02 13.7133 7.70667 13.54 8.48 13.34C9.26667 13.1267 10.0933 12.9067 10.96 12.68C11.84 12.44 12.72 12.2 13.6 11.96L13.78 13.32C12.54 13.6667 11.3 14.0133 10.06 14.36C8.83333 14.7067 7.74 15.02 6.78 15.3L6.42 13.86ZM6.82 8.5H13.56V9.9H6.82V8.5ZM9.82 5.72H11.22V17.48C11.22 17.8667 11.1667 18.1667 11.06 18.38C10.9667 18.5933 10.7867 18.76 10.52 18.88C10.28 18.9867 9.94667 19.06 9.52 19.1C9.09333 19.1267 8.55333 19.14 7.9 19.14C7.87333 18.94 7.81333 18.7133 7.72 18.46C7.64 18.2067 7.55333 17.9867 7.46 17.8C7.92667 17.8133 8.34667 17.82 8.72 17.82C9.09333 17.8067 9.34 17.8 9.46 17.8C9.59333 17.8 9.68667 17.78 9.74 17.74C9.79333 17.6867 9.82 17.6 9.82 17.48V5.72ZM14.06 8.58H21.74V9.88H14.06V8.58ZM13.92 13.42L14.66 12.38C15.3 12.74 15.9733 13.14 16.68 13.58C17.3867 14.02 18.06 14.46 18.7 14.9C19.3533 15.3267 19.8867 15.7067 20.3 16.04L19.52 17.22C19.12 16.8733 18.6 16.48 17.96 16.04C17.3333 15.5867 16.66 15.1333 15.94 14.68C15.2333 14.2133 14.56 13.7933 13.92 13.42ZM20.86 8.58H22.28C22.2267 10.6733 22.2 12.4133 22.2 13.8C22.2133 15.1867 22.2933 16.2267 22.44 16.92C22.5867 17.6133 22.84 17.96 23.2 17.96C23.3733 17.96 23.5 17.8 23.58 17.48C23.6733 17.16 23.7333 16.5867 23.76 15.76C23.92 15.8667 24.1133 15.98 24.34 16.1C24.5667 16.2067 24.7667 16.2867 24.94 16.34C24.8867 17.1 24.7933 17.7 24.66 18.14C24.5267 18.5667 24.3333 18.8667 24.08 19.04C23.84 19.2 23.5267 19.28 23.14 19.28C22.5 19.28 22.0133 19.04 21.68 18.56C21.36 18.08 21.14 17.38 21.02 16.46C20.9 15.5267 20.84 14.4 20.84 13.08C20.84 11.7467 20.8467 10.2467 20.86 8.58ZM16.82 5.68H18.26C18.2467 7.49333 18.1933 9.11333 18.1 10.54C18.0067 11.9533 17.82 13.2067 17.54 14.3C17.26 15.38 16.8267 16.3267 16.24 17.14C15.6533 17.94 14.8467 18.6267 13.82 19.2C13.7267 19.04 13.58 18.8533 13.38 18.64C13.1933 18.4133 13.02 18.24 12.86 18.12C13.8067 17.6133 14.5467 17 15.08 16.28C15.6133 15.5467 16 14.6867 16.24 13.7C16.4933 12.7 16.6467 11.54 16.7 10.22C16.7667 8.88667 16.8067 7.37333 16.82 5.68ZM12.36 20.28L13.74 20.14C13.8733 20.7267 13.9867 21.3667 14.08 22.06C14.1733 22.74 14.2267 23.3067 14.24 23.76L12.76 23.98C12.76 23.66 12.74 23.2867 12.7 22.86C12.6733 22.4467 12.6333 22.0133 12.58 21.56C12.5267 21.1067 12.4533 20.68 12.36 20.28ZM16.48 20.24L17.88 19.98C18.0667 20.3667 18.2467 20.7867 18.42 21.24C18.5933 21.68 18.7467 22.1067 18.88 22.52C19.0133 22.9333 19.1133 23.3 19.18 23.62L17.7 23.94C17.6067 23.46 17.4467 22.8733 17.22 22.18C16.9933 21.4867 16.7467 20.84 16.48 20.24ZM20.62 20.14L21.94 19.58C22.2867 19.98 22.6333 20.42 22.98 20.9C23.3267 21.3667 23.6467 21.8333 23.94 22.3C24.2333 22.7667 24.4733 23.1733 24.66 23.52L23.24 24.18C23.08 23.82 22.8533 23.4067 22.56 22.94C22.28 22.4733 21.9667 21.9933 21.62 21.5C21.2867 21.0067 20.9533 20.5533 20.62 20.14ZM8.98 19.7L10.38 20.08C10.1533 20.5467 9.89333 21.0267 9.6 21.52C9.30667 22.0133 9 22.4867 8.68 22.94C8.37333 23.3933 8.06667 23.7933 7.76 24.14L6.36 23.56C6.66667 23.24 6.98 22.8733 7.3 22.46C7.62 22.0333 7.92667 21.58 8.22 21.1C8.51333 20.62 8.76667 20.1533 8.98 19.7Z" fill="white"/>
</svg>
