<svg width="40" height="40" viewBox="0 0 40 40" fill="none" xmlns="http://www.w3.org/2000/svg">
<path d="M18.629 20.2924L18.6105 20.2789L18.629 20.2864V20.2924Z" fill="#34C759"/>
<path fill-rule="evenodd" clip-rule="evenodd" d="M18.6105 20.2789C15.4228 17.9337 14.6643 13.4918 16.9028 10.2223C16.9392 10.2587 16.9757 10.2952 17.0183 10.3315C14.8241 13.5528 15.6081 17.9326 18.7809 20.2014C18.3372 19.8011 17.9908 19.3097 17.7598 18.7637C16.8906 16.6951 17.8692 14.3171 19.9419 13.4496C20.1971 13.3404 20.4463 13.213 20.6834 13.0614C22.8898 11.6419 23.528 8.70577 22.1057 6.5037C21.9659 6.28531 21.8504 6.04872 21.7714 5.8C21.2791 4.25309 22.1422 2.60912 23.686 2.11775C19.3158 1.42619 15.0429 3.83452 13.3835 7.92928C11.4167 12.7822 13.7605 18.3068 18.6105 20.2789ZM18.24 8.46312L17.445 7.56072L17.5592 8.74823L16.4469 9.22747L17.6261 9.49439L17.7416 10.6955L18.3555 9.65818L19.5346 9.9251L18.7384 9.02122L19.3523 7.98388L18.24 8.46312Z" fill="#34C759"/>
<path fill-rule="evenodd" clip-rule="evenodd" d="M29.2718 11.1687C24.0324 10.7987 19.4859 14.7418 19.1213 19.9709C20.3612 16.2038 24.3728 14.1048 28.1838 15.221C28.1595 15.2695 28.1352 15.3181 28.1169 15.3666C24.3667 14.2807 20.4402 16.3797 19.255 20.0862C19.4981 19.5463 19.8567 19.061 20.3126 18.6727C22.0145 17.2108 24.5855 17.3988 26.0504 19.1034C26.2327 19.3158 26.4333 19.5099 26.646 19.6858C28.6822 21.3419 31.6726 21.0386 33.332 19.0064C33.4961 18.8062 33.6906 18.6242 33.9033 18.4726C35.2223 17.5323 37.0579 17.8356 38 19.152C37.3071 14.7903 33.6906 11.4781 29.2779 11.1687H29.2718ZM29.8978 16.5859L29.2839 17.6233L29.1684 16.4221L27.9893 16.1552L29.1016 15.676L28.9861 14.4749L29.7823 15.3787L30.8946 14.8995L30.2807 15.9368L31.077 16.8407L29.8978 16.5738V16.5859Z" fill="#34C759"/>
<path fill-rule="evenodd" clip-rule="evenodd" d="M14.8481 30.051C14.8429 30.0058 14.8336 29.9646 14.8236 29.9205L14.8179 29.8954C18.4892 28.573 20.4342 24.5753 19.2064 20.8748C19.3279 21.4572 19.3219 22.0577 19.1821 22.634C18.6654 24.8179 16.4773 26.1707 14.2891 25.6551C14.0156 25.5883 13.7421 25.5519 13.4625 25.5337C10.8428 25.3881 8.6 27.39 8.44804 30.0046C8.43589 30.2655 8.38726 30.5202 8.30217 30.769C7.7916 32.3037 6.12619 33.1348 4.58234 32.6253C7.71259 35.7494 12.5873 36.3075 16.3436 33.9659C20.7988 31.1936 22.1543 25.3396 19.3766 20.893C20.5916 24.6643 18.5885 28.7143 14.8481 30.051ZM12.8365 31.8912L13.4504 30.8539V30.8418L14.6295 31.1087L13.8333 30.2048L14.4472 29.1675L13.3349 29.6467L12.5386 28.7428L12.6541 29.9439L11.5418 30.4232L12.721 30.6901L12.8365 31.8912Z" fill="#34C759"/>
<path fill-rule="evenodd" clip-rule="evenodd" d="M19.583 20.3349C23.552 20.347 26.7977 23.5076 26.9132 27.4689C26.8585 27.4567 26.8099 27.4507 26.7552 27.4507C26.6275 23.5561 23.4183 20.4744 19.5161 20.4987C20.1057 20.5654 20.677 20.7535 21.1876 21.0629C23.1083 22.2276 23.7161 24.7269 22.5552 26.6378C22.4093 26.8744 22.2877 27.1231 22.1844 27.384C21.2362 29.8287 22.4519 32.5767 24.8953 33.5231C25.1384 33.6201 25.3694 33.7414 25.576 33.8992C26.8828 34.8637 27.1563 36.6957 26.196 38C30.1407 35.9981 32.1769 31.5394 31.1071 27.2505C29.8368 22.1669 24.6825 19.067 19.583 20.3349ZM26.8646 29.6831L26.2507 30.7204L26.1352 29.5193L24.9561 29.2524L26.0684 28.7731L25.9529 27.572L26.7491 28.4759L27.8614 27.9966L27.2475 29.034L28.0438 29.9379L26.8646 29.671V29.6831Z" fill="#34C759"/>
<path d="M7.3891 17.5631L7.39022 17.5747V17.5626L7.3891 17.5631Z" fill="#34C759"/>
<path fill-rule="evenodd" clip-rule="evenodd" d="M18.7868 20.8627C15.4073 24.8786 9.41424 25.4003 5.3905 22.0274H5.39658C2.00497 19.1884 1.02639 14.3899 3.03826 10.4529C3.0261 12.0726 4.33291 13.395 5.95577 13.4072C6.21713 13.4072 6.47242 13.3768 6.7277 13.3101C9.26837 12.6367 11.8698 14.1473 12.5384 16.683C12.6053 16.9499 12.6539 17.2229 12.6782 17.5019C12.8606 19.7404 14.8299 21.3965 17.0666 21.2145C17.6562 21.166 18.2336 20.9901 18.7503 20.6928C15.6079 23.0041 11.1951 22.3914 8.80035 19.3158C8.7578 19.3461 8.70918 19.3704 8.66055 19.3946C11.0857 22.5309 15.5653 23.18 18.7868 20.8627ZM7.27473 16.3736L7.3891 17.5631L6.27791 18.0418L7.45708 18.3088L7.57256 19.5099L8.18645 18.4725L9.36562 18.7395L8.56938 17.8356L9.18327 16.7982L8.07097 17.2775L7.27473 16.3736Z" fill="#34C759"/>
</svg>
