<svg width="44" height="44" viewBox="0 0 44 44" fill="none" xmlns="http://www.w3.org/2000/svg">
<path d="M39 19.6667C39 14.5329 39 11.9659 38.0009 10.0051C37.1221 8.28027 35.7197 6.87795 33.9949 5.99911C32.0341 5 29.4671 5 24.3333 5H20.6667C15.5329 5 12.9659 5 11.0051 5.99911C9.28027 6.87795 7.87795 8.28027 6.99911 10.0051C6 11.9659 6 14.5329 6 19.6667V27.4186C6 31.2375 9.09582 34.3333 12.9147 34.3333H14.0179C15.4463 34.3333 16.423 35.7759 15.8925 37.1021C15.1436 38.9743 17.2997 40.6669 18.9405 39.4949L23.7269 36.076C23.7757 36.0412 23.8001 36.0237 23.8241 36.0068C25.3531 34.9294 27.1751 34.3455 29.0456 34.3335C29.0749 34.3333 29.1141 34.3333 29.1923 34.3333C29.7642 34.3333 30.0502 34.3333 30.2668 34.3231C34.9887 34.0995 38.7662 30.322 38.9897 25.6001C39 25.3835 39 25.1272 39 24.6145V19.6667Z" stroke="#34C759" stroke-width="2.93333"/>
<path d="M17.0007 19.6663C17.0007 20.6789 16.1798 21.4997 15.1673 21.4997C14.1548 21.4997 13.334 20.6789 13.334 19.6663C13.334 18.6538 14.1548 17.833 15.1673 17.833C16.1798 17.833 17.0007 18.6538 17.0007 19.6663Z" fill="#34C759"/>
<path d="M24.334 19.6663C24.334 20.6789 23.5132 21.4997 22.5007 21.4997C21.4881 21.4997 20.6673 20.6789 20.6673 19.6663C20.6673 18.6538 21.4881 17.833 22.5007 17.833C23.5132 17.833 24.334 18.6538 24.334 19.6663Z" fill="#34C759"/>
<path d="M31.6673 19.6663C31.6673 20.6789 30.8465 21.4997 29.834 21.4997C28.8215 21.4997 28.0007 20.6789 28.0007 19.6663C28.0007 18.6538 28.8215 17.833 29.834 17.833C30.8465 17.833 31.6673 18.6538 31.6673 19.6663Z" fill="#34C759"/>
</svg>
