<svg width="30" height="30" viewBox="0 0 30 30" fill="none" xmlns="http://www.w3.org/2000/svg">
<path d="M14.2976 1.94144C14.5849 1.35285 15.4151 1.35286 15.7024 1.94144L19.4218 9.56067C19.5359 9.7944 19.7565 9.9564 20.0116 9.99388L28.3285 11.2157C28.971 11.3101 29.2275 12.1083 28.7626 12.5664L22.7444 18.4972C22.5598 18.6791 22.4756 18.9412 22.5192 19.1981L23.9399 27.5725C24.0496 28.2194 23.378 28.7127 22.8033 28.4073L15.3645 24.4534C15.1363 24.3322 14.8637 24.3322 14.6355 24.4534L7.19665 28.4073C6.62201 28.7127 5.95039 28.2194 6.06013 27.5725L7.48083 19.1981C7.52441 18.9412 7.44017 18.6791 7.25556 18.4972L1.2374 12.5664C0.772504 12.1083 1.02904 11.3101 1.67151 11.2157L9.9884 9.99388C10.2435 9.9564 10.4641 9.7944 10.5782 9.56067L14.2976 1.94144Z" fill="#FFD15A"/>
</svg>
