<svg width="44" height="44" viewBox="0 0 44 44" fill="none" xmlns="http://www.w3.org/2000/svg">
<path d="M33.1797 31.5766C32.6341 31.031 31.7496 31.031 31.204 31.5766C30.6584 32.1222 30.6584 33.0067 31.204 33.5523L33.1797 31.5766ZM37.5904 39.9388C38.1359 40.4844 39.0205 40.4844 39.5661 39.9388C40.1117 39.3932 40.1117 38.5087 39.5661 37.9631L37.5904 39.9388ZM31.204 33.5523L37.5904 39.9388L39.5661 37.9631L33.1797 31.5766L31.204 33.5523ZM19.4186 32.7639C12.254 32.7639 6.44589 26.9558 6.44589 19.7912H3.65177C3.65177 28.4989 10.7108 35.558 19.4186 35.558V32.7639ZM32.3913 19.7912C32.3913 26.9558 26.5832 32.7639 19.4186 32.7639V35.558C28.1264 35.558 35.1854 28.4989 35.1854 19.7912H32.3913ZM19.4186 6.81845C26.5832 6.81845 32.3913 12.6265 32.3913 19.7912H35.1854C35.1854 11.0834 28.1264 4.02433 19.4186 4.02433V6.81845ZM19.4186 4.02433C10.7108 4.02433 3.65177 11.0834 3.65177 19.7912H6.44589C6.44589 12.6265 12.254 6.81845 19.4186 6.81845V4.02433Z" fill="#656565"/>
</svg>
