<svg width="44" height="44" viewBox="0 0 44 44" fill="none" xmlns="http://www.w3.org/2000/svg">
<path d="M16.8418 13.2002L22.1218 20.2317L27.3764 13.2002" stroke="white" stroke-width="2.75" stroke-linecap="round" stroke-linejoin="round"/>
<path d="M22.002 20.812L22.002 32.6582" stroke="white" stroke-width="2.75" stroke-linecap="round" stroke-linejoin="round"/>
<path d="M17.2617 27.9192H26.7386" stroke="white" stroke-width="2.75" stroke-linecap="round" stroke-linejoin="round"/>
<path d="M14.8945 21.9958H29.1099" stroke="white" stroke-width="2.75" stroke-linecap="round" stroke-linejoin="round"/>
<path d="M22.0003 4.12737C21.9742 4.12725 21.948 4.1272 21.9219 4.1272C12.0498 4.1272 4.04688 12.1301 4.04688 22.0022C4.04688 31.8743 12.0498 39.8772 21.9219 39.8772C31.794 39.8772 39.7969 31.8743 39.7969 22.0022C39.7969 22.0022 39.7969 20.35 38.5003 20.35C37.0469 20.35 37.0469 22.0022 37.0469 22.0022C37.0469 30.3555 30.2752 37.1272 21.9219 37.1272C13.5686 37.1272 6.79688 30.3555 6.79688 22.0022C6.79688 13.6489 13.5686 6.8772 21.9219 6.8772C21.948 6.8772 21.9742 6.87726 22.0003 6.8774C22.0003 6.8774 23.6503 6.87273 23.6503 5.50005C23.6503 4.12737 22.0003 4.12737 22.0003 4.12737Z" fill="white"/>
<path d="M29.6992 7.69995H40.6992" stroke="white" stroke-width="2.75" stroke-linecap="round"/>
<path d="M35.1992 2.19995L35.1992 13.2" stroke="white" stroke-width="2.75" stroke-linecap="round"/>
</svg>
