<svg width="34" height="37" viewBox="0 0 34 37" fill="none" xmlns="http://www.w3.org/2000/svg">
<path d="M15.8438 1.82083C16.5848 1.39305 17.4977 1.39305 18.2386 1.82083L30.887 9.12341C31.628 9.55119 32.0844 10.3418 32.0844 11.1973V25.8025C32.0844 26.658 31.628 27.4486 30.887 27.8764L18.2386 35.179C17.4977 35.6067 16.5848 35.6067 15.8438 35.179L3.19542 27.8764C2.45448 27.4486 1.99804 26.658 1.99804 25.8025V11.1973C1.99804 10.3418 2.45448 9.55119 3.19542 9.12341L15.8438 1.82083Z" fill="url(#paint0_linear_9743_12341)" stroke="url(#paint1_linear_9743_12341)" stroke-width="1.99999"/>
<path d="M16.498 3.78867C16.8074 3.61004 17.1886 3.61004 17.498 3.78867L29.4883 10.7113C29.7977 10.8899 29.9883 11.22 29.9883 11.5773V25.4225C29.9883 25.7798 29.7977 26.1099 29.4883 26.2885L17.498 33.2112C17.1886 33.3898 16.8074 33.3898 16.498 33.2112L4.50765 26.2885C4.19825 26.1099 4.00765 25.7798 4.00765 25.4225V11.5773C4.00765 11.22 4.19825 10.8899 4.50765 10.7113L16.498 3.78867Z" fill="#434343"/>
<path d="M16.498 3.78867C16.8074 3.61004 17.1886 3.61004 17.498 3.78867L29.4883 10.7113C29.7977 10.8899 29.9883 11.22 29.9883 11.5773V25.4225C29.9883 25.7798 29.7977 26.1099 29.4883 26.2885L17.498 33.2112C17.1886 33.3898 16.8074 33.3898 16.498 33.2112L4.50765 26.2885C4.19825 26.1099 4.00765 25.7798 4.00765 25.4225V11.5773C4.00765 11.22 4.19825 10.8899 4.50765 10.7113L16.498 3.78867Z" fill="url(#paint2_linear_9743_12341)"/>
<g filter="url(#filter0_d_9743_12341)">
<path d="M17.0287 12.0143V25.4557H10.2856C9.6434 25.4557 9.53637 24.9528 9.45074 24.7013L7.33131 17.2263C7.28849 17.0662 7.25424 16.6913 7.45975 16.4719C7.66526 16.2524 8.05915 16.3347 8.2304 16.4033L10.0286 16.9519C11.6983 17.432 12.6831 16.5633 13.1112 16.129C14.1387 15.0089 16.258 12.6863 16.5149 12.3572C16.7718 12.028 16.9645 11.9914 17.0287 12.0143Z" fill="url(#paint3_linear_9743_12341)"/>
<path d="M17.0279 12.0143V25.4557H23.6952C24.3302 25.4557 24.436 24.9528 24.5207 24.7013L26.6163 17.2263C26.6587 17.0662 26.6925 16.6913 26.4893 16.4719C26.2861 16.2524 25.8967 16.3347 25.7273 16.4033L23.9493 16.9519C22.2984 17.432 21.3247 16.5633 20.9014 16.129C19.8854 15.0089 17.7899 12.6863 17.5359 12.3572C17.2819 12.028 17.0914 11.9914 17.0279 12.0143Z" fill="url(#paint4_linear_9743_12341)"/>
<circle cx="17.0948" cy="8.72766" r="1.85852" fill="url(#paint5_linear_9743_12341)"/>
<circle cx="26.4739" cy="13.9739" r="1.47588" fill="url(#paint6_linear_9743_12341)"/>
<circle cx="7.47393" cy="13.9739" r="1.47588" fill="url(#paint7_linear_9743_12341)"/>
<rect x="9.92773" y="26.2549" width="14.5547" height="1.27673" rx="0.255345" fill="url(#paint8_linear_9743_12341)"/>
</g>
<defs>
<filter id="filter0_d_9743_12341" x="3.72034" y="5.2223" width="26.5202" height="23.8572" filterUnits="userSpaceOnUse" color-interpolation-filters="sRGB">
<feFlood flood-opacity="0" result="BackgroundImageFix"/>
<feColorMatrix in="SourceAlpha" type="matrix" values="0 0 0 0 0 0 0 0 0 0 0 0 0 0 0 0 0 0 127 0" result="hardAlpha"/>
<feOffset/>
<feGaussianBlur stdDeviation="0.638363"/>
<feComposite in2="hardAlpha" operator="out"/>
<feColorMatrix type="matrix" values="0 0 0 0 0.900423 0 0 0 0 0.61529 0 0 0 0 0 0 0 0 0.5 0"/>
<feBlend mode="normal" in2="BackgroundImageFix" result="effect1_dropShadow_9743_12341"/>
<feBlend mode="normal" in="SourceGraphic" in2="effect1_dropShadow_9743_12341" result="shape"/>
</filter>
<linearGradient id="paint0_linear_9743_12341" x1="15.4424" y1="0.597679" x2="20.7193" y2="35.695" gradientUnits="userSpaceOnUse">
<stop stop-color="#FFD145"/>
<stop offset="0.225812" stop-color="#FBD363"/>
<stop offset="0.859683" stop-color="#D28210"/>
</linearGradient>
<linearGradient id="paint1_linear_9743_12341" x1="17.0933" y1="0.536518" x2="17.0399" y2="35.5139" gradientUnits="userSpaceOnUse">
<stop stop-color="#FFF2CD"/>
<stop offset="0.692708" stop-color="#F1CA65"/>
<stop offset="1" stop-color="#F1CA65"/>
</linearGradient>
<linearGradient id="paint2_linear_9743_12341" x1="16.998" y1="0.500017" x2="15.749" y2="36.957" gradientUnits="userSpaceOnUse">
<stop stop-color="#FFB960"/>
<stop offset="0.645" stop-color="#903D17"/>
<stop offset="1" stop-color="#903D17"/>
</linearGradient>
<linearGradient id="paint3_linear_9743_12341" x1="11.2805" y1="12.4943" x2="16.1814" y2="25.245" gradientUnits="userSpaceOnUse">
<stop offset="0.32336" stop-color="#FFF9E9"/>
<stop offset="0.863053" stop-color="#F5DA9F"/>
</linearGradient>
<linearGradient id="paint4_linear_9743_12341" x1="19.1555" y1="12.0088" x2="24.7959" y2="24.6637" gradientUnits="userSpaceOnUse">
<stop offset="0.145413" stop-color="#FFE3A3"/>
<stop offset="0.906773" stop-color="#FFF9E7"/>
</linearGradient>
<linearGradient id="paint5_linear_9743_12341" x1="17.0948" y1="10.5862" x2="16.1067" y2="7.05086" gradientUnits="userSpaceOnUse">
<stop offset="0.145413" stop-color="#FFE3A3"/>
<stop offset="0.906773" stop-color="#FFF9E7"/>
</linearGradient>
<linearGradient id="paint6_linear_9743_12341" x1="26.4739" y1="15.4498" x2="25.6893" y2="12.6424" gradientUnits="userSpaceOnUse">
<stop offset="0.145413" stop-color="#FFE3A3"/>
<stop offset="0.906773" stop-color="#FFF9E7"/>
</linearGradient>
<linearGradient id="paint7_linear_9743_12341" x1="7.47393" y1="15.4498" x2="6.68926" y2="12.6424" gradientUnits="userSpaceOnUse">
<stop offset="0.145413" stop-color="#FFE3A3"/>
<stop offset="0.906773" stop-color="#FFF9E7"/>
</linearGradient>
<linearGradient id="paint8_linear_9743_12341" x1="9.92773" y1="26.8932" x2="10.5633" y2="29.8675" gradientUnits="userSpaceOnUse">
<stop offset="0.12813" stop-color="#FFF9E9"/>
<stop offset="0.957178" stop-color="#F5DA9F"/>
</linearGradient>
</defs>
</svg>
