<svg width="118" height="115" viewBox="0 0 118 115" fill="none" xmlns="http://www.w3.org/2000/svg">
<path fill-rule="evenodd" clip-rule="evenodd" d="M96.7171 57.6624C96.6494 70.6272 89.8924 83.212 77.8542 90.1623C65.816 97.1126 51.5387 96.6719 40.277 90.2481L38.0059 91.5594C50.1152 99.008 65.8207 99.7492 78.997 92.1418C92.1734 84.5344 99.3842 70.5625 98.9882 56.3512L96.7171 57.6624ZM84.2278 64.8731L81.1971 66.6229C79.2523 71.3655 75.7796 75.5242 70.997 78.2854C66.2145 81.0466 60.8766 81.9747 55.797 81.2877L52.7663 83.0374C59.1104 84.5863 66.0379 83.7879 72.1399 80.2649C78.242 76.7419 82.3971 71.1417 84.2278 64.8731ZM33.7663 50.1284L36.797 48.3787C38.7418 43.6361 42.2145 39.4774 46.997 36.7162C51.7796 33.955 57.1175 33.0269 62.1971 33.7139L65.2278 31.9642C58.8837 30.4153 51.9562 31.2137 45.8542 34.7367C39.7521 38.2597 35.597 43.8599 33.7663 50.1284ZM77.7171 24.7534C66.4554 18.3297 52.1781 17.889 40.1399 24.8393C28.1017 31.7895 21.3447 44.3743 21.277 57.3392L19.0059 58.6504C18.6099 44.4391 25.8207 30.4672 38.997 22.8598C52.1734 15.2524 67.8789 15.9936 79.9882 23.4422L77.7171 24.7534Z" fill="#34C759"/>
<rect x="12.3934" y="64.7781" width="88" height="34" rx="5" transform="rotate(-30 12.3934 64.7781)" stroke="#34C759" stroke-width="2"/>
<path d="M27.8603 69.3266L30.4376 67.8386L36.0536 77.5658C36.7976 78.8544 37.2709 78.8583 39.578 77.5263C40.6588 76.9023 45.2106 74.2743 46.4369 73.5663C48.5777 72.3303 48.5983 71.5979 47.1253 68.3745C48.0096 68.4182 49.4255 68.1827 50.225 67.8874C52.0269 72.1125 51.7724 73.7836 47.9688 75.9796C46.9504 76.5676 41.9621 79.4476 41.0268 79.9876C36.9946 82.3156 35.3123 82.2338 33.4763 79.0538L27.8603 69.3266ZM30.9888 71.2893L42.4826 64.6533L43.9106 67.1266L32.4168 73.7626L30.9888 71.2893ZM24.6769 65.7328L40.1614 56.7928L46.1254 67.1227L43.5273 68.6227L38.9913 60.7662L26.1049 68.2062L24.6769 65.7328ZM47.2308 55.9814L64.4197 46.0574L70.4437 56.4912L67.8248 58.0032L63.2168 50.022L51.1618 56.982L55.8298 65.0672L53.3148 66.5192L47.2308 55.9814ZM52.5363 62.1466L67.2518 53.6506L68.6678 56.1032L53.9523 64.5992L52.5363 62.1466ZM52.3551 48.2008L54.9947 46.6768L66.2627 66.1936L63.6231 67.7176L52.3551 48.2008ZM72.4437 52.3713L91.0459 41.6313L92.3059 43.8137L73.7037 54.5537L72.4437 52.3713ZM79.7585 46.513L82.3774 45.001C84.5698 49.9983 84.9611 53.6522 77.7118 59.528C77.1856 59.0005 76.0724 58.3684 75.3479 58.1216C81.9546 53.0047 81.4788 50.4527 79.7585 46.513ZM84.2269 47.8684C86.8355 49.4107 90.2327 48.8627 94.6703 46.6609C94.4299 47.4925 94.3856 48.9038 94.4578 49.7489C89.4573 51.8877 85.8465 51.9216 82.2789 49.6305L84.2269 47.8684ZM66.7589 42.573L68.0447 40.5281C69.2882 41.0018 70.8516 41.7897 71.6345 42.4738L70.308 44.7362C69.5458 44.04 68.0088 43.1538 66.7589 42.573ZM69.7726 38.1448L72.2044 36.7408L78.3364 47.3618L75.9046 48.7658L69.7726 38.1448ZM69.46 48.1634C70.4126 46.8374 71.7368 44.715 73.0314 42.6373L74.8245 44.2071C73.8089 46.0959 72.6926 48.0984 71.7264 49.737L69.46 48.1634ZM78.1367 40.632L79.3002 38.5192C80.626 38.7514 82.3755 39.2378 83.3599 39.6948L82.1525 41.9716C81.2305 41.4785 79.4985 40.9266 78.1367 40.632ZM77.1702 36.174L83.5511 32.49L84.7511 34.5684L78.3702 38.2524L77.1702 36.174ZM76.6251 34.0777L79.4417 33.5323C79.3522 36.1613 78.4937 39.2342 77.1584 41.5294C76.505 41.2138 75.3271 40.7576 74.6179 40.5851C75.8654 38.6178 76.6753 35.9886 76.6251 34.0777ZM83.1978 32.694L83.6966 32.406L84.0763 32.1036L85.9688 31.9255C87.3116 37.9953 84.477 42.5417 79.7881 46.4682C79.2442 46.0062 77.9911 45.3718 77.2787 45.1458C81.895 41.6214 84.5395 37.8499 83.4138 33.0681L83.1978 32.694Z" fill="#34C759"/>
<path d="M40.9993 26.3232L43.159 28.2678L45.6758 26.8148L44.4937 29.4697L46.6534 31.4143L43.7632 31.1105L42.5811 33.7654L41.9769 30.9228L39.0867 30.619L41.6035 29.1659L40.9993 26.3232Z" fill="#34C759"/>
<path d="M76.9988 88.6777L74.8391 86.7331L72.3223 88.1862L73.5043 85.5313L71.3446 83.5867L74.2349 83.8905L75.4169 81.2355L76.0211 84.0782L78.9114 84.382L76.3946 85.8351L76.9988 88.6777Z" fill="#34C759"/>
<path d="M58.998 21.5L59.8961 24.2639H62.8023L60.4511 25.9721L61.3492 28.7361L58.998 27.0279L56.6469 28.7361L57.545 25.9721L55.1938 24.2639H58.1L58.998 21.5Z" fill="#34C759"/>
<path d="M58.998 93.5L58.1 90.7361L55.1938 90.7361L57.545 89.0279L56.6469 86.2639L58.998 87.9721L61.3492 86.2639L60.4511 89.0279L62.8023 90.7361L59.8961 90.7361L58.998 93.5Z" fill="#34C759"/>
<path d="M90.1758 75.4993L87.3331 74.895L85.88 77.4118L85.5763 74.5216L82.7336 73.9174L85.3885 72.7353L85.0847 69.8451L87.0293 72.0048L89.6843 70.8227L88.2312 73.3396L90.1758 75.4993Z" fill="#34C759"/>
<path d="M27.8203 39.5007L30.663 40.105L32.1161 37.5882L32.4198 40.4784L35.2625 41.0826L32.6076 42.2647L32.9114 45.1549L30.9668 42.9952L28.3118 44.1773L29.7649 41.6604L27.8203 39.5007Z" fill="#34C759"/>
</svg>
