<svg width="36" height="36" viewBox="0 0 36 36" fill="none" xmlns="http://www.w3.org/2000/svg">
<path d="M7.59161 31.5676L8.25287 30.6575L7.59161 31.5676ZM5.93237 29.9084L6.84252 29.2471L5.93237 29.9084ZM30.0676 29.9084L29.1575 29.2471L30.0676 29.9084ZM28.4084 31.5676L27.7471 30.6575L28.4084 31.5676ZM28.4084 4.43237L29.0696 3.52223L28.4084 4.43237ZM30.0676 6.09161L29.1575 6.75287L30.0676 6.09161ZM7.59161 4.43237L8.25287 5.34252L7.59161 4.43237ZM5.93237 6.09161L6.84252 6.75287L5.93237 6.09161ZM19.7192 9.89296L19.8952 11.0041L19.7192 9.89296ZM17.3727 9.89296L17.1967 11.0041L17.3727 9.89296ZM12 22.875C11.3787 22.875 10.875 23.3787 10.875 24C10.875 24.6213 11.3787 25.125 12 25.125V22.875ZM24 25.125C24.6213 25.125 25.125 24.6213 25.125 24C25.125 23.3787 24.6213 22.875 24 22.875V25.125ZM12 16.875C11.3787 16.875 10.875 17.3787 10.875 18C10.875 18.6213 11.3787 19.125 12 19.125V16.875ZM16.5 19.125C17.1213 19.125 17.625 18.6213 17.625 18C17.625 17.3787 17.1213 16.875 16.5 16.875V19.125ZM30.375 16.5V19.5H32.625V16.5H30.375ZM5.625 19.5V16.5H3.375V19.5H5.625ZM18 31.875C15.1626 31.875 13.125 31.8735 11.5471 31.7025C9.9902 31.5338 9.01487 31.2111 8.25287 30.6575L6.93035 32.4778C8.13984 33.3565 9.55641 33.75 11.3047 33.9394C13.032 34.1265 15.2128 34.125 18 34.125V31.875ZM3.375 19.5C3.375 22.2872 3.37346 24.468 3.56059 26.1953C3.75001 27.9436 4.14349 29.3602 5.02223 30.5696L6.84252 29.2471C6.28889 28.4851 5.96618 27.5098 5.7975 25.9529C5.62654 24.375 5.625 22.3374 5.625 19.5H3.375ZM8.25287 30.6575C7.71167 30.2643 7.23572 29.7883 6.84252 29.2471L5.02223 30.5696C5.55421 31.3019 6.19814 31.9458 6.93035 32.4778L8.25287 30.6575ZM30.375 19.5C30.375 22.3374 30.3735 24.375 30.2025 25.9529C30.0338 27.5098 29.7111 28.4851 29.1575 29.2471L30.9778 30.5696C31.8565 29.3602 32.25 27.9436 32.4394 26.1953C32.6265 24.468 32.625 22.2872 32.625 19.5H30.375ZM18 34.125C20.7872 34.125 22.968 34.1265 24.6953 33.9394C26.4436 33.75 27.8602 33.3565 29.0696 32.4778L27.7471 30.6575C26.9851 31.2111 26.0098 31.5338 24.4529 31.7025C22.875 31.8735 20.8374 31.875 18 31.875V34.125ZM29.1575 29.2471C28.7643 29.7883 28.2883 30.2643 27.7471 30.6575L29.0696 32.4778C29.8019 31.9458 30.4458 31.3019 30.9778 30.5696L29.1575 29.2471ZM32.625 16.5C32.625 13.7128 32.6265 11.532 32.4394 9.80471C32.25 8.05641 31.8565 6.63984 30.9778 5.43035L29.1575 6.75287C29.7111 7.51487 30.0338 8.4902 30.2025 10.0471C30.3735 11.625 30.375 13.6626 30.375 16.5H32.625ZM27.7471 5.34252C28.2883 5.73572 28.7643 6.21167 29.1575 6.75287L30.9778 5.43035C30.4458 4.69813 29.8019 4.05421 29.0696 3.52223L27.7471 5.34252ZM5.625 16.5C5.625 13.6626 5.62654 11.625 5.7975 10.0471C5.96618 8.4902 6.28889 7.51487 6.84252 6.75287L5.02223 5.43035C4.14349 6.63984 3.75001 8.05641 3.56059 9.80471C3.37346 11.532 3.375 13.7128 3.375 16.5H5.625ZM6.93035 3.52223C6.19814 4.05421 5.55421 4.69814 5.02223 5.43035L6.84252 6.75287C7.23572 6.21167 7.71167 5.73572 8.25287 5.34252L6.93035 3.52223ZM19.5432 8.78182C18.8825 8.88646 18.2094 8.88646 17.5487 8.78182L17.1967 11.0041C18.0906 11.1457 19.0013 11.1457 19.8952 11.0041L19.5432 8.78182ZM12 25.125H24V22.875H12V25.125ZM12 19.125H16.5V16.875H12V19.125ZM26.8655 3.18125C25.0052 5.04022 23.6495 6.37509 22.4784 7.29735C21.3241 8.20642 20.4393 8.63989 19.5432 8.78182L19.8952 11.0041C21.3174 10.7789 22.5569 10.0995 23.8705 9.065C25.1674 8.04367 26.6233 6.60416 28.4559 4.77281L26.8655 3.18125ZM18 4.125C20.4926 4.125 22.3723 4.12579 23.8723 4.24367C25.3686 4.36126 26.3766 4.58944 27.1542 4.98154L28.1673 2.97252C27.0073 2.38759 25.6605 2.12726 24.0486 2.00059C22.4404 1.87421 20.4586 1.875 18 1.875V4.125ZM27.1542 4.98154C27.3647 5.0877 27.561 5.20725 27.7471 5.34252L29.0696 3.52223C28.7837 3.3145 28.4838 3.13213 28.1673 2.97252L27.1542 4.98154ZM8.31285 4.44979C10.2487 6.38555 11.7682 7.90262 13.1076 8.97467C14.4636 10.06 15.7336 10.7724 17.1967 11.0041L17.5487 8.78182C16.6269 8.63582 15.7172 8.18137 14.5136 7.21803C13.2934 6.24142 11.8732 4.82803 9.90381 2.85877L8.31285 4.44979ZM18 1.875C15.8456 1.875 14.0605 1.8746 12.5773 1.95858C11.0951 2.04251 9.83449 2.21364 8.74139 2.59081L9.47528 4.71776C10.2784 4.44064 11.2978 4.28463 12.7045 4.20499C14.11 4.1254 15.8227 4.125 18 4.125V1.875ZM8.74139 2.59081C8.08048 2.81885 7.48184 3.12155 6.93035 3.52223L8.25287 5.34252C8.60772 5.0847 9.00426 4.88028 9.47528 4.71776L8.74139 2.59081Z" fill="currentColor"/>
</svg>
