<svg width="30" height="30" viewBox="0 0 30 30" fill="none" xmlns="http://www.w3.org/2000/svg">
<path d="M4.375 23.1504L25.625 1.90039" stroke="#FC7E7E" stroke-width="2.5" stroke-linecap="round"/>
<path d="M10.2943 21.0569C9.84987 21.5013 9.94366 22.2469 10.5168 22.5048C11.5303 22.9608 12.6259 23.267 13.7752 23.3951C13.9504 23.4146 14.0625 23.5991 14.0625 23.7754V25.396C14.0625 25.8656 13.7123 26.256 13.2568 26.3698L12.2726 26.6159C11.7703 26.7415 11.4649 27.2505 11.5905 27.7528C11.7161 28.2551 12.2251 28.5605 12.7274 28.4349L13.7115 28.1889C14.5575 27.9774 15.4425 27.9774 16.2885 28.1889L17.2726 28.4349C17.7749 28.5605 18.2839 28.2551 18.4095 27.7528C18.5351 27.2505 18.2297 26.7415 17.7274 26.6159L16.7432 26.3698C16.2877 26.256 15.9375 25.8656 15.9375 25.396V23.7754C15.9375 23.5991 16.0501 23.4146 16.2253 23.395C21.6892 22.7859 25.9375 18.1518 25.9375 12.5254C25.9375 12.0076 25.5178 11.5879 25 11.5879C24.4822 11.5879 24.0625 12.0076 24.0625 12.5254C24.0625 17.5305 20.0051 21.5879 15 21.5879C13.7345 21.5879 12.5297 21.3285 11.4356 20.86C11.048 20.694 10.5925 20.7588 10.2943 21.0569Z" fill="#FC7E7E"/>
<path d="M14.4271 16.9241C13.8544 17.4968 14.1064 18.4511 14.9162 18.4623C14.9441 18.4627 14.972 18.4629 15 18.4629C18.2792 18.4629 20.9375 15.8046 20.9375 12.5254C20.9375 11.7461 19.9953 11.3559 19.4443 11.9069L19.2299 12.1214C19.1227 12.2285 19.0625 12.3739 19.0625 12.5254C19.0625 14.769 17.2437 16.5879 15 16.5879C14.8534 16.5879 14.7105 16.6407 14.6068 16.7444L14.4271 16.9241Z" fill="#FC7E7E"/>
<path d="M11.9375 15.1948C12.3154 15.6279 12.3933 16.3062 11.9869 16.7127C11.6673 17.0322 11.1553 17.0726 10.8334 16.7554C9.74022 15.6786 9.0625 14.1811 9.0625 12.5254V7.52539C9.0625 4.2462 11.7208 1.58789 15 1.58789C18.2792 1.58789 20.9375 4.2462 20.9375 7.52539C20.9375 7.67693 20.8773 7.82226 20.7701 7.92942L20.5557 8.14388C20.0047 8.6949 19.0625 8.30465 19.0625 7.52539C19.0625 5.28173 17.2437 3.46289 15 3.46289C12.7563 3.46289 10.9375 5.28173 10.9375 7.52539V12.5254C10.9375 13.5472 11.3147 14.4809 11.9375 15.1948Z" fill="#FC7E7E"/>
<path d="M8.46049 18.7995C8.83935 19.1942 8.87201 19.8276 8.48511 20.2145C8.14111 20.5584 7.58687 20.5821 7.24386 20.2371C5.27759 18.2596 4.0625 15.5344 4.0625 12.5254C4.0625 12.0076 4.48223 11.5879 5 11.5879C5.51777 11.5879 5.9375 12.0076 5.9375 12.5254C5.9375 14.9604 6.89786 17.1711 8.46049 18.7995Z" fill="#FC7E7E"/>
</svg>
