<svg width="96" height="96" viewBox="0 0 96 96" fill="none" xmlns="http://www.w3.org/2000/svg">
<g clip-path="url(#clip0_2413_56505)">
<path d="M48 96.0005C74.5097 96.0005 96 74.5102 96 48.0005C96 21.4908 74.5097 0.000488281 48 0.000488281C21.4903 0.000488281 0 21.4908 0 48.0005C0 74.5102 21.4903 96.0005 48 96.0005Z" fill="url(#paint0_linear_2413_56505)"/>
<path d="M65.2805 64.2H30.7205C28.9341 64.2 27.4805 65.6537 27.4805 67.44C27.4805 69.2263 28.9341 70.68 30.7205 70.68H65.2805C67.0668 70.68 68.5205 69.2263 68.5205 67.44C68.5205 65.6537 67.0668 64.2 65.2805 64.2Z" fill="white"/>
<path d="M70.68 31.8C68.2976 31.8 66.36 33.7376 66.36 36.12C66.36 37.7206 67.2456 39.1051 68.5437 39.8524C66.0446 45.7708 62.1458 49.4018 58.5018 49.0735C54.4497 48.743 51.1449 43.9521 49.3218 35.9364C51.6589 35.3445 53.3999 33.2385 53.3999 30.72C53.3999 27.7414 50.9785 25.32 47.9999 25.32C45.0212 25.32 42.5999 27.7414 42.5999 30.72C42.5999 33.2386 44.3409 35.3446 46.6779 35.9364C44.8549 43.9521 41.5501 48.743 37.4979 49.0735C33.8692 49.4018 29.953 45.7708 27.4562 39.8524C28.7543 39.1051 29.6399 37.7205 29.6399 36.12C29.6399 33.7376 27.7023 31.8 25.3199 31.8C22.9376 31.8 21 33.7376 21 36.12C21 38.3362 22.6848 40.1463 24.8361 40.3924L28.9963 62.04H67.0037L71.1638 40.3924C73.3152 40.1463 75 38.3362 75 36.12C75 33.7376 73.0624 31.8 70.68 31.8Z" fill="white"/>
</g>
<defs>
<linearGradient id="paint0_linear_2413_56505" x1="48.01" y1="1.20049" x2="47.99" y2="97.2005" gradientUnits="userSpaceOnUse">
<stop stop-color="#DC97FF"/>
<stop offset="1" stop-color="#AF55FF"/>
</linearGradient>
<clipPath id="clip0_2413_56505">
<rect width="96" height="96" fill="white"/>
</clipPath>
</defs>
</svg>
