<svg width="44" height="33" viewBox="0 0 44 33" fill="none" xmlns="http://www.w3.org/2000/svg">
<g clip-path="url(#clip0_4942_80543)">
<mask id="mask0_4942_80543" style="mask-type:luminance" maskUnits="userSpaceOnUse" x="0" y="0" width="44" height="33">
<rect width="44" height="33" fill="white"/>
</mask>
<g mask="url(#mask0_4942_80543)">
<path fill-rule="evenodd" clip-rule="evenodd" d="M0 0V33H44V0H0Z" fill="#1C9975"/>
<mask id="mask1_4942_80543" style="mask-type:luminance" maskUnits="userSpaceOnUse" x="0" y="0" width="44" height="33">
<path fill-rule="evenodd" clip-rule="evenodd" d="M0 0V33H44V0H0Z" fill="white"/>
</mask>
<g mask="url(#mask1_4942_80543)">
<path fill-rule="evenodd" clip-rule="evenodd" d="M22.0304 9.42309L19.7841 10.7792L20.2965 8.13287L18.4258 6.15234L20.9588 6.04525L22.0304 3.57422L23.1021 6.04525H25.6308L23.7644 8.13287L24.3263 10.7792L22.0304 9.42309Z" fill="#FECA00"/>
<path fill-rule="evenodd" clip-rule="evenodd" d="M15.6507 10.427L14.2617 11.2655L14.5785 9.62926L13.4219 8.40465L14.9881 8.33844L15.6507 6.81055L16.3133 8.33844H17.8769L16.7229 9.62926L17.0703 11.2655L15.6507 10.427Z" fill="#FECA00"/>
<path fill-rule="evenodd" clip-rule="evenodd" d="M28.2991 10.427L26.9102 11.2655L27.227 9.62926L26.0703 8.40465L27.6365 8.33844L28.2991 6.81055L28.9618 8.33844H30.5253L29.3713 9.62926L29.7187 11.2655L28.2991 10.427Z" fill="#FECA00"/>
<path fill-rule="evenodd" clip-rule="evenodd" d="M12.0542 13.2146L10.9396 13.8875L11.1938 12.5744L10.2656 11.5917L11.5225 11.5386L12.0542 10.3125L12.5859 11.5386H13.8406L12.9146 12.5744L13.1934 13.8875L12.0542 13.2146Z" fill="#FECA00"/>
<path fill-rule="evenodd" clip-rule="evenodd" d="M32.396 13.2146L31.2814 13.8875L31.5356 12.5744L30.6074 11.5917L31.8643 11.5386L32.396 10.3125L32.9277 11.5386H34.1824L33.2564 12.5744L33.5352 13.8875L32.396 13.2146Z" fill="#FECA00"/>
<mask id="mask2_4942_80543" style="mask-type:luminance" maskUnits="userSpaceOnUse" x="11" y="8" width="22" height="23">
<path fill-rule="evenodd" clip-rule="evenodd" d="M22 30.25C28.0751 30.25 33 25.3251 33 19.25C33 13.1749 28.0751 8.25 22 8.25C15.9249 8.25 11 13.1749 11 19.25C11 25.3251 15.9249 30.25 22 30.25Z" fill="white"/>
</mask>
<g mask="url(#mask2_4942_80543)">
<path fill-rule="evenodd" clip-rule="evenodd" d="M17.4355 28.9629H26.5632V30.4374H17.4355V28.9629Z" fill="#F7FCFF"/>
<path fill-rule="evenodd" clip-rule="evenodd" d="M13.6914 26.7578H31.2446V28.1094H13.6914V26.7578Z" fill="#F7FCFF"/>
<path d="M17.3534 26.1534H11.9844V24.7784L17.3437 24.7785C19.2422 24.7518 20.6294 24.2095 21.555 23.1663L22.0162 22.6465L22.5311 23.1133C23.7673 24.2341 25.0021 24.7784 26.2512 24.7784H32.1696V26.1534H26.2512C24.8162 26.1534 23.4307 25.6136 22.1059 24.5566C20.9327 25.5965 19.3396 26.1255 17.3534 26.1534Z" fill="#F7FCFF"/>
</g>
<path fill-rule="evenodd" clip-rule="evenodd" d="M22.047 10.459C22.047 10.459 19.6975 12.78 19.6975 15.9653C19.6975 16.6469 19.8051 17.2909 19.9743 17.8821C19.2173 16.2044 19.1648 14.3852 19.8181 12.4008L18.9289 12.1081C18.2644 14.1266 18.2615 16.0243 18.9211 17.7832C17.5562 16.9609 15.986 16.4084 14.3743 16.2302L14.2715 17.1607C15.6818 17.3166 17.0583 17.7873 18.2664 18.484C17.967 18.363 17.6531 18.2579 17.3254 18.1743C14.3514 17.4152 11.4336 18.4915 11.4336 18.4915C11.4336 18.4915 13.1167 22.2676 16.3767 22.8244C16.5381 22.852 16.6976 22.8735 16.8551 22.8895L16.8339 22.8895C15.2796 22.8895 13.8342 22.254 12.4806 20.963L11.8345 21.6404C13.3548 23.0905 15.0269 23.8257 16.8339 23.8257C18.6006 23.8257 20.2415 23.1229 21.7409 21.7361C21.9848 21.5889 22.1264 21.4839 22.1466 21.4688L22.2049 21.5184C22.174 21.5715 22.1585 21.6004 22.1585 21.6004C22.1585 21.6004 22.3063 21.6899 22.5729 21.816C24.0537 22.9637 25.9064 23.8249 27.3722 23.8249C29.1791 23.8249 30.8513 23.0898 32.3716 21.6396L31.7254 20.9622C30.3719 22.2533 28.9265 22.8887 27.3722 22.8887C26.8043 22.8887 26.2479 22.7975 25.7021 22.6139C26.4664 22.6551 27.3084 22.5862 28.1799 22.3198C31.3911 21.338 32.7298 18.3685 32.7298 18.3685C32.7298 18.3685 31.0217 17.4469 28.8522 17.4362C29.338 17.311 29.8451 17.2192 30.3736 17.1607L30.2708 16.2302C28.2356 16.4552 26.4748 17.1421 24.9977 18.2882C25.8611 16.3894 25.9279 14.3213 25.1993 12.1081L24.31 12.4008C24.9055 14.2096 24.9146 15.881 24.3384 17.4332C24.4371 16.9742 24.4954 16.4837 24.4954 15.9653C24.4954 12.6073 22.047 10.459 22.047 10.459ZM23.081 20.2865L23.0488 20.3328L23.0881 20.2861L23.081 20.2865ZM20.8093 20.0677L20.9016 19.9828C20.9855 20.1223 21.0693 20.2535 21.1512 20.376C21.045 20.2761 20.931 20.1728 20.8093 20.0677Z" fill="#F7FCFF"/>
</g>
</g>
</g>
<defs>
<clipPath id="clip0_4942_80543">
<rect width="44" height="33" rx="10" fill="white"/>
</clipPath>
</defs>
</svg>
