<svg width="40" height="40" viewBox="0 0 40 40" fill="none" xmlns="http://www.w3.org/2000/svg">
<path d="M7.00317 7.00317C6.57612 7.43022 6.25 8.2491 6.25 10C6.25 10.6904 5.69036 11.25 5 11.25C4.30964 11.25 3.75 10.6904 3.75 10C3.75 8.069 4.08293 6.38788 5.2354 5.2354C6.38788 4.08293 8.069 3.75 10 3.75C10.6904 3.75 11.25 4.30964 11.25 5C11.25 5.69036 10.6904 6.25 10 6.25C8.2491 6.25 7.43022 6.57612 7.00317 7.00317Z" fill="white"/>
<path d="M13.9999 17.3333C15.1045 17.3333 15.9999 16.4379 15.9999 15.3333C15.9999 14.2288 15.1045 13.3333 13.9999 13.3333C12.8953 13.3333 11.9999 14.2288 11.9999 15.3333C11.9999 16.4379 12.8953 17.3333 13.9999 17.3333Z" fill="white"/>
<path fill-rule="evenodd" clip-rule="evenodd" d="M13.3333 9.3335H26.6667C30.3486 9.3335 33.3333 12.3183 33.3333 16.0002V24.0002C33.3333 27.6821 30.3486 30.6668 26.6667 30.6668H13.3333C9.65144 30.6668 6.66667 27.6821 6.66667 24.0002V16.0002C6.66667 12.3183 9.65144 9.3335 13.3333 9.3335ZM26.6667 11.8335H13.3333C11.0322 11.8335 9.16667 13.699 9.16667 16.0002V24.0002C9.16667 25.4204 9.87729 26.6748 10.9624 27.4269L13.1585 23.4569C13.9855 22.1801 15.8795 22.2597 16.5965 23.6014C17.4176 25.1381 19.6752 24.9601 20.2454 23.3138L21.647 19.2671C22.2038 17.6596 24.415 17.5016 25.1946 19.0137L29.1414 27.3526C30.1678 26.5937 30.8333 25.3746 30.8333 24.0002V16.0002C30.8333 13.699 28.9679 11.8335 26.6667 11.8335Z" fill="white"/>
<path d="M30 3.75C29.3096 3.75 28.75 4.30964 28.75 5C28.75 5.69036 29.3096 6.25 30 6.25C31.7509 6.25 32.5698 6.57612 32.9968 7.00317C33.4239 7.43022 33.75 8.2491 33.75 10C33.75 10.6904 34.3096 11.25 35 11.25C35.6904 11.25 36.25 10.6904 36.25 10C36.25 8.069 35.9171 6.38788 34.7646 5.2354C33.6121 4.08293 31.931 3.75 30 3.75Z" fill="white"/>
<path d="M35 28.75C35.6904 28.75 36.25 29.3096 36.25 30C36.25 31.931 35.9171 33.6121 34.7646 34.7646C33.6121 35.9171 31.931 36.25 30 36.25C29.3096 36.25 28.75 35.6904 28.75 35C28.75 34.3096 29.3096 33.75 30 33.75C31.7509 33.75 32.5698 33.4239 32.9968 32.9968C33.4239 32.5698 33.75 31.7509 33.75 30C33.75 29.3096 34.3096 28.75 35 28.75Z" fill="white"/>
<path d="M6.25 30C6.25 29.3096 5.69036 28.75 5 28.75C4.30964 28.75 3.75 29.3096 3.75 30C3.75 31.931 4.08293 33.6121 5.2354 34.7646C6.38788 35.9171 8.069 36.25 10 36.25C10.6904 36.25 11.25 35.6904 11.25 35C11.25 34.3096 10.6904 33.75 10 33.75C8.2491 33.75 7.43022 33.4239 7.00317 32.9968C6.57612 32.5698 6.25 31.7509 6.25 30Z" fill="white"/>
</svg>
