<svg width="40" height="40" viewBox="0 0 40 40" fill="none" xmlns="http://www.w3.org/2000/svg">
<path d="M18.7514 7.13086C18.7514 6.4405 19.311 5.88086 20.0014 5.88086C20.6917 5.88086 21.2514 6.4405 21.2514 7.13086L18.7514 7.13086ZM21.2514 22.1309C21.2514 22.8212 20.6917 23.3809 20.0014 23.3809C19.311 23.3809 18.7514 22.8212 18.7514 22.1309L21.2514 22.1309ZM15.2269 22.1308L15.2269 20.8808L15.2269 20.8808L15.2269 22.1308ZM12.5856 27.4975L13.5761 26.735L13.5761 26.735L12.5856 27.4975ZM27.4171 27.4975L26.4266 26.735L26.4266 26.735L27.4171 27.4975ZM24.7758 22.1308L24.7758 23.3808L24.7758 23.3808L24.7758 22.1308ZM22.6427 33.6996L23.6332 34.4621L23.6332 34.4621L22.6427 33.6996ZM17.36 33.6996L16.3695 34.4621L16.3695 34.4621L17.36 33.6996ZM21.2514 7.13086L21.2514 22.1309L18.7514 22.1309L18.7514 7.13086L21.2514 7.13086ZM21.6522 32.9371L26.4266 26.735L28.4076 28.26L23.6332 34.4621L21.6522 32.9371ZM24.7758 23.3808L15.2269 23.3808L15.2269 20.8808L24.7758 20.8808L24.7758 23.3808ZM13.5761 26.735L18.3505 32.9371L16.3695 34.4621L11.5951 28.26L13.5761 26.735ZM15.2269 23.3808C13.4981 23.3808 12.5215 25.365 13.5761 26.735L11.5951 28.26C9.27502 25.2461 11.4235 20.8808 15.2269 20.8808V23.3808ZM26.4266 26.735C27.4812 25.3651 26.5046 23.3808 24.7758 23.3808V20.8808C28.5792 20.8808 30.7277 25.2461 28.4076 28.26L26.4266 26.735ZM23.6332 34.4621C21.7985 36.8455 18.2042 36.8455 16.3695 34.4621L18.3505 32.9371C19.1845 34.0205 20.8182 34.0205 21.6522 32.9371L23.6332 34.4621Z" fill="#434343"/>
</svg>
