<svg width="44" height="44" viewBox="0 0 44 44" fill="none" xmlns="http://www.w3.org/2000/svg">
<path d="M40.0526 23.0086C40.0526 22.2852 39.4662 21.6989 38.7429 21.6989C38.0195 21.6989 37.4331 22.2852 37.4331 23.0086H40.0526ZM32.1959 9.91143L31.4092 10.9585L31.4092 10.9585L32.1959 9.91143ZM35.4686 13.1841L34.4215 13.9708L34.4749 14.042L34.5375 14.1053L35.4686 13.1841ZM37.8536 4.99416C37.8504 4.27083 37.2614 3.68707 36.5381 3.6903C35.8148 3.69353 35.231 4.28252 35.2342 5.00584L37.8536 4.99416ZM36.5585 8.25089L37.8682 8.24505L37.8682 8.24505L36.5585 8.25089ZM30.5338 14.2756L30.5396 12.9659L30.5338 14.2756ZM27.2887 12.9514C26.5654 12.9481 25.9764 13.5319 25.9732 14.2552C25.9699 14.9786 26.5537 15.5676 27.277 15.5708L27.2887 12.9514ZM35.8896 13.0264L36.9254 13.828L36.9254 13.828L35.8896 13.0264ZM35.3092 13.6067L36.1108 14.6425L36.1108 14.6425L35.3092 13.6067ZM23.681 19.0781C23.681 18.3548 23.0946 17.7684 22.3713 17.7684C21.6479 17.7684 21.0616 18.3548 21.0616 19.0781H23.681ZM24.2686 28.5618C24.895 28.9235 25.696 28.7089 26.0576 28.0824C26.4193 27.456 26.2047 26.655 25.5782 26.2933L24.2686 28.5618ZM24.3359 27.0884L23.681 28.2226L23.681 28.2226L24.3359 27.0884ZM22.6345 25.8022L23.7687 25.1473L23.7687 25.1473L22.6345 25.8022ZM37.4331 23.0086C37.4331 31.3269 30.6898 38.0703 22.3714 38.0703V40.6897C32.1365 40.6897 40.0526 32.7736 40.0526 23.0086H37.4331ZM22.3714 38.0703C14.0531 38.0703 7.30971 31.3269 7.30971 23.0086H4.69029C4.69029 32.7736 12.6064 40.6897 22.3714 40.6897V38.0703ZM7.30971 23.0086C7.30971 14.6902 14.0531 7.94686 22.3714 7.94686V5.32743C12.6064 5.32743 4.69029 13.2435 4.69029 23.0086H7.30971ZM22.3714 7.94686C25.7643 7.94686 28.8917 9.06715 31.4092 10.9585L32.9826 8.86432C30.0271 6.64379 26.3511 5.32743 22.3714 5.32743V7.94686ZM31.4092 10.9585C32.5496 11.8154 33.5646 12.8304 34.4215 13.9708L36.5157 12.3974C35.5106 11.0597 34.3203 9.86936 32.9826 8.86432L31.4092 10.9585ZM35.2342 5.00584L35.2488 8.25674L37.8682 8.24505L37.8536 4.99416L35.2342 5.00584ZM30.5396 12.9659L27.2887 12.9514L27.277 15.5708L30.5279 15.5853L30.5396 12.9659ZM35.2488 8.25674C35.2547 9.5838 35.2566 10.4684 35.1837 11.1361C35.1137 11.7775 34.9884 12.0509 34.8538 12.2248L36.9254 13.828C37.477 13.1152 37.6919 12.2971 37.7877 11.4205C37.8805 10.5703 37.8738 9.51052 37.8682 8.24505L35.2488 8.25674ZM30.5279 15.5853C31.7934 15.5909 32.8532 15.5976 33.7034 15.5048C34.5799 15.4091 35.3981 15.1941 36.1108 14.6425L34.5077 12.571C34.3337 12.7056 34.0604 12.8308 33.419 12.9008C32.7513 12.9738 31.8667 12.9718 30.5396 12.9659L30.5279 15.5853ZM34.8538 12.2248C34.8037 12.2896 34.7495 12.351 34.6917 12.4089L36.5439 14.2611C36.68 14.1251 36.8074 13.9804 36.9254 13.828L34.8538 12.2248ZM34.6917 12.4089C34.6339 12.4667 34.5725 12.5208 34.5077 12.571L36.1108 14.6425C36.2633 14.5245 36.4079 14.3971 36.5439 14.2611L34.6917 12.4089ZM34.5375 14.1053L34.6868 14.2561L36.5489 12.4138L36.3996 12.263L34.5375 14.1053ZM21.0616 19.0781V23.6856H23.681V19.0781H21.0616ZM25.5782 26.2933L24.9907 25.9541L23.681 28.2226L24.2686 28.5618L25.5782 26.2933ZM21.0616 23.6856C21.0616 24.2137 21.0601 24.7039 21.1008 25.1166C21.1443 25.558 21.243 26.0114 21.5002 26.457L23.7687 25.1473C23.7628 25.1371 23.7299 25.0858 23.7076 24.8596C23.6824 24.6048 23.681 24.2647 23.681 23.6856H21.0616ZM24.9907 25.9541C24.4893 25.6646 24.1954 25.4933 23.9873 25.3441C23.8026 25.2118 23.7746 25.1576 23.7687 25.1473L21.5002 26.457C21.7575 26.9027 22.1009 27.2148 22.4614 27.4732C22.7985 27.7148 23.2237 27.9586 23.681 28.2226L24.9907 25.9541Z" fill="currentColor"/>
</svg>
