<svg width="60" height="60" viewBox="0 0 60 60" fill="none" xmlns="http://www.w3.org/2000/svg">
<g clip-path="url(#clip0_6347_218588)">
<path d="M8.79062 26.0878L14.179 44.3819L19.8742 47.6036H34.314L45.8197 44.3819C45.8197 44.3819 50.0575 29.9133 51.007 26.7208L51.2081 26.0878C51.3231 25.6852 51.2658 25.2537 51.0358 24.8799L47.6702 23.499L39.2327 26.7781L32.8181 15.8477H27.1806L20.766 26.7781L12.3285 23.499L8.79062 26.0878Z" fill="#DEF7FE"/>
<path d="M8.79127 26.0878L14.1797 44.3819L19.8748 47.6036H30V15.8477H27.1813L20.7666 26.7781L12.3291 23.499L8.79127 26.0878Z" fill="#C0EEFA"/>
<path d="M45.8203 44.3828V48.6974C45.8203 49.5027 45.1877 50.1357 44.3821 50.1357H15.6179C14.8123 50.1357 14.1797 49.5027 14.1797 48.6974V44.3828H45.8203Z" fill="#D8F6FD"/>
<path d="M29.9998 9.86523C32.3875 9.86523 34.3145 11.7922 34.3145 14.1799C34.3145 16.6248 32.301 18.4945 29.9998 18.4945C27.6122 18.4945 25.6852 16.5387 25.6852 14.1799C25.6852 11.7922 27.6122 9.86523 29.9998 9.86523Z" fill="#B5EFFF"/>
<path d="M9.76935 27.1234C10.9855 27.1234 12.0461 26.65 12.8282 25.8676C13.6585 24.9927 14.084 23.9451 14.084 22.8088C14.084 20.4297 12.1484 18.4941 9.76935 18.4941C7.39031 18.4941 5.45472 20.4297 5.45472 22.8088C5.45472 25.1878 7.39031 27.1234 9.76935 27.1234Z" fill="#87D8EE"/>
<path d="M50.2303 27.1234C52.6093 27.1234 54.5449 25.1878 54.5449 22.8088C54.5449 20.4297 52.6093 18.4941 50.2303 18.4941C47.8513 18.4941 45.9157 20.4297 45.9157 22.8088C45.9157 25.2155 47.8531 27.1234 50.2303 27.1234Z" fill="#B5EFFF"/>
<path d="M30 18.4945V9.86523C27.6123 9.86523 25.6854 11.7922 25.6854 14.1799C25.6854 16.5387 27.6123 18.4945 30 18.4945Z" fill="#87D8EE"/>
<path d="M14.1797 44.3828V48.6974C14.1797 49.5027 14.8123 50.1357 15.6179 50.1357H30V44.3828H14.1797Z" fill="#87D8EE"/>
<path d="M35.4201 42.8184H24.7947V40.3093L28.3729 36.4038C29.1147 35.5893 29.6892 34.9202 30.0965 34.3965C30.5183 33.8729 30.8092 33.4147 30.9692 33.022C31.1292 32.6147 31.2092 32.1856 31.2092 31.7347C31.2092 31.182 31.071 30.782 30.7947 30.5347C30.5183 30.2729 30.1838 30.142 29.791 30.142C29.3401 30.142 28.8747 30.2802 28.3947 30.5565C27.9292 30.8329 27.3983 31.2329 26.802 31.7565L24.642 29.3784C25.0783 28.9711 25.5438 28.5929 26.0383 28.2438C26.5329 27.8802 27.1147 27.5893 27.7838 27.3711C28.4674 27.1384 29.2892 27.022 30.2492 27.022C31.2529 27.022 32.1183 27.2111 32.8456 27.5893C33.5729 27.9529 34.1329 28.4547 34.5256 29.0947C34.9329 29.7202 35.1365 30.4402 35.1365 31.2547C35.1365 31.9093 35.0347 32.5056 34.831 33.0438C34.642 33.582 34.3656 34.1129 34.002 34.6365C33.6529 35.1456 33.2238 35.6911 32.7147 36.2729C32.2201 36.8402 31.6674 37.4875 31.0565 38.2147L29.8783 39.5893L29.8565 39.7202H35.4201V42.8184Z" fill="#2D88A1"/>
</g>
<defs>
<clipPath id="clip0_6347_218588">
<rect width="49.0909" height="49.0909" fill="white" transform="matrix(-1 0 0 1 54.5449 5.45508)"/>
</clipPath>
</defs>
</svg>
