<svg width="60" height="60" viewBox="0 0 60 60" fill="none" xmlns="http://www.w3.org/2000/svg">
<path d="M7.00125 45C5.49857 43.2701 4.37592 41.2359 3.70783 39.0324C3.03974 36.829 2.84149 34.5066 3.12624 32.2195C3.41099 29.9324 4.17222 27.7328 5.35941 25.7668C6.5466 23.8009 8.13259 22.1134 10.0121 20.8165C11.8916 19.5196 14.0217 18.6428 16.2609 18.2445C18.5002 17.8462 20.7974 17.9353 23 18.5061" stroke="#434343" stroke-width="3" stroke-linecap="round" stroke-linejoin="round"/>
<path d="M19.5 23.5C20.9359 20.7674 22.9344 18.4515 25.4904 16.6566C28.0464 14.8617 31.0035 13.6843 34.118 13.2215C37.2325 12.7586 40.4154 13.0236 43.4042 13.9944C46.3931 14.9653 49.1024 16.6143 51.3089 18.8056C53.5155 20.9969 55.156 23.6678 56.0955 26.5981C57.0349 29.5284 57.2463 32.6343 56.7122 35.6598C56.1782 38.6854 54.914 41.5439 53.0238 44" stroke="#434343" stroke-width="3" stroke-linecap="round" stroke-linejoin="round"/>
<path d="M48.5326 46.44H41.2344V44.6641L43.3265 43.8857V31.649L41.2344 30.8462V29.0703H48.5326V30.8462L46.4404 31.649V43.8857L48.5326 44.6641V46.44Z" fill="#434343"/>
<path d="M33.7657 29.0703C36.02 29.0703 37.6581 29.5406 38.6798 30.4813C39.7178 31.422 40.2368 32.7194 40.2368 34.3737C40.2368 35.1197 40.1233 35.8333 39.8962 36.5145C39.6691 37.1794 39.288 37.7795 38.7528 38.3147C38.2176 38.8499 37.5121 39.2716 36.6363 39.5797C35.7768 39.8879 34.7064 40.0419 33.4251 40.0419H31.6979V46.44H28.584V29.0703H33.7657ZM33.5711 31.649H31.6979V37.4632H33.1089C33.9522 37.4632 34.6658 37.3659 35.2497 37.1713C35.8498 36.9605 36.3039 36.6361 36.612 36.1982C36.9202 35.7603 37.0742 35.1927 37.0742 34.4953C37.0742 33.5384 36.7904 32.8248 36.2228 32.3545C35.6551 31.8842 34.7712 31.649 33.5711 31.649Z" fill="#434343"/>
<path d="M23.9908 46.4427L22.4095 41.8448H15.8655L14.3085 46.4427H11L17.3738 29H20.9256L27.2993 46.4427H23.9908ZM20.0984 34.6926C20.0336 34.4655 19.9362 34.1574 19.8065 33.7682C19.6768 33.3789 19.547 32.9816 19.4173 32.5761C19.3037 32.1544 19.2145 31.8058 19.1497 31.53C19.0686 31.8544 18.9632 32.2274 18.8334 32.6491C18.7199 33.0708 18.6063 33.4681 18.4928 33.8411C18.3955 34.2142 18.3144 34.498 18.2495 34.6926L16.7169 39.1688H21.6067L20.0984 34.6926Z" fill="#434343"/>
</svg>
