<svg width="60" height="60" viewBox="0 0 60 60" fill="none" xmlns="http://www.w3.org/2000/svg">
<path d="M10.5048 10.5048C9.86418 11.1453 9.375 12.3736 9.375 15C9.375 16.0355 8.53553 16.875 7.5 16.875C6.46447 16.875 5.625 16.0355 5.625 15C5.625 12.1035 6.1244 9.58182 7.85311 7.85311C9.58182 6.1244 12.1035 5.625 15 5.625C16.0355 5.625 16.875 6.46447 16.875 7.5C16.875 8.53553 16.0355 9.375 15 9.375C12.3736 9.375 11.1453 9.86418 10.5048 10.5048Z" fill="#656565"/>
<path d="M20.9999 26C22.6567 26 23.9999 24.6569 23.9999 23C23.9999 21.3431 22.6567 20 20.9999 20C19.343 20 17.9999 21.3431 17.9999 23C17.9999 24.6569 19.343 26 20.9999 26Z" fill="#656565"/>
<path fill-rule="evenodd" clip-rule="evenodd" d="M20 14.0002H40C45.5228 14.0002 50 18.4774 50 24.0002V36.0002C50 41.5231 45.5228 46.0002 40 46.0002H20C14.4772 46.0002 10 41.5231 10 36.0002V24.0003C10 18.4774 14.4772 14.0002 20 14.0002ZM40 17.7502H20C16.5482 17.7502 13.75 20.5485 13.75 24.0003V36.0002C13.75 38.1307 14.8159 40.0121 16.4436 41.1404L19.7377 35.1854C20.9783 33.2701 23.8192 33.3895 24.8947 35.4021C26.1265 37.7072 29.5128 37.4402 30.3682 34.9706L32.4705 28.9007C33.3057 26.4894 36.6225 26.2525 37.792 28.5205L43.7121 41.0289C45.2517 39.8905 46.25 38.062 46.25 36.0002V24.0002C46.25 20.5485 43.4518 17.7502 40 17.7502Z" fill="#656565"/>
<path d="M45 5.625C43.9645 5.625 43.125 6.46447 43.125 7.5C43.125 8.53553 43.9645 9.375 45 9.375C47.6264 9.375 48.8547 9.86418 49.4952 10.5048C50.1358 11.1453 50.625 12.3736 50.625 15C50.625 16.0355 51.4645 16.875 52.5 16.875C53.5355 16.875 54.375 16.0355 54.375 15C54.375 12.1035 53.8756 9.58182 52.1469 7.85311C50.4182 6.1244 47.8965 5.625 45 5.625Z" fill="#656565"/>
<path d="M52.5 43.125C53.5355 43.125 54.375 43.9645 54.375 45C54.375 47.8965 53.8756 50.4182 52.1469 52.1469C50.4182 53.8756 47.8965 54.375 45 54.375C43.9645 54.375 43.125 53.5355 43.125 52.5C43.125 51.4645 43.9645 50.625 45 50.625C47.6264 50.625 48.8547 50.1358 49.4952 49.4952C50.1358 48.8547 50.625 47.6264 50.625 45C50.625 43.9645 51.4645 43.125 52.5 43.125Z" fill="#656565"/>
<path d="M9.375 45C9.375 43.9645 8.53553 43.125 7.5 43.125C6.46447 43.125 5.625 43.9645 5.625 45C5.625 47.8965 6.1244 50.4182 7.85311 52.1469C9.58182 53.8756 12.1035 54.375 15 54.375C16.0355 54.375 16.875 53.5355 16.875 52.5C16.875 51.4645 16.0355 50.625 15 50.625C12.3736 50.625 11.1453 50.1358 10.5048 49.4952C9.86418 48.8547 9.375 47.6264 9.375 45Z" fill="#656565"/>
</svg>
