<svg width="60" height="60" viewBox="0 0 60 60" fill="none" xmlns="http://www.w3.org/2000/svg">
<path fill-rule="evenodd" clip-rule="evenodd" d="M18.6508 15.6C18.6508 9.33157 23.7324 4.25 30.0008 4.25C36.2692 4.25 41.3508 9.33157 41.3508 15.6V25.2C41.3508 31.4684 36.2692 36.55 30.0008 36.55C23.7324 36.55 18.6508 31.4684 18.6508 25.2V15.6ZM30.0008 7.75C25.6653 7.75 22.1508 11.2646 22.1508 15.6V25.2C22.1508 29.5354 25.6653 33.05 30.0008 33.05C34.3362 33.05 37.8508 29.5354 37.8508 25.2V15.6C37.8508 11.2646 34.3362 7.75 30.0008 7.75ZM27.5184 26.6721L26.9542 26.8602C26.0373 27.1658 25.0462 26.6703 24.7406 25.7534C24.435 24.8365 24.9305 23.8454 25.8474 23.5398L26.4116 23.3517C28.7414 22.5751 31.2602 22.5751 33.59 23.3517L34.1542 23.5398C35.0711 23.8454 35.5666 24.8365 35.261 25.7534C34.9553 26.6703 33.9643 27.1658 33.0474 26.8602L32.4832 26.6721C30.8718 26.135 29.1297 26.135 27.5184 26.6721ZM10.8008 23.45C11.7673 23.45 12.5508 24.2335 12.5508 25.2C12.5508 34.8374 20.3634 42.65 30.0008 42.65C39.6382 42.65 47.4508 34.8374 47.4508 25.2C47.4508 24.2335 48.2343 23.45 49.2008 23.45C50.1673 23.45 50.9508 24.2335 50.9508 25.2C50.9508 36.181 42.5023 45.1888 31.7508 46.0779V51.5311C32.283 51.5994 32.8122 51.699 33.3356 51.8299L35.2252 52.3023C36.1629 52.5367 36.7329 53.4868 36.4985 54.4244C36.2641 55.3621 35.314 55.9322 34.3763 55.6978L32.4868 55.2254C31.6707 55.0213 30.8357 54.9193 30.0008 54.9193C29.1658 54.9193 28.3309 55.0213 27.5148 55.2254L25.6252 55.6978C24.6876 55.9322 23.7374 55.3621 23.503 54.4244C23.2686 53.4868 23.8387 52.5367 24.7763 52.3023L26.6659 51.8299C27.1893 51.699 27.7186 51.5994 28.2508 51.5311V46.0779C17.4993 45.1888 9.05078 36.181 9.05078 25.2C9.05078 24.2335 9.83428 23.45 10.8008 23.45Z" fill="currentColor"/>
</svg>
