<svg width="100" height="100" viewBox="0 0 100 100" fill="none" xmlns="http://www.w3.org/2000/svg">
<g clip-path="url(#clip0_19447_436153)">
<path d="M56.3351 50.0004C56.3351 45.7761 63.1877 42.8881 66.8906 37.3338C71.1128 31.0004 71.1128 16.2227 71.1128 16.2227H28.8906C28.8906 16.2227 28.8906 31.0004 33.1128 37.3338C36.8157 42.8881 43.6684 45.7761 43.6684 50.0004C43.6684 54.2248 36.8157 57.1128 33.1128 62.6671C28.8906 69.0004 28.8906 83.7782 28.8906 83.7782H71.1128C71.1128 83.7782 71.1128 69.0004 66.8906 62.6671C63.1877 57.1128 56.3351 54.2248 56.3351 50.0004Z" fill="#FFE8B6"/>
<path d="M56.3295 62.6671C54.2205 62.6671 51.9869 60.556 51.9869 58.4449C52.1094 54.8285 52.1094 52.4367 52.1094 50.0004C52.1094 43.2027 58.5145 40.3717 62.4538 35.2227H37.5427C41.4799 40.3717 47.8872 43.2027 47.8872 50.0004C47.8872 52.4388 47.8872 54.8328 48.0096 58.4449C48.0096 60.556 45.776 62.6671 43.6649 62.6671C39.4427 62.6671 36.0755 66.4333 35.2205 69.0004C33.1094 75.3338 33.1094 83.7782 33.1094 83.7782H66.8871C66.8871 83.7782 66.8871 75.3338 64.776 69.0004C63.921 66.4333 60.5517 62.6671 56.3295 62.6671Z" fill="#FFC758"/>
<path d="M75.3346 83.7778C75.3346 84.8976 74.8898 85.9715 74.098 86.7633C73.3061 87.5552 72.2322 88 71.1124 88H28.8902C27.7704 88 26.6964 87.5552 25.9046 86.7633C25.1128 85.9715 24.668 84.8976 24.668 83.7778C24.668 82.658 25.1128 81.584 25.9046 80.7922C26.6964 80.0004 27.7704 79.5556 28.8902 79.5556H71.1124C72.2322 79.5556 73.3061 80.0004 74.098 80.7922C74.8898 81.584 75.3346 82.658 75.3346 83.7778ZM75.3346 16.2222C75.3346 17.342 74.8898 18.416 74.098 19.2078C73.3061 19.9996 72.2322 20.4444 71.1124 20.4444H28.8902C27.7704 20.4444 26.6964 19.9996 25.9046 19.2078C25.1128 18.416 24.668 17.342 24.668 16.2222C24.668 15.1024 25.1128 14.0285 25.9046 13.2367C26.6964 12.4448 27.7704 12 28.8902 12H71.1124C72.2322 12 73.3061 12.4448 74.098 13.2367C74.8898 14.0285 75.3346 15.1024 75.3346 16.2222Z" fill="#DC9A54"/>
</g>
<defs>
<clipPath id="clip0_19447_436153">
<rect width="76" height="76" fill="white" transform="translate(12 12)"/>
</clipPath>
</defs>
</svg>
