<svg width="44" height="44" viewBox="0 0 44 44" fill="none" xmlns="http://www.w3.org/2000/svg">
<path d="M27.9577 16.5003C27.9577 19.791 25.29 22.4587 21.9993 22.4587V25.2087C26.8088 25.2087 30.7077 21.3098 30.7077 16.5003H27.9577ZM21.9993 22.4587C18.7087 22.4587 16.041 19.791 16.041 16.5003H13.291C13.291 21.3098 17.1899 25.2087 21.9993 25.2087V22.4587ZM16.041 16.5003C16.041 13.2096 18.7087 10.542 21.9993 10.542V7.79199C17.1899 7.79199 13.291 11.6908 13.291 16.5003H16.041ZM21.9993 10.542C25.29 10.542 27.9577 13.2096 27.9577 16.5003H30.7077C30.7077 11.6908 26.8088 7.79199 21.9993 7.79199V10.542ZM16.4993 30.7087H27.4993V27.9587H16.4993V30.7087ZM5.04102 22.0003C5.04102 12.6345 12.6335 5.04199 21.9993 5.04199V2.29199C11.1147 2.29199 2.29102 11.1157 2.29102 22.0003H5.04102ZM21.9993 5.04199C31.3652 5.04199 38.9577 12.6345 38.9577 22.0003H41.7077C41.7077 11.1157 32.884 2.29199 21.9993 2.29199V5.04199ZM38.9577 22.0003C38.9577 26.8097 36.9575 31.1496 33.7398 34.2375L35.6439 36.2216C39.3795 32.6366 41.7077 27.5892 41.7077 22.0003H38.9577ZM33.7398 34.2375C30.6915 37.1629 26.5566 38.9587 21.9993 38.9587V41.7087C27.2943 41.7087 32.1041 39.6187 35.6439 36.2216L33.7398 34.2375ZM27.4993 30.7087C30.3887 30.7087 32.8005 32.7667 33.3432 35.4976L36.0405 34.9615C35.247 30.9687 31.7262 27.9587 27.4993 27.9587V30.7087ZM21.9993 38.9587C17.4421 38.9587 13.3072 37.1629 10.2589 34.2375L8.35477 36.2216C11.8946 39.6187 16.7044 41.7087 21.9993 41.7087V38.9587ZM10.2589 34.2375C7.04124 31.1496 5.04102 26.8097 5.04102 22.0003H2.29102C2.29102 27.5892 4.61915 32.6366 8.35477 36.2216L10.2589 34.2375ZM16.4993 27.9587C12.2725 27.9587 8.75174 30.9687 7.95822 34.9615L10.6555 35.4976C11.1982 32.7667 13.6099 30.7087 16.4993 30.7087V27.9587Z" fill="#434343"/>
</svg>
