<svg width="118" height="115" viewBox="0 0 118 115" fill="none" xmlns="http://www.w3.org/2000/svg">
<path fill-rule="evenodd" clip-rule="evenodd" d="M96.7171 57.6624C96.6494 70.6272 89.8924 83.212 77.8542 90.1623C65.816 97.1126 51.5387 96.6719 40.277 90.2481L38.0059 91.5594C50.1152 99.008 65.8207 99.7492 78.997 92.1418C92.1734 84.5344 99.3842 70.5625 98.9882 56.3512L96.7171 57.6624ZM84.2278 64.8731L81.1971 66.6229C79.2523 71.3655 75.7796 75.5242 70.997 78.2854C66.2145 81.0466 60.8766 81.9747 55.797 81.2877L52.7663 83.0374C59.1104 84.5863 66.0379 83.7879 72.1399 80.2649C78.242 76.7419 82.3971 71.1417 84.2278 64.8731ZM33.7663 50.1284L36.797 48.3787C38.7418 43.6361 42.2145 39.4774 46.997 36.7162C51.7796 33.955 57.1175 33.0269 62.1971 33.7139L65.2278 31.9642C58.8837 30.4153 51.9562 31.2137 45.8542 34.7367C39.7521 38.2597 35.597 43.8599 33.7663 50.1284ZM77.7171 24.7534C66.4554 18.3297 52.1781 17.889 40.1399 24.8393C28.1017 31.7895 21.3447 44.3743 21.277 57.3392L19.0059 58.6504C18.6099 44.4391 25.8207 30.4672 38.997 22.8598C52.1734 15.2524 67.8789 15.9936 79.9882 23.4422L77.7171 24.7534Z" fill="#AEAEB1"/>
<rect x="12.3934" y="64.7781" width="88" height="34" rx="5" transform="rotate(-30 12.3934 64.7781)" stroke="#AEAEB1" stroke-width="2"/>
<path d="M28.4421 73.6464L46.7534 63.0744L47.6534 64.6332L29.3421 75.2052L28.4421 73.6464ZM26.9746 67.6486L42.3552 58.7686L43.2552 60.3274L27.8746 69.2074L26.9746 67.6486ZM31.7944 60.3487L33.4156 59.4127L44.4436 78.5137L42.8224 79.4497L31.7944 60.3487ZM36.7547 69.9002L38.4417 69.7022C38.3752 74.1469 36.7249 79.2566 34.4513 82.7586C33.9531 82.5197 33.1063 82.2049 32.5402 82.0884C34.937 78.8478 36.6712 73.8836 36.7547 69.9002ZM39.2073 68.4842C42.7076 70.3708 47.9274 71.3478 51.9322 70.8924C51.7381 71.4201 51.5872 72.3109 51.557 72.8826C47.4202 73.1094 42.134 71.9214 38.2426 69.7894L39.2073 68.4842ZM47.5859 56.1644L64.3383 46.4924L69.9903 56.2819L68.3691 57.2179L63.6051 48.9664L50.0327 56.8024L54.8567 65.1578L53.2979 66.0578L47.5859 56.1644ZM52.4973 62.7511L67.7324 53.9551L68.6084 55.4724L53.3733 64.2684L52.4973 62.7511ZM52.9619 48.0999L54.5831 47.1639L65.6111 66.265L63.9899 67.201L52.9619 48.0999ZM72.6939 52.4208L90.922 41.8968L91.726 43.2894L73.4979 53.8134L72.6939 52.4208ZM80.1789 45.9932L81.8209 45.0452C83.8198 50.0433 83.9714 54.0019 77.3369 59.5505C76.9841 59.2276 76.2828 58.8289 75.8326 58.6731C82.1387 53.5635 81.8857 50.2454 80.1789 45.9932ZM83.4424 47.5177C86.3575 49.6867 90.1105 49.5152 94.7809 47.4285C94.6195 47.965 94.5758 48.8493 94.6288 49.373C89.6394 51.3391 85.7215 51.2732 82.209 48.6454L83.4424 47.5177ZM67.1441 42.1842L68.0017 40.8855C69.3763 41.3944 71.0172 42.2206 71.845 42.9343L70.9851 44.373C70.1573 43.6593 68.522 42.7467 67.1441 42.1842ZM70.4418 38.0079L71.9383 37.1439L77.8423 47.3699L76.3458 48.2339L70.4418 38.0079ZM70.003 48.4319C70.9972 47.0819 72.4077 44.965 73.7767 42.8721L74.9124 43.8792C73.736 45.7777 72.471 47.8106 71.4689 49.3869L70.003 48.4319ZM78.1462 40.0723L78.8933 38.7264C80.4541 38.9338 82.442 39.4489 83.5575 39.941L82.796 41.4061C81.722 40.8899 79.743 40.342 78.1462 40.0723ZM77.3022 36.4026L84.0365 32.5146L84.8165 33.8656L78.0822 37.7536L77.3022 36.4026ZM77.0153 34.1296L78.7998 33.7644C78.8821 36.211 78.1035 39.1824 76.777 41.4448C76.3771 41.2322 75.6286 40.9438 75.1609 40.8536C76.4259 38.8207 77.179 36.1412 77.0153 34.1296ZM83.7663 32.6706L84.0988 32.4786L84.345 32.281L85.5443 32.1983C86.7648 38.2002 83.7838 42.6371 79.1781 46.5156C78.8166 46.2255 78.0409 45.8419 77.6027 45.7069C82.171 42.0995 85.0049 38.08 83.9223 32.9408L83.7663 32.6706Z" fill="#AEAEB1"/>
<path d="M40.9993 26.3232L43.159 28.2678L45.6758 26.8148L44.4937 29.4697L46.6534 31.4143L43.7632 31.1105L42.5811 33.7654L41.9769 30.9228L39.0867 30.619L41.6035 29.1659L40.9993 26.3232Z" fill="#AEAEB1"/>
<path d="M76.9988 88.6777L74.8391 86.7331L72.3223 88.1862L73.5043 85.5313L71.3446 83.5867L74.2349 83.8905L75.4169 81.2355L76.0211 84.0782L78.9114 84.382L76.3946 85.8351L76.9988 88.6777Z" fill="#AEAEB1"/>
<path d="M58.998 21.5L59.8961 24.2639H62.8023L60.4511 25.9721L61.3492 28.7361L58.998 27.0279L56.6469 28.7361L57.545 25.9721L55.1938 24.2639H58.1L58.998 21.5Z" fill="#AEAEB1"/>
<path d="M58.998 93.5L58.1 90.7361L55.1938 90.7361L57.545 89.0279L56.6469 86.2639L58.998 87.9721L61.3492 86.2639L60.4511 89.0279L62.8023 90.7361L59.8961 90.7361L58.998 93.5Z" fill="#AEAEB1"/>
<path d="M90.1758 75.4993L87.3331 74.895L85.88 77.4118L85.5763 74.5216L82.7336 73.9174L85.3885 72.7353L85.0847 69.8451L87.0293 72.0048L89.6843 70.8227L88.2312 73.3396L90.1758 75.4993Z" fill="#AEAEB1"/>
<path d="M27.8203 39.5007L30.663 40.105L32.1161 37.5882L32.4198 40.4784L35.2625 41.0826L32.6076 42.2647L32.9114 45.1549L30.9668 42.9952L28.3118 44.1773L29.7649 41.6604L27.8203 39.5007Z" fill="#AEAEB1"/>
</svg>
