<svg width="18" height="18" viewBox="0 0 18 18" fill="none" xmlns="http://www.w3.org/2000/svg">
<path fill-rule="evenodd" clip-rule="evenodd" d="M4.6875 5.25C4.6875 2.86827 6.61827 0.9375 9 0.9375C11.3817 0.9375 13.3125 2.86827 13.3125 5.25V6.08529C13.3125 6.13539 13.3059 6.18397 13.2937 6.2302C14.3707 6.62597 15.2103 7.49489 15.5665 8.59119C15.75 9.15606 15.75 9.85404 15.75 11.25C15.75 12.646 15.75 13.3439 15.5665 13.9088C15.1955 15.0505 14.3005 15.9455 13.1588 16.3165C12.5939 16.5 11.8959 16.5 10.5 16.5H7.49998C6.10403 16.5 5.40606 16.5 4.84119 16.3165C3.69954 15.9455 2.80448 15.0505 2.43354 13.9088C2.25 13.3439 2.25 12.646 2.25 11.25C2.25 9.85404 2.25 9.15606 2.43354 8.59119C2.78975 7.49489 3.62927 6.62597 4.70634 6.2302C4.69405 6.18397 4.6875 6.13539 4.6875 6.08529V5.25ZM5.8125 6.0256C6.2398 6 6.77603 6 7.5 6H10.5C11.224 6 11.7602 6 12.1875 6.0256V5.25C12.1875 3.48959 10.7604 2.0625 9 2.0625C7.23959 2.0625 5.8125 3.48959 5.8125 5.25V6.0256ZM9 9.1875C9.31066 9.1875 9.5625 9.43934 9.5625 9.75V12.75C9.5625 13.0607 9.31066 13.3125 9 13.3125C8.68934 13.3125 8.4375 13.0607 8.4375 12.75V9.75C8.4375 9.43934 8.68934 9.1875 9 9.1875Z" fill="#C0B8B3"/>
</svg>
