<svg width="44" height="44" viewBox="0 0 44 44" fill="none" xmlns="http://www.w3.org/2000/svg">
<path d="M38.2326 21.9995C38.2326 24.8489 37.4826 27.6481 36.0579 30.1158L22 21.9995H38.2326Z" fill="#F45542"/>
<path d="M36.0569 30.1175C34.632 32.585 32.5825 34.6339 30.1147 36.0583L22 21.9995L36.0569 30.1175Z" fill="#DD3242"/>
<path d="M30.1155 36.0582C27.6477 37.4827 24.8484 38.2324 21.999 38.2322L22.0007 21.9995L30.1155 36.0582Z" fill="#AF2F79"/>
<path d="M5.76758 21.9995C5.76758 24.8489 6.51761 27.6481 7.94235 30.1158L22.0002 21.9995H5.76758Z" fill="#2656AB"/>
<path d="M7.94336 30.1175C9.36834 32.585 11.4178 34.6339 13.8856 36.0583L22.0003 21.9995L7.94336 30.1175Z" fill="#7943A3"/>
<path d="M13.8857 36.0582C16.3535 37.4827 19.1529 38.2324 22.0023 38.2322L22.0006 21.9995L13.8857 36.0582Z" fill="#A23CA2"/>
<path d="M5.76758 21.9995C5.76758 19.1501 6.51761 16.3509 7.94235 13.8832L22.0002 21.9995H5.76758Z" fill="#019A85"/>
<path d="M7.94336 13.8824C9.36834 11.4149 11.4178 9.36594 13.8856 7.94153L22.0003 22.0003L7.94336 13.8824Z" fill="#01AE5C"/>
<path d="M13.8857 7.94076C16.3535 6.51631 19.1529 5.76656 22.0023 5.76685L22.0006 21.9995L13.8857 7.94076Z" fill="#A1CF49"/>
<path d="M38.2326 21.9995C38.2326 19.1501 37.4826 16.3509 36.0579 13.8832L22 21.9995H38.2326Z" fill="#F97827"/>
<path d="M36.0569 13.8824C34.632 11.4149 32.5825 9.36594 30.1147 7.94153L22 22.0003L36.0569 13.8824Z" fill="#FCA313"/>
<path d="M30.1155 7.94076C27.6477 6.51631 24.8484 5.76656 21.999 5.76685L22.0007 21.9995L30.1155 7.94076Z" fill="#FFE503"/>
</svg>
