<svg width="38" height="38" viewBox="0 0 38 38" fill="none" xmlns="http://www.w3.org/2000/svg">
<g filter="url(#filter0_d_10844_652733)">
<path fill-rule="evenodd" clip-rule="evenodd" d="M11.06 9.99427C13.2619 8.1914 15.9833 6.69971 18.9999 6.69971C22.0164 6.69971 24.7378 8.1914 26.9397 9.99427C29.1545 11.8077 30.964 14.0338 32.179 15.7261C32.2139 15.7748 32.2486 15.823 32.2831 15.8709C33.0096 16.8802 33.6247 17.7346 33.6247 19.0011C33.6247 20.2677 33.0096 21.1221 32.2831 22.1314C32.2486 22.1793 32.2139 22.2275 32.179 22.2761C30.964 23.9685 29.1545 26.1946 26.9397 28.008C24.7378 29.8109 22.0164 31.3026 18.9999 31.3026C15.9833 31.3026 13.2619 29.8109 11.06 28.008C8.84524 26.1946 7.03571 23.9685 5.82078 22.2761C5.78586 22.2275 5.75113 22.1793 5.71666 22.1314C4.9901 21.1221 4.375 20.2677 4.375 19.0011C4.375 17.7346 4.9901 16.8802 5.71666 15.8709C5.75113 15.823 5.78586 15.7748 5.82078 15.7262C7.03571 14.0338 8.84524 11.8077 11.06 9.99427ZM12.4854 11.7352C10.483 13.3747 8.80508 15.4273 7.64855 17.0383C6.77325 18.2575 6.625 18.5296 6.625 19.0011C6.625 19.4727 6.77325 19.7447 7.64855 20.964C8.80508 22.575 10.483 24.6276 12.4854 26.2671C14.5007 27.9172 16.7261 29.0526 18.9999 29.0526C21.2736 29.0526 23.4991 27.9172 25.5143 26.2671C27.5167 24.6276 29.1947 22.575 30.3512 20.964C31.2265 19.7447 31.3747 19.4727 31.3747 19.0011C31.3747 18.5296 31.2265 18.2575 30.3512 17.0383C29.1947 15.4273 27.5167 13.3747 25.5143 11.7352C23.4991 10.0851 21.2736 8.94971 18.9999 8.94971C16.7261 8.94971 14.5007 10.0851 12.4854 11.7352ZM13.6837 19.0011C13.6837 16.0651 16.0638 13.685 18.9999 13.685C21.9359 13.685 24.316 16.0651 24.316 19.0011C24.316 21.9372 21.9359 24.3173 18.9999 24.3173C16.0638 24.3173 13.6837 21.9372 13.6837 19.0011ZM18.9999 15.935C17.3065 15.935 15.9337 17.3078 15.9337 19.0011C15.9337 20.6945 17.3065 22.0673 18.9999 22.0673C20.6933 22.0673 22.066 20.6945 22.066 19.0011C22.066 17.3078 20.6933 15.935 18.9999 15.935Z" fill="white"/>
</g>
<defs>
<filter id="filter0_d_10844_652733" x="0.375" y="2.69971" width="37.25" height="32.603" filterUnits="userSpaceOnUse" color-interpolation-filters="sRGB">
<feFlood flood-opacity="0" result="BackgroundImageFix"/>
<feColorMatrix in="SourceAlpha" type="matrix" values="0 0 0 0 0 0 0 0 0 0 0 0 0 0 0 0 0 0 127 0" result="hardAlpha"/>
<feOffset/>
<feGaussianBlur stdDeviation="2"/>
<feComposite in2="hardAlpha" operator="out"/>
<feColorMatrix type="matrix" values="0 0 0 0 0 0 0 0 0 0 0 0 0 0 0 0 0 0 0.5 0"/>
<feBlend mode="normal" in2="BackgroundImageFix" result="effect1_dropShadow_10844_652733"/>
<feBlend mode="normal" in="SourceGraphic" in2="effect1_dropShadow_10844_652733" result="shape"/>
</filter>
</defs>
</svg>
