<svg width="120" height="120" viewBox="0 0 120 120" fill="none" xmlns="http://www.w3.org/2000/svg">
<circle cx="60" cy="60" r="58.5" fill="#F1FEE6" stroke="#34C759" stroke-width="3"/>
<g clip-path="url(#clip0_8687_289744)">
<path d="M34.9227 82.6023C34.1417 83.3833 34.1417 84.6497 34.9227 85.4307C35.7038 86.2118 36.9701 86.2118 37.7512 85.4307L34.9227 82.6023ZM55.4288 67.753C56.2099 66.972 56.2099 65.7057 55.4288 64.9246C54.6478 64.1436 53.3815 64.1436 52.6004 64.9246L55.4288 67.753ZM38.0958 62.5711C36.9912 62.576 36.0998 63.4754 36.1047 64.58C36.1097 65.6845 37.0091 66.576 38.1136 66.571L38.0958 62.5711ZM44.3101 64.5434L44.3011 62.5434L44.3011 62.5434L44.3101 64.5434ZM55.8101 76.0434L53.8101 76.0345L53.8101 76.0345L55.8101 76.0434ZM53.7824 82.2398C53.7775 83.3444 54.6689 84.2438 55.7735 84.2487C56.878 84.2536 57.7774 83.3622 57.7824 82.2577L53.7824 82.2398ZM53.4256 65.8201L54.6496 64.2384L54.6496 64.2384L53.4256 65.8201ZM54.5334 66.9279L56.115 65.7038L56.115 65.7038L54.5334 66.9279ZM37.7512 85.4307L55.4288 67.753L52.6004 64.9246L34.9227 82.6023L37.7512 85.4307ZM38.1136 66.571L44.319 66.5434L44.3011 62.5434L38.0958 62.5711L38.1136 66.571ZM53.8101 76.0345L53.7824 82.2398L57.7824 82.2577L57.81 76.0523L53.8101 76.0345ZM44.319 66.5434C46.8403 66.5321 48.5624 66.5275 49.8717 66.6705C51.1409 66.8091 51.7667 67.0652 52.2015 67.4018L54.6496 64.2384C53.3919 63.2651 51.9343 62.8719 50.306 62.6941C48.7179 62.5207 46.7284 62.5326 44.3011 62.5434L44.319 66.5434ZM57.81 76.0523C57.8209 73.625 57.8328 71.6355 57.6594 70.0475C57.4815 68.4192 57.0883 66.9615 56.115 65.7038L52.9517 68.1519C53.2882 68.5868 53.5444 69.2126 53.683 70.4817C53.826 71.7911 53.8213 73.5131 53.8101 76.0345L57.81 76.0523ZM52.2015 67.4018C52.4823 67.6191 52.7344 67.8711 52.9517 68.1519L56.115 65.7038C55.6905 65.1553 55.1982 64.6629 54.6496 64.2384L52.2015 67.4018Z" fill="#34C759"/>
<path d="M82.6023 34.9252C83.3833 34.1441 84.6497 34.1441 85.4307 34.9252C86.2118 35.7062 86.2118 36.9726 85.4307 37.7536L82.6023 34.9252ZM67.753 55.4313C66.972 56.2123 65.7057 56.2123 64.9246 55.4313C64.1436 54.6502 64.1436 53.3839 64.9246 52.6028L67.753 55.4313ZM62.5711 38.0982C62.576 36.9937 63.4754 36.1022 64.58 36.1072C65.6845 36.1121 66.576 37.0115 66.571 38.1161L62.5711 38.0982ZM64.5434 44.3125L62.5434 44.3036L62.5434 44.3036L64.5434 44.3125ZM76.0434 55.8125L76.0345 53.8125L76.0345 53.8125L76.0434 55.8125ZM82.2398 53.7848C83.3444 53.7799 84.2438 54.6713 84.2487 55.7759C84.2536 56.8805 83.3622 57.7799 82.2577 57.7848L82.2398 53.7848ZM65.8201 53.428L64.2384 54.6521L64.2384 54.652L65.8201 53.428ZM66.9279 54.5358L65.7038 56.1175L65.7038 56.1175L66.9279 54.5358ZM85.4307 37.7536L67.753 55.4313L64.9246 52.6028L82.6023 34.9252L85.4307 37.7536ZM66.571 38.1161L66.5434 44.3214L62.5434 44.3036L62.5711 38.0982L66.571 38.1161ZM76.0345 53.8125L82.2398 53.7848L82.2577 57.7848L76.0523 57.8125L76.0345 53.8125ZM66.5434 44.3214C66.5321 46.8428 66.5275 48.5648 66.6705 49.8742C66.8091 51.1433 67.0652 51.7691 67.4018 52.2039L64.2384 54.652C63.2651 53.3944 62.8719 51.9367 62.6941 50.3084C62.5207 48.7204 62.5326 46.7309 62.5434 44.3036L66.5434 44.3214ZM76.0523 57.8125C73.625 57.8233 71.6355 57.8352 70.0475 57.6618C68.4192 57.484 66.9615 57.0908 65.7038 56.1175L68.1519 52.9541C68.5868 53.2906 69.2126 53.5468 70.4817 53.6854C71.7911 53.8284 73.5131 53.8238 76.0345 53.8125L76.0523 57.8125ZM67.4018 52.2039C67.6191 52.4848 67.8711 52.7368 68.1519 52.9541L65.7038 56.1175C65.1553 55.693 64.6629 55.2006 64.2384 54.6521L67.4018 52.2039Z" fill="#34C759"/>
</g>
<defs>
<clipPath id="clip0_8687_289744">
<rect width="60" height="60" fill="white" transform="translate(30 30)"/>
</clipPath>
</defs>
</svg>
