<svg width="49" height="49" viewBox="0 0 49 49" fill="none" xmlns="http://www.w3.org/2000/svg">
<path fill-rule="evenodd" clip-rule="evenodd" d="M24.5283 44.5322C35.574 44.5322 44.5283 35.5779 44.5283 24.5322C44.5283 13.4865 35.574 4.53223 24.5283 4.53223C13.4826 4.53223 4.52832 13.4865 4.52832 24.5322C4.52832 35.5779 13.4826 44.5322 24.5283 44.5322ZM26.0283 18.5322C26.0283 17.7038 25.3567 17.0322 24.5283 17.0322C23.6999 17.0322 23.0283 17.7038 23.0283 18.5322V23.0322H18.5283C17.6999 23.0322 17.0283 23.7038 17.0283 24.5322C17.0283 25.3607 17.6999 26.0322 18.5283 26.0322H23.0283V30.5322C23.0283 31.3607 23.6999 32.0322 24.5283 32.0322C25.3567 32.0322 26.0283 31.3607 26.0283 30.5322V26.0322H30.5283C31.3567 26.0322 32.0283 25.3607 32.0283 24.5322C32.0283 23.7038 31.3567 23.0322 30.5283 23.0322H26.0283V18.5322Z" fill="white"/>
</svg>