<svg width="40" height="40" viewBox="0 0 40 40" fill="none" xmlns="http://www.w3.org/2000/svg">
<path d="M31.2449 17.9449C30.7685 17.3615 30.1886 16.856 29.6502 16.3504C28.2626 15.1837 26.6886 14.3476 25.3631 13.1225C22.2772 10.2836 21.5938 5.59732 23.5613 2C21.5938 2.44723 19.8748 3.45838 18.4044 4.56674C13.0403 8.6113 10.9279 15.7476 13.4546 21.8728C13.5374 22.0672 13.6202 22.2617 13.6202 22.5145C13.6202 22.9423 13.3096 23.3312 12.8954 23.4867C12.419 23.6812 11.922 23.5645 11.5285 23.2534C11.4109 23.1609 11.3126 23.0489 11.2385 22.9228C8.89825 20.1422 8.52546 16.156 10.0995 12.967C6.6408 15.6115 4.75615 20.0838 5.02538 24.3034C5.14965 25.2757 5.27391 26.2479 5.62599 27.2202C5.91594 28.3869 6.47512 29.5536 7.09643 30.5842C9.33317 33.9481 13.206 36.3593 17.3688 36.8454C21.8009 37.3705 26.5436 36.6121 29.9401 33.7342C33.7301 30.5064 35.0556 25.334 33.1088 20.9005L32.8396 20.395C32.4047 19.5005 31.2449 17.9449 31.2449 17.9449ZM24.7004 30.1952C24.1205 30.6619 23.1678 31.1675 22.4222 31.3619C20.1026 32.1398 15.8669 31.2834 14.5 30C16 29.5 17.4773 28.848 18.5 27C19.3562 25.4529 19.5 24 19.5 22.5C19.5 21 19.5 20 20.5583 17.4393C20.9518 18.1782 21.366 18.9171 21.863 19.5005C23.4577 21.445 25.9637 22.3006 26.5022 24.9451C26.585 25.2173 26.6264 25.4896 26.6264 25.7812C26.6886 27.3757 25.943 29.1258 24.7004 30.1952Z" fill="url(#paint0_linear_8687_289786)"/>
<defs>
<linearGradient id="paint0_linear_8687_289786" x1="19.4625" y1="2" x2="19.4625" y2="37" gradientUnits="userSpaceOnUse">
<stop stop-color="#FFA556"/>
<stop offset="1" stop-color="#FF16A2"/>
</linearGradient>
</defs>
</svg>
