<svg width="44" height="33" viewBox="0 0 44 33" fill="none" xmlns="http://www.w3.org/2000/svg">
<g clip-path="url(#clip0_4942_80549)">
<mask id="mask0_4942_80549" style="mask-type:luminance" maskUnits="userSpaceOnUse" x="0" y="0" width="44" height="33">
<rect width="44" height="33" fill="white"/>
</mask>
<g mask="url(#mask0_4942_80549)">
<path fill-rule="evenodd" clip-rule="evenodd" d="M0 0V33H44V0H0Z" fill="#BF2714"/>
<mask id="mask1_4942_80549" style="mask-type:luminance" maskUnits="userSpaceOnUse" x="0" y="0" width="44" height="33">
<path fill-rule="evenodd" clip-rule="evenodd" d="M0 0V33H44V0H0Z" fill="white"/>
</mask>
<g mask="url(#mask1_4942_80549)">
<path fill-rule="evenodd" clip-rule="evenodd" d="M0 -2.75V16.5H44V-2.75H0Z" fill="#3D58DB"/>
</g>
<path fill-rule="evenodd" clip-rule="evenodd" d="M0 0V33L24.75 16.5L0 0Z" fill="#F7FCFF"/>
<mask id="mask2_4942_80549" style="mask-type:luminance" maskUnits="userSpaceOnUse" x="0" y="0" width="25" height="33">
<path fill-rule="evenodd" clip-rule="evenodd" d="M0 0V33L24.75 16.5L0 0Z" fill="white"/>
</mask>
<g mask="url(#mask2_4942_80549)">
<path fill-rule="evenodd" clip-rule="evenodd" d="M18.7063 15.0154L20.4606 15.692L21.5044 14.4637L21.5321 16.1065L23.1467 16.6316L21.4472 17.2085L21.5592 18.7181L20.4398 17.5617L18.6803 17.8964L19.7191 16.5645L18.7063 15.0154Z" fill="#FECA00"/>
<path fill-rule="evenodd" clip-rule="evenodd" d="M2.20628 23.2654L3.81884 23.9784L5.00439 22.7137L4.8903 24.3929L6.64669 24.8816L4.8054 25.4949L5.05918 26.9681L3.77719 25.9154L2.18034 26.1464L3.07736 24.8509L2.20628 23.2654Z" fill="#FECA00"/>
<path fill-rule="evenodd" clip-rule="evenodd" d="M2.20628 6.76545L3.99069 7.423L5.00439 6.21365L5.06215 7.83747L6.64669 8.38162L4.97726 8.93952L5.05918 10.4681L3.94904 9.36003L2.18034 9.64638L3.24922 8.2955L2.20628 6.76545Z" fill="#FECA00"/>
<path fill-rule="evenodd" clip-rule="evenodd" d="M11.168 19.9824C13.0664 19.9824 14.6055 18.4434 14.6055 16.5449C14.6055 14.6464 13.0664 13.1074 11.168 13.1074C9.26949 13.1074 7.73047 14.6464 7.73047 16.5449C7.73047 18.4434 9.26949 19.9824 11.168 19.9824Z" fill="#FECA00"/>
<path fill-rule="evenodd" clip-rule="evenodd" d="M10.7608 11.3289L10.9456 13.5372C10.9632 13.6713 11.0664 13.7781 11.1998 13.8004C11.3674 13.8285 11.526 13.7154 11.554 13.5478L11.7978 11.347C11.8021 11.3214 11.8045 11.2956 11.8049 11.2696C11.81 10.9801 11.5794 10.7413 11.2898 10.7362C11.2639 10.7358 11.2379 10.7373 11.2122 10.7406C10.9251 10.7785 10.723 11.0418 10.7608 11.3289ZM10.1859 12.3962L10.4714 13.3568C10.4979 13.446 10.587 13.5012 10.6877 13.4834C10.7702 13.4639 10.8214 13.3812 10.8018 13.2986L10.574 12.3345C10.5478 12.2236 10.4404 12.1519 10.3279 12.1701C10.3204 12.1713 10.313 12.173 10.3057 12.1751C10.2116 12.2031 10.158 12.3021 10.1859 12.3962ZM11.7298 13.3973C11.7074 13.4792 11.7556 13.5636 11.8464 13.5882C11.9375 13.6073 12.0284 13.5552 12.058 13.467L12.3768 12.5169C12.4081 12.4239 12.3579 12.3231 12.2649 12.2919C12.2576 12.2894 12.2503 12.2875 12.2428 12.286C12.1311 12.2639 12.0212 12.3319 11.9911 12.4418L11.7298 13.3973ZM14.5859 12.4309L13.0491 14.128C12.9667 14.2353 12.9641 14.3838 13.0427 14.4939C13.1413 14.6322 13.3335 14.6644 13.4718 14.5657L15.3064 13.177C15.3275 13.1619 15.3475 13.1453 15.3661 13.1273C15.5744 12.9261 15.5802 12.5942 15.3791 12.3859C15.361 12.3672 15.3417 12.3499 15.3211 12.3341C15.0913 12.1578 14.7622 12.2012 14.5859 12.4309ZM14.1184 16.0333L16.4132 15.8557C16.7003 15.8179 16.9637 16.02 17.0015 16.3071C17.0049 16.3328 17.0064 16.3587 17.0059 16.3847C17.0009 16.6742 16.7621 16.9048 16.4725 16.8998C16.4466 16.8993 16.4207 16.897 16.3951 16.8927L14.1078 16.6418C13.9402 16.6137 13.8271 16.4551 13.8552 16.2875C13.8775 16.1541 13.9843 16.051 14.1184 16.0333ZM15.3094 19.6894L13.5272 18.1378C13.4199 18.0555 13.2714 18.0529 13.1613 18.1315C13.023 18.2301 12.9908 18.4222 13.0895 18.5606L14.5634 20.4098C14.5784 20.431 14.5951 20.4509 14.6131 20.4696C14.8142 20.6779 15.1462 20.6837 15.3545 20.4826C15.3731 20.4645 15.3904 20.4451 15.4062 20.4246C15.5825 20.1948 15.5392 19.8657 15.3094 19.6894ZM11.6218 19.2078L11.7579 21.5247C11.7957 21.8118 11.5936 22.0752 11.3065 22.113C11.2808 22.1164 11.2549 22.1178 11.2289 22.1174C10.9394 22.1123 10.7088 21.8735 10.7138 21.584C10.7143 21.558 10.7167 21.5322 10.721 21.5066L11.0134 19.1971C11.0415 19.0296 11.2 18.9165 11.3676 18.9445C11.501 18.9668 11.6042 19.0737 11.6218 19.2078ZM8.00412 20.4589L9.5184 18.616C9.60073 18.5087 9.60332 18.3602 9.52478 18.2501C9.42612 18.1118 9.234 18.0796 9.09567 18.1783L7.28368 19.7128C7.26255 19.7279 7.24257 19.7445 7.22391 19.7625C7.0156 19.9637 7.00981 20.2956 7.21097 20.5039C7.22899 20.5226 7.24838 20.5399 7.26896 20.5557C7.49871 20.732 7.82785 20.6886 8.00412 20.4589ZM8.44905 16.7096L6.14014 16.8998C5.85305 16.9376 5.58966 16.7356 5.55185 16.4485C5.54846 16.4227 5.54699 16.3968 5.54744 16.3708C5.55249 16.0813 5.7913 15.8507 6.08083 15.8558C6.10678 15.8562 6.13265 15.8586 6.15824 15.8629L8.45967 16.1011C8.62725 16.1292 8.74036 16.2878 8.71231 16.4553C8.68998 16.5887 8.58315 16.6919 8.44905 16.7096ZM7.0819 13.093L9.04022 14.6073C9.14752 14.6896 9.29601 14.6922 9.40613 14.6137C9.54446 14.515 9.57662 14.3229 9.47796 14.1845L7.82794 12.3726C7.81287 12.3514 7.79625 12.3314 7.77823 12.3128C7.57707 12.1045 7.24514 12.0987 7.03684 12.2998C7.01818 12.3179 7.00087 12.3373 6.98508 12.3578C6.80881 12.5876 6.85216 12.9167 7.0819 13.093ZM12.8414 13.6648L13.3188 12.7836C13.3656 12.6973 13.4734 12.6653 13.5598 12.712C13.5664 12.7157 13.5729 12.7197 13.5791 12.7242C13.6715 12.7908 13.6967 12.9175 13.6368 13.0145L13.1162 13.8573C13.0716 13.9294 12.9769 13.9518 12.9048 13.9072C12.821 13.8486 12.7971 13.7465 12.8414 13.6648ZM15.2594 15.2744L14.2988 15.5598C14.2096 15.5863 14.1544 15.6754 14.1722 15.7761C14.1917 15.8587 14.2744 15.9098 14.357 15.8903L15.3211 15.6624C15.4319 15.6362 15.5037 15.5288 15.4855 15.4163C15.4843 15.4088 15.4826 15.4014 15.4804 15.3941C15.4525 15.3 15.3535 15.2464 15.2594 15.2744ZM13.9901 17.9286L14.8712 18.406C14.9575 18.4527 14.9896 18.5606 14.9428 18.647C14.9392 18.6536 14.9351 18.6601 14.9307 18.6663C14.864 18.7587 14.7373 18.7839 14.6404 18.724L13.7976 18.2034C13.7254 18.1588 13.703 18.0641 13.7476 17.992C13.8063 17.9082 13.9083 17.8843 13.9901 17.9286ZM12.3814 20.3478L12.096 19.3872C12.0695 19.298 11.9804 19.2428 11.8797 19.2605C11.7971 19.28 11.746 19.3628 11.7655 19.4453L11.9934 20.4094C12.0196 20.5203 12.127 20.5921 12.2394 20.5739C12.247 20.5727 12.2544 20.571 12.2617 20.5688C12.3558 20.5408 12.4094 20.4419 12.3814 20.3478ZM9.72608 19.0774L9.24868 19.9585C9.20191 20.0448 9.09402 20.0768 9.00771 20.0301C9.00102 20.0265 8.99456 20.0224 8.98839 20.018C8.896 19.9513 8.8708 19.8246 8.93068 19.7277L9.45129 18.8848C9.49587 18.8127 9.59052 18.7903 9.6627 18.8349C9.74647 18.8935 9.7704 18.9956 9.72608 19.0774ZM7.30805 17.4706L8.26867 17.1851C8.35785 17.1586 8.41306 17.0696 8.3953 16.9689C8.37579 16.8863 8.29305 16.8352 8.21049 16.8547L7.24641 17.0825C7.13553 17.1087 7.06374 17.2162 7.08194 17.3286C7.08316 17.3361 7.08486 17.3436 7.08703 17.3509C7.11499 17.445 7.21395 17.4986 7.30805 17.4706ZM8.57739 14.8135L7.69627 14.3361C7.60996 14.2894 7.5779 14.1815 7.62466 14.0952C7.62829 14.0885 7.63234 14.082 7.63679 14.0758C7.70345 13.9834 7.83016 13.9583 7.92709 14.0181L8.7699 14.5387C8.84207 14.5833 8.86444 14.678 8.81986 14.7501C8.7612 14.8339 8.65919 14.8578 8.57739 14.8135ZM13.7029 14.5847C13.6292 14.6268 13.6035 14.7206 13.6504 14.8021C13.7013 14.88 13.8024 14.9075 13.8857 14.8661L14.7829 14.4197C14.8708 14.376 14.9066 14.2693 14.8629 14.1814C14.8595 14.1746 14.8557 14.168 14.8514 14.1617C14.7881 14.067 14.6623 14.0374 14.5633 14.0938L13.7029 14.5847ZM14.0679 16.9349C14.0925 16.8441 14.1769 16.7959 14.2588 16.8182L15.2143 17.0796C15.3242 17.1096 15.3922 17.2195 15.3701 17.3312C15.3686 17.3387 15.3666 17.3461 15.3642 17.3533C15.333 17.4464 15.2322 17.4965 15.1392 17.4653L14.1891 17.1464C14.1009 17.1168 14.0488 17.0259 14.0679 16.9349ZM13.0719 18.7907C13.0299 18.7171 12.9361 18.6914 12.8545 18.7383C12.7766 18.7891 12.7492 18.8903 12.7906 18.9735L13.237 19.8708C13.2807 19.9587 13.3874 19.9945 13.4753 19.9508C13.4821 19.9474 13.4887 19.9435 13.495 19.9393C13.5897 19.8759 13.6193 19.7502 13.5628 19.6512L13.0719 18.7907ZM10.7209 19.1556C10.8117 19.1802 10.8599 19.2647 10.8375 19.3465L10.5762 20.302C10.5462 20.4119 10.4363 20.4799 10.3245 20.4578C10.3171 20.4563 10.3097 20.4544 10.3025 20.452C10.2094 20.4207 10.1593 20.32 10.1905 20.2269L10.5093 19.2768C10.5389 19.1886 10.6299 19.1365 10.7209 19.1556ZM8.86455 18.1603C8.93824 18.1182 8.96389 18.0244 8.91704 17.9428C8.86616 17.865 8.76504 17.8375 8.68175 17.8789L7.78451 18.3253C7.69661 18.369 7.66081 18.4757 7.70453 18.5636C7.70792 18.5704 7.71175 18.577 7.71598 18.5833C7.77937 18.678 7.90513 18.7076 8.00409 18.6511L8.86455 18.1603ZM8.49953 15.8101C8.47498 15.9009 8.3905 15.9491 8.30868 15.9267L7.35313 15.6654C7.24323 15.6354 7.17524 15.5255 7.19736 15.4137C7.19883 15.4063 7.20079 15.3989 7.20321 15.3917C7.23444 15.2986 7.33521 15.2485 7.42828 15.2797L8.37835 15.5986C8.46655 15.6281 8.51862 15.7191 8.49953 15.8101ZM9.49552 13.954C9.53755 14.0277 9.63136 14.0534 9.71294 14.0065C9.79082 13.9557 9.81829 13.8545 9.77686 13.7713L9.33049 12.874C9.28677 12.7861 9.18007 12.7503 9.09217 12.794C9.08536 12.7974 9.07877 12.8012 9.07244 12.8055C8.97778 12.8689 8.94818 12.9946 9.00463 13.0936L9.49552 13.954Z" fill="#FECA00"/>
</g>
</g>
</g>
<defs>
<clipPath id="clip0_4942_80549">
<rect width="44" height="33" rx="10" fill="white"/>
</clipPath>
</defs>
</svg>
