<svg width="60" height="60" viewBox="0 0 60 60" fill="none" xmlns="http://www.w3.org/2000/svg">
<g opacity="0.6">
<path d="M22.0925 27.8208L30.5778 19.3355C34.8206 19.3353 40.4773 24.9923 40.4772 29.235L31.992 37.7203M31.9905 19.3388L39.7686 11.5606C47.0191 4.3102 58.3328 9.96699 56.0321 12.2677L40.4757 27.8241M56.2108 12.0881C54.3251 13.0309 51.5009 15.0003 48.0009 15.5003M39.2402 12.0881C40.0652 12.913 40.5009 14.0003 42.5009 14.5003M19.441 27.6441L4.5918 42.4933C4.59189 46.7359 13.0772 55.2211 17.3197 55.2212L32.169 40.372C32.169 36.1293 23.6839 27.6439 19.441 27.6441Z" stroke="currentColor" stroke-width="3.5" stroke-linecap="round" stroke-linejoin="round"/>
</g>
</svg>
