<svg width="40" height="40" viewBox="0 0 40 40" fill="none" xmlns="http://www.w3.org/2000/svg">
<path d="M21.2506 35C21.2506 35.6904 20.6909 36.25 20.0006 36.25C19.3102 36.25 18.7506 35.6904 18.7506 35L21.2506 35ZM18.7506 20C18.7506 19.3096 19.3102 18.75 20.0006 18.75C20.6909 18.75 21.2506 19.3096 21.2506 20L18.7506 20ZM24.775 20L24.775 21.25H24.775V20ZM27.4164 14.6334L26.4258 15.3959L26.4258 15.3959L27.4164 14.6334ZM12.5848 14.6334L13.5753 15.3959L13.5753 15.3959L12.5848 14.6334ZM15.2262 20L15.2262 18.75H15.2262V20ZM17.3592 8.43124L16.3687 7.66875L16.3687 7.66875L17.3592 8.43124ZM22.6419 8.43124L23.6325 7.66875L23.6325 7.66875L22.6419 8.43124ZM18.7506 35L18.7506 20L21.2506 20L21.2506 35L18.7506 35ZM18.3498 9.19374L13.5753 15.3959L11.5943 13.8709L16.3687 7.66875L18.3498 9.19374ZM15.2262 18.75H24.775V21.25H15.2262V18.75ZM26.4258 15.3959L21.6514 9.19374L23.6325 7.66875L28.4069 13.8709L26.4258 15.3959ZM24.775 18.75C26.5038 18.75 27.4804 16.7658 26.4258 15.3959L28.4069 13.8709C30.7269 16.8847 28.5784 21.25 24.775 21.25L24.775 18.75ZM13.5753 15.3959C12.5208 16.7658 13.4974 18.75 15.2262 18.75L15.2262 21.25C11.4228 21.25 9.27426 16.8847 11.5943 13.8709L13.5753 15.3959ZM16.3687 7.66875C18.2035 5.28538 21.7977 5.28538 23.6325 7.66875L21.6514 9.19374C20.8175 8.11039 19.1837 8.11039 18.3498 9.19374L16.3687 7.66875Z" fill="#434343"/>
</svg>
