<svg width="60" height="60" viewBox="0 0 60 60" fill="none" xmlns="http://www.w3.org/2000/svg">
<path d="M50.4422 33.9925L51.9653 35.0859L50.4422 33.9925ZM50.4422 25.2627L48.919 26.3561L50.4422 25.2627ZM9.55779 33.9925L11.0809 32.899L9.55779 33.9925ZM9.55779 25.2627L8.03464 24.1692L9.55779 25.2627ZM7.5 29.6276H5.625H7.5ZM8.03464 35.0859C10.0595 37.9065 13.0755 41.6168 16.7668 44.6392C20.4366 47.644 24.9724 50.1301 30 50.1301V46.3801C26.2104 46.3801 22.5013 44.4878 19.1425 41.7377C15.8051 39.0051 13.0085 35.584 11.0809 32.899L8.03464 35.0859ZM30 50.1301C35.0276 50.1301 39.5633 47.644 43.2332 44.6392C46.9245 41.6168 49.9404 37.9065 51.9653 35.0859L48.919 32.899C46.9915 35.584 44.1949 39.0051 40.8575 41.7377C37.4987 44.4878 33.7896 46.3801 30 46.3801V50.1301ZM51.9653 24.1692C49.9404 21.3486 46.9245 17.6384 43.2332 14.616C39.5633 11.6112 35.0276 9.125 30 9.125V12.875C33.7896 12.875 37.4987 14.7673 40.8575 17.5175C44.1949 20.25 46.9915 23.6711 48.919 26.3561L51.9653 24.1692ZM30 9.125C24.9724 9.125 20.4366 11.6112 16.7668 14.616C13.0755 17.6384 10.0595 21.3486 8.03464 24.1692L11.0809 26.3561C13.0085 23.6711 15.8051 20.25 19.1425 17.5175C22.5013 14.7673 26.2104 12.875 30 12.875V9.125ZM51.9653 35.0859C53.2502 33.2962 54.375 31.8387 54.375 29.6276H50.625C50.625 30.4135 50.3779 30.8669 48.919 32.899L51.9653 35.0859ZM48.919 26.3561C50.3779 28.3882 50.625 28.8417 50.625 29.6276H54.375C54.375 27.4165 53.2502 25.959 51.9653 24.1692L48.919 26.3561ZM11.0809 32.899C9.6221 30.8669 9.375 30.4135 9.375 29.6276H5.625C5.625 31.8387 6.74976 33.2962 8.03464 35.0859L11.0809 32.899ZM8.03464 24.1692C6.74976 25.959 5.625 27.4165 5.625 29.6276H9.375C9.375 28.8417 9.62209 28.3882 11.0809 26.3561L8.03464 24.1692ZM21.1396 29.6276C21.1396 34.521 25.1066 38.4879 30 38.4879V34.7379C27.1776 34.7379 24.8896 32.4499 24.8896 29.6276H21.1396ZM30 38.4879C34.8934 38.4879 38.8603 34.521 38.8603 29.6276H35.1103C35.1103 32.4499 32.8223 34.7379 30 34.7379V38.4879ZM38.8603 29.6276C38.8603 24.7341 34.8934 20.7672 30 20.7672V24.5172C32.8223 24.5172 35.1103 26.8052 35.1103 29.6276H38.8603ZM30 20.7672C25.1066 20.7672 21.1396 24.7341 21.1396 29.6276H24.8896C24.8896 26.8052 27.1776 24.5172 30 24.5172V20.7672Z" fill="white"/>
</svg>
