<svg width="44" height="44" viewBox="0 0 44 44" fill="none" xmlns="http://www.w3.org/2000/svg">
<rect x="2" y="7.71436" width="40" height="28.5714" rx="5.71429" fill="url(#paint0_linear_11439_326891)"/>
<path d="M4.85742 24.5714C4.85742 24.9503 5.00793 25.3137 5.27584 25.5816C5.54375 25.8495 5.90711 26 6.28599 26H12.0003C12.3792 26 12.7425 25.8495 13.0104 25.5816C13.2783 25.3137 13.4289 24.9503 13.4289 24.5714V21.7143C13.4289 21.3354 13.2783 20.972 13.0104 20.7041C12.7425 20.4362 12.3792 20.2857 12.0003 20.2857H6.28599C5.90711 20.2857 5.54375 20.4362 5.27584 20.7041C5.00793 20.972 4.85742 21.3354 4.85742 21.7143L4.85742 24.5714Z" fill="url(#paint1_linear_11439_326891)"/>
<path d="M26.0008 27.7144C25.622 27.7144 25.2586 27.8649 24.9907 28.1328C24.7228 28.4007 24.5723 28.764 24.5723 29.1429L24.5723 32.0001C24.5723 32.379 24.7228 32.7423 24.9907 33.0102C25.2586 33.2781 25.622 33.4286 26.0008 33.4286C26.3797 33.4286 26.7431 33.2781 27.011 33.0102C27.2789 32.7423 27.4294 32.379 27.4294 32.0001L27.4294 29.1429C27.4294 28.764 27.2789 28.4007 27.011 28.1328C26.7431 27.8649 26.3797 27.7144 26.0008 27.7144Z" fill="url(#paint2_linear_11439_326891)"/>
<path d="M30.286 27.7144C29.9071 27.7144 29.5437 27.8649 29.2758 28.1328C29.0079 28.4007 28.8574 28.764 28.8574 29.1429L28.8574 32.0001C28.8574 32.379 29.0079 32.7423 29.2758 33.0102C29.5437 33.2781 29.9071 33.4286 30.286 33.4286C30.6649 33.4286 31.0282 33.2781 31.2961 33.0102C31.5641 32.7423 31.7146 32.379 31.7146 32.0001L31.7146 29.1429C31.7146 28.764 31.5641 28.4007 31.2961 28.1328C31.0282 27.8649 30.6649 27.7144 30.286 27.7144Z" fill="url(#paint3_linear_11439_326891)"/>
<path d="M34.8563 27.7144C34.4774 27.7144 34.1141 27.8649 33.8462 28.1328C33.5782 28.4007 33.4277 28.764 33.4277 29.1429L33.4277 32.0001C33.4277 32.379 33.5782 32.7423 33.8462 33.0102C34.1141 33.2781 34.4774 33.4286 34.8563 33.4286C35.2352 33.4286 35.5986 33.2781 35.8665 33.0102C36.1344 32.7423 36.2849 32.379 36.2849 32.0001L36.2849 29.1429C36.2849 28.764 36.1344 28.4007 35.8665 28.1328C35.5986 27.8649 35.2352 27.7144 34.8563 27.7144Z" fill="url(#paint4_linear_11439_326891)"/>
<rect x="2" y="15.1428" width="40" height="3.42857" fill="white"/>
<defs>
<linearGradient id="paint0_linear_11439_326891" x1="9.14286" y1="6.28578" x2="30.5714" y2="37.7144" gradientUnits="userSpaceOnUse">
<stop offset="0.51875" stop-color="#FF8F28"/>
<stop offset="0.51885" stop-color="#FFAD62"/>
</linearGradient>
<linearGradient id="paint1_linear_11439_326891" x1="13.4289" y1="26" x2="13.4289" y2="14.5714" gradientUnits="userSpaceOnUse">
<stop offset="0.602083" stop-color="#FAFF00"/>
<stop offset="0.680208" stop-color="#F8F8F8"/>
</linearGradient>
<linearGradient id="paint2_linear_11439_326891" x1="16.0008" y1="36.2858" x2="27.4294" y2="36.2858" gradientUnits="userSpaceOnUse">
<stop offset="0.602083" stop-color="#FAFF00"/>
<stop offset="0.680208" stop-color="#F8F8F8"/>
</linearGradient>
<linearGradient id="paint3_linear_11439_326891" x1="20.286" y1="36.2858" x2="31.7146" y2="36.2858" gradientUnits="userSpaceOnUse">
<stop offset="0.602083" stop-color="#FAFF00"/>
<stop offset="0.680208" stop-color="#F8F8F8"/>
</linearGradient>
<linearGradient id="paint4_linear_11439_326891" x1="24.8563" y1="36.2858" x2="36.2849" y2="36.2858" gradientUnits="userSpaceOnUse">
<stop offset="0.602083" stop-color="#FAFF00"/>
<stop offset="0.680208" stop-color="#F8F8F8"/>
</linearGradient>
</defs>
</svg>
