<svg width="40" height="40" viewBox="0 0 40 40" fill="none" xmlns="http://www.w3.org/2000/svg">
<path fill-rule="evenodd" clip-rule="evenodd" d="M20.2882 35.5879C19.1243 35.8573 17.9117 35.9997 16.6659 35.9997C7.82939 35.9997 0.666016 28.8363 0.666016 19.9999C0.666016 11.1634 7.82939 4 16.6659 4C17.9117 4 19.1243 4.14239 20.2882 4.41179C13.1966 6.05317 7.91076 12.4092 7.91076 19.9999C7.91076 27.5905 13.1966 33.9465 20.2882 35.5879Z" fill="#34C759"/>
<path d="M25.4191 6.65625L22.9704 14.1926L29.3812 9.53488H21.457L27.8678 14.1926L25.4191 6.65625Z" fill="#34C759"/>
<path d="M38.1091 15.8766L30.1849 15.8766L36.5957 20.5343L34.147 12.9979L31.6983 20.5343L38.1091 15.8766Z" fill="#34C759"/>
<path d="M17.5758 30.7942L23.9867 26.1365L16.0625 26.1365L22.4733 30.7942L20.0246 23.2578L17.5758 30.7942Z" fill="#34C759"/>
<path d="M33.2633 30.7957L30.8146 23.2593L28.3659 30.7957L34.7767 26.1379L26.8525 26.1379L33.2633 30.7957Z" fill="#34C759"/>
<path d="M12.7302 15.8773L19.141 20.5351L16.6923 12.9987L14.2436 20.5351L20.6544 15.8773L12.7302 15.8773Z" fill="#34C759"/>
</svg>
