<svg width="96" height="96" viewBox="0 0 96 96" fill="none" xmlns="http://www.w3.org/2000/svg">
<g clip-path="url(#clip0_2413_56498)">
<path d="M48 96C74.5097 96 96 74.5097 96 48C96 21.4903 74.5097 0 48 0C21.4903 0 0 21.4903 0 48C0 74.5097 21.4903 96 48 96Z" fill="url(#paint0_linear_2413_56498)"/>
<g clip-path="url(#clip1_2413_56498)">
<path d="M70.5 25.5H63V23H33V25.5H25.5C24 25.5 23 26.5 23 28V34C23 39.75 27.25 44.5 33 45.25V45.5C33 52.75 38 58.75 44.75 60.25L43 65.5H37.25C36.25 65.5 35.25 66.25 35 67.25L33 73H63L61 67.25C60.75 66.25 59.75 65.5 58.75 65.5H53L51.25 60.25C58 58.75 63 52.75 63 45.5V45.25C68.75 44.5 73 39.75 73 34V28C73 26.5 72 25.5 70.5 25.5ZM33 40.25C30.25 39.5 28 37 28 34V30.5H33V40.25ZM53 48L48 45.25L43 48L44.25 43L40.5 38H45.75L48 33L50.25 38H55.5L51.75 43L53 48ZM68 34C68 37 65.75 39.75 63 40.25V30.5H68V34Z" fill="white"/>
</g>
</g>
<defs>
<linearGradient id="paint0_linear_2413_56498" x1="48" y1="1.13" x2="48" y2="97.13" gradientUnits="userSpaceOnUse">
<stop stop-color="#8FADFF"/>
<stop offset="1" stop-color="#4A6BFD"/>
</linearGradient>
<clipPath id="clip0_2413_56498">
<rect width="96" height="96" fill="white"/>
</clipPath>
<clipPath id="clip1_2413_56498">
<rect width="50" height="50" fill="white" transform="translate(23 23)"/>
</clipPath>
</defs>
</svg>
