<svg width="41" height="41" viewBox="0 0 41 41" fill="none" xmlns="http://www.w3.org/2000/svg">
<path d="M7.77699 26.4176C6.60638 24.0043 7.15404 21.1092 9.12524 19.2902C10.5684 17.9585 11.2801 16.0121 11.0366 14.0636L10.9043 13.0055C10.2956 8.13603 14.0925 3.83496 18.9999 3.83496H21.8381C23.8875 3.83496 25.7435 4.58419 27.1667 5.81143M30.5 10.5016L29.8359 13.8783C29.5777 15.944 30.3287 18.0079 31.8542 19.4246L31.9273 19.4925C34.1741 21.5791 34.6102 24.9726 32.9639 27.5594C31.7976 29.3919 29.7759 30.5016 27.6038 30.5016H13.9024C12.8158 30.5016 12.2606 30.152 11.3333 29.6683M14.1389 30.5016L14.8056 31.6445C17.8056 36.7873 23.8056 36.7873 26.8056 31.6445L27.4723 30.5016" stroke="#AEAEB1" stroke-width="2.5" stroke-linecap="round"/>
<path d="M5.5 35.502L37.1667 3.83529" stroke="#AEAEB1" stroke-width="2.5" stroke-linecap="round"/>
</svg>
