<svg width="44" height="44" viewBox="0 0 44 44" fill="none" xmlns="http://www.w3.org/2000/svg">
<g clip-path="url(#clip0_2310_71285)">
<path d="M37.8891 22C37.8891 17.786 36.2151 13.7446 33.2354 10.7648C30.2556 7.78509 26.2142 6.11108 22.0002 6.11108C17.7862 6.11108 13.7448 7.78509 10.7651 10.7648C7.78533 13.7446 6.11133 17.786 6.11133 22L22.0002 22H37.8891Z" fill="black"/>
<path d="M37.8891 22C37.8891 26.214 36.2151 30.2554 33.2354 33.2352C30.2556 36.2149 26.2142 37.8889 22.0002 37.8889C17.7862 37.8889 13.7448 36.2149 10.7651 33.2352C7.78533 30.2554 6.11133 26.214 6.11133 22L22.0002 22H37.8891Z" fill="#D6D6D6"/>
</g>
<defs>
<clipPath id="clip0_2310_71285">
<rect width="44" height="44" fill="white"/>
</clipPath>
</defs>
</svg>
