<svg width="40" height="40" viewBox="0 0 40 40" fill="none" xmlns="http://www.w3.org/2000/svg">
<path d="M33.6281 22.9103L34.5739 23.5893L33.6281 22.9103ZM33.6281 17.0905L32.6824 17.7694L33.6281 17.0905ZM6.37186 22.9103L7.31761 22.2314L6.37186 22.9103ZM6.37186 17.0905L5.42611 16.4115L6.37186 17.0905ZM5 20.0004L3.83578 20.0004V20.0004L5 20.0004ZM5.42611 23.5893C6.77382 25.4666 8.77941 27.9335 11.2322 29.9418C13.6717 31.9391 16.6766 33.583 20 33.583V31.2546C17.4453 31.2546 14.9536 29.9794 12.7073 28.1402C10.4743 26.3118 8.60488 24.0245 7.31761 22.2314L5.42611 23.5893ZM20 33.583C23.3234 33.583 26.3283 31.9391 28.7678 29.9418C31.2206 27.9335 33.2262 25.4666 34.5739 23.5893L32.6824 22.2314C31.3951 24.0245 29.5257 26.3118 27.2927 28.1402C25.0464 29.9794 22.5547 31.2546 20 31.2546V33.583ZM34.5739 16.4115C33.2262 14.5342 31.2206 12.0673 28.7678 10.0591C26.3283 8.06168 23.3234 6.41781 20 6.41781V8.74625C22.5547 8.74625 25.0464 10.0214 27.2927 11.8606C29.5257 13.689 31.3951 15.9763 32.6824 17.7694L34.5739 16.4115ZM20 6.41781C16.6766 6.41781 13.6717 8.06168 11.2322 10.0591C8.77941 12.0673 6.77382 14.5342 5.42611 16.4115L7.31761 17.7694C8.60488 15.9763 10.4743 13.689 12.7073 11.8606C14.9536 10.0214 17.4453 8.74625 20 8.74625V6.41781ZM34.5739 23.5893C35.4344 22.3906 36.1642 21.4419 36.1642 20.0004L33.8358 20.0004C33.8358 20.5569 33.651 20.8822 32.6824 22.2314L34.5739 23.5893ZM32.6824 17.7694C33.651 19.1186 33.8358 19.4439 33.8358 20.0004L36.1642 20.0004C36.1642 18.5589 35.4344 17.6102 34.5739 16.4115L32.6824 17.7694ZM7.31761 22.2314C6.34903 20.8822 6.16422 20.5569 6.16422 20.0004L3.83578 20.0004C3.83578 21.4419 4.56554 22.3906 5.42611 23.5893L7.31761 22.2314ZM5.42611 16.4115C4.56554 17.6102 3.83578 18.5589 3.83578 20.0004L6.16422 20.0004C6.16422 19.4439 6.34903 19.1186 7.31761 17.7694L5.42611 16.4115ZM14.1789 20.0004C14.1789 23.2153 16.7851 25.8215 20 25.8215V23.4931C18.071 23.4931 16.5073 21.9294 16.5073 20.0004H14.1789ZM20 25.8215C23.2149 25.8215 25.8211 23.2153 25.8211 20.0004H23.4927C23.4927 21.9294 21.9289 23.4931 20 23.4931V25.8215ZM25.8211 20.0004C25.8211 16.7855 23.2149 14.1793 20 14.1793V16.5077C21.9289 16.5077 23.4927 18.0715 23.4927 20.0004H25.8211ZM20 14.1793C16.7851 14.1793 14.1789 16.7855 14.1789 20.0004H16.5073C16.5073 18.0715 18.071 16.5077 20 16.5077V14.1793Z" fill="#434343"/>
</svg>
