<svg width="44" height="44" viewBox="0 0 44 44" fill="none" xmlns="http://www.w3.org/2000/svg">
<path d="M31.291 14.207C31.291 16.5542 29.3882 18.457 27.041 18.457V20.957C30.7689 20.957 33.791 17.935 33.791 14.207H31.291ZM27.041 18.457C24.6938 18.457 22.791 16.5542 22.791 14.207H20.291C20.291 17.935 23.3131 20.957 27.041 20.957V18.457ZM22.791 14.207C22.791 11.8598 24.6938 9.95703 27.041 9.95703V7.45703C23.3131 7.45703 20.291 10.4791 20.291 14.207H22.791ZM27.041 9.95703C29.3882 9.95703 31.291 11.8598 31.291 14.207H33.791C33.791 10.4791 30.7689 7.45703 27.041 7.45703V9.95703ZM21.541 26.457H32.541V23.957H21.541V26.457ZM32.541 34.957H21.541V37.457H32.541V34.957ZM21.541 34.957C19.1938 34.957 17.291 33.0542 17.291 30.707H14.791C14.791 34.435 17.8131 37.457 21.541 37.457V34.957ZM36.791 30.707C36.791 33.0542 34.8882 34.957 32.541 34.957V37.457C36.2689 37.457 39.291 34.435 39.291 30.707H36.791ZM32.541 26.457C34.8882 26.457 36.791 28.3598 36.791 30.707H39.291C39.291 26.9791 36.2689 23.957 32.541 23.957V26.457ZM21.541 23.957C17.8131 23.957 14.791 26.9791 14.791 30.707H17.291C17.291 28.3598 19.1938 26.457 21.541 26.457V23.957Z" fill="#656565"/>
<path d="M19.2539 19.0446C18.9648 18.58 18.4222 18.332 17.875 18.332C15.5968 18.332 13.75 16.4852 13.75 14.207C13.75 11.9289 15.5968 10.082 17.875 10.082C18.4222 10.082 18.9648 9.83403 19.2539 9.3695C19.2667 9.34896 19.2796 9.32846 19.2925 9.30803C19.774 8.5481 19.53 7.4721 18.6358 7.37365C18.386 7.34615 18.1322 7.33203 17.875 7.33203C14.078 7.33203 11 10.4101 11 14.207C11 18.004 14.078 21.082 17.875 21.082C18.1322 21.082 18.386 21.0679 18.6358 21.0404C19.53 20.942 19.774 19.866 19.2925 19.106C19.2796 19.0856 19.2667 19.0651 19.2539 19.0446Z" fill="#656565"/>
<path d="M13.6735 33.5796C13.4654 33.2324 13.0981 32.9987 12.6932 32.9987H12.375C10.0968 32.9987 8.25 31.1519 8.25 28.8737C8.25 26.5955 10.0968 24.7487 12.375 24.7487H12.6932C13.0981 24.7487 13.4654 24.515 13.6735 24.1678C14.1815 23.3202 13.6303 21.9987 12.6421 21.9987H12.375C8.57804 21.9987 5.5 25.0767 5.5 28.8737C5.5 32.6707 8.57804 35.7487 12.375 35.7487H12.6421C13.6303 35.7487 14.1815 34.4272 13.6735 33.5796Z" fill="#656565"/>
</svg>
