<svg width="346" height="345" viewBox="0 0 346 345" fill="none" xmlns="http://www.w3.org/2000/svg">
<path d="M306.019 176.988C306.019 218.848 286.69 256.587 255.858 281.166C233.071 299.366 204.188 310.265 172.745 310.265C99.3359 310.265 39.4678 250.759 39.4678 176.988C39.4678 103.218 98.8948 43.7344 172.742 43.7344C246.589 43.7344 306.019 102.991 306.019 176.988Z" fill="#D6DCE8"/>
<rect x="99" y="100.527" width="148.603" height="116.759" rx="14" fill="url(#paint0_linear_10047_494486)"/>
<path d="M224.504 206.67L121.138 206.67C116.284 206.67 113.439 201.206 116.223 197.229L142.517 159.666C144.705 156.54 149.216 156.224 151.819 159.013L179.18 188.328C181.677 191.003 185.966 190.84 188.251 187.982L200.459 172.722C202.861 169.72 207.428 169.72 209.83 172.722L229.19 196.922C232.332 200.85 229.535 206.67 224.504 206.67Z" fill="#D6DCE8"/>
<rect x="183.917" y="121.754" width="31.8435" height="31.8435" rx="15.9217" fill="#D6DCE8"/>
<path d="M289.16 66.9314C287.709 70.1358 289.174 73.9322 292.379 75.3836C295.583 76.835 299.359 75.4149 300.811 72.2076C302.262 69.0032 300.859 65.1841 297.655 63.7327C294.45 62.2813 290.611 63.727 289.16 66.9314Z" fill="#D6DCE8"/>
<path d="M279.74 54.3935C278.815 56.434 279.748 58.8501 281.789 59.7722C283.829 60.6971 286.231 59.7921 287.156 57.7516C288.081 55.7112 287.187 53.2808 285.147 52.3559C283.106 51.431 280.665 52.3531 279.74 54.3907V54.3935Z" fill="#D6DCE8"/>
<path d="M56.6228 61.3455C55.1714 64.5499 56.637 68.3463 59.8415 69.7976C63.0459 71.249 66.8223 69.8289 68.2737 66.6217C69.7251 63.4172 68.3221 59.5981 65.1177 58.1467C61.9132 56.6953 58.0742 58.141 56.6228 61.3455Z" fill="#D6DCE8"/>
<path d="M221.854 85.8336C221.137 85.8336 219.751 85.7539 216.47 85.7539C215.28 85.7539 214.315 84.7892 214.315 83.5996C214.315 82.4101 215.28 81.4453 216.47 81.4453C218.297 81.4453 220.112 81.4738 221.914 81.525C223.103 81.5591 224.037 82.5524 224.006 83.7419C223.969 84.9087 223.012 85.8336 221.854 85.8336Z" fill="#E0E4ED"/>
<path d="M252.336 170.356C252.066 169.198 252.783 168.04 253.944 167.77C257.516 166.936 261.002 165.971 264.314 164.91C265.444 164.545 266.659 165.168 267.024 166.301C267.388 167.434 266.765 168.646 265.632 169.01C262.211 170.109 258.611 171.102 254.926 171.964C253.793 172.232 252.612 171.535 252.339 170.356H252.336ZM273.23 163.987C272.758 162.895 273.262 161.628 274.354 161.156C277.758 159.685 280.96 158.071 283.877 156.363C284.904 155.763 286.224 156.104 286.822 157.132C287.423 158.156 287.081 159.477 286.054 160.077C282.989 161.876 279.625 163.569 276.062 165.112C274.966 165.584 273.7 165.077 273.23 163.99V163.987ZM292.266 153.353C291.498 152.442 291.617 151.084 292.528 150.319C295.377 147.92 297.762 145.381 299.611 142.775C300.3 141.807 301.643 141.576 302.614 142.265C303.584 142.954 303.812 144.297 303.123 145.267C301.063 148.17 298.43 150.979 295.3 153.614C294.389 154.38 293.032 154.263 292.266 153.353ZM305.457 136.286C304.301 136.016 303.581 134.855 303.852 133.699C304.597 130.517 304.626 127.202 303.832 123.881C303.556 122.725 304.27 121.562 305.425 121.285C306.592 121.012 307.745 121.724 308.021 122.879C308.951 126.778 308.96 130.774 308.044 134.681C307.768 135.851 306.601 136.556 305.454 136.286H305.457ZM299.56 114.811C297.705 112.21 295.317 109.677 292.457 107.281C291.546 106.518 291.427 105.158 292.189 104.247C292.955 103.337 294.312 103.214 295.223 103.983C298.359 106.609 300.997 109.413 303.066 112.31C303.755 113.277 303.53 114.623 302.563 115.315C301.584 116.009 300.243 115.776 299.557 114.814L299.56 114.811ZM283.794 101.251C280.877 99.5432 277.673 97.9353 274.266 96.4697C273.173 96.0001 272.67 94.7337 273.139 93.6409C273.609 92.5453 274.875 92.0444 275.971 92.514C279.537 94.0507 282.903 95.7383 285.971 97.534C286.999 98.1345 287.343 99.455 286.742 100.479C286.136 101.513 284.813 101.848 283.797 101.251H283.794ZM264.223 92.7274C260.899 91.663 257.41 90.704 253.853 89.8759C252.695 89.6055 251.972 88.4472 252.245 87.289C252.515 86.1279 253.679 85.4079 254.829 85.6782C258.5 86.532 262.103 87.5252 265.538 88.6237C266.671 88.9851 267.297 90.1974 266.932 91.3329C266.571 92.4627 265.359 93.0917 264.226 92.7274H264.223ZM243.275 87.8155C239.78 87.2634 236.177 86.8137 232.569 86.4836C231.382 86.3755 230.511 85.3282 230.619 84.1415C230.728 82.9576 231.783 82.0725 232.962 82.1949C236.667 82.5336 240.361 82.9917 243.949 83.5609C245.125 83.7459 245.927 84.8501 245.739 86.0254C245.554 87.2036 244.447 88.0004 243.278 87.8155H243.275Z" fill="#E0E4ED"/>
<path d="M255.857 281.168C233.07 299.367 204.188 310.267 172.744 310.267C141.3 310.267 110.113 298.485 86.916 278.928C111.319 269.494 139.123 264.152 168.609 264.152C200.354 264.152 230.122 270.334 255.86 281.168H255.857Z" fill="url(#paint1_linear_10047_494486)"/>
<path d="M129.097 279.75C129.097 281.708 124.35 283.296 118.493 283.296C112.637 283.296 107.893 281.711 107.893 279.75C107.893 277.789 112.639 276.195 118.493 276.195C124.347 276.195 129.097 277.78 129.097 279.75Z" fill="#D6DCE8"/>
<path d="M177.855 272.156C177.855 274.114 173.108 275.702 167.251 275.702C161.394 275.702 156.65 274.117 156.65 272.156C156.65 270.195 161.397 268.602 167.251 268.602C173.105 268.602 177.855 270.187 177.855 272.156Z" fill="#D6DCE8"/>
<path d="M236.767 279.607C236.767 281.645 231.83 283.295 225.737 283.295C219.644 283.295 214.706 281.645 214.706 279.607C214.706 277.569 219.644 275.91 225.737 275.91C231.83 275.91 236.767 277.561 236.767 279.607Z" fill="#D6DCE8"/>
<path d="M129.106 279.746C129.106 280.025 128.998 280.307 128.805 280.565C127.706 278.972 123.506 277.831 118.489 277.831C113.471 277.831 109.291 278.972 108.192 280.565C107.999 280.307 107.891 280.028 107.891 279.746C107.891 277.785 112.629 276.191 118.486 276.191C124.342 276.191 129.104 277.785 129.104 279.746H129.106Z" fill="url(#paint2_linear_10047_494486)"/>
<path d="M177.847 272.164C177.847 272.443 177.739 272.724 177.569 272.983C176.493 271.413 172.292 270.226 167.252 270.226C162.212 270.226 158.012 271.41 156.936 272.983C156.763 272.724 156.657 272.446 156.657 272.164C156.657 270.183 161.396 268.609 167.255 268.609C173.115 268.609 177.85 270.183 177.85 272.164H177.847Z" fill="url(#paint3_linear_10047_494486)"/>
<path d="M236.773 279.597C236.773 279.878 236.688 280.134 236.514 280.416C235.393 278.757 230.979 277.531 225.746 277.531C220.512 277.531 216.076 278.757 214.954 280.416C214.781 280.134 214.695 279.878 214.695 279.597C214.695 277.55 219.65 275.914 225.743 275.914C231.836 275.914 236.771 277.55 236.771 279.597H236.773Z" fill="url(#paint4_linear_10047_494486)"/>
<path d="M65.1352 282.675C65.0043 281.494 65.8581 280.43 67.0391 280.296C70.2464 279.941 73.1378 278.794 75.8868 276.787C76.8487 276.082 78.1948 276.295 78.8978 277.254C79.5978 278.213 79.3901 279.562 78.4282 280.262C75.0587 282.724 71.49 284.135 67.5172 284.576C66.2935 284.702 65.2661 283.822 65.1381 282.673L65.1352 282.675ZM56.0712 283.504C51.7398 282.357 49.1985 281.329 45.8774 277.547C45.0919 276.654 45.1801 275.293 46.0766 274.508C46.9673 273.725 48.3305 273.811 49.1159 274.704C50.8377 276.668 52.4854 277.866 54.3039 278.475C55.2943 278.808 56.2505 279.095 57.1725 279.34C58.3223 279.645 59.0081 280.823 58.7065 281.972C58.4105 283.097 57.2579 283.814 56.074 283.504H56.0712ZM83.3914 272.61C82.4807 271.844 82.3668 270.484 83.1324 269.576C85.5997 266.619 87.939 263.748 90.3808 261.346C91.226 260.512 92.5891 260.52 93.4258 261.371C94.2597 262.219 94.2483 263.583 93.4002 264.416C91.1577 266.622 89.0318 269.229 86.425 272.353C85.6538 273.264 84.2963 273.375 83.3914 272.61ZM39.2864 268.574C37.3085 265.35 35.8315 261.818 34.8952 258.076C34.6049 256.923 35.305 255.751 36.4604 255.463C37.6187 255.184 38.7855 255.873 39.0729 257.029C39.9039 260.347 41.213 263.472 42.9604 266.32C43.5836 267.336 43.262 268.662 42.2489 269.283C41.2329 269.906 39.9039 269.582 39.2864 268.574ZM98.554 257.43C97.817 256.496 97.9763 255.142 98.9126 254.405C101.787 252.139 104.624 249.843 107.291 247.686C108.221 246.937 109.576 247.082 110.319 248.007C111.067 248.932 110.925 250.29 110 251.038C107.126 253.36 104.325 255.628 101.579 257.791C101.184 258.101 99.294 258.372 98.554 257.433V257.43ZM35.8059 249.029C34.6163 248.983 33.6914 247.982 33.737 246.792C33.8849 243.01 34.548 239.259 35.7091 235.645C36.0763 234.512 37.2829 233.886 38.4212 234.256C39.5539 234.62 40.1743 235.833 39.8129 236.965C38.7684 240.204 38.1736 243.568 38.0427 246.96C37.9944 248.201 36.9044 249.106 35.8059 249.029ZM284.954 246.433C283.358 246.433 283.702 245.474 275.315 239.214C274.362 238.502 274.166 237.153 274.88 236.2C275.592 235.246 276.94 235.05 277.894 235.762C280.805 237.936 283.662 240.258 286.383 242.666C287.857 243.972 286.932 246.433 284.954 246.433ZM115.364 243.969C114.633 243.033 114.798 241.678 115.737 240.947C118.91 238.468 121.756 236.339 124.437 234.438C125.407 233.75 126.751 233.98 127.439 234.948C128.128 235.918 127.9 237.261 126.93 237.95C124.303 239.814 121.509 241.906 118.387 244.342C117.45 245.073 116.096 244.908 115.364 243.969ZM266.576 233.232C263.585 231.362 260.489 229.6 257.375 227.992C256.317 227.449 255.904 226.148 256.448 225.092C256.991 224.034 258.289 223.621 259.347 224.165C262.569 225.824 265.768 227.645 268.858 229.58C269.866 230.209 270.173 231.538 269.541 232.549C268.909 233.562 267.575 233.861 266.573 233.232H266.576ZM132.835 231.387C132.22 230.369 132.551 229.045 133.569 228.431C136.669 226.564 139.91 224.805 143.191 223.2C144.258 222.679 145.548 223.12 146.074 224.187C146.595 225.258 146.154 226.547 145.087 227.07C141.913 228.621 138.786 230.32 135.792 232.122C134.782 232.731 133.453 232.415 132.838 231.387H132.835ZM41.2045 228.416C40.1999 227.779 39.9011 226.45 40.5385 225.445C42.4851 222.369 44.8386 219.424 47.528 216.686C48.3589 215.838 49.7249 215.826 50.573 216.66C51.4211 217.494 51.4325 218.857 50.5986 219.705C48.1227 222.224 45.9627 224.93 44.1784 227.748C43.5409 228.755 42.2062 229.048 41.2073 228.414L41.2045 228.416ZM247.773 223.539C244.521 222.193 241.177 220.975 237.83 219.913C236.697 219.554 236.068 218.345 236.427 217.209C236.786 216.077 237.989 215.439 239.13 215.806C242.594 216.902 246.052 218.163 249.421 219.557C250.52 220.013 251.04 221.27 250.585 222.372C250.135 223.462 248.883 223.997 247.773 223.539ZM151.993 221.601C151.564 220.494 152.116 219.244 153.223 218.815C156.604 217.505 160.093 216.322 163.587 215.294C164.746 214.958 165.93 215.613 166.26 216.754C166.595 217.895 165.941 219.091 164.803 219.426C161.422 220.42 158.047 221.566 154.78 222.833C153.655 223.265 152.417 222.699 151.993 221.601ZM227.625 217.164C225.718 216.785 222.792 216.06 217.206 215.317C216.028 215.16 215.197 214.079 215.356 212.898C215.513 211.717 216.591 210.892 217.775 211.045C223.538 211.808 227.497 212.747 228.552 212.955C229.714 213.208 230.448 214.358 230.192 215.519C229.936 216.689 228.774 217.417 227.625 217.161V217.164ZM172.532 215.192C172.293 214.028 173.044 212.887 174.208 212.648C177.768 211.916 181.402 211.321 185.008 210.886C186.203 210.744 187.262 211.586 187.407 212.764C187.549 213.945 186.707 215.018 185.526 215.16C182.037 215.584 178.52 216.156 175.076 216.865C173.943 217.104 172.779 216.378 172.532 215.189V215.192ZM206.668 214.375C203.136 214.21 199.61 214.199 196.078 214.329C194.954 214.375 193.89 213.447 193.847 212.258C193.802 211.068 194.73 210.069 195.919 210.024C199.57 209.887 203.227 209.904 206.864 210.072C208.054 210.126 208.973 211.136 208.916 212.323C208.865 213.456 207.929 214.415 206.665 214.375H206.668ZM55.5219 212.5C54.8418 211.526 55.0751 210.183 56.0513 209.5C59.0536 207.397 62.2865 205.513 65.656 203.905C66.7232 203.39 68.0124 203.848 68.5275 204.921C69.0397 205.994 68.5872 207.28 67.5115 207.793C64.3555 209.301 61.3332 211.062 58.5243 213.029C57.5567 213.709 56.2135 213.481 55.5219 212.5ZM74.5521 202.587C74.1993 201.452 74.8339 200.245 75.9694 199.892C79.3872 198.831 82.9958 197.96 86.6954 197.306C87.8793 197.101 88.9863 197.88 89.1912 199.05C89.3989 200.223 88.6163 201.338 87.4467 201.546C83.9235 202.169 80.4943 202.997 77.2472 204.005C76.1117 204.358 74.9022 203.723 74.5521 202.587ZM95.6086 198.285C95.5318 197.098 96.431 196.073 97.6178 195.994C101.195 195.76 104.917 195.701 108.597 195.826C109.787 195.866 110.714 196.862 110.675 198.051C110.638 199.241 109.676 200.177 108.449 200.132C104.917 200.015 101.337 200.066 97.8995 200.294C96.7156 200.371 95.6883 199.474 95.6086 198.285Z" fill="#E0E4ED"/>
<path d="M153.999 35.8272L208.571 58.1273L222.59 51.1976C224.59 50.2101 224.155 47.2504 221.961 46.8748C152.229 35.147 155.351 34.8824 154.002 35.83L153.999 35.8272Z" fill="url(#paint5_linear_10047_494486)"/>
<path d="M153.188 38.8083L171.173 74.0798C171.725 75.1982 173.097 75.6621 174.235 75.1014L192.549 66.0488L153.307 36.5117C152.892 37.152 152.789 38.0029 153.188 38.8083Z" fill="url(#paint6_linear_10047_494486)"/>
<path d="M153.307 36.5111L192.548 66.0482L203.237 79.7737C204.353 81.2052 206.644 80.525 206.8 78.7179L208.567 58.1282L153.995 35.8281C153.719 36.0103 153.489 36.2379 153.307 36.5111Z" fill="url(#paint7_linear_10047_494486)"/>
<path d="M181.233 71.6439L200.858 81.2942C202.93 82.2846 204.47 80.7848 205.477 80.4234C204.726 80.7051 203.81 80.5201 203.235 79.7831L192.551 66.0547L181.233 71.6439Z" fill="url(#paint8_linear_10047_494486)"/>
<defs>
<linearGradient id="paint0_linear_10047_494486" x1="169.182" y1="39.6754" x2="176.043" y2="264.943" gradientUnits="userSpaceOnUse">
<stop stop-color="#F2F5FB"/>
<stop offset="1" stop-color="white"/>
</linearGradient>
<linearGradient id="paint1_linear_10047_494486" x1="170.476" y1="305.389" x2="172.229" y2="256.557" gradientUnits="userSpaceOnUse">
<stop stop-color="#D6DCE8"/>
<stop offset="1" stop-color="white"/>
</linearGradient>
<linearGradient id="paint2_linear_10047_494486" x1="107.891" y1="278.377" x2="129.106" y2="278.377" gradientUnits="userSpaceOnUse">
<stop stop-color="#989FB0"/>
<stop offset="1" stop-color="#AAB2C5"/>
</linearGradient>
<linearGradient id="paint3_linear_10047_494486" x1="156.654" y1="270.795" x2="177.847" y2="270.795" gradientUnits="userSpaceOnUse">
<stop stop-color="#989FB0"/>
<stop offset="1" stop-color="#AAB2C5"/>
</linearGradient>
<linearGradient id="paint4_linear_10047_494486" x1="214.698" y1="278.165" x2="236.773" y2="278.165" gradientUnits="userSpaceOnUse">
<stop stop-color="#989FB0"/>
<stop offset="1" stop-color="#AAB2C5"/>
</linearGradient>
<linearGradient id="paint5_linear_10047_494486" x1="170.488" y1="33.818" x2="194.404" y2="44.0659" gradientUnits="userSpaceOnUse">
<stop stop-color="#D6DCE8"/>
<stop offset="1" stop-color="white"/>
</linearGradient>
<linearGradient id="paint6_linear_10047_494486" x1="161.327" y1="55.1976" x2="185.243" y2="65.4483" gradientUnits="userSpaceOnUse">
<stop stop-color="#D6DCE8"/>
<stop offset="1" stop-color="white"/>
</linearGradient>
<linearGradient id="paint7_linear_10047_494486" x1="208.567" y1="58.1851" x2="153.307" y2="58.1851" gradientUnits="userSpaceOnUse">
<stop stop-color="#989FB0"/>
<stop offset="1" stop-color="#AAB2C5"/>
</linearGradient>
<linearGradient id="paint8_linear_10047_494486" x1="205.474" y1="73.8438" x2="181.233" y2="73.8438" gradientUnits="userSpaceOnUse">
<stop stop-color="#D6DCE8"/>
<stop offset="1" stop-color="white"/>
</linearGradient>
</defs>
</svg>
