<svg width="40" height="40" viewBox="0 0 40 40" fill="none" xmlns="http://www.w3.org/2000/svg">
<path d="M20.0008 38C22.5064 38 24.9023 37.5452 27.0962 36.7178H12.8996C15.0934 37.5452 17.4894 38 19.995 38H20.0008Z" fill="#34C759"/>
<path d="M28.3202 36.2082C28.9841 35.9069 29.6307 35.5671 30.2485 35.1945H9.7531C10.3708 35.5671 11.0175 35.9069 11.6814 36.2082H28.3202Z" fill="#34C759"/>
<path d="M8.53492 34.4055H31.4666C31.8246 34.1534 32.171 33.8904 32.5116 33.611H7.48995C7.83057 33.8849 8.17698 34.1479 8.53492 34.4055Z" fill="#34C759"/>
<path d="M20.0008 27.1562C18.0552 28.9151 15.4225 30 12.5185 30H4.08945C4.3377 30.3452 4.5975 30.6849 4.86885 31.0137H13.0266C15.6881 31.0137 18.1187 30.1041 20.0066 28.5973C21.8944 30.1041 24.325 31.0137 26.9865 31.0137H35.1443C35.4156 30.6849 35.6754 30.3452 35.9237 30H27.4888C24.5906 30 21.9522 28.9205 20.0066 27.1562H20.0008Z" fill="#34C759"/>
<path d="M6.31219 32.5644H33.6952C33.8684 32.4 34.0358 32.2301 34.2032 32.0548H5.80413C5.97156 32.2247 6.13899 32.3945 6.31219 32.5644Z" fill="#34C759"/>
<path d="M27.1135 28.3507C26.3457 28.3507 25.5951 28.274 24.8735 28.1315C25.2661 28.1753 25.6702 28.1973 26.0743 28.1973C30.6988 28.1973 34.6478 25.4466 36.2008 21.5781C34.6939 20.9863 33.0485 20.6575 31.3165 20.6575C28.2047 20.6575 25.3584 21.7151 23.1415 23.474C25.4566 21.1781 28.7185 19.7425 32.3326 19.737C32.5636 19.3151 32.8696 18.9315 33.2333 18.6082C33.0428 18.6027 32.8465 18.5918 32.6559 18.5918C29.0303 18.5918 25.7568 20.0329 23.4359 22.3397C24.7696 20.6301 25.5605 18.5205 25.5605 16.2301C25.5605 14.389 25.0525 12.663 24.1576 11.1726C23.9613 11.7973 23.6091 12.3562 23.153 12.8219C23.817 14.1534 24.1922 15.6438 24.1922 17.2164C24.1922 19.5836 23.3493 21.7644 21.9348 23.5014C23.0895 21.8685 23.7592 19.9014 23.7592 17.7863C23.7592 14.674 22.3043 11.8849 20.0008 10C17.703 11.8849 16.2423 14.674 16.2423 17.7863C16.2423 19.9014 16.9178 21.863 18.0667 23.5014C16.6522 21.7644 15.8093 19.5836 15.8093 17.2164C15.8093 15.6438 16.1846 14.1534 16.8485 12.8219C16.3867 12.3616 16.0403 11.7973 15.844 11.1726C14.9549 12.6685 14.4411 14.3945 14.4411 16.2301C14.4411 18.5205 15.232 20.6356 16.5656 22.3452C14.2448 20.0329 10.9713 18.5918 7.34561 18.5918C7.14932 18.5918 6.9588 18.5973 6.76828 18.6082C7.132 18.9315 7.43799 19.3096 7.66892 19.737C11.283 19.737 14.545 21.1781 16.8601 23.474C14.6489 21.7151 11.7969 20.6575 8.68503 20.6575C6.95303 20.6575 5.30762 20.9863 3.80078 21.5781C5.35381 25.4466 9.30278 28.1973 13.9272 28.1973C14.3314 28.1973 14.7355 28.1753 15.1281 28.1315C14.4064 28.274 13.6559 28.3507 12.888 28.3507C9.96094 28.3507 7.31097 27.2493 5.35958 25.463C4.95545 25.611 4.51668 25.7041 4.06058 25.7315C6.04661 27.863 8.9506 29.211 12.1837 29.211C14.5334 29.211 16.7042 28.4986 18.4824 27.2932C18.5113 27.2712 18.5459 27.2493 18.5748 27.2274C18.5921 27.2164 18.6152 27.2 18.6325 27.189C18.8692 27.0247 19.0944 26.8493 19.3138 26.663C19.3253 26.6521 19.3368 26.6466 19.3426 26.6411C19.5678 26.4548 19.7814 26.2575 19.9892 26.0493C20.1971 26.2521 20.4107 26.4548 20.6358 26.6411C20.6474 26.6521 20.6589 26.6575 20.6647 26.663C20.8841 26.8438 21.115 27.0192 21.346 27.189C21.3633 27.2 21.3864 27.2164 21.4037 27.2274C21.4326 27.2493 21.4672 27.2712 21.4961 27.2932C23.2685 28.4986 25.445 29.211 27.7948 29.211C31.0279 29.211 33.9319 27.8685 35.9179 25.7315C35.4618 25.7041 35.0288 25.6164 34.6189 25.463C32.6675 27.2493 30.0175 28.3507 27.0904 28.3507H27.1135Z" fill="#34C759"/>
<path d="M10.7346 8.65205L11.2542 10.263L11.8315 8.67397L13.6039 8.70137L12.1894 7.68767L12.761 6.09863L11.3119 7.06301L9.89743 6.05479L10.417 7.66027L8.96792 8.62466L10.7346 8.65205Z" fill="#34C759"/>
<path d="M4.58596 15.3534L6.13321 14.537L7.42644 15.6822L7.09159 14.0329L8.63884 13.2164L6.88375 13.0137L6.54312 11.3644L5.79836 12.8877L4.03749 12.6795L5.33072 13.8301L4.58596 15.3534Z" fill="#34C759"/>
<path d="M28.1701 8.67397L28.7474 10.263L29.267 8.65205L31.0394 8.62466L29.5845 7.66027L30.1041 6.05479L28.6897 7.06301L27.2406 6.09863L27.8179 7.68767L26.4034 8.70137L28.1701 8.67397Z" fill="#34C759"/>
<path d="M32.5751 15.6822L33.8684 14.537L35.4156 15.3534L34.6708 13.8301L35.9641 12.6795L34.209 12.8877L33.4584 11.3644L33.1178 13.0137L31.3627 13.2164L32.91 14.0329L32.5751 15.6822Z" fill="#34C759"/>
<path d="M17.9282 8.04932L20.0008 6.61918L22.0734 8.04932L21.2825 5.73699L23.3493 4.31233H20.7917L20.0008 2L19.2098 4.31233H16.6522L18.7191 5.73699L17.9282 8.04932Z" fill="#34C759"/>
</svg>
