<svg width="44" height="44" viewBox="0 0 44 44" fill="none" xmlns="http://www.w3.org/2000/svg">
<path d="M21.7441 2.25L21.2378 2.29471L20.2262 2.34176L19.2149 2.47824L18.7102 2.57141L18.2036 2.66318L17.7436 2.75659L17.2389 2.89494L16.3192 3.16976L15.3994 3.44647L14.4796 3.81471L13.6067 4.22765L12.7338 4.68577L12.3168 4.91753L11.9055 5.14741L11.4905 5.42224L11.0773 5.65212L10.2961 6.25047L9.92577 6.52506L9.51447 6.80176L8.82482 7.44482L8.13494 8.13471L7.76671 8.45612L7.44506 8.82435L7.12365 9.146L6.80012 9.51424L6.24859 10.2954L5.65047 11.0771L5.14765 11.9053L4.91588 12.3201L4.68577 12.7333L4.226 13.6062L3.81282 14.4792L3.49141 15.3989L3.16976 16.3187L2.89306 17.2382L2.66318 18.2048L2.478 19.2161L2.33965 20.2274L2.29494 21.2387L2.25 22.25V22.7547L2.29471 23.2613L2.33965 24.3175L2.478 25.2839L2.57165 25.7905L2.66318 26.2952L2.75659 26.7552L2.89306 27.2599L3.16976 28.1813L3.49141 29.146L3.81282 30.0189L4.226 30.9406L4.68577 31.7667L4.91588 32.2267L5.14765 32.6396L5.42247 33.0528L5.65047 33.4211L6.24859 34.2025L6.52529 34.6156L6.80012 34.9839L7.44506 35.7204L8.13494 36.4102L8.45659 36.7316L8.82482 37.0533L9.14623 37.3747L9.51447 37.6982L10.2959 38.2964L11.0773 38.8479L11.9055 39.3526L12.3168 39.5825L12.7338 39.8592L13.6067 40.2724L14.4796 40.6853L15.3996 41.0535L16.3192 41.3752L17.2392 41.6051L18.2036 41.8349L19.2149 42.0182L20.2262 42.1566L21.2378 42.25H23.0773L23.8585 42.2032L24.642 42.1116L25.0533 42.0648L25.4215 42.0182L26.2027 41.8818L26.9394 41.6966L27.7208 41.5135L28.4556 41.2836L29.1474 41.0069L29.882 40.7321L30.5698 40.4554L31.2615 40.134L31.9495 39.7658L32.5942 39.3992L33.2394 38.9862L33.8356 38.5712L34.434 38.1114L35.0302 37.6514L35.5818 37.1448L36.1352 36.6401L36.6867 36.0886L37.1933 35.582L37.698 34.9839L38.1578 34.3876L38.5728 33.7893L39.0309 33.1912L39.3992 32.5481L39.8124 31.8585L40.1357 31.2135L40.4573 30.5236L40.7787 29.834L41.0535 29.0992H38.2495L38.6644 30.0658L34.3422 36.3634H10.7093L6.06529 30.5724L16.2724 4.22765L22.0655 18.0215L27.5841 4.08953L32.8709 16.4568H41.4215L41.1467 15.7204L40.8702 14.9408L40.5954 14.2044L40.2269 13.5147L39.9055 12.7782L39.4905 12.0884L39.0773 11.4453L38.6641 10.8022L38.1575 10.1573L37.9276 9.83565L37.6978 9.51424L37.1931 8.91612L36.6415 8.36459L36.0881 7.81306L35.4919 7.26177L34.8935 6.75518L34.2973 6.29706L33.6502 5.83541L33.0074 5.37541L32.3175 4.96435L31.6295 4.59424L30.9399 4.22765L30.2034 3.90624L29.4686 3.58294L29.1004 3.44647L28.7338 3.30623L27.9505 3.078L27.1693 2.84812L26.3876 2.66318L25.5594 2.52671L24.7782 2.38835L23.95 2.34153L23.0771 2.25H21.7441ZM20.5947 30.3406H31.6747L26.0196 16.642L20.5947 30.3406ZM9.238 30.3406H20.3199L14.6648 16.642L9.238 30.3406ZM33.3291 17.5599L33.6992 18.3881H41.8818L41.6985 17.5599H33.3291ZM34.1573 19.4909L34.4806 20.3192H42.1582L42.0667 19.4909H34.1573ZM34.9855 21.422L35.3088 22.25H42.25V21.4218H34.9855V21.422ZM35.7667 23.3547L36.1352 24.1811H42.1585L42.25 23.3547H35.7669H35.7667ZM36.5949 25.2841L36.9632 26.1121H41.8818L42.0201 25.2839H36.5949V25.2841ZM37.4232 27.2149L37.7895 27.9961H41.4218L41.6519 27.2149H37.4232Z" fill="#E50113"/>
</svg>
