<svg width="60" height="60" viewBox="0 0 60 60" fill="none" xmlns="http://www.w3.org/2000/svg">
<g clip-path="url(#clip0_6347_218600)">
<path d="M8.79062 26.0878L14.179 44.3819L19.8742 47.6036H34.314L45.8197 44.3819C45.8197 44.3819 50.0575 29.9133 51.007 26.7208L51.2081 26.0878C51.3231 25.6852 51.2658 25.2537 51.0358 24.8799L47.6702 23.499L39.2327 26.7781L32.8181 15.8477H27.1806L20.766 26.7781L12.3285 23.499L8.79062 26.0878Z" fill="#FFD400"/>
<path d="M8.79127 26.0878L14.1797 44.3819L19.8748 47.6036H30V15.8477H27.1813L20.7666 26.7781L12.3291 23.499L8.79127 26.0878Z" fill="#FFC04B"/>
<path d="M45.8203 44.3828V48.6974C45.8203 49.5027 45.1877 50.1357 44.3821 50.1357H15.6179C14.8123 50.1357 14.1797 49.5027 14.1797 48.6974V44.3828H45.8203Z" fill="#FFC04B"/>
<path d="M29.9998 9.86523C32.3875 9.86523 34.3145 11.7922 34.3145 14.1799C34.3145 16.6248 32.301 18.4945 29.9998 18.4945C27.6122 18.4945 25.6852 16.5387 25.6852 14.1799C25.6852 11.7922 27.6122 9.86523 29.9998 9.86523Z" fill="#FFC04B"/>
<path d="M9.76935 27.1234C10.9855 27.1234 12.0461 26.65 12.8282 25.8676C13.6585 24.9927 14.084 23.9451 14.084 22.8088C14.084 20.4297 12.1484 18.4941 9.76935 18.4941C7.39031 18.4941 5.45472 20.4297 5.45472 22.8088C5.45472 25.1878 7.39031 27.1234 9.76935 27.1234Z" fill="#FF9F00"/>
<path d="M50.2303 27.1234C52.6093 27.1234 54.5449 25.1878 54.5449 22.8088C54.5449 20.4297 52.6093 18.4941 50.2303 18.4941C47.8513 18.4941 45.9157 20.4297 45.9157 22.8088C45.9157 25.2155 47.8531 27.1234 50.2303 27.1234Z" fill="#FDBF00"/>
<path d="M30 18.4945V9.86523C27.6123 9.86523 25.6854 11.7922 25.6854 14.1799C25.6854 16.5387 27.6123 18.4945 30 18.4945Z" fill="#FF9F00"/>
<path d="M14.1797 44.3828V48.6974C14.1797 49.5027 14.8123 50.1357 15.6179 50.1357H30V44.3828H14.1797Z" fill="#FF9F00"/>
<path d="M34.9401 30.6874C34.9401 31.4147 34.7874 32.0402 34.482 32.5638C34.191 33.0874 33.7983 33.5238 33.3038 33.8729C32.8238 34.2074 32.2856 34.4547 31.6892 34.6147V34.6802C32.8674 34.8256 33.7692 35.2038 34.3947 35.8147C35.0347 36.4256 35.3547 37.262 35.3547 38.3238C35.3547 39.1965 35.1365 39.9965 34.7001 40.7238C34.2783 41.4365 33.6165 42.0038 32.7147 42.4256C31.8274 42.8329 30.671 43.0365 29.2456 43.0365C28.3147 43.0365 27.5147 42.9638 26.8456 42.8184C26.1765 42.6729 25.522 42.462 24.882 42.1856V39.0656C25.522 39.4147 26.1765 39.6765 26.8456 39.8511C27.5147 40.0111 28.1256 40.0911 28.6783 40.0911C29.6383 40.0911 30.2929 39.9165 30.642 39.5675C31.0056 39.2184 31.1874 38.7238 31.1874 38.0838C31.1874 37.6911 31.1001 37.3565 30.9256 37.0802C30.751 36.8038 30.4383 36.5929 29.9874 36.4474C29.551 36.302 28.911 36.2293 28.0674 36.2293H27.1729V33.4147H28.0892C28.831 33.4147 29.4201 33.3347 29.8565 33.1747C30.3074 33.0147 30.6274 32.7965 30.8165 32.5202C31.0056 32.2293 31.1001 31.902 31.1001 31.5384C31.1001 31.0438 30.9474 30.6656 30.642 30.4038C30.351 30.142 29.9583 30.0111 29.4638 30.0111C29.0274 30.0111 28.6129 30.0765 28.2201 30.2074C27.8274 30.3384 27.4856 30.4838 27.1947 30.6438C26.9038 30.8038 26.6856 30.9493 26.5401 31.0802L24.9038 28.5711C25.3256 28.2802 25.7692 28.0184 26.2347 27.7856C26.7147 27.5384 27.2601 27.3493 27.871 27.2184C28.4965 27.0874 29.231 27.022 30.0747 27.022C31.5874 27.022 32.7729 27.3493 33.631 28.0038C34.5038 28.6438 34.9401 29.5384 34.9401 30.6874Z" fill="#762B00"/>
</g>
<defs>
<clipPath id="clip0_6347_218600">
<rect width="49.0909" height="49.0909" fill="white" transform="matrix(-1 0 0 1 54.5449 5.45508)"/>
</clipPath>
</defs>
</svg>
