<svg width="40" height="40" viewBox="0 0 40 40" fill="none" xmlns="http://www.w3.org/2000/svg">
<path d="M14.3125 14.002L19.1125 20.3943L23.8894 14.002" stroke="#FF8F28" stroke-width="2.5" stroke-linecap="round" stroke-linejoin="round"/>
<path d="M19.0059 20.9219L19.0059 31.6911" stroke="#FF8F28" stroke-width="2.5" stroke-linecap="round" stroke-linejoin="round"/>
<path d="M14.6982 27.3828H23.3136" stroke="#FF8F28" stroke-width="2.5" stroke-linecap="round" stroke-linejoin="round"/>
<path d="M12.5439 21.998H25.467" stroke="#FF8F28" stroke-width="2.5" stroke-linecap="round" stroke-linejoin="round"/>
<path d="M19 5.75211C18.9762 5.752 18.9525 5.75195 18.9287 5.75195C9.95408 5.75195 2.67871 13.0273 2.67871 22.002C2.67871 30.9766 9.95408 38.252 18.9287 38.252C27.9033 38.252 35.1787 30.9766 35.1787 22.002C35.1787 22.002 35.1787 20.5 34 20.5C32.6787 20.5 32.6787 22.002 32.6787 22.002C32.6787 29.5959 26.5226 35.752 18.9287 35.752C11.3348 35.752 5.17871 29.5959 5.17871 22.002C5.17871 14.408 11.3348 8.25195 18.9287 8.25195C18.9525 8.25195 18.9763 8.25201 19 8.25213C19 8.25213 20.5 8.24789 20.5 7C20.5 5.75211 19 5.75211 19 5.75211Z" fill="#FF8F28"/>
<path d="M26 9H36" stroke="#FF8F28" stroke-width="2.5" stroke-linecap="round"/>
<path d="M31 4L31 14" stroke="#FF8F28" stroke-width="2.5" stroke-linecap="round"/>
</svg>
