<svg width="80" height="80" viewBox="0 0 80 80" fill="none" xmlns="http://www.w3.org/2000/svg">
<path d="M61.9078 39.9932V72.0177C61.9078 73.1337 61.0309 74.0109 59.9146 74.0109H20.0499C18.9335 74.0109 18.0566 73.1337 18.0566 72.0177V43.1025C18.0566 42.385 18.4552 41.7473 19.0533 41.3883L24.4349 38.279C24.7539 38.0796 25.1127 38 25.4315 38H34.0025L39.9822 43.1025L45.9619 38H59.9146C61.0309 38 61.9078 38.8769 61.9078 39.9932Z" fill="#E63950"/>
<path d="M61.908 39.9932V72.0177C61.908 73.1337 61.0311 74.0109 59.9148 74.0109H39.9824V43.1025L45.9621 38H59.9148C61.0311 38 61.908 38.8769 61.908 39.9932Z" fill="#D0004F"/>
<path d="M41.3378 9.98794C40.9789 9.34998 40.5005 8.75215 39.9823 8.31337C39.0255 7.31676 37.8297 6.6392 36.5141 6.28055C34.441 5.72245 32.2884 6.0015 30.4545 7.07771C27.9031 8.55296 26.3884 11.3033 26.468 14.2534C26.5079 14.6521 26.7072 20.5786 26.7072 20.5786C26.2687 20.3394 21.7241 17.5089 21.7241 17.5089C21.2059 17.2697 17.6182 14.5589 13.1932 17.15C11.3593 18.2265 10.0437 19.9405 9.48551 21.9737C8.92753 24.0468 9.20672 26.1994 10.2828 28.0333C12.4754 31.8601 17.3789 33.1358 21.166 30.9432L26.2979 27.9802L19.1486 27.5036C18.5474 27.8467 17.8699 28.0273 17.1843 28.0273C15.7594 28.0273 14.4398 27.2701 13.7409 26.0496C13.1843 25.1016 13.0518 24.0622 13.334 23.0111C13.6124 22.0008 14.28 21.1347 15.2105 20.5896C15.8607 20.2081 16.4796 20.0232 17.1006 20.0232C18.1323 20.0232 18.9867 20.5273 19.4442 20.7979L19.6973 20.9419C20.3221 21.3312 24.3747 23.846 24.7952 24.0758L24.945 24.1575L24.9112 24.177L24.9663 24.1794L29.7501 26.9699L30.6803 20.8574L30.7032 20.785L30.6913 20.4417C30.6913 20.4417 30.4752 14.2623 30.4324 13.8458C30.411 12.6506 31.1779 11.2647 32.4491 10.5289C33.07 10.1649 33.7241 9.98582 34.4131 9.98582C34.7673 9.98582 35.1254 10.0345 35.4797 10.1299C36.1201 10.305 36.6748 10.6243 37.107 11.0758L37.4068 11.3581C37.5197 11.4515 37.7046 11.6599 37.8603 11.9381C38.8141 13.5498 38.5202 15.6883 37.2082 16.9574C36.9922 17.154 36.7079 17.3682 36.4491 17.5161L36.2509 17.6305L35.7185 22.5409L38.4272 20.977C38.9853 20.6581 39.5036 20.2594 39.9819 19.821C42.5336 17.3496 43.2512 13.217 41.3378 9.98794Z" fill="#FED843"/>
<path d="M34.002 38.0078V60.0661C34.002 60.8634 34.4803 61.581 35.2378 61.8998C35.9553 62.2188 36.8325 62.0594 37.3903 61.4613L39.9817 58.9099L42.573 61.4613C43.131 62.0594 44.0081 62.2187 44.7256 61.8998C45.483 61.581 45.9614 60.8636 45.9614 60.0661V38.0078H34.002Z" fill="#FED843"/>
<path d="M72.0072 30.0294H70.014V28.0362C70.014 26.9345 69.1225 26.043 68.0207 26.043C66.919 26.043 66.0275 26.9345 66.0275 28.0362V30.0294H64.0343C62.9325 30.0294 62.041 30.9209 62.041 32.0226C62.041 33.1244 62.9325 34.0159 64.0343 34.0159H66.0275V36.0091C66.0275 37.1108 66.919 38.0023 68.0207 38.0023C69.1225 38.0023 70.014 37.1108 70.014 36.0091V34.0159H72.0072C73.1089 34.0159 74.0004 33.1244 74.0004 32.0226C74.0004 30.9209 73.1089 30.0294 72.0072 30.0294Z" fill="#FFB64C"/>
<path d="M63.9014 22.0509C65.0023 22.0509 65.8947 21.1585 65.8947 20.0577C65.8947 18.9568 65.0023 18.0645 63.9014 18.0645C62.8006 18.0645 61.9082 18.9568 61.9082 20.0577C61.9082 21.1585 62.8006 22.0509 63.9014 22.0509Z" fill="#FFB64C"/>
<path d="M55.9288 34.0099C57.0296 34.0099 57.922 33.1175 57.922 32.0167C57.922 30.9158 57.0296 30.0234 55.9288 30.0234C54.8279 30.0234 53.9355 30.9158 53.9355 32.0167C53.9355 33.1175 54.8279 34.0099 55.9288 34.0099Z" fill="#FFB64C"/>
<path d="M39.9824 38H45.9621V60.0583C45.9621 60.8556 45.4838 61.5732 44.7263 61.892C44.0088 62.211 43.1316 62.0516 42.5738 61.4535L39.9824 58.9021V38Z" fill="#FFB64C"/>
<path d="M39.9824 19.8241V8.31641C40.5007 8.75505 40.979 9.35288 41.338 9.99085C43.2513 13.2199 42.5338 17.3526 39.9824 19.8241Z" fill="#FFB64C"/>
<path d="M57.2435 21.6519L51.2638 11.2871C50.7057 10.3304 49.4699 10.0114 48.5132 10.5695L39.9821 15.5127L38.84 16.1716L16.173 29.2499L7.09371 34.4883C6.13695 35.0066 5.68515 36.2424 6.24326 37.1991L12.3559 47.5639C12.914 48.5208 14.1099 48.8396 15.0667 48.2813L39.9821 33.8904L56.4861 24.3626C57.4429 23.8048 57.7619 22.6089 57.2435 21.6519Z" fill="#FF641A"/>
<path d="M56.4864 24.3626L39.9824 33.8902V15.5127L48.5135 10.5695C49.4702 10.0114 50.706 10.3304 51.2641 11.2871L57.2438 21.6517C57.7622 22.6089 57.4432 23.8047 56.4864 24.3626Z" fill="#E63950"/>
</svg>
