<svg width="44" height="44" viewBox="0 0 44 44" fill="none" xmlns="http://www.w3.org/2000/svg">
<path d="M7.44563 37.0634L8.18036 36.0521H8.18036L7.44563 37.0634ZM5.41767 35.0354L4.4064 35.7701H4.4064L5.41767 35.0354ZM32.8884 37.0634L32.1536 36.0521H32.1536L32.8884 37.0634ZM34.9163 35.0354L33.905 34.3007V34.3007L34.9163 35.0354ZM5.41767 9.59267L4.4064 8.85793H4.4064L5.41767 9.59267ZM7.44563 7.56471L8.18036 8.57598L7.44563 7.56471ZM16.5153 7.07715C17.2056 7.06888 17.7585 6.50256 17.7502 5.81226C17.742 5.12195 17.1756 4.56906 16.4853 4.57733L16.5153 7.07715ZM37.9037 25.9957C37.912 25.3054 37.3591 24.7391 36.6688 24.7308C35.9785 24.7225 35.4121 25.2754 35.4039 25.9657L37.9037 25.9957ZM21.6292 29.6555L21.4911 28.4132L21.6292 29.6555ZM14.0762 29.1102L13.1924 29.994H13.1924L14.0762 29.1102ZM13.5309 21.5572L14.7732 21.6953L13.5309 21.5572ZM15.6339 17.1816L14.75 16.2977L15.6339 17.1816ZM14.0124 19.0954L12.8857 18.554L14.0124 19.0954ZM26.0048 27.5525L26.8887 28.4364L26.0048 27.5525ZM24.091 29.174L24.6324 30.3007L24.091 29.174ZM20.167 37.564C16.7019 37.564 14.2035 37.5623 12.2666 37.3525C10.3531 37.1452 9.13656 36.7468 8.18036 36.0521L6.7109 38.0746C8.1643 39.1306 9.87115 39.6076 11.9973 39.8379C14.1001 40.0657 16.7576 40.064 20.167 40.064V37.564ZM2.41699 22.314C2.41699 25.7234 2.41528 28.3809 2.6431 30.4837C2.87346 32.6099 3.35044 34.3167 4.4064 35.7701L6.42894 34.3007C5.73422 33.3445 5.33587 32.1279 5.12855 30.2144C4.91871 28.2775 4.91699 25.7791 4.91699 22.314H2.41699ZM8.18036 36.0521C7.50828 35.5638 6.91724 34.9727 6.42894 34.3007L4.4064 35.7701C5.04889 36.6544 5.82658 37.4321 6.7109 38.0746L8.18036 36.0521ZM20.167 40.064C23.5764 40.064 26.2339 40.0657 28.3367 39.8379C30.4628 39.6076 32.1697 39.1306 33.6231 38.0746L32.1536 36.0521C31.1974 36.7468 29.9808 37.1452 28.0674 37.3525C26.1305 37.5623 23.6321 37.564 20.167 37.564V40.064ZM33.905 34.3007C33.4168 34.9727 32.8257 35.5638 32.1536 36.0521L33.6231 38.0746C34.5074 37.4321 35.2851 36.6544 35.9276 35.7701L33.905 34.3007ZM4.91699 22.314C4.91699 18.8489 4.91871 16.3505 5.12855 14.4136C5.33587 12.5002 5.73422 11.2836 6.42894 10.3274L4.4064 8.85793C3.35044 10.3113 2.87346 12.0182 2.6431 14.1444C2.41528 16.2472 2.41699 18.9046 2.41699 22.314H4.91699ZM6.7109 6.55344C5.82658 7.19593 5.04889 7.97361 4.4064 8.85793L6.42894 10.3274C6.91724 9.65531 7.50828 9.06427 8.18036 8.57598L6.7109 6.55344ZM16.4853 4.57733C12.0305 4.63073 9.01816 4.87711 6.7109 6.55344L8.18036 8.57598C9.74704 7.43772 11.9367 7.13204 16.5153 7.07715L16.4853 4.57733ZM35.4039 25.9657C35.349 30.5443 35.0433 32.734 33.905 34.3007L35.9276 35.7701C37.6039 33.4629 37.8503 30.4505 37.9037 25.9957L35.4039 25.9657ZM34.9692 16.8203L25.1209 26.6686L26.8887 28.4364L36.737 18.5881L34.9692 16.8203ZM16.5178 18.0655L26.3661 8.21718L24.5983 6.44941L14.75 16.2977L16.5178 18.0655ZM21.4911 28.4132C19.3501 28.6511 17.8795 28.8114 16.7836 28.776C15.7213 28.7417 15.2606 28.5268 14.9601 28.2263L13.1924 29.994C14.138 30.9397 15.3515 31.231 16.703 31.2747C18.0209 31.3172 19.7038 31.1271 21.7672 30.8979L21.4911 28.4132ZM12.2885 21.4192C12.0592 23.4826 11.8692 25.1655 11.9117 26.4834C11.9554 27.8349 12.2467 29.0484 13.1924 29.994L14.9601 28.2263C14.6596 27.9258 14.4447 27.4651 14.4104 26.4027C14.375 25.3069 14.5353 23.8363 14.7732 21.6953L12.2885 21.4192ZM14.75 16.2977C13.9096 17.1381 13.2698 17.755 12.8857 18.554L15.139 19.6369C15.296 19.3103 15.5568 19.0264 16.5178 18.0655L14.75 16.2977ZM14.7732 21.6953C14.9233 20.3446 14.982 19.9636 15.139 19.6369L12.8857 18.554C12.5017 19.353 12.4198 20.2379 12.2885 21.4192L14.7732 21.6953ZM25.1209 26.6686C24.16 27.6296 23.8761 27.8904 23.5495 28.0474L24.6324 30.3007C25.4314 29.9166 26.0483 29.2768 26.8887 28.4364L25.1209 26.6686ZM21.7672 30.8979C22.9485 30.7666 23.8334 30.6847 24.6324 30.3007L23.5495 28.0474C23.2228 28.2044 22.8418 28.2631 21.4911 28.4132L21.7672 30.8979ZM34.9692 8.21718C36.2164 9.46438 37.061 10.3128 37.6093 11.0314C38.1356 11.7211 38.2698 12.1425 38.2698 12.5187H40.7698C40.7698 11.3762 40.2928 10.4271 39.5969 9.51491C38.9229 8.63161 37.9342 7.64664 36.737 6.44941L34.9692 8.21718ZM36.737 18.5881C37.9342 17.3908 38.9229 16.4059 39.5969 15.5226C40.2928 14.6104 40.7698 13.6613 40.7698 12.5187H38.2698C38.2698 12.8949 38.1356 13.3163 37.6093 14.0061C37.061 14.7247 36.2164 15.5731 34.9692 16.8203L36.737 18.5881ZM36.737 6.44941C35.5398 5.25217 34.5548 4.26345 33.6715 3.58952C32.7593 2.89357 31.8102 2.41663 30.6677 2.41663V4.91663C31.0438 4.91663 31.4653 5.05079 32.155 5.57707C32.8736 6.12535 33.722 6.96997 34.9692 8.21718L36.737 6.44941ZM26.3661 8.21718C27.6133 6.96997 28.4617 6.12535 29.1803 5.57707C29.87 5.05079 30.2915 4.91663 30.6677 4.91663V2.41663C29.5251 2.41663 28.576 2.89357 27.6638 3.58952C26.7805 4.26345 25.7956 5.25217 24.5983 6.44941L26.3661 8.21718ZM36.737 16.8203L26.3661 6.44941L24.5983 8.21718L34.9692 18.5881L36.737 16.8203Z" fill="#656565"/>
</svg>
