<svg width="80" height="80" viewBox="0 0 80 80" fill="none" xmlns="http://www.w3.org/2000/svg">
<path d="M36.8014 63.6158L17.1777 57.5837V47.3379H21.2793V54.5535L32.6998 58.0639V52.1092H36.8014V63.6158Z" fill="#FF9500"/>
<path d="M15.675 30.8574H5V46.3053H15.675V30.8574Z" fill="#FFDA45"/>
<path d="M15.675 38.582H5V46.3066H15.675V38.582Z" fill="#FFB13B"/>
<path d="M49.7288 58.7588L12.4277 46.3076V30.8595L49.7288 18.4082V58.7588Z" fill="#FFE033"/>
<path d="M49.7288 58.7573L12.4277 46.3061V38.582H49.7288V58.7573Z" fill="#FFDA45"/>
<path d="M56.7867 16.3848H45.748V60.776H56.7867V16.3848Z" fill="#FFB13B"/>
<path d="M56.7867 38.582H45.748V60.7769H56.7867V38.582Z" fill="#FFA426"/>
<path d="M74.9994 36.5312H64.3203V40.6328H74.9994V36.5312Z" fill="#AFB4C8"/>
<path d="M70.7791 17.5942L61.5312 22.9336L63.582 26.4854L72.8298 21.146L70.7791 17.5942Z" fill="#AFB4C8"/>
<path d="M63.58 50.6767L61.5293 54.2285L70.7772 59.5679L72.8279 56.0161L63.58 50.6767Z" fill="#AFB4C8"/>
</svg>
