<svg width="40" height="40" viewBox="0 0 40 40" fill="none" xmlns="http://www.w3.org/2000/svg">
<path d="M19.9999 29.6171C14.6995 29.6171 10.3827 25.3004 10.3827 20C10.3827 14.6996 14.6995 10.3829 19.9999 10.3829C25.3003 10.3829 29.6171 14.6996 29.6171 20C29.6171 25.3004 25.3003 29.6171 19.9999 29.6171Z" fill="#34C759"/>
<path d="M22.8008 29.7173L29.0034 35.5879L27.0173 27.2739C25.8457 28.4017 24.4047 29.2475 22.8008 29.7111V29.7173Z" fill="#34C759"/>
<path d="M17.1991 10.2826L10.9965 4.4121L12.9826 12.7198C14.1542 11.5921 15.5952 10.7462 17.1991 10.2826Z" fill="#34C759"/>
<path d="M10.9965 35.5941L17.1991 29.7236C15.5952 29.26 14.1542 28.4142 12.9826 27.2865L10.9965 35.6004V35.5941Z" fill="#34C759"/>
<path d="M29.0034 4.4121L22.8008 10.2826C24.4047 10.7462 25.8457 11.5921 27.011 12.7198L28.9971 4.4121H29.0034Z" fill="#34C759"/>
<path d="M12.7197 12.9892L4.41195 11.0031L10.2825 17.2057C10.7461 15.6018 11.5919 14.1608 12.7197 12.9892Z" fill="#34C759"/>
<path d="M10.2825 22.8006L4.41195 29.0031L12.726 27.0171C11.5982 25.8455 10.7524 24.4045 10.2888 22.8006H10.2825Z" fill="#34C759"/>
<path d="M38 20L29.8113 17.5628C30.0055 18.346 30.1183 19.1542 30.1183 20C30.1183 20.8458 30.0055 21.654 29.8113 22.4372L38 20Z" fill="#34C759"/>
<path d="M9.88169 20C9.88169 19.1604 9.99447 18.346 10.1887 17.5628L2 20L10.1887 22.4372C9.99447 21.654 9.88169 20.8458 9.88169 20Z" fill="#34C759"/>
<path d="M17.5627 29.8113L19.9999 38L22.4371 29.8113C21.6539 30.0056 20.8457 30.1183 19.9999 30.1183C19.1541 30.1183 18.3459 30.0056 17.5627 29.8113Z" fill="#34C759"/>
<path d="M29.7173 17.1994L35.5879 10.9969L27.2739 12.9829C28.4016 14.1545 29.2474 15.5955 29.7111 17.1994H29.7173Z" fill="#34C759"/>
<path d="M27.2801 27.0171L35.5941 29.0031L29.7236 22.8006C29.26 24.4045 28.4142 25.8455 27.2864 27.0171H27.2801Z" fill="#34C759"/>
<path d="M22.4371 10.1887L19.9999 2L17.5627 10.1887C18.3459 9.99443 19.1541 9.88166 19.9999 9.88166C20.8457 9.88166 21.6539 9.99443 22.4371 10.1887Z" fill="#34C759"/>
</svg>
