<svg width="44" height="44" viewBox="0 0 44 44" fill="none" xmlns="http://www.w3.org/2000/svg">
<path fill-rule="evenodd" clip-rule="evenodd" d="M41 22.5C41 32.9934 32.4934 41.5 22 41.5C11.5066 41.5 3 32.9934 3 22.5C3 12.0066 11.5066 3.5 22 3.5C32.4934 3.5 41 12.0066 41 22.5ZM19.5 37.2926V29.5H10.2002V26H19.5V23H7.00818C7.24427 30.2078 12.5654 36.1292 19.5 37.2926ZM7.30005 19.5H18.4957L12.0347 11.2885C9.65749 13.403 7.95729 16.2622 7.30005 19.5ZM15.36 9.04598C17.3616 8.05622 19.6159 7.5 22 7.5C24.2718 7.5 26.4256 8.00502 28.3553 8.90892L21.8037 17.2356L15.36 9.04598ZM31.7324 11.0856C34.2314 13.2183 36.0214 16.1574 36.7 19.5H25.1117L31.7324 11.0856ZM36.9918 23H24V26H33.4002V29.5H24V37.3678C31.1773 36.4116 36.7501 30.3801 36.9918 23Z" fill="#E62129"/>
</svg>
