<svg width="60" height="60" viewBox="0 0 60 60" fill="none" xmlns="http://www.w3.org/2000/svg">
<path d="M30.5 34C28.2909 34 26.5 32.2091 26.5 30C26.5 27.7909 28.2909 26 30.5 26C32.7091 26 34.5 27.7909 34.5 30C34.5 32.2091 32.7091 34 30.5 34Z" fill="white"/>
<path d="M49 34C46.7909 34 45 32.2091 45 30C45 27.7909 46.7909 26 49 26C51.2091 26 53 27.7909 53 30C53 32.2091 51.2091 34 49 34Z" fill="white"/>
<path d="M12 34C9.79086 34 8 32.2091 8 30C8 27.7909 9.79086 26 12 26C14.2091 26 16 27.7909 16 30C16 32.2091 14.2091 34 12 34Z" fill="white"/>
</svg>
