<svg width="32" height="32" viewBox="0 0 32 32" fill="none" xmlns="http://www.w3.org/2000/svg">
<path fill-rule="evenodd" clip-rule="evenodd" d="M3.1882 14.9494C2.98935 15.6356 2.98935 16.3657 3.1882 17.0519C4.79778 22.6065 9.92281 26.6673 15.9963 26.6673C22.0698 26.6673 27.1948 22.6065 28.8044 17.0519C29.0032 16.3657 29.0032 15.6356 28.8044 14.9494C27.1948 9.39479 22.0698 5.33398 15.9963 5.33398C9.92281 5.33398 4.79778 9.39479 3.1882 14.9494ZM15.999 21.334C18.9445 21.334 21.3324 18.9462 21.3324 16.0007C21.3324 13.0551 18.9445 10.6673 15.999 10.6673C13.0535 10.6673 10.6657 13.0551 10.6657 16.0007C10.6657 18.9462 13.0535 21.334 15.999 21.334Z" fill="#AEAEB1"/>
</svg>
