<svg width="30" height="30" viewBox="0 0 30 30" fill="none" xmlns="http://www.w3.org/2000/svg">
<path d="M23.4337 13.4587C23.0764 13.0212 22.6415 12.642 22.2376 12.2628C21.1969 11.3878 20.0164 10.7607 19.0223 9.84191C16.7079 7.71268 16.1953 4.19799 17.671 1.5C16.1953 1.83543 14.9061 2.59378 13.8033 3.42506C9.78026 6.45847 8.19591 11.8107 10.0909 16.4046C10.153 16.5504 10.2152 16.6963 10.2152 16.8859C10.2152 17.2067 9.98219 17.4984 9.67153 17.615C9.31427 17.7609 8.94148 17.6734 8.64636 17.44C8.5582 17.3707 8.48447 17.2866 8.4289 17.1921C6.67368 15.1066 6.39409 12.117 7.57459 9.72524C4.9806 11.7086 3.56711 15.0629 3.76904 18.2276C3.86224 18.9567 3.95543 19.6859 4.21949 20.4151C4.43695 21.2901 4.85634 22.1652 5.32233 22.9381C6.99988 25.4611 9.90452 27.2695 13.0266 27.6341C16.3507 28.0278 19.9077 27.4591 22.4551 25.3007C25.2976 22.8798 26.2917 19.0005 24.8316 15.6754L24.6297 15.2962C24.3035 14.6254 23.4337 13.4587 23.4337 13.4587ZM18.5253 22.6464C18.0903 22.9964 17.3758 23.3756 16.8166 23.5215C15.077 24.1048 11.9002 23.4625 10.875 22.5C12 22.125 13.108 21.636 13.875 20.25C14.5171 19.0897 14.625 18 14.625 16.875C14.625 15.75 14.625 15 15.4187 13.0795C15.7138 13.6337 16.0245 14.1879 16.3973 14.6254C17.5933 16.0837 19.4728 16.7254 19.8766 18.7088C19.9388 18.913 19.9698 19.1172 19.9698 19.3359C20.0164 20.5318 19.4572 21.8443 18.5253 22.6464Z" fill="url(#paint0_linear_14384_394456)"/>
<defs>
<linearGradient id="paint0_linear_14384_394456" x1="14.5969" y1="1.5" x2="14.5969" y2="27.75" gradientUnits="userSpaceOnUse">
<stop stop-color="#FFEDF3"/>
<stop offset="1" stop-color="#FF686B"/>
</linearGradient>
</defs>
</svg>
