<svg width="60" height="60" viewBox="0 0 60 60" fill="none" xmlns="http://www.w3.org/2000/svg">
<g clip-path="url(#clip0_6347_218576)">
<path d="M8.79062 26.0878L14.179 44.3819L19.8742 47.6036H34.314L45.8197 44.3819C45.8197 44.3819 50.0575 29.9133 51.007 26.7208L51.2081 26.0878C51.3231 25.6852 51.2658 25.2537 51.0358 24.8799L47.6702 23.499L39.2327 26.7781L32.8181 15.8477H27.1806L20.766 26.7781L12.3285 23.499L8.79062 26.0878Z" fill="#FFFB00" fill-opacity="0.99"/>
<path d="M8.79127 26.0878L14.1797 44.3819L19.8748 47.6036H30V15.8477H27.1813L20.7666 26.7781L12.3291 23.499L8.79127 26.0878Z" fill="#FDDF00"/>
<path d="M45.8203 44.3828V48.6974C45.8203 49.5027 45.1877 50.1357 44.3821 50.1357H15.6179C14.8123 50.1357 14.1797 49.5027 14.1797 48.6974V44.3828H45.8203Z" fill="#FFFC68"/>
<path d="M29.9998 9.86523C32.3875 9.86523 34.3145 11.7922 34.3145 14.1799C34.3145 16.6248 32.301 18.4945 29.9998 18.4945C27.6122 18.4945 25.6852 16.5387 25.6852 14.1799C25.6852 11.7922 27.6122 9.86523 29.9998 9.86523Z" fill="#FDD701"/>
<path d="M9.76935 27.1234C10.9855 27.1234 12.0461 26.65 12.8282 25.8676C13.6585 24.9927 14.084 23.9451 14.084 22.8088C14.084 20.4297 12.1484 18.4941 9.76935 18.4941C7.39031 18.4941 5.45472 20.4297 5.45472 22.8088C5.45472 25.1878 7.39031 27.1234 9.76935 27.1234Z" fill="#FFC800"/>
<path d="M50.2303 27.1234C52.6093 27.1234 54.5449 25.1878 54.5449 22.8088C54.5449 20.4297 52.6093 18.4941 50.2303 18.4941C47.8513 18.4941 45.9157 20.4297 45.9157 22.8088C45.9157 25.2155 47.8531 27.1234 50.2303 27.1234Z" fill="#FDD701"/>
<path d="M30 18.4945V9.86523C27.6123 9.86523 25.6854 11.7922 25.6854 14.1799C25.6854 16.5387 27.6123 18.4945 30 18.4945Z" fill="#FFC800"/>
<path d="M14.1797 44.3828V48.6974C14.1797 49.5027 14.8123 50.1357 15.6179 50.1357H30V44.3828H14.1797Z" fill="#FFC800"/>
<path d="M31.6092 42.8184H27.5947V34.4184C27.5947 34.2147 27.5947 33.9311 27.5947 33.5674C27.5947 33.1893 27.5947 32.7893 27.5947 32.3674C27.6092 31.9311 27.6238 31.5529 27.6383 31.2329C27.4783 31.3784 27.3256 31.5529 27.1801 31.7565C27.0347 31.9456 26.882 32.1129 26.722 32.2584L25.0856 33.7202L23.0347 31.4075L28.0529 27.2402H31.6092V42.8184Z" fill="#762B00"/>
</g>
<defs>
<clipPath id="clip0_6347_218576">
<rect width="49.0909" height="49.0909" fill="white" transform="matrix(-1 0 0 1 54.5449 5.45508)"/>
</clipPath>
</defs>
</svg>
