<svg width="44" height="44" viewBox="0 0 44 44" fill="none" xmlns="http://www.w3.org/2000/svg">
<path d="M35.5944 1.8149H8.40767C4.86717 1.8149 2 4.70738 2 8.27774V35.6945C2 39.2626 4.86717 42.1562 8.40767 42.1562H35.5944C39.1341 42.1562 41.9998 39.2626 41.9998 35.6945V8.27774C41.9998 4.70738 39.1341 1.8149 35.5944 1.8149Z" fill="#1677FF"/>
<path d="M12.8074 32.8376C6.58453 32.8376 4.74475 27.8941 7.82012 25.1894C8.84637 24.2754 10.7217 23.8291 11.7215 23.729C15.418 23.3606 18.8399 24.7828 22.878 26.7707C20.0396 30.5051 16.4243 32.8376 12.8074 32.8376ZM34.9324 27.1455C33.3318 26.6048 31.184 25.7781 28.7918 24.9052C30.2285 22.3865 31.376 19.5182 32.1302 16.4009H24.2455V13.5367H33.9042V11.938H24.2455V7.16342H20.3037C19.6122 7.16342 19.6122 7.85188 19.6122 7.85188V11.938H9.84353V13.5367H19.6122V16.4009H11.5469V17.9992H27.1894C26.6169 19.9882 25.8484 21.8556 24.9362 23.5521C19.8605 21.8631 14.4443 20.4942 11.0417 21.3368C8.86564 21.8775 7.46418 22.8425 6.64083 23.8537C2.8619 28.4907 5.57225 35.5339 13.5529 35.5339C18.2716 35.5339 22.8172 32.8806 26.3403 28.5081C31.5952 31.0556 41.999 35.4296 41.999 35.4296V29.1958C41.999 29.1958 40.6924 29.0907 34.9324 27.1455Z" fill="white"/>
</svg>
