<svg width="96" height="96" viewBox="0 0 96 96" fill="none" xmlns="http://www.w3.org/2000/svg">
<g clip-path="url(#clip0_2413_56484)">
<path d="M48 96C74.5097 96 96 74.5097 96 48C96 21.4903 74.5097 0 48 0C21.4903 0 0 21.4903 0 48C0 74.5097 21.4903 96 48 96Z" fill="url(#paint0_linear_2413_56484)"/>
<path d="M22.7017 38.264C20.3299 44.3554 20.3299 51.4932 22.7017 57.5845C26.2242 53.1894 26.2236 42.6581 22.7017 38.264Z" fill="white"/>
<path d="M73.1436 38.264C69.621 42.6592 69.6218 53.1905 73.1436 57.5845C75.5154 51.4932 75.5154 44.3554 73.1436 38.264Z" fill="white"/>
<path d="M57.5823 22.702C51.4927 20.3303 44.3513 20.3303 38.2617 22.702C42.6566 26.2246 53.1885 26.2239 57.5823 22.702Z" fill="white"/>
<path d="M71.6978 35.1365C69.1884 30.4898 65.3567 26.6581 60.7101 24.1488C55.3255 29.9516 40.5166 29.9498 35.1342 24.1488C30.4875 26.6581 26.6558 30.4898 24.1465 35.1365C29.9493 40.5212 29.9475 55.33 24.1465 60.7125C26.6558 65.3592 30.4875 69.191 35.1343 71.7003C40.5188 65.8975 55.3277 65.8993 60.7102 71.7003C65.3568 69.191 69.1885 65.3593 71.6979 60.7125C65.895 55.3278 65.8968 40.519 71.6978 35.1365ZM47.9222 61.369C40.5089 61.369 34.4777 55.3377 34.4777 47.9244C35.1537 30.113 60.6934 30.1178 61.3666 47.9247C61.3665 55.3378 55.3354 61.369 47.9222 61.369Z" fill="white"/>
<path d="M38.2617 73.1441C44.3513 75.5158 51.4927 75.5158 57.5823 73.1441C53.1874 69.6215 42.6555 69.6222 38.2617 73.1441Z" fill="white"/>
<path fill-rule="evenodd" clip-rule="evenodd" d="M47.8183 37.5385C42.1498 37.5385 37.5381 42.1502 37.5381 47.8187C38.0549 61.4381 57.5838 61.4344 58.0986 47.8186C58.0985 42.1501 53.4868 37.5385 47.8183 37.5385ZM45.5811 53.8578C46.1556 54.063 46.7445 54.1676 47.3477 54.1717C48.2546 54.1758 49.0486 53.9891 49.7298 53.6116C50.411 53.2341 50.9424 52.717 51.324 52.0605C51.7057 51.3998 51.8944 50.655 51.8903 49.8261C51.8944 49.03 51.7241 48.3242 51.3794 47.7087C51.0347 47.089 50.5669 46.6028 49.976 46.2499C49.3892 45.897 48.7265 45.7205 47.9879 45.7205C47.5365 45.7205 47.1077 45.7923 46.7014 45.936C46.2993 46.0755 45.9382 46.2745 45.6181 46.533C45.298 46.7915 45.0374 47.1014 44.8364 47.4625H44.7502C44.7543 46.137 44.9902 45.0947 45.458 44.3356C45.9299 43.5764 46.6029 43.1968 47.477 43.1968C48.0186 43.1968 48.4659 43.3425 48.8188 43.6339C49.1758 43.9211 49.4118 44.3068 49.5267 44.7911H51.7734C51.6831 44.114 51.4492 43.5067 51.0717 42.9691C50.6942 42.4274 50.1976 42.0007 49.5821 41.6888C48.9707 41.3769 48.269 41.221 47.477 41.221C46.7219 41.221 46.0387 41.3749 45.4273 41.6826C44.8199 41.9904 44.3008 42.4377 43.87 43.0245C43.4391 43.6072 43.1088 44.3212 42.879 45.1665C42.6492 46.0119 42.5343 46.9741 42.5343 48.0534C42.5302 49.2106 42.6635 50.1811 42.9344 50.9648C43.2052 51.7445 43.5704 52.3703 44.03 52.8422C44.4896 53.31 45.0067 53.6485 45.5811 53.8578ZM48.5357 51.9989C48.1828 52.2164 47.7827 52.3251 47.3354 52.3251C46.8881 52.3251 46.488 52.2144 46.1351 51.9928C45.7822 51.7712 45.5052 51.4757 45.3042 51.1064C45.1031 50.7371 45.0005 50.3329 44.9964 49.8938C45.0005 49.5614 45.0621 49.2496 45.1811 48.9582C45.3042 48.6627 45.4724 48.4042 45.6858 48.1826C45.8992 47.9569 46.1495 47.7805 46.4367 47.6533C46.724 47.5261 47.0338 47.4625 47.3662 47.4625C47.8135 47.4625 48.2115 47.5692 48.5603 47.7825C48.9091 47.9959 49.182 48.2852 49.379 48.6504C49.58 49.0157 49.6785 49.424 49.6744 49.8753C49.6785 50.3349 49.578 50.7494 49.3728 51.1187C49.1676 51.488 48.8886 51.7814 48.5357 51.9989Z" fill="white"/>
</g>
<defs>
<linearGradient id="paint0_linear_2413_56484" x1="48" y1="1.13" x2="48" y2="97.13" gradientUnits="userSpaceOnUse">
<stop stop-color="#7FFFC8"/>
<stop offset="1" stop-color="#26CDB3"/>
</linearGradient>
<clipPath id="clip0_2413_56484">
<rect width="96" height="96" fill="white"/>
</clipPath>
</defs>
</svg>
