<svg width="60" height="60" viewBox="0 0 60 60" fill="none" xmlns="http://www.w3.org/2000/svg">
<path d="M30 34.875C28.9645 34.875 28.125 35.7145 28.125 36.75C28.125 37.7855 28.9645 38.625 30 38.625V34.875ZM38.625 30C38.625 28.9645 37.7855 28.125 36.75 28.125C35.7145 28.125 34.875 28.9645 34.875 30H38.625ZM10.2465 25.7821L8.72336 24.6887H8.72336L10.2465 25.7821ZM10.246 34.2172L11.7692 33.1237L11.7692 33.1237L10.246 34.2172ZM16.0229 41.0088L17.4303 39.7699L17.3828 39.7159L17.3313 39.6657L16.0229 41.0088ZM43.7273 18.75L42.4307 20.1043L42.4839 20.1553L42.541 20.202L43.7273 18.75ZM8.25806 29.9999L6.38306 29.9999L8.25806 29.9999ZM49.7535 34.2179L51.2766 35.3113L49.7535 34.2179ZM49.7534 25.782L48.2302 26.8754L48.2302 26.8754L49.7534 25.782ZM49.0347 21.7606C48.3794 20.9587 47.1982 20.84 46.3964 21.4953C45.5945 22.1506 45.4758 23.3318 46.1311 24.1336L49.0347 21.7606ZM20.9688 42.7451C20.1278 42.141 18.9562 42.3331 18.3521 43.1742C17.748 44.0152 17.9401 45.1868 18.7812 45.7909L20.9688 42.7451ZM51.742 30L49.867 30L51.742 30ZM6.3287 46.5359C5.52008 47.1828 5.38898 48.3627 6.03587 49.1713C6.68276 49.9799 7.86269 50.111 8.6713 49.4641L6.3287 46.5359ZM53.6713 13.4641C54.4799 12.8172 54.611 11.6373 53.9641 10.8287C53.3172 10.0201 52.1373 9.88898 51.3287 10.5359L53.6713 13.4641ZM43.8932 18.8855L45.0645 20.3496H45.0645L43.8932 18.8855ZM16.1122 41.1102L17.2835 42.5744L16.1122 41.1102ZM30 21.375C25.2365 21.375 21.375 25.2365 21.375 30H25.125C25.125 27.3076 27.3076 25.125 30 25.125V21.375ZM21.375 30C21.375 32.0257 22.0757 33.8929 23.2465 35.3651L26.1815 33.031C25.5194 32.1985 25.125 31.1479 25.125 30H21.375ZM36.7329 24.609C35.1553 22.6407 32.7248 21.375 30 21.375V25.125C31.5388 25.125 32.9103 25.8358 33.8068 26.9543L36.7329 24.609ZM30 38.625C34.7635 38.625 38.625 34.7635 38.625 30H34.875C34.875 32.6924 32.6924 34.875 30 34.875V38.625ZM30 10.125C25.121 10.125 20.7241 12.5374 17.1726 15.4453C13.5997 18.3707 10.6817 21.9608 8.72336 24.6887L11.7696 26.8756C13.6306 24.2833 16.3293 20.9824 19.5483 18.3468C22.7887 15.6936 26.3589 13.875 30 13.875V10.125ZM8.72285 35.3106C10.2162 37.3908 12.2583 39.9592 14.7146 42.3519L17.3313 39.6657C15.0796 37.4724 13.1793 35.088 11.7692 33.1237L8.72285 35.3106ZM45.024 17.3957C41.115 13.6531 35.9028 10.125 30 10.125V13.875C34.4329 13.875 38.7424 16.5732 42.4307 20.1043L45.024 17.3957ZM8.72336 24.6887C7.48471 26.4141 6.38308 27.8393 6.38306 29.9999L10.1331 30C10.1331 29.2645 10.3571 28.8433 11.7696 26.8756L8.72336 24.6887ZM11.7692 33.1237C10.3569 31.1565 10.1331 30.7354 10.1331 30L6.38306 29.9999C6.38304 32.1605 7.48446 33.5855 8.72285 35.3106L11.7692 33.1237ZM30 49.875C34.879 49.875 39.2759 47.4626 42.8274 44.5547C46.4003 41.6293 49.3183 38.0392 51.2766 35.3113L48.2304 33.1244C46.3694 35.7167 43.6707 39.0176 40.4517 41.6532C37.2113 44.3064 33.6411 46.125 30 46.125V49.875ZM51.2765 24.6885C50.6273 23.7841 49.8763 22.7904 49.0347 21.7606L46.1311 24.1336C46.9169 25.0951 47.6204 26.0259 48.2302 26.8754L51.2765 24.6885ZM18.7812 45.7909C22.0044 48.106 25.8236 49.875 30 49.875V46.125C26.8926 46.125 23.8323 44.8019 20.9688 42.7451L18.7812 45.7909ZM51.2766 35.3113C52.5153 33.5859 53.617 32.1606 53.617 30L49.867 30C49.867 30.7354 49.643 31.1567 48.2304 33.1244L51.2766 35.3113ZM48.2302 26.8754C49.6429 28.8433 49.867 29.2646 49.867 30L53.617 30C53.617 27.8393 52.5152 26.414 51.2765 24.6885L48.2302 26.8754ZM45.0645 20.3496L53.6713 13.4641L51.3287 10.5359L42.7218 17.4214L45.0645 20.3496ZM42.541 20.202L42.7068 20.3375L45.0795 17.4335L44.9137 17.298L42.541 20.202ZM8.6713 49.4641L17.2835 42.5744L14.9409 39.6461L6.3287 46.5359L8.6713 49.4641ZM17.2835 42.5744L45.0645 20.3496L42.7218 17.4214L14.9409 39.6461L17.2835 42.5744ZM14.6156 42.2478L14.7049 42.3492L17.5196 39.8713L17.4303 39.7699L14.6156 42.2478Z" fill="white"/>
</svg>
