<svg width="60" height="60" viewBox="0 0 60 60" fill="none" xmlns="http://www.w3.org/2000/svg">
<g clip-path="url(#clip0_14151_394806)">
<path d="M17.5 5.625C18.5355 5.625 19.375 6.46447 19.375 7.5H40.625C40.625 6.46447 41.4645 5.625 42.5 5.625C43.5355 5.625 44.375 6.46447 44.375 7.5H45C50.5228 7.5 55 11.9772 55 17.5V33.125C55 34.1605 54.1605 35 53.125 35C52.0895 35 51.25 34.1605 51.25 33.125V17.5C51.25 14.0482 48.4518 11.25 45 11.25H44.375V15C44.375 16.0355 43.5355 16.875 42.5 16.875C41.4645 16.875 40.625 16.0355 40.625 15V11.25H19.375V15C19.375 16.0355 18.5355 16.875 17.5 16.875C16.4645 16.875 15.625 16.0355 15.625 15V11.25H15C11.5482 11.25 8.75 14.0482 8.75 17.5V45C8.75 48.4518 11.5482 51.25 15 51.25H33.125C34.1605 51.25 35 52.0895 35 53.125C35 54.1605 34.1605 55 33.125 55H15C9.47715 55 5 50.5228 5 45V17.5C5 11.9772 9.47715 7.5 15 7.5H15.625C15.625 6.46447 16.4645 5.625 17.5 5.625Z" fill="#656565"/>
<path d="M20 25C20 26.3807 18.8807 27.5 17.5 27.5C16.1193 27.5 15 26.3807 15 25C15 23.6193 16.1193 22.5 17.5 22.5C18.8807 22.5 20 23.6193 20 25Z" fill="#656565"/>
<path d="M30 27.5C31.3807 27.5 32.5 26.3807 32.5 25C32.5 23.6193 31.3807 22.5 30 22.5C28.6193 22.5 27.5 23.6193 27.5 25C27.5 26.3807 28.6193 27.5 30 27.5Z" fill="#656565"/>
<path d="M45 25C45 26.3807 43.8807 27.5 42.5 27.5C41.1193 27.5 40 26.3807 40 25C40 23.6193 41.1193 22.5 42.5 22.5C43.8807 22.5 45 23.6193 45 25Z" fill="#656565"/>
<path d="M17.5 36.25C18.8807 36.25 20 35.1307 20 33.75C20 32.3693 18.8807 31.25 17.5 31.25C16.1193 31.25 15 32.3693 15 33.75C15 35.1307 16.1193 36.25 17.5 36.25Z" fill="#656565"/>
<path d="M32.5 33.75C32.5 35.1307 31.3807 36.25 30 36.25C28.6193 36.25 27.5 35.1307 27.5 33.75C27.5 32.3693 28.6193 31.25 30 31.25C31.3807 31.25 32.5 32.3693 32.5 33.75Z" fill="#656565"/>
<path d="M45 33.75L44.9999 33.7692C44.7933 33.7565 44.5849 33.75 44.375 33.75C42.8751 33.75 41.4524 34.0802 40.1755 34.6719C40.0622 34.3866 40 34.0756 40 33.75C40 32.3693 41.1193 31.25 42.5 31.25C43.8807 31.25 45 32.3693 45 33.75Z" fill="#656565"/>
<path d="M20 42.5C20 43.8807 18.8807 45 17.5 45C16.1193 45 15 43.8807 15 42.5C15 41.1193 16.1193 40 17.5 40C18.8807 40 20 41.1193 20 42.5Z" fill="#656565"/>
<path d="M30 45C31.3807 45 32.5 43.8807 32.5 42.5C32.5 41.1193 31.3807 40 30 40C28.6193 40 27.5 41.1193 27.5 42.5C27.5 43.8807 28.6193 45 30 45Z" fill="#656565"/>
<path d="M46.875 42.5C46.875 41.4645 46.0355 40.625 45 40.625C43.9645 40.625 43.125 41.4645 43.125 42.5V46C43.125 47.0355 43.9645 47.875 45 47.875H47.5C48.5355 47.875 49.375 47.0355 49.375 46C49.375 44.9645 48.5355 44.125 47.5 44.125H46.875V42.5Z" fill="#656565"/>
<path fill-rule="evenodd" clip-rule="evenodd" d="M45 55C50.5228 55 55 50.5228 55 45C55 39.4772 50.5228 35 45 35C39.4772 35 35 39.4772 35 45C35 50.5228 39.4772 55 45 55ZM45 51.25C48.4518 51.25 51.25 48.4518 51.25 45C51.25 41.5482 48.4518 38.75 45 38.75C41.5482 38.75 38.75 41.5482 38.75 45C38.75 48.4518 41.5482 51.25 45 51.25Z" fill="#656565"/>
</g>
<defs>
<clipPath id="clip0_14151_394806">
<rect width="60" height="60" fill="white"/>
</clipPath>
</defs>
</svg>
