<svg width="80" height="80" viewBox="0 0 80 80" fill="none" xmlns="http://www.w3.org/2000/svg">
<path d="M67.7199 49.7692L66.9279 57.4252C66.7959 60.3292 65.3439 62.9692 62.9679 65.2132C58.7439 69.1732 51.7479 71.8132 43.6959 71.8132C35.6439 71.8132 28.6479 69.1732 24.4239 65.2132C22.0479 62.9692 20.5959 60.3292 20.4639 57.4252L19.6719 49.7692L21.5199 51.8812C28.7799 38.4172 58.3479 38.4172 65.4759 51.8812L67.7199 49.7692Z" fill="#FBB217"/>
<path d="M67.7191 48.8431C67.4551 57.4231 56.6311 64.2871 43.5631 64.2871C30.4951 64.2871 19.6711 57.4231 19.4071 48.8431C19.1431 40.1311 29.9671 32.8711 43.5631 32.8711C57.1591 32.8711 67.9831 40.1311 67.7191 48.8431Z" fill="#FFD21F"/>
<path d="M67.7191 48.8431C67.4551 57.4231 56.6311 64.2871 43.5631 64.2871C30.4951 64.2871 19.6711 57.4231 19.4071 48.8431C19.1431 40.1311 29.9671 32.8711 43.5631 32.8711C57.1591 32.8711 67.9831 40.1311 67.7191 48.8431Z" fill="#FFD21F"/>
<path d="M67.7191 48.8431C67.4551 57.4231 56.6311 64.2871 43.5631 64.2871C30.4951 64.2871 19.6711 57.4231 19.4071 48.8431C19.1431 40.1311 29.9671 32.8711 43.5631 32.8711C57.1591 32.8711 67.9831 40.1311 67.7191 48.8431Z" fill="#FFD21F"/>
<path d="M67.7191 48.8431C67.5871 52.0111 66.1351 54.9151 63.6271 57.2911C59.2711 61.5151 51.8791 64.1551 43.5631 64.1551C35.2471 64.1551 27.8551 61.3831 23.4991 57.2911C20.9911 54.9151 19.4071 52.0111 19.4071 48.8431C19.1431 40.1311 29.9671 32.8711 43.5631 32.8711C57.1591 32.8711 67.9831 40.1311 67.7191 48.8431Z" fill="#FFD21F"/>
<path opacity="0.5" d="M62.0425 38.4192C46.4665 29.4432 21.5185 36.7032 21.9145 50.2992C22.0465 54.2592 24.2905 57.6912 27.9865 60.4632C22.8385 57.6912 19.5385 53.4672 19.5385 48.8472C19.0105 34.1952 47.3905 27.3312 62.0425 38.4192Z" fill="#FAF077"/>
<path d="M61.5147 50.5605C61.3827 56.8965 53.4627 61.9125 43.6947 61.9125C33.9267 61.9125 26.0067 56.8965 25.8747 50.5605C25.7427 44.0925 33.6627 38.8125 43.6947 38.8125C53.7267 38.8125 61.6467 44.2245 61.5147 50.5605Z" fill="#FDE74A"/>
<path opacity="0.2" d="M38.1504 58.2129V61.3809C39.8664 61.7769 41.7144 61.9089 43.6944 61.9089C45.1464 61.9089 46.4664 61.7769 47.7864 61.6449V58.2129H38.1504Z" fill="#FAFDFF"/>
<path d="M61.3835 49.7683C61.2515 56.1043 53.3315 61.1203 43.6955 61.1203C34.0595 61.1203 26.1395 56.1043 26.0075 49.7683C25.8755 43.4323 33.7955 38.1523 43.6955 38.1523C53.5955 38.1523 61.5155 43.4323 61.3835 49.7683Z" fill="#FBB217"/>
<path d="M59.7996 50.1674C59.6676 55.8434 52.5396 60.4634 43.6956 60.4634C34.8516 60.4634 27.7236 55.8434 27.5916 50.1674C27.4596 44.3594 34.7196 39.6074 43.6956 39.6074C52.6716 39.6074 59.9316 44.3594 59.7996 50.1674Z" fill="#FFD21F"/>
<path d="M52.6719 34.0547C54.2559 34.4507 55.8399 34.9787 57.1599 35.6387C55.8399 35.1107 54.2559 34.4507 52.6719 34.0547Z" fill="#FFD21F"/>
<path d="M52.6719 34.0547C54.2559 34.4507 55.8399 34.9787 57.1599 35.6387C55.8399 35.1107 54.2559 34.4507 52.6719 34.0547Z" fill="#FFD21F"/>
<path d="M52.6719 34.0547C54.2559 34.4507 55.8399 34.9787 57.1599 35.6387C55.8399 35.1107 54.2559 34.4507 52.6719 34.0547Z" fill="#FFD21F"/>
<path d="M52.6719 34.0547C54.2559 34.4507 55.8399 34.9787 57.1599 35.6387C55.8399 35.1107 54.2559 34.4507 52.6719 34.0547Z" fill="#FFD21F"/>
<path opacity="0.1" d="M55.18 52.2738C55.84 51.4818 58.084 48.8418 55.576 48.8418C53.728 48.8418 45.28 55.0458 29.704 55.3098C28.12 55.3098 26.536 55.3098 25.084 55.7058C23.632 56.1018 20.596 55.0458 20.332 56.6298C20.332 57.0258 20.596 59.0058 20.728 59.1378C21.124 60.5898 21.784 62.0418 22.84 63.3618C23.368 63.4938 23.764 63.6258 24.292 63.7578C30.496 65.0778 37.096 64.4178 42.904 62.0418C46.204 60.7218 49.24 58.7418 51.88 56.2338C52.936 55.0458 54.124 53.7258 55.18 52.2738Z" fill="#344A4A"/>
<path d="M59.0072 37.0953L58.0832 44.8833C57.5552 54.3873 45.0152 59.6673 34.4552 59.6673C26.2712 59.6673 19.1432 57.0273 14.9192 52.9353C9.63916 47.9193 11.2232 43.5633 10.0352 37.0953L12.1472 39.2073C15.3152 33.1353 24.0272 28.7793 34.4552 28.7793C44.8832 28.7793 53.5952 33.1353 56.7632 39.2073L59.0072 37.0953Z" fill="#FBB217"/>
<path d="M59.0086 36.1668C58.7446 45.0108 47.7886 52.0068 34.5886 52.0068C21.2566 52.0068 10.3006 45.0108 10.1686 36.1668C9.77261 27.1908 20.7286 19.7988 34.4566 19.7988C48.1846 19.7988 59.2726 27.1908 59.0086 36.1668Z" fill="#FFD21F"/>
<path d="M59.0086 36.1668C58.7446 45.0108 47.7886 52.0068 34.5886 52.0068C21.2566 52.0068 10.3006 45.0108 10.1686 36.1668C9.77261 27.1908 20.7286 19.7988 34.4566 19.7988C48.1846 19.7988 59.2726 27.1908 59.0086 36.1668Z" fill="#FFD21F"/>
<path d="M59.0086 36.1668C58.7446 45.0108 47.7886 52.0068 34.5886 52.0068C21.2566 52.0068 10.3006 45.0108 10.1686 36.1668C9.77261 27.1908 20.7286 19.7988 34.4566 19.7988C48.1846 19.7988 59.2726 27.1908 59.0086 36.1668Z" fill="#FFD21F"/>
<path d="M59.0079 36.1668C58.8759 39.4668 57.4239 42.3708 54.7839 44.8788C50.4279 49.1028 42.9039 52.0068 34.4559 52.0068C23.2359 52.0068 10.2999 46.1988 10.0359 36.1668C9.77192 27.1908 20.7279 19.7988 34.4559 19.7988C48.3159 19.7988 59.2719 27.1908 59.0079 36.1668Z" fill="#FFD21F"/>
<path opacity="0.5" d="M53.1999 25.4748C48.8439 22.9668 43.1679 21.3828 36.9639 21.3828C15.7119 21.3828 4.75592 38.0148 18.6159 48.1788C13.4679 45.2748 10.1679 41.0508 10.0359 36.1668C9.77192 27.1908 20.7279 19.7988 34.4559 19.7988C41.9799 19.7988 48.7119 22.0428 53.1999 25.4748Z" fill="#FAF077"/>
<path d="M52.6716 38.0159C52.5396 44.4839 44.4876 49.7639 34.5876 49.7639C24.6876 49.7639 16.6356 44.4839 16.5036 38.0159C16.3716 31.4159 24.4236 26.0039 34.5876 26.0039C44.7516 26.0039 52.8036 31.4159 52.6716 38.0159Z" fill="#FDE74A"/>
<path opacity="0.2" d="M29.0449 45.8047V49.1047C30.7609 49.5007 32.7409 49.6327 34.7209 49.6327C36.1729 49.6327 37.4929 49.5007 38.8129 49.3687V45.8047H29.0449Z" fill="#FAFDFF"/>
<path d="M52.5404 37.0929C52.4084 43.5609 44.3564 48.7089 34.5884 48.7089C24.8204 48.7089 16.7684 43.5609 16.6364 37.0929C16.5044 30.4929 24.5564 25.2129 34.5884 25.2129C44.6204 25.2129 52.6724 30.6249 52.5404 37.0929Z" fill="#FBB217"/>
<path d="M50.9565 37.49C50.8245 43.43 43.5645 48.05 34.5885 48.05C25.6125 48.05 18.3525 43.298 18.2205 37.49C18.0885 31.55 25.4805 26.666 34.5885 26.666C43.6965 26.666 51.0885 31.55 50.9565 37.49Z" fill="#FFD21F"/>
<path opacity="0.1" d="M62.0449 38.4143C61.9129 38.4143 61.9129 38.4143 62.0449 38.4143C61.7809 38.2823 61.6489 38.1503 61.3849 37.8863C61.2529 37.7543 61.1209 37.6223 60.8569 37.4903C60.5929 37.3583 60.4609 37.2263 60.1969 37.0943C59.9329 36.9623 59.5369 36.6983 59.2729 36.5663C59.0089 36.4343 58.6129 36.1703 58.2169 36.0383C55.3129 34.5863 51.4849 33.5303 48.9769 33.1343C48.8449 33.0023 46.0729 32.7383 43.8289 32.7383C38.4169 33.9263 33.2689 35.9063 28.6489 38.6783C27.5929 39.3383 26.5369 39.9983 26.0089 41.0543C25.3489 42.3743 26.1409 42.7703 27.1969 43.5623C29.1769 45.1463 31.4209 46.4663 33.7969 47.5223C45.2809 52.8023 58.0849 50.6903 64.1569 46.2023C65.0809 45.5423 66.0049 44.7503 66.6649 43.8263C65.6089 41.9783 64.0249 40.1303 62.0449 38.4143Z" fill="#344A4A"/>
<path d="M69.9632 26.1414L69.0392 34.1934C68.9072 37.2294 67.3232 40.0014 64.9472 42.3774C60.5912 46.6014 53.3312 49.3734 45.0152 49.3734C36.6992 49.3734 29.4392 46.6014 25.2152 42.3774C22.8392 40.0014 21.3872 37.2294 21.1232 34.1934L20.1992 26.1414L22.3112 28.3854C25.4792 22.1814 34.4552 17.6934 45.0152 17.6934C55.5752 17.6934 64.4192 22.1814 67.7192 28.3854L69.9632 26.1414Z" fill="#FBB217"/>
<path d="M69.9647 25.2144C69.7007 34.3224 58.6127 41.5824 45.1487 41.5824C31.6847 41.5824 20.5967 34.3224 20.3327 25.2144C20.0687 15.9744 31.1567 8.31836 45.1487 8.31836C59.1407 8.31836 70.2287 15.9744 69.9647 25.2144Z" fill="#FFD21F"/>
<path d="M69.9647 25.2144C69.7007 34.3224 58.6127 41.5824 45.1487 41.5824C31.6847 41.5824 20.5967 34.3224 20.3327 25.2144C20.0687 15.9744 31.1567 8.31836 45.1487 8.31836C59.1407 8.31836 70.2287 15.9744 69.9647 25.2144Z" fill="#FFD21F"/>
<path d="M69.9647 25.2144C69.7007 34.3224 58.6127 41.5824 45.1487 41.5824C31.6847 41.5824 20.5967 34.3224 20.3327 25.2144C20.0687 15.9744 31.1567 8.31836 45.1487 8.31836C59.1407 8.31836 70.2287 15.9744 69.9647 25.2144Z" fill="#FFD21F"/>
<path d="M69.963 25.2144C69.831 28.5144 68.247 31.6824 65.739 34.1904C55.839 43.9584 34.455 43.9584 24.555 34.1904C13.467 23.3664 25.083 8.31836 45.147 8.31836C59.139 8.31836 70.227 15.9744 69.963 25.2144Z" fill="#FFD21F"/>
<path opacity="0.5" d="M64.156 14.2584C59.8 11.6184 53.992 10.0344 47.656 10.0344C26.14 10.0344 14.92 27.1944 29.044 37.6224C11.488 27.5904 22.048 8.31836 45.148 8.31836C52.804 8.31836 59.536 10.5624 64.156 14.2584Z" fill="#FAF077"/>
<path d="M63.6273 27.0642C63.4953 33.7963 55.3113 39.2082 45.2793 39.2082C35.2473 39.2082 27.0633 33.7963 26.9313 27.0642C26.7993 20.3322 34.9833 14.6562 45.2793 14.6562C55.5753 14.6562 63.7593 20.3322 63.6273 27.0642Z" fill="#FDE74A"/>
<path opacity="0.2" d="M39.6035 35.2422V38.6742C42.7715 39.3342 46.0715 39.4662 49.5035 38.9382V35.2422H39.6035Z" fill="#FAFDFF"/>
<path d="M63.4961 26.1373C63.3641 32.7373 55.1801 38.1493 45.2801 38.1493C35.3801 38.1493 27.1961 32.8693 27.0641 26.1373C26.9321 19.4053 35.1161 13.8613 45.2801 13.8613C55.4441 13.8613 63.6281 19.4053 63.4961 26.1373Z" fill="#FBB217"/>
<path d="M61.9111 26.6634C61.7791 32.7354 54.3871 37.6194 45.2791 37.6194C36.3031 37.6194 28.7791 32.7354 28.7791 26.6634C28.6471 20.4594 36.0391 15.4434 45.2791 15.4434C54.5191 15.4434 61.9111 20.4594 61.9111 26.6634Z" fill="#FFD21F"/>
<path opacity="0.5" d="M32.4767 10.6953C20.4647 15.4473 16.3727 26.2713 24.5567 34.3233C28.2527 38.0193 34.1927 40.6593 41.0567 41.4513L32.4767 10.6953Z" fill="#FAF077"/>
<path opacity="0.5" d="M17.1638 24.5566C12.6758 27.5926 9.90376 31.6846 10.0358 36.3046C10.2998 43.5646 17.4278 48.5806 24.4238 50.6926L17.1638 24.5566Z" fill="#FAF077"/>
</svg>
