<svg width="60" height="60" viewBox="0 0 60 60" fill="none" xmlns="http://www.w3.org/2000/svg">
<path fill-rule="evenodd" clip-rule="evenodd" d="M30 7.75098C23.7868 7.75098 18.75 12.7878 18.75 19.001C18.75 25.2142 23.7868 30.251 30 30.251C36.2132 30.251 41.25 25.2142 41.25 19.001C41.25 12.7878 36.2132 7.75098 30 7.75098ZM15.25 19.001C15.25 10.8548 21.8538 4.25098 30 4.25098C38.1462 4.25098 44.75 10.8548 44.75 19.001C44.75 26.555 39.0713 32.7828 31.75 33.6482V39.251H41C41.9665 39.251 42.75 40.0345 42.75 41.001C42.75 41.9675 41.9665 42.751 41 42.751H31.75V54.001C31.75 54.9675 30.9665 55.751 30 55.751C29.0335 55.751 28.25 54.9675 28.25 54.001V42.751H19C18.0335 42.751 17.25 41.9675 17.25 41.001C17.25 40.0345 18.0335 39.251 19 39.251H28.25V33.6482C20.9287 32.7828 15.25 26.555 15.25 19.001Z" fill="currentColor"/>
</svg>
