<svg width="60" height="60" viewBox="0 0 60 60" fill="none" xmlns="http://www.w3.org/2000/svg">
<path d="M34.001 30.0024C34.001 32.2116 32.2101 34.0024 30.001 34.0024C27.7918 34.0024 26.001 32.2116 26.001 30.0024C26.001 27.7933 27.7918 26.0024 30.001 26.0024C32.2101 26.0024 34.001 27.7933 34.001 30.0024Z" fill="#434343"/>
<path d="M34.001 11.5024C34.001 13.7116 32.2101 15.5024 30.001 15.5024C27.7918 15.5024 26.001 13.7116 26.001 11.5024C26.001 9.2933 27.7918 7.50244 30.001 7.50244C32.2101 7.50244 34.001 9.2933 34.001 11.5024Z" fill="#434343"/>
<path d="M34.001 48.5024C34.001 50.7116 32.2101 52.5024 30.001 52.5024C27.7918 52.5024 26.001 50.7116 26.001 48.5024C26.001 46.2933 27.7918 44.5024 30.001 44.5024C32.2101 44.5024 34.001 46.2933 34.001 48.5024Z" fill="#434343"/>
</svg>
