<svg width="44" height="44" viewBox="0 0 44 44" fill="none" xmlns="http://www.w3.org/2000/svg">
<path d="M23.832 25.2077C24.5914 25.2077 25.207 24.5921 25.207 23.8327C25.207 23.0733 24.5914 22.4577 23.832 22.4577V25.2077ZM23.832 39.8744C24.5914 39.8744 25.207 39.2587 25.207 38.4994C25.207 37.74 24.5914 37.1244 23.832 37.1244V39.8744ZM26.1237 10.9993C26.1237 14.29 23.4561 16.9577 20.1654 16.9577V19.7077C24.9748 19.7077 28.8737 15.8088 28.8737 10.9993H26.1237ZM20.1654 16.9577C16.8747 16.9577 14.207 14.29 14.207 10.9993H11.457C11.457 15.8088 15.3559 19.7077 20.1654 19.7077V16.9577ZM14.207 10.9993C14.207 7.70865 16.8747 5.04102 20.1654 5.04102V2.29102C15.3559 2.29102 11.457 6.18987 11.457 10.9993H14.207ZM20.1654 5.04102C23.4561 5.04102 26.1237 7.70865 26.1237 10.9993H28.8737C28.8737 6.18987 24.9748 2.29102 20.1654 2.29102V5.04102ZM14.6654 25.2077H23.832V22.4577H14.6654V25.2077ZM23.832 37.1244H14.6654V39.8744H23.832V37.1244ZM14.6654 37.1244C11.3747 37.1244 8.70703 34.4567 8.70703 31.166H5.95703C5.95703 35.9755 9.85588 39.8744 14.6654 39.8744V37.1244ZM14.6654 22.4577C9.85589 22.4577 5.95703 26.3565 5.95703 31.166H8.70703C8.70703 27.8753 11.3747 25.2077 14.6654 25.2077V22.4577Z" fill="#434343"/>
<path d="M25 30.5H40M32.5 38V30.5L32.5 23" stroke="#434343" stroke-width="2.75" stroke-linecap="round"/>
</svg>
