<svg width="60" height="60" viewBox="0 0 60 60" fill="none" xmlns="http://www.w3.org/2000/svg">
<path fill-rule="evenodd" clip-rule="evenodd" d="M30 9.5C30.8284 9.5 31.5 8.82843 31.5 8C31.5 7.17157 30.8284 6.5 30 6.5C29.1716 6.5 28.5 7.17157 28.5 8C28.5 8.82843 29.1716 9.5 30 9.5ZM30 13C32.7614 13 35 10.7614 35 8C35 5.23858 32.7614 3 30 3C27.2386 3 25 5.23858 25 8C25 10.7614 27.2386 13 30 13Z" fill="currentColor"/>
<path fill-rule="evenodd" clip-rule="evenodd" d="M44 21.5H16C13.5147 21.5 11.5 23.5147 11.5 26V47C11.5 49.4853 13.5147 51.5 16 51.5H44C46.4853 51.5 48.5 49.4853 48.5 47V26C48.5 23.5147 46.4853 21.5 44 21.5ZM16 18C11.5817 18 8 21.5817 8 26V47C8 51.4183 11.5817 55 16 55H44C48.4183 55 52 51.4183 52 47V26C52 21.5817 48.4183 18 44 18H16Z" fill="currentColor"/>
<path fill-rule="evenodd" clip-rule="evenodd" d="M53.5 31.5H52V39.7422C53.206 38.935 54 37.5602 54 36V32C54 31.7239 53.7761 31.5 53.5 31.5ZM52 43.6016C55.1939 42.5518 57.5 39.5452 57.5 36V32C57.5 29.7909 55.7091 28 53.5 28H48.5V44H49.5C50.3731 44 51.2135 43.8601 52 43.6016Z" fill="currentColor"/>
<path fill-rule="evenodd" clip-rule="evenodd" d="M6.5 31.5H8V39.7422C6.79401 38.935 6 37.5602 6 36V32C6 31.7239 6.22386 31.5 6.5 31.5ZM8 43.6016C4.80607 42.5518 2.5 39.5452 2.5 36V32C2.5 29.7909 4.29086 28 6.5 28H11.5V44H10.5C9.62694 44 8.78655 43.8601 8 43.6016Z" fill="currentColor"/>
<path fill-rule="evenodd" clip-rule="evenodd" d="M20.5 34.5C21.6046 34.5 22.5 33.6046 22.5 32.5C22.5 31.3954 21.6046 30.5 20.5 30.5C19.3954 30.5 18.5 31.3954 18.5 32.5C18.5 33.6046 19.3954 34.5 20.5 34.5ZM20.5 38C23.5376 38 26 35.5376 26 32.5C26 29.4624 23.5376 27 20.5 27C17.4624 27 15 29.4624 15 32.5C15 35.5376 17.4624 38 20.5 38Z" fill="currentColor"/>
<path fill-rule="evenodd" clip-rule="evenodd" d="M39.5 34.5C40.6046 34.5 41.5 33.6046 41.5 32.5C41.5 31.3954 40.6046 30.5 39.5 30.5C38.3954 30.5 37.5 31.3954 37.5 32.5C37.5 33.6046 38.3954 34.5 39.5 34.5ZM39.5 38C42.5376 38 45 35.5376 45 32.5C45 29.4624 42.5376 27 39.5 27C36.4624 27 34 29.4624 34 32.5C34 35.5376 36.4624 38 39.5 38Z" fill="currentColor"/>
<path fill-rule="evenodd" clip-rule="evenodd" d="M20.25 46C20.25 45.0335 21.0335 44.25 22 44.25H38C38.9665 44.25 39.75 45.0335 39.75 46C39.75 46.9665 38.9665 47.75 38 47.75H22C21.0335 47.75 20.25 46.9665 20.25 46Z" fill="currentColor"/>
<path fill-rule="evenodd" clip-rule="evenodd" d="M30 10.25C30.9665 10.25 31.75 11.0335 31.75 12V18C31.75 18.9665 30.9665 19.75 30 19.75C29.0335 19.75 28.25 18.9665 28.25 18V12C28.25 11.0335 29.0335 10.25 30 10.25Z" fill="currentColor"/>
</svg>
