<svg width="100" height="100" viewBox="0 0 100 100" fill="none" xmlns="http://www.w3.org/2000/svg">
<g clip-path="url(#clip0_19447_436082)">
<path d="M63.2895 52.5031H62.5019C60.4707 52.5031 58.8242 50.8566 58.8242 48.8254C58.8242 46.7949 60.4707 45.1484 62.5019 45.1484H63.2895C71.5564 45.1484 79.4198 41.176 84.3253 34.5217C85.244 33.2752 84.8023 32.0697 84.5696 31.6085C84.3376 31.1481 83.6293 30.0773 82.0801 30.0773H75.4337C73.4024 30.0773 71.756 28.4309 71.756 26.3996C71.756 24.3684 73.4024 22.7227 75.4337 22.7227H82.0801C85.93 22.7227 89.3994 24.8569 91.1345 28.2925C92.8703 31.7281 92.5295 35.787 90.2454 38.8854C83.96 47.4124 73.8831 52.5031 63.2895 52.5031Z" fill="#C5BBA9"/>
<path d="M51.7274 80.4237H48.1945L42.6016 60.2871H57.5012L51.7274 80.4237Z" fill="#DBD1C0"/>
<path d="M75.3989 15.1377H25.1944C24.3131 15.1377 23.5414 15.7408 23.3426 16.599C22.885 18.5682 22.6386 20.6182 22.627 22.7237H18.6431C14.8292 22.7237 11.2697 24.783 9.50145 28.1624C7.68998 31.6254 8.00991 35.7491 10.3229 38.8871C15.1996 45.5025 22.359 50.0478 30.2699 51.754C35.3095 59.0222 42.4185 64.3623 50.297 64.3623C65.5799 64.3623 77.9698 44.2632 77.9698 28.9795V22.8836C77.9698 20.722 77.7205 18.6187 77.2522 16.6004C77.0526 15.7415 76.2808 15.1377 75.3989 15.1377ZM16.2437 34.5234C15.3242 33.2769 15.7659 32.0707 15.9987 31.6103C16.2314 31.1498 16.9397 30.0791 18.4889 30.0791H22.6472C22.7942 33.9852 23.7136 38.1586 25.2542 42.2031C21.7436 40.3823 18.6395 37.7739 16.2437 34.5234Z" fill="#DBD1C0"/>
<path d="M53.2658 60.2871L47.8516 79.1699L48.2003 80.4237H51.7332L57.507 60.2871H53.2658Z" fill="#C5BBA9"/>
<path d="M91.1336 28.2943C89.3978 24.8587 85.9284 22.7244 82.0792 22.7244H77.7292C77.7169 20.6189 77.4712 18.569 77.0137 16.6004C76.8141 15.7415 76.0424 15.1377 75.1611 15.1377H67.8951C68.3462 17.1192 68.5861 19.18 68.5861 21.2977V27.3943C68.5861 42.1512 57.0349 61.3965 42.4805 62.7043C44.8893 63.7656 47.4307 64.363 50.0578 64.363C57.9169 64.363 65.01 59.0482 70.0474 51.8066C78.0578 50.1429 85.3166 45.5724 90.2445 38.8871C92.5286 35.7887 92.8694 31.7299 91.1336 28.2943ZM84.3244 34.5234C81.868 37.856 78.6688 40.5148 75.0495 42.34C76.621 38.253 77.5591 34.0299 77.7083 30.0791H82.0792C83.6284 30.0791 84.3367 31.1498 84.5687 31.6103C84.8014 32.0707 85.2431 33.2769 84.3244 34.5234Z" fill="#C5BBA9"/>
<path d="M62.1612 84.8217C63.0662 84.8217 63.6081 83.8215 63.121 83.0585C60.0874 78.3086 55.3649 75.2549 50.0602 75.2549C44.7548 75.2549 40.0323 78.3086 36.9995 83.0585C36.5124 83.8208 37.0535 84.8217 37.9586 84.8217H62.1612Z" fill="#DBD1C0"/>
<path d="M50.0583 75.2549C49.0596 75.2549 48.0825 75.3651 47.1328 75.5726C51.8294 76.5973 55.8414 80.0437 58.2762 84.8209H62.1592C63.0635 84.8209 63.6054 83.8208 63.1183 83.0585C60.0855 78.3086 55.363 75.2549 50.0583 75.2549Z" fill="#C5BBA9"/>
<path d="M40.432 34.1219H62.832V37.0969H40.432V34.1219ZM42.307 27.9469H61.007V30.9219H42.307V27.9469ZM49.957 24.1969H53.157V47.6719H49.957V24.1969ZM49.432 35.8469L52.032 36.9219C51.432 37.9052 50.7487 38.8719 49.982 39.8219C49.2154 40.7552 48.382 41.6385 47.482 42.4719C46.5987 43.3052 45.6737 44.0719 44.707 44.7719C43.757 45.4552 42.7904 46.0552 41.807 46.5719C41.6404 46.3052 41.4237 46.0135 41.157 45.6969C40.907 45.3802 40.6404 45.0719 40.357 44.7719C40.0904 44.4552 39.832 44.1885 39.582 43.9719C40.5487 43.5552 41.507 43.0552 42.457 42.4719C43.4237 41.8719 44.3404 41.2135 45.207 40.4969C46.0737 39.7802 46.8654 39.0302 47.582 38.2469C48.2987 37.4469 48.9154 36.6469 49.432 35.8469ZM53.707 35.8719C54.207 36.6719 54.8154 37.4719 55.532 38.2719C56.2654 39.0552 57.0654 39.8052 57.932 40.5219C58.7987 41.2385 59.6987 41.8969 60.632 42.4969C61.582 43.0802 62.532 43.5802 63.482 43.9969C63.2487 44.1802 62.9904 44.4302 62.707 44.7469C62.4404 45.0469 62.182 45.3635 61.932 45.6969C61.682 46.0302 61.4737 46.3302 61.307 46.5969C60.3404 46.0802 59.382 45.4719 58.432 44.7719C57.482 44.0719 56.5654 43.3052 55.682 42.4719C54.7987 41.6219 53.9737 40.7302 53.207 39.7969C52.457 38.8635 51.782 37.9052 51.182 36.9219L53.707 35.8719Z" fill="white"/>
</g>
<defs>
<clipPath id="clip0_19447_436082">
<rect width="100" height="100" fill="white"/>
</clipPath>
</defs>
</svg>
