<svg width="31" height="30" viewBox="0 0 31 30" fill="none" xmlns="http://www.w3.org/2000/svg">
<rect x="0.5" width="30" height="30" rx="10" fill="#FF92C1"/>
<path d="M9.14 5.76H10.52V24.06H9.14V5.76ZM6.32 12.42H12.76V13.82H6.32V12.42ZM9.06 13.16L10.02 13.56C9.86 14.24 9.66667 14.9533 9.44 15.7C9.21333 16.4333 8.96 17.1667 8.68 17.9C8.41333 18.6333 8.12667 19.32 7.82 19.96C7.51333 20.6 7.2 21.1467 6.88 21.6C6.84 21.44 6.77333 21.2733 6.68 21.1C6.58667 20.9133 6.48667 20.7333 6.38 20.56C6.27333 20.3733 6.18 20.2133 6.1 20.08C6.48667 19.56 6.87333 18.9067 7.26 18.12C7.64667 17.32 8 16.4867 8.32 15.62C8.64 14.74 8.88667 13.92 9.06 13.16ZM10.48 14.2C10.6 14.36 10.78 14.6133 11.02 14.96C11.2733 15.3067 11.54 15.6867 11.82 16.1C12.1133 16.5 12.38 16.88 12.62 17.24C12.86 17.5867 13.0267 17.8467 13.12 18.02L12.1 19.16C12.0067 18.8933 11.8533 18.5667 11.64 18.18C11.44 17.78 11.2133 17.36 10.96 16.92C10.72 16.48 10.4867 16.0733 10.26 15.7C10.0467 15.3133 9.87333 15.0133 9.74 14.8L10.48 14.2ZM6.52 7.26L7.56 7C7.74667 7.45333 7.92 7.94667 8.08 8.48C8.24 9.01333 8.37333 9.53333 8.48 10.04C8.6 10.5333 8.68 10.98 8.72 11.38L7.62 11.64C7.59333 11.2533 7.52 10.8067 7.4 10.3C7.29333 9.79333 7.16 9.27333 7 8.74C6.85333 8.20667 6.69333 7.71333 6.52 7.26ZM12.06 6.92L13.32 7.24C13.16 7.73333 12.9867 8.25333 12.8 8.8C12.6133 9.34667 12.4267 9.87333 12.24 10.38C12.0667 10.8867 11.8933 11.3267 11.72 11.7L10.78 11.4C10.94 11.0133 11.1 10.5533 11.26 10.02C11.42 9.48667 11.5733 8.94667 11.72 8.4C11.8667 7.85333 11.98 7.36 12.06 6.92ZM14.02 7.32H24.18V8.48H14.02V7.32ZM14.52 9.72H23.74V10.82H14.52V9.72ZM13.46 12.16H24.7V13.34H13.46V12.16ZM18.22 5.7H19.64V12.8H18.22V5.7ZM14.7 14.54H22.4V15.68H16.14V24.08H14.7V14.54ZM21.96 14.54H23.36V22.54C23.36 22.9 23.3133 23.18 23.22 23.38C23.14 23.5933 22.9667 23.7533 22.7 23.86C22.4333 23.9667 22.0867 24.0267 21.66 24.04C21.2333 24.0667 20.7067 24.08 20.08 24.08C20.0533 23.8933 19.9933 23.68 19.9 23.44C19.82 23.2133 19.7333 23.0067 19.64 22.82C20.0933 22.8333 20.5067 22.84 20.88 22.84C21.2533 22.8533 21.5 22.8533 21.62 22.84C21.7533 22.84 21.84 22.8133 21.88 22.76C21.9333 22.72 21.96 22.6467 21.96 22.54V14.54ZM15.46 17.18H22.52V18.26H15.46V17.18ZM15.46 19.76H22.52V20.82H15.46V19.76Z" fill="white"/>
</svg>
