<svg width="31" height="30" viewBox="0 0 31 30" fill="none" xmlns="http://www.w3.org/2000/svg">
<rect x="0.5" width="30" height="30" rx="10" fill="#529FFD"/>
<path d="M6.7 11.4H24.32V12.76H6.7V11.4ZM13.7 14.16H21.92V15.38H13.7V14.16ZM12.3 18.26H24.5V19.56H12.3V18.26ZM13.02 9.34L14.48 9.74C13.6667 11.7267 12.62 13.54 11.34 15.18C10.0733 16.8067 8.66 18.16 7.1 19.24C7.03333 19.1467 6.93333 19.02 6.8 18.86C6.68 18.7 6.54667 18.5467 6.4 18.4C6.26667 18.2533 6.14667 18.1333 6.04 18.04C7.05333 17.4 8 16.6333 8.88 15.74C9.76 14.8467 10.5467 13.86 11.24 12.78C11.9467 11.6867 12.54 10.54 13.02 9.34ZM17.72 16.78H19.18V22.52C19.18 22.9067 19.1267 23.2 19.02 23.4C18.9267 23.6133 18.7267 23.7733 18.42 23.88C18.1267 23.9867 17.7333 24.0467 17.24 24.06C16.7467 24.0867 16.1333 24.1 15.4 24.1C15.36 23.9133 15.2933 23.6933 15.2 23.44C15.1067 23.2 15.0133 22.9867 14.92 22.8C15.48 22.8133 15.9867 22.82 16.44 22.82C16.8933 22.8333 17.1933 22.8333 17.34 22.82C17.4867 22.82 17.5867 22.7933 17.64 22.74C17.6933 22.7 17.72 22.6133 17.72 22.48V16.78ZM21.4 14.16H21.74L22.04 14.08L22.96 14.78C22.3733 15.3667 21.6867 15.94 20.9 16.5C20.1267 17.06 19.3667 17.52 18.62 17.88C18.5267 17.7467 18.4 17.6 18.24 17.44C18.08 17.28 17.9467 17.1533 17.84 17.06C18.2667 16.8467 18.7067 16.5933 19.16 16.3C19.6133 15.9933 20.0333 15.68 20.42 15.36C20.82 15.0267 21.1467 14.72 21.4 14.44V14.16ZM11.26 5.7H12.72V10.24H11.26V5.7ZM18.16 5.7H19.62V10.24H18.16V5.7ZM6.74 7.16H24.32V8.5H6.74V7.16ZM9.5 15.64L10.54 14.58L10.92 14.7V24.1H9.5V15.64Z" fill="white"/>
</svg>
