<svg width="60" height="60" viewBox="0 0 60 60" fill="none" xmlns="http://www.w3.org/2000/svg">
<path d="M41.0018 37.569C40.5136 37.0809 39.7222 37.0808 39.234 37.569C38.7458 38.0571 38.7458 38.8486 39.234 39.3368L41.0018 37.569ZM44.9481 45.051C45.4363 45.5391 46.2278 45.5392 46.7159 45.051C47.2041 44.5628 47.2041 43.7714 46.7159 43.2832L44.9481 45.051ZM39.234 39.3368L44.9481 45.051L46.7159 43.2832L41.0018 37.569L39.234 39.3368ZM28.6892 38.6313C22.2787 38.6313 17.082 33.4346 17.082 27.0242H14.582C14.582 34.8153 20.898 41.1313 28.6892 41.1313V38.6313ZM40.2964 27.0242C40.2964 33.4346 35.0997 38.6313 28.6892 38.6313V41.1313C36.4804 41.1313 42.7964 34.8153 42.7964 27.0242H40.2964ZM28.6892 15.417C35.0997 15.417 40.2964 20.6137 40.2964 27.0242H42.7964C42.7964 19.233 36.4804 12.917 28.6892 12.917V15.417ZM28.6892 12.917C20.898 12.917 14.582 19.233 14.582 27.0242H17.082C17.082 20.6137 22.2787 15.417 28.6892 15.417V12.917Z" fill="#434343"/>
</svg>
