<svg width="60" height="60" viewBox="0 0 60 60" fill="none" xmlns="http://www.w3.org/2000/svg">
<path d="M51.0525 37.1694C51.0575 37.1602 51.0646 37.1471 51.0734 37.1303C51.075 37.1273 51.0766 37.1242 51.0783 37.1209C51.0671 37.1423 51.0584 37.1586 51.0525 37.1694Z" fill="#AEAEB1"/>
<path fill-rule="evenodd" clip-rule="evenodd" d="M46.4234 20.9002C46.3388 21.0474 46.3346 21.2274 46.4122 21.3783C46.4899 21.5292 46.6388 21.6304 46.8077 21.6471C47.5259 21.7179 48.2411 21.9392 48.9079 22.3242C51.4117 23.7697 52.2695 26.9713 50.824 29.475L50.5334 29.9784C50.4508 30.1213 50.4442 30.2959 50.5156 30.4447C50.5871 30.5935 50.7274 30.6975 50.8906 30.7226C51.3875 30.7988 51.8985 30.9738 52.4118 31.2702C53.4133 31.8484 54.0198 32.6553 54.316 33.5477C54.6019 34.4088 54.5772 35.2796 54.457 36.0025C54.3359 36.7304 54.1066 37.3764 53.9147 37.8311C53.8021 38.0981 53.6783 38.3572 53.5402 38.6061L47.8475 48.4663C47.7857 48.5733 47.7168 48.6864 47.629 48.8103C47.1099 49.5431 44.4108 53.1715 40.0758 55.6363C35.6741 58.1391 29.5744 59.4337 22.5252 55.3638C15.6287 51.3821 11.9159 46.8849 10.5789 41.6854C9.25627 36.542 10.3244 30.9453 12.4514 24.9017C12.8892 23.6579 13.8065 22.6574 14.9668 22.0837C17.7432 20.7109 20.88 22.1096 21.9573 24.6961C22.0305 24.8717 22.1969 24.9906 22.3867 25.0028C22.5765 25.0151 22.7568 24.9186 22.8519 24.7539L26.5389 18.3679C27.9808 15.8704 31.1743 15.0147 33.6718 16.4566C34.3343 16.8391 34.8804 17.3439 35.2989 17.9258C35.398 18.0635 35.5603 18.1416 35.7298 18.1331C35.8993 18.1246 36.0529 18.0307 36.1378 17.8838L37.5709 15.4016C39.009 12.9108 42.1939 12.0574 44.6847 13.4954C47.1794 14.9357 48.0301 18.1269 46.5862 20.6173L46.5833 20.6221L46.5825 20.6236L46.5788 20.63L46.578 20.6313L46.5743 20.6378L46.4234 20.9002ZM46.9158 31.4993L42.6074 38.9615C42.2799 39.5289 42.4743 40.2544 43.0416 40.582C43.609 40.9095 44.3345 40.7151 44.6621 40.1478L47.5464 35.1521L47.556 35.1362C47.5682 35.1164 47.5884 35.0839 47.6163 35.0411C47.6722 34.9551 47.758 34.8292 47.8701 34.681C48.0982 34.3797 48.4172 34.0108 48.7983 33.6973C49.1835 33.3804 49.5799 33.1631 49.9658 33.0836C50.3198 33.0107 50.7293 33.0383 51.2256 33.3248C51.7219 33.6114 51.9505 33.9522 52.0644 34.2952C52.1886 34.6692 52.1985 35.1211 52.1167 35.6132C52.0357 36.1 51.8757 36.5606 51.7288 36.9088C51.6566 37.08 51.5904 37.2172 51.544 37.3087L51.5355 37.3253C51.5234 37.3489 51.5129 37.3688 51.5044 37.3848L51.4916 37.4085L51.479 37.4316L45.7928 47.28C45.7524 47.3502 45.7238 47.3955 45.6932 47.4388C45.2484 48.0665 42.7911 51.3633 38.9031 53.5739C35.0812 55.747 29.8916 56.8773 23.7114 53.3092C17.1708 49.5329 14.0062 45.4871 12.8766 41.0946C11.7326 36.6456 12.6089 31.6007 14.6893 25.6894C14.9134 25.0526 15.3908 24.5207 16.0183 24.2104C17.9029 23.2786 20.0911 24.7304 19.9651 26.829L19.7524 30.3728C19.7195 30.922 20.0684 31.4217 20.5953 31.58C21.1222 31.7382 21.6888 31.5134 21.9638 31.037L28.5935 19.5541C29.3803 18.1913 31.1228 17.7244 32.4856 18.5112C33.8483 19.298 34.3152 21.0405 33.5285 22.4033L28.6283 30.8907C28.3007 31.458 28.4951 32.1835 29.0625 32.5111C29.6298 32.8386 30.3553 32.6443 30.6829 32.0769L39.6255 16.5878C40.4084 15.2318 42.1424 14.7671 43.4985 15.5501C44.8586 16.3353 45.3168 18.084 44.526 19.4407L41.9052 23.9975C41.901 24.0048 41.8967 24.012 41.8921 24.019C41.8518 24.0815 41.8127 24.1452 41.7747 24.2099L41.7742 24.2109L41.7689 24.2199L41.7678 24.2218L36.1934 33.9289C35.867 34.4973 36.063 35.223 36.6305 35.5491C37.1984 35.8755 37.9233 35.6798 38.2498 35.112L43.9095 25.2713C43.916 25.2599 43.923 25.2488 43.9304 25.238C44.3089 24.6855 44.8537 24.3031 45.4568 24.1194C46.1887 23.8967 47.0073 23.9664 47.7217 24.3788C49.0907 25.1692 49.5598 26.9198 48.7694 28.2888L46.9158 31.4993Z" fill="#AEAEB1"/>
<path d="M7 20.6986C12 12.2755 22 8.27539 31.5455 9.10772" stroke="#AEAEB1" stroke-width="2.5" stroke-linecap="round"/>
<path d="M6 13.0016C9 7 18 3.00109 24 3.50109" stroke="#AEAEB1" stroke-width="2.5" stroke-linecap="round"/>
</svg>
