<svg width="40" height="40" viewBox="0 0 40 40" fill="none" xmlns="http://www.w3.org/2000/svg">
<path d="M20 23.248C19.3096 23.248 18.75 23.8077 18.75 24.498C18.75 25.1884 19.3096 25.748 20 25.748V23.248ZM25.75 19.998C25.75 19.3077 25.1904 18.748 24.5 18.748C23.8096 18.748 23.25 19.3077 23.25 19.998H25.75ZM6.831 17.1861L5.81557 16.4572L5.81557 16.4572L6.831 17.1861ZM6.83067 22.8095L7.84611 22.0805L7.84611 22.0805L6.83067 22.8095ZM10.682 27.3373L11.6202 26.5113L11.5885 26.4753L11.5542 26.4419L10.682 27.3373ZM29.1516 12.498L28.2871 13.4009L28.3226 13.4349L28.3607 13.466L29.1516 12.498ZM5.50537 19.998L4.25537 19.998L5.50537 19.998ZM33.169 22.8099L34.1844 23.5389L34.1844 23.5389L33.169 22.8099ZM33.1689 17.186L32.1535 17.915L32.1535 17.915L33.1689 17.186ZM32.6898 14.5051C32.2529 13.9705 31.4654 13.8914 30.9309 14.3282C30.3964 14.7651 30.3172 15.5526 30.754 16.0871L32.6898 14.5051ZM13.9792 28.4948C13.4185 28.0921 12.6375 28.2201 12.2347 28.7808C11.832 29.3415 11.9601 30.1226 12.5208 30.5253L13.9792 28.4948ZM34.4946 19.998L33.2446 19.998L33.2446 19.998L34.4946 19.998ZM4.21913 31.022C3.68005 31.4532 3.59265 32.2398 4.02391 32.7789C4.45518 33.318 5.24179 33.4054 5.78087 32.9741L4.21913 31.022ZM35.7809 8.97413C36.3199 8.54287 36.4073 7.75626 35.9761 7.21718C35.5448 6.6781 34.7582 6.5907 34.2191 7.02196L35.7809 8.97413ZM29.2621 12.5884L30.043 13.5645L30.043 13.5645L29.2621 12.5884ZM10.7415 27.4049L11.5223 28.381L11.5223 28.381L10.7415 27.4049ZM20 14.248C16.8244 14.248 14.25 16.8224 14.25 19.998H16.75C16.75 18.2031 18.2051 16.748 20 16.748V14.248ZM14.25 19.998C14.25 21.3485 14.7171 22.5933 15.4976 23.5748L17.4543 22.0187C17.0129 21.4637 16.75 20.7633 16.75 19.998H14.25ZM24.4886 16.404C23.4369 15.0919 21.8166 14.248 20 14.248V16.748C21.0259 16.748 21.9402 17.2219 22.5379 17.9676L24.4886 16.404ZM20 25.748C23.1756 25.748 25.75 23.1737 25.75 19.998H23.25C23.25 21.793 21.7949 23.248 20 23.248V25.748ZM20 6.74805C16.7473 6.74805 13.816 8.35633 11.4484 10.2949C9.06646 12.2452 7.12112 14.6386 5.81557 16.4572L7.84643 17.9151C9.08709 16.1869 10.8862 13.9863 13.0322 12.2292C15.1925 10.4604 17.5726 9.24805 20 9.24805V6.74805ZM5.81523 23.5384C6.8108 24.9253 8.17219 26.6375 9.80974 28.2327L11.5542 26.4419C10.0531 24.9796 8.7862 23.3901 7.84611 22.0805L5.81523 23.5384ZM30.016 11.5951C27.41 9.10009 23.9352 6.74805 20 6.74805V9.24805C22.9552 9.24805 25.8283 11.0468 28.2871 13.4009L30.016 11.5951ZM5.81557 16.4572C4.98981 17.6074 4.25538 18.5576 4.25537 19.998L6.75537 19.998C6.75538 19.5077 6.9047 19.2269 7.84643 17.9151L5.81557 16.4572ZM7.84611 22.0805C6.90463 20.769 6.75537 20.4883 6.75537 19.998L4.25537 19.998C4.25536 21.4384 4.98964 22.3884 5.81523 23.5384L7.84611 22.0805ZM20 33.248C23.2527 33.248 26.184 31.6398 28.5516 29.7012C30.9335 27.7509 32.8789 25.3575 34.1844 23.5389L32.1536 22.081C30.9129 23.8092 29.1138 26.0098 26.9678 27.7669C24.8075 29.5357 22.4274 30.748 20 30.748V33.248ZM34.1843 16.457C33.7515 15.8541 33.2509 15.1916 32.6898 14.5051L30.754 16.0871C31.2779 16.7281 31.7469 17.3487 32.1535 17.915L34.1843 16.457ZM12.5208 30.5253C14.6696 32.0687 17.2157 33.248 20 33.248V30.748C17.9284 30.748 15.8882 29.866 13.9792 28.4948L12.5208 30.5253ZM34.1844 23.5389C35.0102 22.3887 35.7446 21.4385 35.7446 19.998L33.2446 19.998C33.2446 20.4883 33.0953 20.7692 32.1536 22.081L34.1844 23.5389ZM32.1535 17.915C33.0953 19.2269 33.2446 19.5078 33.2446 19.998L35.7446 19.998C35.7446 18.5576 35.0102 17.6074 34.1843 16.457L32.1535 17.915ZM30.043 13.5645L35.7809 8.97413L34.2191 7.02196L28.4812 11.6123L30.043 13.5645ZM28.3607 13.466L28.4712 13.5564L30.053 11.6204L29.9424 11.5301L28.3607 13.466ZM5.78087 32.9741L11.5223 28.381L9.9606 26.4288L4.21913 31.022L5.78087 32.9741ZM11.5223 28.381L30.043 13.5645L28.4812 11.6123L9.9606 26.4288L11.5223 28.381ZM9.74372 28.1632L9.80323 28.2308L11.6797 26.5789L11.6202 26.5113L9.74372 28.1632Z" fill="#AEAEB1"/>
</svg>
