<svg width="70" height="70" viewBox="0 0 70 70" fill="none" xmlns="http://www.w3.org/2000/svg">
<rect width="70" height="70" rx="23.3333" fill="#FFC43E"/>
<path d="M33.9966 16.6306C34.407 15.7898 35.593 15.7898 36.0034 16.6306L41.3169 27.5152C41.4799 27.8491 41.795 28.0806 42.1594 28.1341L54.0407 29.8795C54.9585 30.0144 55.325 31.1547 54.6609 31.8092L46.0635 40.2817C45.7998 40.5416 45.6794 40.916 45.7417 41.283L47.7712 53.2464C47.928 54.1705 46.9686 54.8753 46.1476 54.439L35.5207 48.7906C35.1947 48.6174 34.8053 48.6174 34.4793 48.7906L23.8524 54.439C23.0314 54.8753 22.072 54.1705 22.2288 53.2464L24.2583 41.283C24.3206 40.916 24.2002 40.5416 23.9365 40.2817L15.3391 31.8092C14.675 31.1547 15.0415 30.0144 15.9593 29.8795L27.8406 28.1341C28.205 28.0806 28.5201 27.8491 28.6831 27.5152L33.9966 16.6306Z" fill="white"/>
</svg>
