<svg width="44" height="44" viewBox="0 0 44 44" fill="none" xmlns="http://www.w3.org/2000/svg">
<g clip-path="url(#clip0_10311_370587)">
<g clip-path="url(#clip1_10311_370587)">
<path d="M40.2154 7C40.2154 7 38.0102 16.8869 29.7804 20.4695C28.5292 21.0136 27.5065 21.97 26.8858 23.1765L23.5781 29.5689C23.5781 29.5689 29.9607 32.6436 32.8631 27.2662C32.0132 27.3613 31.1542 27.3414 30.3097 27.2071C30.3097 27.2071 37.6872 27.2514 39.4092 21.1605C39.4092 21.1605 37.6133 22.4185 36.7221 22.4552C38.0212 21.6603 39.0954 20.5515 39.8441 19.2328C40.5928 17.914 40.9914 16.4285 41.0027 14.9153C41.0027 14.9153 37.8857 18.7627 35.8965 19.608C37.9235 18.2774 39.4475 16.3173 40.2291 14.0353C41.0108 11.7534 41.0059 9.27888 40.2154 7Z" fill="url(#paint0_linear_10311_370587)"/>
<path d="M3.78867 7C3.78867 7 5.99318 16.8869 14.2223 20.4695C15.4735 21.0136 16.4962 21.97 17.1169 23.1765L20.4246 29.5689C20.4246 29.5689 14.042 32.6436 11.1396 27.2662C11.9895 27.3613 12.8486 27.3414 13.6931 27.2071C13.6931 27.2071 6.3272 27.2495 4.59745 21.1612C4.59745 21.1612 6.39335 22.4192 7.28449 22.4558C5.98476 21.6613 4.90995 20.5526 4.16088 19.2337C3.41181 17.9147 3.01303 16.4288 3.00195 14.9153C3.00195 14.9153 6.119 18.7627 8.10818 19.608C6.08102 18.2774 4.55696 16.3174 3.77518 14.0355C2.99339 11.7536 2.99814 9.27895 3.78867 7Z" fill="url(#paint1_linear_10311_370587)"/>
<path d="M20.5996 18.8574H23.4053V28.2738H20.5996V18.8574Z" fill="url(#paint2_linear_10311_370587)"/>
<path d="M18.834 30.9059C18.834 30.0728 19.1679 29.2738 19.7622 28.6847C20.3566 28.0956 21.1627 27.7646 22.0032 27.7646C22.8438 27.7646 23.6499 28.0956 24.2443 28.6847C24.8386 29.2738 25.1725 30.0728 25.1725 30.9059H18.834Z" fill="url(#paint3_linear_10311_370587)"/>
<path d="M17.549 30.9062H26.4553C26.8484 30.9081 27.2249 31.0637 27.503 31.3393C27.781 31.6148 27.938 31.988 27.9399 32.3777V34.9523H16.0645V32.3777C16.0663 31.988 16.2233 31.6148 16.5014 31.3393C16.7794 31.0637 17.1559 30.9081 17.549 30.9062Z" fill="url(#paint4_linear_10311_370587)"/>
<path d="M15.1368 34.9531H28.8671C29.4084 34.9531 29.9276 35.1663 30.3103 35.5456C30.6931 35.925 30.9082 36.4396 30.9082 36.9761C30.9082 37.5127 30.6931 38.0272 30.3103 38.4066C29.9276 38.786 29.4084 38.9992 28.8671 38.9992H15.1368C14.5954 38.9992 14.0763 38.786 13.6935 38.4066C13.3107 38.0272 13.0957 37.5127 13.0957 36.9761C13.0957 36.4396 13.3107 35.925 13.6935 35.5456C14.0763 35.1663 14.5954 34.9531 15.1368 34.9531Z" fill="url(#paint5_linear_10311_370587)"/>
<path d="M23.5931 7.95519L25.0595 10.7252L28.1727 11.2498C28.4965 11.3041 28.7992 11.4452 29.0478 11.6579C29.2965 11.8706 29.4817 12.1466 29.5833 12.4562C29.6849 12.7657 29.6991 13.097 29.6244 13.4139C29.5496 13.7309 29.3887 14.0216 29.1592 14.2544L26.954 16.4941L27.4113 19.5919C27.4592 19.9141 27.4173 20.2431 27.2899 20.5433C27.1626 20.8435 26.9548 21.1034 26.689 21.2948C26.4232 21.4862 26.1096 21.6019 25.7823 21.6292C25.4549 21.6565 25.1262 21.5944 24.8319 21.4497L21.9989 20.0618L19.1711 21.4497C18.8768 21.5944 18.5481 21.6565 18.2207 21.6292C17.8933 21.6019 17.5797 21.4862 17.314 21.2948C17.0482 21.1034 16.8404 20.8435 16.713 20.5433C16.5857 20.2431 16.5438 19.9141 16.5917 19.5919L17.049 16.4941L14.8386 14.2544C14.6091 14.0216 14.4482 13.7309 14.3734 13.4139C14.2986 13.097 14.3128 12.7657 14.4145 12.4562C14.5161 12.1466 14.7013 11.8706 14.95 11.6579C15.1986 11.4452 15.5013 11.3041 15.8251 11.2498L18.9383 10.7252L20.4047 7.95519C20.5572 7.66732 20.7862 7.42625 21.067 7.25806C21.3477 7.08988 21.6695 7.00098 21.9976 7.00098C22.3256 7.00098 22.6475 7.08988 22.9282 7.25806C23.209 7.42625 23.438 7.66732 23.5905 7.95519H23.5931Z" fill="url(#paint6_linear_10311_370587)"/>
</g>
</g>
<defs>
<linearGradient id="paint0_linear_10311_370587" x1="24.2403" y1="10.118" x2="47.6134" y2="22.9241" gradientUnits="userSpaceOnUse">
<stop stop-color="#FF9900"/>
<stop offset="1" stop-color="#FCD34F"/>
</linearGradient>
<linearGradient id="paint1_linear_10311_370587" x1="24.2228" y1="10.118" x2="47.6102" y2="22.9192" gradientUnits="userSpaceOnUse">
<stop stop-color="#FF9900"/>
<stop offset="1" stop-color="#FCD34F"/>
</linearGradient>
<linearGradient id="paint2_linear_10311_370587" x1="22.0025" y1="12.0588" x2="22.0025" y2="21.4752" gradientUnits="userSpaceOnUse">
<stop stop-color="#FCD34F"/>
<stop offset="1" stop-color="#FF6A00"/>
</linearGradient>
<linearGradient id="paint3_linear_10311_370587" x1="22.0032" y1="12.5673" x2="22.0032" y2="9.42604" gradientUnits="userSpaceOnUse">
<stop stop-color="#FCD34F"/>
<stop offset="1" stop-color="#FF6A00"/>
</linearGradient>
<linearGradient id="paint4_linear_10311_370587" x1="22.0022" y1="5.37974" x2="22.0022" y2="9.42579" gradientUnits="userSpaceOnUse">
<stop stop-color="#3D5969"/>
<stop offset="1" stop-color="#698999"/>
</linearGradient>
<linearGradient id="paint5_linear_10311_370587" x1="22.0019" y1="1.33452" x2="22.0019" y2="5.38057" gradientUnits="userSpaceOnUse">
<stop stop-color="#FF9900"/>
<stop offset="1" stop-color="#FCD34F"/>
</linearGradient>
<linearGradient id="paint6_linear_10311_370587" x1="19.7278" y1="18.8403" x2="26.0612" y2="9.99053" gradientUnits="userSpaceOnUse">
<stop stop-color="#FF9900"/>
<stop offset="0.11" stop-color="#FFA200"/>
<stop offset="0.37" stop-color="#FFB300"/>
<stop offset="1" stop-color="#F5FF00"/>
</linearGradient>
<clipPath id="clip0_10311_370587">
<rect width="39" height="35" fill="white" transform="translate(2 4)"/>
</clipPath>
<clipPath id="clip1_10311_370587">
<rect width="38" height="32" fill="white" transform="translate(3 7)"/>
</clipPath>
</defs>
</svg>
