<svg width="30" height="30" viewBox="0 0 30 30" fill="none" xmlns="http://www.w3.org/2000/svg">
<path d="M8.06864 27.1941L8.37766 26.243L8.06864 27.1941ZM4.0559 23.1814L5.00695 22.8723L4.0559 23.1814ZM25.9441 23.1814L24.993 22.8723L25.9441 23.1814ZM21.9314 27.1941L21.6223 26.243L21.9314 27.1941ZM21.9314 10.3059L21.6223 11.257L21.9314 10.3059ZM25.9441 14.3186L24.993 14.6277L25.9441 14.3186ZM8.06864 10.3059L8.37766 11.257L8.06864 10.3059ZM4.0559 14.3186L5.00695 14.6277L4.0559 14.3186ZM16 16.25C16 15.6977 15.5523 15.25 15 15.25C14.4477 15.25 14 15.6977 14 16.25H16ZM14 21.25C14 21.8023 14.4477 22.25 15 22.25C15.5523 22.25 16 21.8023 16 21.25H14ZM12.5 11H17.5V9H12.5V11ZM17.5 26.5H12.5V28.5H17.5V26.5ZM12.5 26.5C10.0956 26.5 9.13051 26.4877 8.37766 26.243L7.75963 28.1452C8.88968 28.5123 10.2512 28.5 12.5 28.5V26.5ZM2.75 18.75C2.75 20.9988 2.73766 22.3603 3.10484 23.4904L5.00695 22.8723C4.76234 22.1195 4.75 21.1544 4.75 18.75H2.75ZM8.37766 26.243C6.77936 25.7237 5.52627 24.4706 5.00695 22.8723L3.10484 23.4904C3.82199 25.6975 5.55245 27.428 7.75963 28.1452L8.37766 26.243ZM25.25 18.75C25.25 21.1544 25.2377 22.1195 24.993 22.8723L26.8952 23.4904C27.2623 22.3603 27.25 20.9988 27.25 18.75H25.25ZM17.5 28.5C19.7488 28.5 21.1103 28.5123 22.2404 28.1452L21.6223 26.243C20.8695 26.4877 19.9044 26.5 17.5 26.5V28.5ZM24.993 22.8723C24.4737 24.4706 23.2206 25.7237 21.6223 26.243L22.2404 28.1452C24.4475 27.428 26.178 25.6975 26.8952 23.4904L24.993 22.8723ZM27.25 18.75C27.25 16.5012 27.2623 15.1397 26.8952 14.0096L24.993 14.6277C25.2377 15.3805 25.25 16.3456 25.25 18.75H27.25ZM21.6223 11.257C23.2206 11.7763 24.4737 13.0294 24.993 14.6277L26.8952 14.0096C26.178 11.8025 24.4475 10.072 22.2404 9.35484L21.6223 11.257ZM4.75 18.75C4.75 16.3456 4.76234 15.3805 5.00695 14.6277L3.10484 14.0096C2.73766 15.1397 2.75 16.5012 2.75 18.75H4.75ZM7.75963 9.35484C5.55245 10.072 3.82199 11.8025 3.10484 14.0096L5.00695 14.6277C5.52627 13.0294 6.77936 11.7763 8.37766 11.257L7.75963 9.35484ZM20.25 8.75V10H22.25V8.75H20.25ZM9.75 10V8.75H7.75V10H9.75ZM15 3.5C17.8995 3.5 20.25 5.85051 20.25 8.75H22.25C22.25 4.74594 19.0041 1.5 15 1.5V3.5ZM15 1.5C10.9959 1.5 7.75 4.74594 7.75 8.75H9.75C9.75 5.85051 12.1005 3.5 15 3.5V1.5ZM14 16.25V21.25H16V16.25H14ZM12.5 9C10.7382 9 9.53081 8.99651 8.58387 9.15604L8.91613 11.1282C9.65668 11.0035 10.6577 11 12.5 11V9ZM8.58387 9.15604C8.29666 9.20443 8.02471 9.26871 7.75963 9.35484L8.37766 11.257C8.53708 11.2052 8.71217 11.1626 8.91613 11.1282L8.58387 9.15604ZM7.75 10V10.1421H9.75V10H7.75ZM17.5 11C19.3423 11 20.3433 11.0035 21.0839 11.1282L21.4161 9.15604C20.4692 8.99651 19.2618 9 17.5 9V11ZM21.0839 11.1282C21.2878 11.1626 21.4629 11.2052 21.6223 11.257L22.2404 9.35484C21.9753 9.26871 21.7033 9.20443 21.4161 9.15604L21.0839 11.1282ZM20.25 10V10.1421H22.25V10H20.25Z" fill="currentColor"/>
</svg>
