<svg width="44" height="44" viewBox="0 0 44 44" fill="none" xmlns="http://www.w3.org/2000/svg">
<path d="M11.834 39.8821L12.2589 38.5744L11.834 39.8821ZM5.94865 33.9967L7.25635 33.5718L5.94865 33.9967ZM38.0514 33.9967L36.7437 33.5718L38.0514 33.9967ZM32.166 39.8821L31.7411 38.5744L32.166 39.8821ZM32.166 15.1127L31.7411 16.4204L32.166 15.1127ZM38.0514 20.9981L36.7437 21.423L38.0514 20.9981ZM11.834 15.1127L12.2589 16.4204L11.834 15.1127ZM5.94865 20.9981L7.25635 21.423L5.94865 20.9981ZM23.375 23.8307C23.375 23.0713 22.7594 22.4557 22 22.4557C21.2406 22.4557 20.625 23.0713 20.625 23.8307H23.375ZM20.625 31.1641C20.625 31.9235 21.2406 32.5391 22 32.5391C22.7594 32.5391 23.375 31.9235 23.375 31.1641H20.625ZM18.3333 16.0391H25.6667V13.2891H18.3333V16.0391ZM25.6667 38.9557H18.3333V41.7057H25.6667V38.9557ZM18.3333 38.9557C14.814 38.9557 13.3804 38.9388 12.2589 38.5744L11.4091 41.1898C13.0492 41.7227 15.028 41.7057 18.3333 41.7057V38.9557ZM4.125 27.4974C4.125 30.8027 4.10804 32.7815 4.64095 34.4216L7.25635 33.5718C6.89196 32.4503 6.875 31.0168 6.875 27.4974H4.125ZM12.2589 38.5744C9.88683 37.8036 8.02709 35.9439 7.25635 33.5718L4.64095 34.4216C5.6837 37.6309 8.19983 40.147 11.4091 41.1898L12.2589 38.5744ZM37.125 27.4974C37.125 31.0168 37.108 32.4503 36.7437 33.5718L39.3591 34.4216C39.892 32.7815 39.875 30.8027 39.875 27.4974H37.125ZM25.6667 41.7057C28.972 41.7057 30.9508 41.7227 32.5909 41.1898L31.7411 38.5744C30.6196 38.9388 29.186 38.9557 25.6667 38.9557V41.7057ZM36.7437 33.5718C35.9729 35.9439 34.1132 37.8036 31.7411 38.5744L32.5909 41.1898C35.8002 40.147 38.3163 37.6309 39.3591 34.4216L36.7437 33.5718ZM39.875 27.4974C39.875 24.1921 39.892 22.2133 39.3591 20.5732L36.7437 21.423C37.108 22.5444 37.125 23.978 37.125 27.4974H39.875ZM31.7411 16.4204C34.1132 17.1911 35.9729 19.0509 36.7437 21.423L39.3591 20.5732C38.3163 17.3639 35.8002 14.8478 32.5909 13.805L31.7411 16.4204ZM6.875 27.4974C6.875 23.978 6.89196 22.5444 7.25635 21.423L4.64095 20.5732C4.10804 22.2133 4.125 24.1921 4.125 27.4974H6.875ZM11.4091 13.805C8.19983 14.8478 5.68371 17.3639 4.64095 20.5732L7.25635 21.423C8.02709 19.0509 9.88683 17.1911 12.2589 16.4204L11.4091 13.805ZM29.7917 12.8307V14.6641H32.5417V12.8307H29.7917ZM14.2083 14.6641V12.8307H11.4583V14.6641H14.2083ZM22 5.03906C26.3032 5.03906 29.7917 8.52751 29.7917 12.8307H32.5417C32.5417 7.00873 27.822 2.28906 22 2.28906V5.03906ZM22 2.28906C16.178 2.28906 11.4583 7.00873 11.4583 12.8307H14.2083C14.2083 8.52751 17.6968 5.03906 22 5.03906V2.28906ZM20.625 23.8307V31.1641H23.375V23.8307H20.625ZM18.3333 13.2891C15.7456 13.2891 13.9843 13.2843 12.6049 13.5166L13.0618 16.2284C14.1574 16.0439 15.6349 16.0391 18.3333 16.0391V13.2891ZM12.6049 13.5166C12.1875 13.587 11.7931 13.6803 11.4091 13.805L12.2589 16.4204C12.4976 16.3429 12.7588 16.2795 13.0618 16.2284L12.6049 13.5166ZM11.4583 14.6641V14.8725H14.2083V14.6641H11.4583ZM25.6667 16.0391C28.3651 16.0391 29.8426 16.0439 30.9382 16.2284L31.3951 13.5166C30.0157 13.2843 28.2544 13.2891 25.6667 13.2891V16.0391ZM30.9382 16.2284C31.2412 16.2795 31.5024 16.3429 31.7411 16.4204L32.5909 13.805C32.2069 13.6803 31.8125 13.587 31.3951 13.5166L30.9382 16.2284ZM29.7917 14.6641V14.8725H32.5417V14.6641H29.7917Z" fill="#434343"/>
</svg>
