<svg width="44" height="44" viewBox="0 0 44 44" fill="none" xmlns="http://www.w3.org/2000/svg">
<g clip-path="url(#clip0_2310_71332)">
<g clip-path="url(#clip1_2310_71332)">
<path d="M27.8466 23.1003H27.5C26.6063 23.1003 25.8818 22.3759 25.8818 21.4822C25.8818 20.5887 26.6063 19.8643 27.5 19.8643H27.8466C31.484 19.8643 34.9439 18.1164 37.1023 15.1885C37.5065 14.64 37.3122 14.1096 37.2098 13.9067C37.1077 13.7041 36.7961 13.233 36.1144 13.233H33.19C32.2963 13.233 31.5718 12.5086 31.5718 11.6148C31.5718 10.7211 32.2963 9.99695 33.19 9.99695H36.1144C37.8084 9.99695 39.3349 10.936 40.0984 12.4477C40.8621 13.9594 40.7122 15.7453 39.7071 17.1085C36.9416 20.8604 32.5077 23.1003 27.8466 23.1003Z" fill="#FAB838"/>
<path d="M22.7624 35.3856H21.208L18.7471 26.5255H25.3029L22.7624 35.3856Z" fill="#FAD200"/>
<path d="M33.1747 6.65967H11.0847C10.697 6.65967 10.3574 6.92503 10.2699 7.30263C10.0686 8.16911 9.96015 9.0711 9.95508 9.9975H8.20215C6.52404 9.9975 4.95784 10.9036 4.17982 12.3905C3.38277 13.9143 3.52354 15.7287 4.54125 17.1094C6.687 20.0202 9.83714 22.0201 13.318 22.7709C15.5354 25.9689 18.6633 28.3185 22.1299 28.3185C28.8543 28.3185 34.3059 19.4749 34.3059 12.7501V10.0679C34.3059 9.11675 34.1962 8.1913 33.9901 7.30327C33.9023 6.92535 33.5628 6.65967 33.1747 6.65967ZM7.14639 15.1894C6.74185 14.6409 6.93619 14.1102 7.0386 13.9076C7.141 13.705 7.45266 13.2339 8.1343 13.2339H9.96396C10.0286 14.9526 10.4332 16.7889 11.111 18.5684C9.56638 17.7673 8.20056 16.6196 7.14639 15.1894Z" fill="#FAD200"/>
<path d="M23.437 26.5255L21.0547 34.8339L21.2081 35.3856H22.7626L25.3031 26.5255H23.437Z" fill="#FAB700"/>
<path d="M40.0978 12.4486C39.3341 10.9369 37.8075 9.99782 36.1139 9.99782H34.1999C34.1945 9.07142 34.0864 8.16943 33.885 7.30327C33.7972 6.92535 33.4577 6.65967 33.0699 6.65967H29.8729C30.0713 7.53154 30.1769 8.43828 30.1769 9.37007V12.0526C30.1769 18.5456 25.0944 27.0135 18.6904 27.589C19.7503 28.056 20.8685 28.3188 22.0245 28.3188C25.4824 28.3188 28.6034 25.9803 30.8199 22.794C34.3444 22.0619 37.5383 20.0509 39.7066 17.1094C40.7116 15.7461 40.8616 13.9602 40.0978 12.4486ZM37.1018 15.1894C36.021 16.6557 34.6133 17.8256 33.0208 18.6287C33.7123 16.8304 34.125 14.9722 34.1907 13.2339H36.1139C36.7955 13.2339 37.1072 13.705 37.2092 13.9076C37.3116 14.1102 37.506 14.6409 37.1018 15.1894Z" fill="#FAB700"/>
<path d="M7.5915 27.1144C9.49186 27.5551 10.9379 28.7424 11.5606 29.3289C11.7238 29.4827 11.6608 29.755 11.4464 29.8213C10.6291 30.074 8.808 30.5039 6.90796 30.0632C5.0076 29.6228 3.56125 28.4355 2.93889 27.849C2.77562 27.6949 2.83871 27.4229 3.05303 27.3566C3.87005 27.1036 5.69146 26.6737 7.5915 27.1144Z" fill="#1DC2FF"/>
<path d="M4.61795 23.2398C5.64675 24.2686 6.1239 25.5758 6.31698 26.2638C6.37849 26.4825 6.1759 26.6851 5.95714 26.6239C5.26915 26.4305 3.96198 25.9534 2.93318 24.9246C1.90406 23.8958 1.42691 22.5886 1.23383 21.9006C1.17232 21.6816 1.37491 21.479 1.59399 21.5405C2.28165 21.7335 3.58914 22.211 4.61795 23.2398Z" fill="#1DC2FF"/>
<path d="M10.4412 28.4221C9.51735 28.6671 7.92325 28.9436 6.26829 28.56C5.12788 28.2956 4.15171 27.7623 3.41807 27.2512C3.28079 27.2877 3.15841 27.3232 3.05252 27.3558C2.83851 27.4221 2.77574 27.6944 2.93902 27.8482C3.56169 28.4347 5.00772 29.6221 6.90776 30.0624C8.8078 30.5031 10.6289 30.0732 11.4462 29.8205C11.6609 29.754 11.723 29.4813 11.5591 29.3272C11.3102 29.0926 10.9295 28.7622 10.4412 28.4221Z" fill="#00A2FF"/>
<path d="M2.93309 23.5414C2.30312 22.9118 1.8805 22.1778 1.60277 21.5453C1.5996 21.5444 1.59675 21.5437 1.5939 21.5428C1.37482 21.4813 1.17255 21.6839 1.23374 21.9026C1.42682 22.5906 1.90428 23.8978 2.93309 24.9266C3.96158 25.9554 5.26875 26.4325 5.95673 26.6256C6.17612 26.6874 6.37808 26.4842 6.31657 26.2648C6.24143 25.9982 6.12381 25.6384 5.94785 25.2379C5.25797 25.0436 3.95777 24.5664 2.93309 23.5414Z" fill="#00A2FF"/>
<path d="M36.4099 27.1144C34.5099 27.5551 33.0635 28.7424 32.4408 29.3289C32.2776 29.4827 32.3406 29.755 32.5553 29.8213C33.3723 30.074 35.1934 30.5039 37.0938 30.0632C38.9938 29.6228 40.4401 28.4355 41.0625 27.849C41.2258 27.6949 41.1627 27.4229 40.9484 27.3566C40.1313 27.1036 38.3102 26.6737 36.4099 27.1144Z" fill="#1DC2FF"/>
<path d="M39.3831 23.2397C38.3543 24.2685 37.8771 25.5757 37.684 26.2637C37.6225 26.4824 37.8251 26.685 38.0439 26.6238C38.7319 26.4304 40.039 25.9533 41.0681 24.9245C42.0969 23.8957 42.5741 22.5885 42.7672 21.9005C42.8287 21.6818 42.6261 21.4792 42.4073 21.5404C41.7193 21.7334 40.4122 22.2109 39.3831 23.2397Z" fill="#1DC2FF"/>
<path d="M33.5595 28.4221C34.4834 28.6671 36.0775 28.9436 37.7327 28.56C38.8728 28.2956 39.849 27.7623 40.5826 27.2512C40.7199 27.2877 40.8423 27.3232 40.9482 27.3558C41.1622 27.4221 41.225 27.6944 41.0617 27.8482C40.4393 28.4347 38.993 29.6221 37.093 30.0624C35.1929 30.5031 33.3718 30.0732 32.5548 29.8205C32.3398 29.754 32.2777 29.4813 32.4416 29.3272C32.6908 29.0926 33.0713 28.7622 33.5595 28.4221Z" fill="#00A2FF"/>
<path d="M41.0686 23.5414C41.6983 22.9118 42.1209 22.1778 42.3989 21.5453C42.4018 21.5444 42.4046 21.5437 42.4075 21.5428C42.6266 21.4813 42.8292 21.6839 42.7676 21.9026C42.5746 22.5906 42.0971 23.8978 41.0686 24.9266C40.0398 25.9554 38.7326 26.4325 38.0447 26.6256C37.8253 26.6874 37.6233 26.4842 37.6851 26.2648C37.76 25.9982 37.8776 25.6384 38.0535 25.2379C38.7434 25.0436 40.0436 24.5664 41.0686 23.5414Z" fill="#00A2FF"/>
<path d="M12.9673 29.8533C14.8882 29.5144 16.684 30.0407 17.4864 30.3365C17.6969 30.4141 17.7458 30.6893 17.5742 30.8342C16.9214 31.3868 15.4139 32.4955 13.4929 32.8344C11.572 33.173 9.77624 32.6468 8.97381 32.351C8.76329 32.2733 8.71478 31.9981 8.88599 31.8532C9.53878 31.3006 11.0463 30.1919 12.9673 29.8533Z" fill="#1DC2FF"/>
<path d="M15.9449 29.9105C15.1881 30.4974 13.8353 31.3683 12.1711 31.6619C11.0868 31.853 10.0428 31.7684 9.19438 31.6054C9.07739 31.6961 8.97467 31.7801 8.88685 31.8543C8.71564 31.9992 8.76447 32.2744 8.97498 32.3518C9.77742 32.6479 11.5732 33.1738 13.4938 32.8352C15.4148 32.4966 16.922 31.3879 17.5751 30.8353C17.7463 30.6904 17.6978 30.4153 17.4873 30.3376C17.1376 30.2089 16.5996 30.0364 15.9449 29.9105Z" fill="#00A2FF"/>
<path d="M31.033 29.8533C29.112 29.5144 27.3163 30.0407 26.5138 30.3365C26.3033 30.4141 26.2548 30.6893 26.426 30.8342C27.0788 31.3868 28.5864 32.4955 30.5073 32.8344C32.4283 33.173 34.224 32.6468 35.0265 32.351C35.237 32.2733 35.2855 31.9981 35.1143 31.8532C34.4615 31.3006 32.9539 30.1919 31.033 29.8533Z" fill="#1DC2FF"/>
<path d="M28.0562 29.9105C28.813 30.4974 30.1658 31.3683 31.8299 31.6619C32.9142 31.853 33.9583 31.7684 34.8067 31.6054C34.9236 31.6961 35.0267 31.7801 35.1142 31.8543C35.2854 31.9992 35.2366 32.2744 35.0261 32.3518C34.2236 32.6479 32.4279 33.1738 30.5072 32.8352C28.5863 32.4966 27.079 31.3879 26.4263 30.8353C26.2547 30.6904 26.3032 30.4153 26.5141 30.3376C26.8635 30.2089 27.4018 30.0364 28.0562 29.9105Z" fill="#00A2FF"/>
<path d="M27.35 37.321C27.7482 37.321 27.9866 36.8809 27.7723 36.5452C26.4375 34.4552 24.3596 33.1116 22.0255 33.1116C19.6911 33.1116 17.6132 34.4552 16.2788 36.5452C16.0645 36.8806 16.3026 37.321 16.7008 37.321H27.35Z" fill="#FAD200"/>
<path d="M22.0255 33.1116C21.5861 33.1116 21.1561 33.1601 20.7383 33.2514C22.8048 33.7022 24.5701 35.2186 25.6414 37.3206H27.3499C27.7478 37.3206 27.9862 36.8806 27.7719 36.5452C26.4375 34.4552 24.3595 33.1116 22.0255 33.1116Z" fill="#FAB700"/>
<path d="M13.7937 11.5542V10.3328H19.0528V11.5542H17.1661V16.5551H15.6834V11.5542H13.7937ZM25.376 13.4439C25.376 14.1285 25.2444 14.7088 24.9811 15.1848C24.7178 15.6608 24.3613 16.0224 23.9116 16.2695C23.464 16.5166 22.9617 16.6401 22.4047 16.6401C21.8456 16.6401 21.3423 16.5156 20.8947 16.2664C20.4471 16.0173 20.0916 15.6557 19.8283 15.1818C19.567 14.7058 19.4364 14.1265 19.4364 13.4439C19.4364 12.7593 19.567 12.179 19.8283 11.7031C20.0916 11.2271 20.4471 10.8655 20.8947 10.6184C21.3423 10.3713 21.8456 10.2478 22.4047 10.2478C22.9617 10.2478 23.464 10.3713 23.9116 10.6184C24.3613 10.8655 24.7178 11.2271 24.9811 11.7031C25.2444 12.179 25.376 12.7593 25.376 13.4439ZM23.8387 13.4439C23.8387 13.0389 23.781 12.6965 23.6655 12.417C23.5521 12.1375 23.388 11.9259 23.1733 11.7821C22.9607 11.6382 22.7044 11.5663 22.4047 11.5663C22.1069 11.5663 21.8507 11.6382 21.636 11.7821C21.4213 11.9259 21.2562 12.1375 21.1408 12.417C21.0274 12.6965 20.9706 13.0389 20.9706 13.4439C20.9706 13.849 21.0274 14.1913 21.1408 14.4709C21.2562 14.7504 21.4213 14.962 21.636 15.1058C21.8507 15.2496 22.1069 15.3215 22.4047 15.3215C22.7044 15.3215 22.9607 15.2496 23.1733 15.1058C23.388 14.962 23.5521 14.7504 23.6655 14.4709C23.781 14.1913 23.8387 13.849 23.8387 13.4439ZM26.2541 16.5551V10.3328H28.8244C29.2902 10.3328 29.6923 10.424 30.0305 10.6063C30.3708 10.7865 30.6331 11.0387 30.8174 11.3628C31.0018 11.6848 31.0939 12.0595 31.0939 12.4869C31.0939 12.9163 30.9997 13.292 30.8114 13.6141C30.625 13.9341 30.3587 14.1822 30.0123 14.3584C29.666 14.5347 29.2548 14.6228 28.7788 14.6228H27.1929V13.4379H28.4993C28.7261 13.4379 28.9155 13.3984 29.0674 13.3194C29.2214 13.2404 29.3378 13.13 29.4168 12.9882C29.4958 12.8444 29.5353 12.6773 29.5353 12.4869C29.5353 12.2945 29.4958 12.1284 29.4168 11.9886C29.3378 11.8469 29.2214 11.7375 29.0674 11.6605C28.9135 11.5836 28.7241 11.5451 28.4993 11.5451H27.758V16.5551H26.2541Z" fill="white"/>
</g>
</g>
<defs>
<clipPath id="clip0_2310_71332">
<rect width="44" height="44" fill="white"/>
</clipPath>
<clipPath id="clip1_2310_71332">
<rect width="41.5556" height="41.5556" fill="white" transform="translate(1.22266 1.22217)"/>
</clipPath>
</defs>
</svg>
