<svg width="60" height="60" viewBox="0 0 60 60" fill="none" xmlns="http://www.w3.org/2000/svg">
<path d="M37.0463 41.6569C37.8296 42.223 38.0057 43.317 37.4396 44.1003C36.5844 45.2836 35.3882 46.2228 34.0067 46.8604C32.6248 47.4982 31.0792 47.8252 29.5213 47.8252C27.9634 47.8252 26.4177 47.4982 25.0358 46.8604C23.6543 46.2229 22.4581 45.2837 21.6029 44.1004C21.0367 43.3171 21.2128 42.2232 21.9961 41.657C22.7794 41.0909 23.8734 41.2669 24.4396 42.0502C24.9029 42.6914 25.6021 43.267 26.5025 43.6826C27.4024 44.0979 28.4448 44.3252 29.5212 44.3252C30.5977 44.3252 31.6401 44.0979 32.54 43.6825C33.4404 43.267 34.1395 42.6913 34.6029 42.0502C35.169 41.2668 36.263 41.0908 37.0463 41.6569Z" fill="currentColor"/>
<path d="M25.0211 33.5751C25.0211 34.9558 23.9018 36.0751 22.5211 36.0751C21.1404 36.0751 20.0211 34.9558 20.0211 33.5751C20.0211 32.1944 21.1404 31.0751 22.5211 31.0751C23.9018 31.0751 25.0211 32.1944 25.0211 33.5751Z" fill="currentColor"/>
<path d="M37.5211 36.0751C38.9018 36.0751 40.0211 34.9558 40.0211 33.5751C40.0211 32.1944 38.9018 31.0751 37.5211 31.0751C36.1404 31.0751 35.0211 32.1944 35.0211 33.5751C35.0211 34.9558 36.1404 36.0751 37.5211 36.0751Z" fill="currentColor"/>
<path fill-rule="evenodd" clip-rule="evenodd" d="M12.3402 7.32983C13.9907 5.82985 15.618 4.93638 17.2088 4.58681C18.8208 4.23258 20.2806 4.46311 21.5167 5.02318C23.8921 6.09942 25.3522 8.33497 25.8843 9.79771L26.0729 10.3161L26.0308 10.4732C27.3203 10.2121 28.6547 10.0751 30.0211 10.0751C31.3868 10.0751 32.7205 10.212 34.0093 10.4728L33.9673 10.3161L34.1559 9.79771C34.6881 8.33497 36.1481 6.09942 38.5235 5.02318C39.7597 4.46311 41.2195 4.23258 42.8315 4.58681C44.4223 4.93638 46.0495 5.82985 47.7 7.32983L47.7339 7.36066L47.7662 7.39322C49.1011 8.74056 50.1422 9.6662 51.3437 10.4505C52.5459 11.2353 53.9759 11.9219 56.1183 12.71L58.2082 13.4787L56.9673 15.3276C55.1437 18.0447 52.3159 19.7262 48.8941 19.6339C48.2497 19.6165 47.5953 19.5367 46.9331 19.3939C48.8889 22.4842 50.0211 26.1474 50.0211 30.0751V36.0751C50.0211 47.1208 41.0668 56.0751 30.0211 56.0751C18.9754 56.0751 10.0211 47.1208 10.0211 36.0751V30.0751C10.0211 26.1472 11.1534 22.4838 13.1094 19.3934C12.4465 19.5365 11.7913 19.6165 11.1462 19.6339C7.72431 19.7262 4.89655 18.0447 3.07298 15.3276L1.83203 13.4787L3.92193 12.71C6.06438 11.9219 7.4943 11.2353 8.69654 10.4505C9.89803 9.66619 10.9392 8.74056 12.2741 7.39322L12.3063 7.36066L12.3402 7.32983ZM19.2568 11.7329C20.2689 10.7543 21.1986 10.1755 21.9261 9.79105C21.4703 9.17138 20.8347 8.55663 20.0723 8.21122C19.4764 7.94125 18.7849 7.82396 17.9599 8.00525C17.1207 8.18966 16.0364 8.70796 14.7269 9.89034C13.3338 11.2944 12.1 12.4085 10.6097 13.3813C9.68519 13.9849 8.68735 14.5176 7.52395 15.034C8.53212 15.7888 9.72336 16.171 11.0518 16.1352C13.2132 16.0769 16.038 14.8997 19.246 11.7435L19.2514 11.7382L19.2568 11.7329ZM22.9887 9.26058L22.9899 9.25989C23.0424 9.22931 23.0321 9.2284 22.9887 9.26058ZM38.1142 9.79105C38.8417 10.1755 39.7713 10.7543 40.7834 11.7329L40.7889 11.7382L40.7943 11.7435C44.0022 14.8997 46.827 16.0769 48.9884 16.1352C50.3169 16.171 51.5081 15.7888 52.5163 15.034C51.3529 14.5176 50.355 13.9849 49.4305 13.3813C47.9402 12.4085 46.7064 11.2944 45.3133 9.89034C44.0039 8.70796 42.9195 8.18966 42.0803 8.00525C41.2553 7.82396 40.5638 7.94125 39.9679 8.21122C39.2056 8.55663 38.5699 9.17138 38.1142 9.79105ZM37.0516 9.26058L37.0504 9.25989C36.9978 9.22931 37.0081 9.2284 37.0516 9.26058ZM46.5211 30.3774V36.0751C46.5211 45.1878 39.1338 52.5751 30.0211 52.5751C20.9084 52.5751 13.5211 45.1878 13.5211 36.0751V30.0751C13.5211 29.5936 13.5417 29.1169 13.5821 28.6459C24.3272 28.1847 31.2251 23.3349 34.9224 18.8946C35.5993 20.6394 36.4872 22.3794 37.7406 24.013C39.699 26.5652 42.4753 28.7633 46.5211 30.3774ZM14.2838 25.1019C25.7061 24.3236 31.8206 18.0233 33.9718 14.1511C33.9883 14.1214 34.0056 14.0923 34.0236 14.0639C32.7421 13.7446 31.4014 13.5751 30.0211 13.5751C22.6415 13.5751 16.3935 18.4197 14.2838 25.1019ZM37.4095 15.3177C41.7434 17.4918 44.987 21.5188 46.1011 26.3595C43.5457 25.0831 41.7906 23.5417 40.5174 21.8824C39.0073 19.9144 38.1054 17.6915 37.4095 15.3177Z" fill="currentColor"/>
</svg>
