<svg width="40" height="40" viewBox="0 0 40 40" fill="none" xmlns="http://www.w3.org/2000/svg">
<path d="M10.1493 24.9999C9.51861 23.5823 9.16699 22.0051 9.16699 20.3431C9.16699 14.1705 14.0172 9.16663 20.0003 9.16663C25.9835 9.16663 30.8337 14.1705 30.8337 20.3431C30.8337 22.0051 30.482 23.5823 29.8513 24.9999" stroke="#79E5FE" stroke-width="2.5" stroke-linecap="round"/>
<path d="M20 3.33337V5.00004" stroke="#79E5FE" stroke-width="2.5" stroke-linecap="round" stroke-linejoin="round"/>
<path d="M36.6667 20H35" stroke="#79E5FE" stroke-width="2.5" stroke-linecap="round" stroke-linejoin="round"/>
<path d="M4.99967 20H3.33301" stroke="#79E5FE" stroke-width="2.5" stroke-linecap="round" stroke-linejoin="round"/>
<path d="M31.784 8.2135L30.6055 9.39202" stroke="#79E5FE" stroke-width="2.5" stroke-linecap="round" stroke-linejoin="round"/>
<path d="M9.39434 9.3947L8.21582 8.21619" stroke="#79E5FE" stroke-width="2.5" stroke-linecap="round" stroke-linejoin="round"/>
<path d="M24.1939 32.1764C25.8779 31.6317 26.5532 30.0904 26.7432 28.5401C26.7999 28.0769 26.4189 27.6927 25.9522 27.6927L14.127 27.6931C13.6443 27.6931 13.2567 28.1027 13.3143 28.5819C13.5004 30.1292 13.97 31.2596 15.7546 32.1764M24.1939 32.1764C24.1939 32.1764 16.0484 32.1764 15.7546 32.1764M24.1939 32.1764C23.9914 35.4181 23.0552 36.7019 20.0102 36.6659C16.7532 36.7261 16.0039 35.1392 15.7546 32.1764" stroke="#79E5FE" stroke-width="2.5" stroke-linecap="round" stroke-linejoin="round"/>
</svg>
