<svg width="140" height="140" viewBox="0 0 140 140" fill="none" xmlns="http://www.w3.org/2000/svg">
<rect width="140" height="140" rx="16" fill="#E0E0E0"/>
<path d="M70 64.3755C65.5127 64.3755 61.875 68.0132 61.875 72.5005C61.875 76.9878 65.5127 80.6255 70 80.6255C74.4873 80.6255 78.125 76.9878 78.125 72.5005C78.125 68.0132 74.4873 64.3755 70 64.3755Z" fill="#FAFAFA"/>
<path fill-rule="evenodd" clip-rule="evenodd" d="M79.1254 45.6032C73.9212 40.9773 66.0788 40.9773 60.8746 45.6032L60.3353 46.0827C58.8549 47.3986 56.943 48.1255 54.9623 48.1255C48.4248 48.1255 43.125 53.4252 43.125 59.9628V72.6136C43.125 77.2049 43.125 80.804 43.4343 83.6593C43.75 86.5731 44.4058 88.9341 45.8704 90.9499C46.757 92.1703 47.8302 93.2435 49.0506 94.1301C51.0664 95.5947 53.4273 96.2505 56.3412 96.5662C59.1965 96.8755 62.7954 96.8755 67.3866 96.8755H72.6132C77.2044 96.8755 80.8035 96.8755 83.6588 96.5662C86.5727 96.2505 88.9336 95.5947 90.9494 94.1301C92.1698 93.2435 93.243 92.1703 94.1296 90.9499C95.5942 88.9341 96.25 86.5731 96.5657 83.6593C96.875 80.804 96.875 77.2051 96.875 72.6138V59.9628C96.875 53.4252 91.5752 48.1255 85.0377 48.1255C83.057 48.1255 81.1451 47.3986 79.6647 46.0827L79.1254 45.6032ZM58.125 72.5005C58.125 65.9421 63.4416 60.6255 70 60.6255C76.5584 60.6255 81.875 65.9421 81.875 72.5005C81.875 79.0589 76.5584 84.3755 70 84.3755C63.4416 84.3755 58.125 79.0589 58.125 72.5005ZM85 62.5006C83.6193 62.5006 82.5 61.3813 82.5 60.0006C82.5 58.6199 83.6193 57.5006 85 57.5006C86.3807 57.5006 87.5 58.6199 87.5 60.0006C87.5 61.3813 86.3807 62.5006 85 62.5006Z" fill="#FAFAFA"/>
</svg>
