<svg width="44" height="44" viewBox="0 0 44 44" fill="none" xmlns="http://www.w3.org/2000/svg">
<path d="M8.72823 6.71343C8.85775 6.58391 8.92251 6.51916 8.97956 6.46673C10.3823 5.17776 12.5385 5.17776 13.9413 6.46673C13.9984 6.51916 14.0631 6.58391 14.1927 6.71343L16.866 9.38679C18.3364 10.8572 18.757 13.0778 17.9261 14.9841C17.0951 16.8904 17.5157 19.111 18.9861 20.5814L23.3802 24.9755C24.8507 26.446 27.0713 26.8665 28.9775 26.0356C30.8838 25.2046 33.1044 25.6252 34.5748 27.0956L37.2482 29.769C37.3777 29.8985 37.4425 29.9632 37.4949 30.0203C38.7839 31.4231 38.7839 33.5793 37.4949 34.9821C37.4425 35.0391 37.3777 35.1039 37.2482 35.2334L35.6232 36.8584C34.3 38.1817 32.3923 38.7372 30.5655 38.3312C18.1179 35.5651 8.39657 25.8438 5.63044 13.3962C5.22448 11.5693 5.77998 9.66168 7.10327 8.33839L8.72823 6.71343Z" stroke="#434343" stroke-width="2.75"/>
</svg>
