<svg width="44" height="44" viewBox="0 0 44 44" fill="none" xmlns="http://www.w3.org/2000/svg">
<path d="M21.3528 25.881C21.3528 25.881 17.4705 32.3516 15.5293 32.9987L20.7058 38.1751L28.4705 36.2339L32.9999 28.4692L26.5293 20.0575L21.9999 17.4692L21.3528 25.881Z" fill="#FED066"/>
<path d="M34.0301 20.3373C33.5522 19.714 32.9704 19.1737 32.4302 18.6335C31.038 17.3868 29.4589 16.4933 28.129 15.1843C25.0331 12.1507 24.3474 7.14307 26.3213 3.29907C24.3474 3.77697 22.6228 4.85745 21.1475 6.04182C15.7659 10.3637 13.6465 17.9894 16.1815 24.5346C16.2646 24.7423 16.3477 24.9501 16.3477 25.2203C16.3477 25.6774 16.036 26.0929 15.6205 26.2592C15.1426 26.467 14.6439 26.3423 14.2491 26.0098C14.1312 25.911 14.0325 25.7913 13.9582 25.6566C11.6102 22.6853 11.2362 18.4257 12.8154 15.0181C9.3454 17.8439 7.45457 22.623 7.72469 27.1319C7.84936 28.1708 7.97403 29.2097 8.32726 30.2486C8.61816 31.4953 9.17917 32.742 9.80252 33.8433C12.0466 37.4379 15.9321 40.0145 20.1086 40.5339C24.5552 41.0949 29.3134 40.2846 32.7211 37.2094C36.5235 33.7602 37.8533 28.2331 35.9002 23.4957L35.63 22.9554C35.1937 21.9996 34.0301 20.3373 34.0301 20.3373ZM27.4641 33.4277C26.8823 33.9264 25.9265 34.4666 25.1785 34.6744C22.8513 35.5055 20.5242 34.342 19.1528 32.9706C21.6254 32.3888 23.1007 30.5603 23.537 28.711C23.8903 27.0487 23.2253 25.6774 22.9552 24.0774C22.7059 22.5398 22.7474 21.2308 23.3085 19.7971C23.7033 20.5867 24.1188 21.3763 24.6175 21.9996C26.2174 24.0774 28.7316 24.9917 29.2719 27.8175C29.355 28.1084 29.3965 28.3993 29.3965 28.711C29.4589 30.4148 28.7108 32.2849 27.4641 33.4277Z" fill="url(#paint0_linear_2310_71290)"/>
<defs>
<linearGradient id="paint0_linear_2310_71290" x1="22.2467" y1="3.29907" x2="22.2467" y2="40.6991" gradientUnits="userSpaceOnUse">
<stop stop-color="#FF8856"/>
<stop offset="1" stop-color="#FF1616"/>
</linearGradient>
</defs>
</svg>
