<svg width="40" height="40" viewBox="0 0 40 40" fill="none" xmlns="http://www.w3.org/2000/svg">
<path d="M15.3125 12.0029L20.1125 18.3952L24.8894 12.0029" stroke="white" stroke-width="2.5" stroke-linecap="round" stroke-linejoin="round"/>
<path d="M20.0039 18.9229L20.0039 29.6921" stroke="white" stroke-width="2.5" stroke-linecap="round" stroke-linejoin="round"/>
<path d="M15.6953 25.3848H24.3107" stroke="white" stroke-width="2.5" stroke-linecap="round" stroke-linejoin="round"/>
<path d="M13.543 20H26.466" stroke="white" stroke-width="2.5" stroke-linecap="round" stroke-linejoin="round"/>
<path d="M20.001 3.75211C19.9772 3.752 19.9535 3.75195 19.9297 3.75195C10.9551 3.75195 3.67969 11.0273 3.67969 20.002C3.67969 28.9766 10.9551 36.252 19.9297 36.252C28.9043 36.252 36.1797 28.9766 36.1797 20.002C36.1797 20.002 36.1797 18.5 35.001 18.5C33.6797 18.5 33.6797 20.002 33.6797 20.002C33.6797 27.5959 27.5236 33.752 19.9297 33.752C12.3358 33.752 6.17969 27.5959 6.17969 20.002C6.17969 12.408 12.3358 6.25195 19.9297 6.25195C19.9535 6.25195 19.9772 6.25201 20.001 6.25213C20.001 6.25213 21.501 6.24789 21.501 5C21.501 3.75211 20.001 3.75211 20.001 3.75211Z" fill="white"/>
<path d="M28 6.75C27.3096 6.75 26.75 7.30964 26.75 8C26.75 8.69035 27.3096 9.25 28 9.25L28 6.75ZM37 8V6.75V8ZM34.8799 2.11218C34.3896 1.62621 33.5982 1.62974 33.1122 2.12007C32.6262 2.6104 32.6297 3.40185 33.1201 3.88782L34.8799 2.11218ZM35.763 4.74731L34.883 5.63512V5.63513L35.763 4.74731ZM35.763 11.2527L34.883 10.3649V10.3649L35.763 11.2527ZM33.1201 12.1122C32.6297 12.5982 32.6262 13.3896 33.1122 13.8799C33.5982 14.3703 34.3896 14.3738 34.8799 13.8878L33.1201 12.1122ZM37.9801 7.68667L39.2201 7.52862V7.52862L37.9801 7.68667ZM37.9801 8.31333L39.2201 8.47138V8.47138L37.9801 8.31333ZM38 8L39.25 8L38 8ZM28 9.25L37 9.25V6.75L28 6.75L28 9.25ZM33.1201 3.88782L34.883 5.63512L36.6429 3.85949L34.8799 2.11218L33.1201 3.88782ZM34.883 10.3649L33.1201 12.1122L34.8799 13.8878L36.6429 12.1405L34.883 10.3649ZM34.883 5.63513C35.6069 6.35254 36.0734 6.81758 36.3836 7.20379C36.6779 7.57027 36.7271 7.74265 36.7401 7.84471L39.2201 7.52862C39.1248 6.78149 38.7685 6.18091 38.3328 5.63838C37.9129 5.11556 37.325 4.53552 36.6429 3.85949L34.883 5.63513ZM36.6429 12.1405C37.325 11.4645 37.9129 10.8844 38.3328 10.3616C38.7685 9.81909 39.1248 9.2185 39.2201 8.47138L36.7401 8.15528C36.7271 8.25735 36.6779 8.42973 36.3836 8.79621C36.0734 9.18242 35.6069 9.64746 34.883 10.3649L36.6429 12.1405ZM36.7401 7.84471C36.7467 7.89628 36.75 7.94814 36.75 8L39.25 8C39.25 7.84255 39.24 7.68511 39.2201 7.52862L36.7401 7.84471ZM36.75 8C36.75 8.05185 36.7467 8.10371 36.7401 8.15528L39.2201 8.47138C39.24 8.31489 39.25 8.15745 39.25 8L36.75 8ZM37 9.25H38V6.75H37V9.25Z" fill="white"/>
</svg>
