<svg width="60" height="60" viewBox="0 0 60 60" fill="none" xmlns="http://www.w3.org/2000/svg">
<path fill-rule="evenodd" clip-rule="evenodd" d="M30 51.25C41.7361 51.25 51.25 41.7361 51.25 30C51.25 18.2639 41.7361 8.75 30 8.75C18.2639 8.75 8.75 18.2639 8.75 30C8.75 41.7361 18.2639 51.25 30 51.25ZM30 55C43.8071 55 55 43.8071 55 30C55 16.1929 43.8071 5 30 5C16.1929 5 5 16.1929 5 30C5 43.8071 16.1929 55 30 55Z" fill="#434343"/>
<path fill-rule="evenodd" clip-rule="evenodd" d="M23.1073 39.375C24.3785 41.1721 26.5503 43.125 30 43.125C33.4497 43.125 35.6215 41.1721 36.8927 39.375H23.1073ZM19.0693 39.9681C17.874 37.7654 19.6979 35.625 21.7343 35.625H38.2657C40.3022 35.625 42.126 37.7654 40.9307 39.9681C39.6208 42.3819 36.3263 46.875 30 46.875C23.6737 46.875 20.3792 42.3819 19.0693 39.9681Z" fill="#434343"/>
<path d="M25 23.75C25 25.8211 23.3211 27.5 21.25 27.5C19.1789 27.5 17.5 25.8211 17.5 23.75C17.5 21.6789 19.1789 20 21.25 20C23.3211 20 25 21.6789 25 23.75Z" fill="#434343"/>
<path d="M42.5 23.75C42.5 25.8211 40.8211 27.5 38.75 27.5C36.6789 27.5 35 25.8211 35 23.75C35 21.6789 36.6789 20 38.75 20C40.8211 20 42.5 21.6789 42.5 23.75Z" fill="#434343"/>
</svg>
