<svg width="80" height="80" viewBox="0 0 80 80" fill="none" xmlns="http://www.w3.org/2000/svg">
<g clip-path="url(#clip0_4839_44371)">
<path d="M40 74C38.4125 74 36.9916 72.9183 35.7721 71.0616C34.3788 68.9303 31.3996 68.1356 29.1236 69.2781C27.1406 70.2779 25.4378 70.3841 24.0626 69.5913C22.6875 68.7966 21.9276 67.2695 21.8013 65.0521C21.6584 62.5106 19.4757 60.328 16.9361 60.1851C14.7169 60.0587 13.1897 59.2989 12.3951 57.9238C11.6005 56.5486 11.7066 54.8458 12.7083 52.8628C13.8526 50.5904 13.0544 47.6076 10.9266 46.2142C9.068 44.9965 8 43.5737 8 41.9862C8 40.3987 9.068 38.9779 10.9246 37.7584C13.0541 36.365 13.8525 33.3821 12.7081 31.1099C11.7065 29.1269 11.6004 27.424 12.395 26.0489C13.1896 24.6738 14.7167 23.9139 16.9341 23.7875C19.4756 23.6446 21.6582 21.462 21.8011 18.9224C21.9275 16.7031 22.6874 15.176 24.0625 14.3814C25.4321 13.5922 27.1405 13.6947 29.1235 14.6945C31.4031 15.8353 34.3786 15.0387 35.772 12.9129C36.9897 11.0542 38.4949 10 40 10C41.5051 10 43.0102 11.0543 44.2279 12.9128C45.6176 15.0404 48.6077 15.8296 50.8764 14.6944C52.8576 13.6946 54.5605 13.5921 55.9374 14.3812C57.3125 15.1759 58.0724 16.703 58.1987 18.9204C58.3416 21.4619 60.5242 23.6445 63.0639 23.7874C65.2831 23.9138 66.8102 24.6736 67.6049 26.0487C68.3995 27.4239 68.2934 29.1268 67.2918 31.1098C66.1474 33.3821 66.9456 36.3649 69.0734 37.7565C70.932 38.9779 72 40.3987 72 41.9862C72 43.5737 70.932 44.9965 69.0735 46.2141C66.9459 47.6075 66.1475 50.5904 67.2919 52.8626C68.2935 54.8456 68.3996 56.5485 67.605 57.9236C66.8104 59.2988 65.2833 60.0586 63.0659 60.185C60.5244 60.3279 58.3418 62.5105 58.1989 65.0501C58.0725 67.2694 57.3126 68.7965 55.9375 69.5911C54.5642 70.384 52.8576 70.2777 50.8765 69.278C48.6024 68.1262 45.6233 68.9282 44.2298 71.0596C43.0084 72.9182 41.5875 74 40 74Z" fill="#7284FF"/>
<path d="M44.2298 71.0597C45.6231 68.9284 48.6022 68.1264 50.8765 69.2781C52.8577 70.2779 54.5642 70.3841 55.9375 69.5913C57.3126 68.7966 58.0725 67.2695 58.1989 65.0503C58.3418 62.5106 60.5244 60.328 63.0659 60.1851C65.2833 60.0587 66.8104 59.2989 67.605 57.9238C68.3996 56.5486 68.2935 54.8458 67.2919 52.8628C66.1475 50.5904 66.9458 47.6076 69.0735 46.2142C70.932 44.9965 72 43.5737 72 41.9862C72 40.3987 70.932 38.9779 69.0735 37.7565C66.9459 36.3649 66.1475 33.3821 67.2919 31.1098C68.2935 29.1268 68.3996 27.4239 67.605 26.0487C66.8104 24.6736 65.2832 23.9138 63.064 23.7874C60.5244 23.6445 58.3418 21.4619 58.1989 18.9204C58.0725 16.703 57.3126 15.1759 55.9375 14.3812C54.5605 13.5921 52.8576 13.6946 50.8765 14.6944C48.6079 15.8296 45.6178 15.0405 44.228 12.9128C43.0103 11.0543 41.5051 10 40 10V74C41.5875 74 43.0084 72.9182 44.2298 71.0597Z" fill="#4A5EFF"/>
<path d="M32.5 36.3555C29.3983 36.3555 26.875 33.8322 26.875 30.7305C26.875 27.6287 29.3983 25.1055 32.5 25.1055C35.6017 25.1055 38.125 27.6287 38.125 30.7305C38.125 33.8322 35.6017 36.3555 32.5 36.3555Z" fill="white"/>
<path d="M47.5 58.8516C44.3983 58.8516 41.875 56.3283 41.875 53.2266C41.875 50.1248 44.3983 47.6016 47.5 47.6016C50.6017 47.6016 53.125 50.1248 53.125 53.2266C53.125 56.3283 50.6017 58.8516 47.5 58.8516Z" fill="#C9E8FF"/>
<path d="M27.25 55.8555L49.75 25.8555L52.7488 28.1046L30.2488 58.1046L27.25 55.8555Z" fill="white"/>
<path d="M52.75 28.1108L40 45.1108V38.8633L49.75 25.8633L52.75 28.1108Z" fill="#C9E8FF"/>
</g>
<defs>
<clipPath id="clip0_4839_44371">
<rect width="64" height="64" fill="white" transform="translate(8 10)"/>
</clipPath>
</defs>
</svg>
