<svg width="40" height="40" viewBox="0 0 40 40" fill="none" xmlns="http://www.w3.org/2000/svg">
<circle cx="20" cy="20" r="20" fill="#AEAEB1"/>
<path d="M28.7841 12.4507C29.1258 12.109 29.1258 11.555 28.7841 11.2133C28.4424 10.8716 27.8884 10.8716 27.5467 11.2133L19.9987 18.7613L12.4507 11.2133C12.109 10.8716 11.555 10.8716 11.2133 11.2133C10.8716 11.555 10.8716 12.109 11.2133 12.4508L18.7613 19.9987L11.2133 27.5466C10.8716 27.8884 10.8716 28.4424 11.2133 28.7841C11.5551 29.1258 12.1091 29.1258 12.4508 28.7841L19.9987 21.2362L27.5466 28.7841C27.8884 29.1258 28.4424 29.1258 28.7841 28.7841C29.1258 28.4424 29.1258 27.8884 28.7841 27.5466L21.2361 19.9987L28.7841 12.4507Z" fill="#F2F2F2" stroke="#F2F2F2" stroke-width="0.5" stroke-linecap="round"/>
</svg>
