<svg width="40" height="40" viewBox="0 0 40 40" fill="none" xmlns="http://www.w3.org/2000/svg">
<path d="M14.3125 14.002L19.1125 20.3943L23.8894 14.002" stroke="white" stroke-width="2.5" stroke-linecap="round" stroke-linejoin="round"/>
<path d="M19.0039 20.9219L19.0039 31.6911" stroke="white" stroke-width="2.5" stroke-linecap="round" stroke-linejoin="round"/>
<path d="M14.6973 27.3838H23.3126" stroke="white" stroke-width="2.5" stroke-linecap="round" stroke-linejoin="round"/>
<path d="M12.543 21.999H25.466" stroke="white" stroke-width="2.5" stroke-linecap="round" stroke-linejoin="round"/>
<path d="M19.001 5.75211C18.9772 5.752 18.9535 5.75195 18.9297 5.75195C9.95506 5.75195 2.67969 13.0273 2.67969 22.002C2.67969 30.9766 9.95506 38.252 18.9297 38.252C27.9043 38.252 35.1797 30.9766 35.1797 22.002C35.1797 22.002 35.1797 20.5 34.001 20.5C32.6797 20.5 32.6797 22.002 32.6797 22.002C32.6797 29.5959 26.5236 35.752 18.9297 35.752C11.3358 35.752 5.17969 29.5959 5.17969 22.002C5.17969 14.408 11.3358 8.25195 18.9297 8.25195C18.9535 8.25195 18.9772 8.25201 19.001 8.25213C19.001 8.25213 20.501 8.24789 20.501 7C20.501 5.75211 19.001 5.75211 19.001 5.75211Z" fill="white"/>
<path d="M26 9H36" stroke="white" stroke-width="2.5" stroke-linecap="round"/>
<path d="M31 4L31 14" stroke="white" stroke-width="2.5" stroke-linecap="round"/>
</svg>
