<svg width="26" height="26" viewBox="0 0 26 26" fill="none" xmlns="http://www.w3.org/2000/svg">
<path d="M9.90867 20.4156C7.97359 17.4727 8.29896 13.4774 10.8848 10.8883C13.4924 8.27741 17.5282 7.96812 20.4742 9.96043M9.90867 20.4156C10.1872 20.8393 10.5126 21.2411 10.8848 21.6137C12.6054 23.3366 16.2543 24.8261 19.2158 22.9937C19.3806 22.8917 19.463 22.8407 19.5253 22.816C19.6445 22.7688 19.7348 22.7551 19.8626 22.765C19.9294 22.7701 20.0051 22.7898 20.1565 22.8291C21.1092 23.0763 21.5856 23.1999 21.9287 23.13C22.5244 23.0086 22.9899 22.5426 23.1111 21.9462C23.1809 21.6026 23.0575 21.1256 22.8105 20.1717C22.7713 20.02 22.7517 19.9442 22.7465 19.8771C22.7367 19.7492 22.7506 19.6577 22.798 19.5385C22.8229 19.476 22.8738 19.394 22.9755 19.2302C24.8119 16.2714 23.3907 12.6845 21.5967 10.8883C21.2463 10.5375 20.8701 10.2282 20.4742 9.96043M9.90867 20.4156L9.74959 20.3884C9.07619 20.2267 8.41132 19.9588 7.77277 19.5637C7.57265 19.4398 7.47259 19.3779 7.39693 19.3479C7.25227 19.2906 7.14256 19.274 6.98743 19.286C6.9063 19.2922 6.81437 19.3161 6.63052 19.3638C5.47365 19.664 4.89522 19.8141 4.4785 19.7292C3.75523 19.5819 3.18997 19.0159 3.04278 18.2917C2.95797 17.8745 3.10789 17.2953 3.40774 16.137C3.4554 15.9528 3.47924 15.8608 3.48548 15.7793C3.49738 15.624 3.48047 15.5128 3.4229 15.3681C3.3927 15.2922 3.33095 15.1927 3.20746 14.9937C0.977521 11.4009 2.7033 7.04539 4.88165 4.8643C8.47353 1.26789 14.2971 1.26789 17.889 4.8643C19.3242 6.30129 20.1859 8.09503 20.4742 9.96043" stroke="#529FFD" stroke-width="2"/>
<path d="M14.0829 16.2503C14.0829 16.8486 13.5979 17.3337 12.9996 17.3337C12.4013 17.3337 11.9163 16.8486 11.9163 16.2503C11.9163 15.652 12.4013 15.167 12.9996 15.167C13.5979 15.167 14.0829 15.652 14.0829 16.2503Z" fill="#529FFD"/>
<path d="M17.3329 16.2503C17.3329 16.8486 16.8479 17.3337 16.2496 17.3337C15.6513 17.3337 15.1663 16.8486 15.1663 16.2503C15.1663 15.652 15.6513 15.167 16.2496 15.167C16.8479 15.167 17.3329 15.652 17.3329 16.2503Z" fill="#529FFD"/>
<path d="M20.5829 16.2503C20.5829 16.8486 20.0979 17.3337 19.4996 17.3337C18.9013 17.3337 18.4163 16.8486 18.4163 16.2503C18.4163 15.652 18.9013 15.167 19.4996 15.167C20.0979 15.167 20.5829 15.652 20.5829 16.2503Z" fill="#529FFD"/>
</svg>
