<svg width="120" height="120" viewBox="0 0 120 120" fill="none" xmlns="http://www.w3.org/2000/svg">
<circle cx="60" cy="60" r="58.5" fill="#FFEFEF" stroke="#FC7E7E" stroke-width="3"/>
<path d="M55 82.5L55 80.5H55V82.5ZM52.5 82.5L52.5 84.5H52.5V82.5ZM37.5 67.5L39.5 67.5L37.5 67.5ZM37.5 52.5L35.5 52.5L37.5 52.5ZM52.5 37.5L52.5 35.5L52.5 37.5ZM55 37.5L55 39.5L55 37.5ZM37.6539 48.0446L35.6785 47.7317L35.6785 47.7317L37.6539 48.0446ZM48.0446 37.6539L48.3574 39.6293L48.0446 37.6539ZM48.0446 82.3461L47.7317 84.3215L47.7317 84.3215L48.0446 82.3461ZM37.6539 71.9554L35.6785 72.2683L35.6785 72.2683L37.6539 71.9554ZM63.7012 81.6C64.5843 80.9367 64.7625 79.6829 64.0991 78.7998C63.4358 77.9166 62.182 77.7384 61.2988 78.4018L63.7012 81.6ZM61.2988 41.5982C62.182 42.2616 63.4358 42.0834 64.0991 41.2002C64.7625 40.3171 64.5843 39.0633 63.7012 38.4L61.2988 41.5982ZM47.5 58C46.3954 58 45.5 58.8954 45.5 60C45.5 61.1046 46.3954 62 47.5 62L47.5 58ZM80 60L80 62H80V60ZM73.7426 48.4328C72.8771 47.7466 71.6191 47.8919 70.9328 48.7574C70.2466 49.6229 70.3919 50.8809 71.2574 51.5672L73.7426 48.4328ZM76.9074 53.4946L78.15 51.9275L78.15 51.9275L76.9074 53.4946ZM76.9074 66.5054L78.15 68.0725L78.15 68.0725L76.9074 66.5054ZM71.2574 68.4328C70.3919 69.1191 70.2466 70.3771 70.9328 71.2426C71.6191 72.1081 72.8771 72.2534 73.7426 71.5672L71.2574 68.4328ZM82.4503 59.3733L84.4254 59.0587L84.4254 59.0586L82.4503 59.3733ZM82.4503 60.6267L84.4254 60.9414L84.4254 60.9413L82.4503 60.6267ZM82.5 60L84.5 60L82.5 60ZM55 80.5H52.5V84.5H55V80.5ZM39.5 67.5L39.5 52.5L35.5 52.5L35.5 67.5L39.5 67.5ZM52.5 39.5L55 39.5L55 35.5L52.5 35.5L52.5 39.5ZM39.5 52.5C39.5 50.1011 39.5062 49.1344 39.6293 48.3574L35.6785 47.7317C35.4938 48.898 35.5 50.2539 35.5 52.5L39.5 52.5ZM52.5 35.5C50.2539 35.5 48.898 35.4938 47.7317 35.6785L48.3574 39.6293C49.1344 39.5062 50.1011 39.5 52.5 39.5L52.5 35.5ZM39.6293 48.3574C40.3409 43.8646 43.8646 40.3409 48.3574 39.6293L47.7317 35.6785C41.5273 36.6612 36.6612 41.5273 35.6785 47.7317L39.6293 48.3574ZM52.5 80.5C50.1011 80.5 49.1344 80.4938 48.3574 80.3707L47.7317 84.3215C48.898 84.5062 50.2539 84.5 52.5 84.5L52.5 80.5ZM35.5 67.5C35.5 69.7461 35.4938 71.102 35.6785 72.2683L39.6293 71.6426C39.5062 70.8656 39.5 69.8989 39.5 67.5L35.5 67.5ZM48.3574 80.3707C43.8646 79.6591 40.3409 76.1354 39.6293 71.6426L35.6785 72.2683C36.6612 78.4727 41.5273 83.3388 47.7317 84.3215L48.3574 80.3707ZM55 84.5C58.262 84.5 61.2776 83.4205 63.7012 81.6L61.2988 78.4018C59.5441 79.7198 57.3661 80.5 55 80.5L55 84.5ZM55 39.5C57.3661 39.5 59.5441 40.2802 61.2988 41.5982L63.7012 38.4C61.2776 36.5795 58.262 35.5 55 35.5L55 39.5ZM47.5 62L80 62L80 58L47.5 58L47.5 62ZM71.2574 51.5672L75.6648 55.0618L78.15 51.9275L73.7426 48.4328L71.2574 51.5672ZM75.6648 64.9382L71.2574 68.4328L73.7426 71.5672L78.15 68.0725L75.6648 64.9382ZM75.6648 55.0618C77.4605 56.4856 78.6709 57.4492 79.484 58.2591C80.2881 59.0601 80.4391 59.4615 80.4752 59.688L84.4254 59.0586C84.1909 57.5868 83.3279 56.4423 82.3069 55.4252C81.2949 54.4171 79.8691 53.2906 78.15 51.9275L75.6648 55.0618ZM78.15 68.0725C79.8691 66.7095 81.2949 65.5829 82.3069 64.5748C83.3279 63.5577 84.1909 62.4132 84.4254 60.9414L80.4752 60.312C80.4391 60.5385 80.2881 60.9399 79.484 61.7409C78.6709 62.5508 77.4605 63.5144 75.6648 64.9382L78.15 68.0725ZM80.4752 59.688C80.4918 59.7924 80.5 59.8965 80.5 60L84.5 60C84.5 59.6849 84.475 59.3704 84.4254 59.0587L80.4752 59.688ZM80.5 60C80.5 60.1035 80.4918 60.2076 80.4752 60.312L84.4254 60.9413C84.475 60.6296 84.5 60.3151 84.5 60L80.5 60ZM80 62H82.5V58H80V62Z" fill="#FC7E7E"/>
</svg>
