<svg width="60" height="60" viewBox="0 0 60 60" fill="none" xmlns="http://www.w3.org/2000/svg">
<g clip-path="url(#clip0_5654_157665)">
<path d="M43.805 18.1393C44.342 17.6023 44.342 16.7317 43.805 16.1947C43.268 15.6577 42.3974 15.6577 41.8605 16.1947L29.9994 28.0558L18.1383 16.1947C17.6013 15.6578 16.7307 15.6578 16.1937 16.1947C15.6568 16.7317 15.6568 17.6023 16.1937 18.1393L28.0548 30.0004L16.1938 41.8614C15.6568 42.3984 15.6568 43.269 16.1938 43.8059C16.7308 44.3429 17.6014 44.3429 18.1383 43.8059L29.9994 31.9449L41.8604 43.8059C42.3974 44.3429 43.268 44.3429 43.805 43.8059C44.3419 43.269 44.3419 42.3984 43.805 41.8614L31.9439 30.0004L43.805 18.1393Z" fill="currentColor"/>
</g>
<defs>
<clipPath id="clip0_5654_157665">
<rect width="28.4167" height="28.4167" fill="white" transform="translate(15.791 15.792)"/>
</clipPath>
</defs>
</svg>
