<svg width="60" height="60" viewBox="0 0 60 60" fill="none" xmlns="http://www.w3.org/2000/svg">
<path d="M32.5 31.6914L39.5 31.6932L48 39L52 31.6923L57.625 31.6932" stroke="currentColor" stroke-width="3.5" stroke-linecap="round" stroke-linejoin="round"/>
<path fill-rule="evenodd" clip-rule="evenodd" d="M19.0415 11.1453C21.0253 9.84643 23.7805 9.40711 26.4529 11.142C28.2135 12.2849 28.6174 14.2481 28.7463 16.2055C28.8298 17.4743 28.8073 19.0926 28.7807 21.0067C28.766 22.0649 28.75 23.2136 28.75 24.4436V30.5819C28.75 31.5484 27.9665 32.3319 27 32.3319C26.0335 32.3319 25.25 31.5484 25.25 30.5819V24.4436C25.25 23.0388 25.2677 21.8146 25.2832 20.7367C25.3088 18.9554 25.3287 17.5735 25.2538 16.4355C25.1327 14.596 24.7866 14.2331 24.5471 14.0776C23.2195 13.2158 21.9748 13.4082 20.9586 14.0735C20.2808 14.5173 19.8296 15.1732 19.2251 16.2334C19.1639 16.3406 19.1009 16.4527 19.0357 16.5687C18.4994 17.5225 17.8114 18.7459 16.7375 19.8199L16.7193 19.838L16.7006 19.8557L15.4619 21.0236L15.4215 21.0617L15.3788 21.0971L15.3426 21.1271C14.9363 21.4643 14.6851 21.6727 14.4276 21.8659C14.3678 21.9107 14.3081 21.9556 14.2484 22.0005C13.4521 22.599 12.6654 23.1904 11.804 23.6235C10.8087 24.124 9.7556 24.4008 8.41088 24.467C8.08983 24.4828 7.76401 24.4828 7.23771 24.4828H7.19052C6.54395 24.4828 6.36572 24.4856 6.23601 24.5002C4.94586 24.6455 3.91419 25.6737 3.76752 26.9933C3.75274 27.1263 3.75004 27.3081 3.75004 27.9581V29.27V30.5819C3.75004 31.5484 2.96653 32.3319 2.00004 32.3319C1.03354 32.3319 0.250036 31.5484 0.250036 30.5819V29.27V27.9581C0.250036 27.9257 0.250027 27.8938 0.250017 27.8623C0.249871 27.3532 0.249758 26.9591 0.288939 26.6066C0.614507 23.6776 2.91401 21.3523 5.84423 21.0222C6.19638 20.9825 6.58975 20.9826 7.09441 20.9828C7.126 20.9828 7.15803 20.9828 7.19052 20.9828C7.77853 20.9828 8.01407 20.9823 8.23866 20.9713C9.14835 20.9264 9.7167 20.7555 10.2317 20.4966C10.8045 20.2085 11.3536 19.7966 12.272 19.1076L12.3273 19.0661C12.5021 18.9349 12.6786 18.7895 13.1013 18.4389L14.2796 17.3279C14.9848 16.6172 15.4348 15.8228 15.9909 14.841C16.0539 14.7297 16.1183 14.616 16.1846 14.4997C16.8 13.4205 17.5988 12.0899 19.0415 11.1453Z" fill="currentColor"/>
<path fill-rule="evenodd" clip-rule="evenodd" d="M19.0415 49.7688C21.0253 51.0676 23.7805 51.507 26.4529 49.7721C28.2135 48.6291 28.6174 46.6659 28.7463 44.7085C28.8298 43.4397 28.8073 41.8215 28.7807 39.9074C28.766 38.8492 28.75 37.7005 28.75 36.4704V30.3322C28.75 29.3657 27.9665 28.5822 27 28.5822C26.0335 28.5822 25.25 29.3657 25.25 30.3322V36.4704C25.25 37.8753 25.2677 39.0994 25.2832 40.1773C25.3088 41.9586 25.3287 43.3405 25.2538 44.4786C25.1327 46.3181 24.7866 46.681 24.5471 46.8364C23.2195 47.6983 21.9748 47.5058 20.9586 46.8405C20.2808 46.3968 19.8296 45.7409 19.2251 44.6807C19.1639 44.5734 19.1009 44.4614 19.0357 44.3454C18.4994 43.3916 17.8114 42.1682 16.7375 41.0942L16.7193 41.076L16.7006 41.0584L15.4619 39.8905L15.4215 39.8524L15.3788 39.817L15.3426 39.7869C14.9363 39.4498 14.6851 39.2414 14.4276 39.0482C14.3678 39.0033 14.3081 38.9584 14.2484 38.9136C13.4521 38.315 12.6654 37.7237 11.804 37.2905C10.8087 36.7901 9.7556 36.5133 8.41088 36.447C8.08983 36.4312 7.76401 36.4312 7.23771 36.4312H7.19052C6.54395 36.4312 6.36572 36.4285 6.23601 36.4139C4.94586 36.2685 3.91419 35.2404 3.76752 33.9208C3.75274 33.7878 3.75004 33.6059 3.75004 32.956V31.6441V30.3322C3.75004 29.3657 2.96653 28.5822 2.00004 28.5822C1.03354 28.5822 0.250036 29.3657 0.250036 30.3322V31.6441V32.956C0.250036 32.9884 0.250027 33.0203 0.250017 33.0518C0.249871 33.5609 0.249758 33.9549 0.288939 34.3074C0.614507 37.2365 2.91401 39.5618 5.84423 39.8919C6.19638 39.9315 6.58975 39.9314 7.09441 39.9313C7.126 39.9313 7.15803 39.9312 7.19052 39.9312C7.77853 39.9312 8.01407 39.9317 8.23866 39.9428C9.14835 39.9876 9.7167 40.1586 10.2317 40.4175C10.8045 40.7055 11.3536 41.1175 12.272 41.8065L12.3273 41.848C12.5021 41.9791 12.6786 42.1245 13.1013 42.4751L14.2796 43.5862C14.9848 44.2968 15.4348 45.0912 15.9909 46.073C16.0539 46.1844 16.1183 46.2981 16.1846 46.4143C16.8 47.4936 17.5988 48.8242 19.0415 49.7688Z" fill="currentColor"/>
</svg>
