<svg width="60" height="60" viewBox="0 0 60 60" fill="none" xmlns="http://www.w3.org/2000/svg">
<path d="M19.8863 18.9782L19.5216 20.4332L19.8863 18.9782ZM25.5106 15.731L24.0682 15.3194L25.5106 15.731ZM15.3971 26.7537L16.4748 25.7103L15.3971 26.7537ZM15.3971 33.248L14.3194 32.2047L14.3194 32.2047L15.3971 33.248ZM19.8863 41.0235L20.251 42.4785L19.8863 41.0235ZM25.5106 44.2707L24.0682 44.6823L25.5106 44.2707ZM34.4889 44.2707L35.9313 44.6823L34.4889 44.2707ZM40.1132 41.0235L40.4779 39.5685L40.1132 41.0235ZM44.6024 33.248L43.5247 34.2914L43.5247 34.2914L44.6024 33.248ZM44.6024 26.7537L43.5247 25.7103L43.5247 25.7103L44.6024 26.7537ZM40.1132 18.9782L39.7485 17.5232L40.1132 18.9782ZM34.4889 15.731L35.9313 15.3194L34.4889 15.731ZM19.5216 20.4332C22.7506 21.2426 26.0394 19.3438 26.953 16.1427L24.0682 15.3194C23.5989 16.9636 21.9096 17.9389 20.251 17.5232L19.5216 20.4332ZM16.4748 25.7103C14.2577 23.4202 16.4297 19.6581 19.5216 20.4332L20.251 17.5232C14.2315 16.0143 10.0029 23.3384 14.3194 27.797L16.4748 25.7103ZM16.4748 34.2914C18.7903 31.8996 18.7903 28.1021 16.4748 25.7103L14.3194 27.797C15.5088 29.0255 15.5088 30.9762 14.3194 32.2047L16.4748 34.2914ZM19.5216 39.5685C16.4297 40.3435 14.2577 36.5815 16.4748 34.2914L14.3194 32.2047C10.0029 36.6633 14.2315 43.9874 20.251 42.4785L19.5216 39.5685ZM26.953 43.859C26.0394 40.6579 22.7506 38.7591 19.5216 39.5685L20.251 42.4785C21.9096 42.0627 23.5989 43.0381 24.0682 44.6823L26.953 43.859ZM33.0465 43.859C32.1717 46.9242 27.8277 46.9242 26.953 43.859L24.0682 44.6823C25.7712 50.6498 34.2283 50.6498 35.9313 44.6823L33.0465 43.859ZM40.4779 39.5685C37.2489 38.7591 33.9601 40.6579 33.0465 43.859L35.9313 44.6823C36.4006 43.0381 38.0899 42.0627 39.7485 42.4785L40.4779 39.5685ZM43.5247 34.2914C45.7418 36.5815 43.5698 40.3435 40.4779 39.5685L39.7485 42.4785C45.768 43.9874 49.9965 36.6633 45.6801 32.2047L43.5247 34.2914ZM43.5247 25.7103C41.2092 28.1021 41.2092 31.8996 43.5247 34.2914L45.6801 32.2047C44.4907 30.9762 44.4907 29.0255 45.6801 27.797L43.5247 25.7103ZM40.4779 20.4332C43.5698 19.6581 45.7418 23.4202 43.5247 25.7103L45.6801 27.797C49.9965 23.3384 45.768 16.0143 39.7485 17.5232L40.4779 20.4332ZM33.0465 16.1427C33.9601 19.3438 37.2489 21.2426 40.4779 20.4332L39.7485 17.5232C38.0899 17.9389 36.4006 16.9636 35.9313 15.3194L33.0465 16.1427ZM35.9313 15.3194C34.2283 9.35188 25.7712 9.35188 24.0682 15.3194L26.953 16.1427C27.8277 13.0774 32.1717 13.0774 33.0465 16.1427L35.9313 15.3194ZM23.4997 30.0008C23.4997 33.5907 26.4099 36.5008 29.9997 36.5008V33.5008C28.0667 33.5008 26.4997 31.9338 26.4997 30.0008H23.4997ZM29.9997 36.5008C33.5896 36.5008 36.4997 33.5907 36.4997 30.0008H33.4997C33.4997 31.9338 31.9327 33.5008 29.9997 33.5008V36.5008ZM36.4997 30.0008C36.4997 26.411 33.5896 23.5008 29.9997 23.5008V26.5008C31.9327 26.5008 33.4997 28.0678 33.4997 30.0008H36.4997ZM29.9997 23.5008C26.4099 23.5008 23.4997 26.411 23.4997 30.0008H26.4997C26.4997 28.0678 28.0667 26.5008 29.9997 26.5008V23.5008Z" fill="#434343"/>
</svg>
