<svg width="100" height="100" viewBox="0 0 100 100" fill="none" xmlns="http://www.w3.org/2000/svg">
<circle cx="50" cy="50" r="50" fill="#34C759"/>
<path fill-rule="evenodd" clip-rule="evenodd" d="M36.4547 40.825C35.5773 33.8055 41.0506 27.6055 48.1246 27.6055H51.6724C58.7539 27.6055 64.233 33.8121 63.3547 40.839L63.2201 41.9159C62.9596 43.9995 63.7171 46.0812 65.2557 47.5101L65.3472 47.595C68.7082 50.7163 69.3605 55.7928 66.8977 59.6624C65.2882 62.1915 62.5896 63.8002 59.6298 64.0342L59.2314 64.7172C57.1214 68.3343 53.8339 70.3138 50.3817 70.3138C46.9296 70.3138 43.6421 68.3343 41.5321 64.7172L41.1399 64.0448C37.6163 63.8255 34.4599 61.7268 32.9054 58.5221L32.6901 58.0782C30.9263 54.4419 31.7515 50.0795 34.7216 47.3387C36.155 46.016 36.8619 44.0829 36.62 42.1476L36.4547 40.825ZM44.8333 64.0638C46.4152 66.2256 48.4627 67.1888 50.3817 67.1888C52.3008 67.1888 54.3482 66.2256 55.9302 64.0638H44.8333Z" fill="white"/>
</svg>
