<svg width="32" height="20" viewBox="0 0 32 20" fill="none" xmlns="http://www.w3.org/2000/svg">
<path fill-rule="evenodd" clip-rule="evenodd" d="M16.8894 19.3604L16.8894 19.3605H20.6197L22.6211 12.566H24.3264C25.481 12.566 26.529 12.3973 27.4705 12.0598C28.4297 11.7223 29.2468 11.2427 29.9218 10.6209C30.5969 9.98146 31.112 9.2354 31.4673 8.38275C31.8225 7.51235 32.0002 6.53536 32.0002 5.45179C32.0002 4.42152 31.8048 3.52447 31.414 2.76064C31.0409 1.99682 30.4281 1.40174 29.5755 0.975419C28.7406 0.549098 27.6304 0.335938 26.2448 0.335938H22.2876L17.0049 18.9533C16.7522 19.0798 16.4651 19.2145 16.1367 19.3604H16.8894ZM26.4846 8.9423C25.9517 9.24428 25.3034 9.39527 24.5395 9.39527H23.3139L24.959 3.5067H25.9251C26.6889 3.5067 27.2573 3.68434 27.6304 4.0396C28.0212 4.37711 28.2166 4.91889 28.2166 5.66495C28.2166 6.42878 28.0656 7.09491 27.7636 7.66334C27.4616 8.214 27.0353 8.64032 26.4846 8.9423Z" fill="#D9D9D9"/>
<path fill-rule="evenodd" clip-rule="evenodd" d="M16.8894 19.3604L16.8894 19.3605H20.6197L22.6211 12.566H24.3264C25.481 12.566 26.529 12.3973 27.4705 12.0598C28.4297 11.7223 29.2468 11.2427 29.9218 10.6209C30.5969 9.98146 31.112 9.2354 31.4673 8.38275C31.8225 7.51235 32.0002 6.53536 32.0002 5.45179C32.0002 4.42152 31.8048 3.52447 31.414 2.76064C31.0409 1.99682 30.4281 1.40174 29.5755 0.975419C28.7406 0.549098 27.6304 0.335938 26.2448 0.335938H22.2876L17.0049 18.9533C16.7522 19.0798 16.4651 19.2145 16.1367 19.3604H16.8894ZM26.4846 8.9423C25.9517 9.24428 25.3034 9.39527 24.5395 9.39527H23.3139L24.959 3.5067H25.9251C26.6889 3.5067 27.2573 3.68434 27.6304 4.0396C28.0212 4.37711 28.2166 4.91889 28.2166 5.66495C28.2166 6.42878 28.0656 7.09491 27.7636 7.66334C27.4616 8.214 27.0353 8.64032 26.4846 8.9423Z" fill="url(#paint0_linear_9984_270141)"/>
<path fill-rule="evenodd" clip-rule="evenodd" d="M16.8894 19.3604L16.8894 19.3605H20.6197L22.6211 12.566H24.3264C25.481 12.566 26.529 12.3973 27.4705 12.0598C28.4297 11.7223 29.2468 11.2427 29.9218 10.6209C30.5969 9.98146 31.112 9.2354 31.4673 8.38275C31.8225 7.51235 32.0002 6.53536 32.0002 5.45179C32.0002 4.42152 31.8048 3.52447 31.414 2.76064C31.0409 1.99682 30.4281 1.40174 29.5755 0.975419C28.7406 0.549098 27.6304 0.335938 26.2448 0.335938H22.2876L17.0049 18.9533C16.7522 19.0798 16.4651 19.2145 16.1367 19.3604H16.8894ZM26.4846 8.9423C25.9517 9.24428 25.3034 9.39527 24.5395 9.39527H23.3139L24.959 3.5067H25.9251C26.6889 3.5067 27.2573 3.68434 27.6304 4.0396C28.0212 4.37711 28.2166 4.91889 28.2166 5.66495C28.2166 6.42878 28.0656 7.09491 27.7636 7.66334C27.4616 8.214 27.0353 8.64032 26.4846 8.9423Z" fill="url(#paint1_linear_9984_270141)"/>
<path d="M6.87378 19.361C8.37189 18.8597 8.86676 18.3584 9.36162 17.3557L14.8356 0.310547H20.6216C19.5722 0.73598 19.0167 1.18652 18.4229 1.78813L12.6597 19.361H6.87378Z" fill="url(#paint2_linear_9984_270141)"/>
<path d="M6.87378 19.361C8.37189 18.8597 8.86676 18.3584 9.36162 17.3557L14.8356 0.310547H20.6216C19.5722 0.73598 19.0167 1.18652 18.4229 1.78813L12.6597 19.361H6.87378Z" fill="url(#paint3_linear_9984_270141)"/>
<path fill-rule="evenodd" clip-rule="evenodd" d="M10.1179 0.310547H13.6699C12.253 0.940185 11.6036 1.36055 11.1651 1.81895L4.90964 19.361H1.28076L7.38764 0.31341H10.1164C10.1169 0.312455 10.1174 0.311501 10.1179 0.310547Z" fill="#D9D9D9"/>
<path fill-rule="evenodd" clip-rule="evenodd" d="M10.1179 0.310547H13.6699C12.253 0.940185 11.6036 1.36055 11.1651 1.81895L4.90964 19.361H1.28076L7.38764 0.31341H10.1164C10.1169 0.312455 10.1174 0.311501 10.1179 0.310547Z" fill="url(#paint4_linear_9984_270141)"/>
<path d="M1.17929 19.361L0 0.310547H4.14986L4.90992 19.361H1.17929Z" fill="url(#paint5_linear_9984_270141)"/>
<path d="M1.17929 19.361L0 0.310547H4.14986L4.90992 19.361H1.17929Z" fill="url(#paint6_linear_9984_270141)"/>
<defs>
<linearGradient id="paint0_linear_9984_270141" x1="23.7922" y1="0.735394" x2="23.7922" y2="19.3605" gradientUnits="userSpaceOnUse">
<stop stop-color="#EFB264"/>
<stop offset="1" stop-color="#903D17"/>
</linearGradient>
<linearGradient id="paint1_linear_9984_270141" x1="26.5296" y1="0.335938" x2="21.3204" y2="19.8077" gradientUnits="userSpaceOnUse">
<stop stop-color="#E58914"/>
<stop offset="1" stop-color="#93421D"/>
</linearGradient>
<linearGradient id="paint2_linear_9984_270141" x1="14.6341" y1="0.710548" x2="14.6341" y2="19.361" gradientUnits="userSpaceOnUse">
<stop stop-color="#EFB264"/>
<stop offset="1" stop-color="#903D17"/>
</linearGradient>
<linearGradient id="paint3_linear_9984_270141" x1="15.8806" y1="0.310547" x2="9.98529" y2="19.382" gradientUnits="userSpaceOnUse">
<stop stop-color="#E58914"/>
<stop offset="1" stop-color="#93421D"/>
</linearGradient>
<linearGradient id="paint4_linear_9984_270141" x1="14.0496" y1="0.313408" x2="4.12991" y2="17.7708" gradientUnits="userSpaceOnUse">
<stop stop-color="#FFB454"/>
<stop offset="1" stop-color="#853A05"/>
</linearGradient>
<linearGradient id="paint5_linear_9984_270141" x1="3.42953" y1="0.310547" x2="-3.64725" y2="17.1009" gradientUnits="userSpaceOnUse">
<stop stop-color="#FFB250"/>
<stop offset="1" stop-color="#903D17"/>
</linearGradient>
<linearGradient id="paint6_linear_9984_270141" x1="3.21672" y1="0.310547" x2="-7.12217" y2="12.2557" gradientUnits="userSpaceOnUse">
<stop stop-color="#E58914"/>
<stop offset="1" stop-color="#93421D"/>
</linearGradient>
</defs>
</svg>
