<svg width="44" height="44" viewBox="0 0 44 44" fill="none" xmlns="http://www.w3.org/2000/svg">
<path d="M8.47233 12.722C10.0832 12.722 11.389 11.4162 11.389 9.80534C11.389 8.19451 10.0832 6.88867 8.47233 6.88867C6.8615 6.88867 5.55566 8.19451 5.55566 9.80534C5.55566 11.4162 6.8615 12.722 8.47233 12.722Z" fill="#656565"/>
<path d="M17.2223 11.0553L37.2223 11.0553C37.9127 11.0553 38.4723 10.4957 38.4723 9.80534C38.4723 9.11498 37.9127 8.55534 37.2223 8.55534L17.2223 8.55534C16.532 8.55534 15.9723 9.11499 15.9723 9.80534C15.9723 10.4957 16.532 11.0553 17.2223 11.0553Z" fill="#656565"/>
<path d="M17.2223 22.722L37.2223 22.722C37.9127 22.722 38.4723 22.1624 38.4723 21.472C38.4723 20.7816 37.9127 20.222 37.2223 20.222L17.2223 20.222C16.532 20.222 15.9723 20.7817 15.9723 21.472C15.9723 22.1624 16.532 22.722 17.2223 22.722Z" fill="#656565"/>
<path d="M37.2223 34.3887L17.2223 34.3887C16.532 34.3887 15.9723 33.829 15.9723 33.1387C15.9723 32.4483 16.532 31.8887 17.2223 31.8887L37.2223 31.8887C37.9127 31.8887 38.4723 32.4483 38.4723 33.1387C38.4723 33.829 37.9127 34.3887 37.2223 34.3887Z" fill="#656565"/>
<path d="M11.389 33.1387C11.389 34.7495 10.0832 36.0553 8.47233 36.0553C6.8615 36.0553 5.55566 34.7495 5.55566 33.1387C5.55566 31.5278 6.8615 30.222 8.47233 30.222C10.0832 30.222 11.389 31.5278 11.389 33.1387Z" fill="#656565"/>
<path d="M8.47233 24.3887C10.0832 24.3887 11.389 23.0828 11.389 21.472C11.389 19.8612 10.0832 18.5553 8.47233 18.5553C6.8615 18.5553 5.55566 19.8612 5.55566 21.472C5.55566 23.0828 6.8615 24.3887 8.47233 24.3887Z" fill="#656565"/>
</svg>
