<svg width="41" height="50" viewBox="0 0 41 50" fill="none" xmlns="http://www.w3.org/2000/svg">
<path d="M30.0746 33.3145V48.4133C30.0746 49.6585 28.6737 50.2812 27.7398 49.5029L22.4474 45.1444C22.4474 45.1444 22.2918 45.1444 22.2918 44.9888C21.8248 44.6775 21.3578 44.5218 20.8908 44.5218C20.2682 44.5218 19.8012 44.6775 19.3343 45.1444L14.0419 49.6585C13.108 50.4368 11.707 49.8142 11.707 48.5689V33.4701H30.0746V33.3145Z" fill="#F45170"/>
<path d="M30.0744 33.3145V48.4133C30.0744 49.6585 28.6735 50.2812 27.7396 49.5029L22.4472 45.1444C22.4472 45.1444 22.2915 45.1444 22.2915 44.9888C21.8246 44.6775 21.3576 44.5218 20.8906 44.5218V33.3145H30.0744Z" fill="#E93565"/>
<path d="M30.0746 36.8945V39.2294C28.6737 39.5407 26.9615 39.0737 25.7162 39.3851C24.1597 39.852 22.6031 41.5643 20.8908 41.5643C19.1786 41.5643 17.622 39.852 16.0654 39.3851C14.6645 39.0737 12.9523 39.5407 11.707 39.2294V36.8945H30.0746Z" fill="#CC104A"/>
<path d="M38.7918 25.0609C38.3248 26.7731 39.1031 28.7967 38.3248 30.3533C37.3909 31.9098 35.2117 32.2212 33.9664 33.4664C32.7212 34.7117 32.4098 36.8909 30.8533 37.8248C29.4523 38.6031 27.2731 37.8248 25.5609 38.2918C24.0043 38.7588 22.4477 40.471 20.7355 40.471C19.0233 40.471 17.4667 38.7588 15.9101 38.2918C14.1979 37.8248 12.1743 38.6031 10.6178 37.8248C9.21684 37.0466 8.74986 34.7117 7.5046 33.4664C6.25934 32.2212 4.08013 31.9098 3.14618 30.3533C2.36789 28.9523 3.14618 26.7731 2.67921 25.0609C2.21224 23.5043 0.5 21.9477 0.5 20.2355C0.5 18.5233 2.21224 16.9667 2.67921 15.4101C3.14618 13.6979 2.36789 11.6743 3.14618 10.1178C3.92447 8.71684 6.25934 8.24986 7.5046 7.0046C8.74986 5.75934 9.06118 3.58013 10.6178 2.64618C12.0187 1.86789 14.1979 2.64618 15.9101 2.17921C17.4667 1.71224 19.0233 0 20.7355 0C22.4477 0 24.0043 1.71224 25.5609 2.17921C27.2731 2.64618 29.2967 1.86789 30.8533 2.64618C32.2542 3.42447 32.7212 5.75934 33.9664 7.0046C35.2117 8.24986 37.3909 8.56118 38.3248 10.1178C39.1031 11.5187 38.3248 13.6979 38.7918 15.4101C39.2588 16.9667 40.971 18.5233 40.971 20.2355C40.971 21.9477 39.2588 23.5043 38.7918 25.0609Z" fill="#F9BE48"/>
<g opacity="0.4">
<path d="M35.9886 20.2355C35.9886 28.4854 29.2953 35.3343 20.8898 35.3343C12.64 35.3343 5.79102 28.641 5.79102 20.2355C5.79102 11.9857 12.4843 5.13672 20.8898 5.13672C29.1397 5.13672 35.9886 11.9857 35.9886 20.2355Z" fill="white"/>
</g>
<path d="M34.4321 20.2493C34.4321 27.7208 28.3615 33.7915 20.8899 33.7915C13.4183 33.7915 7.34766 27.7208 7.34766 20.2493C7.34766 12.7777 13.4183 6.70703 20.8899 6.70703C28.3615 6.70703 34.4321 12.7777 34.4321 20.2493Z" fill="#F3A250"/>
<path d="M34.4323 21.184C33.9653 14.0237 28.0503 8.42004 20.89 8.42004C13.7298 8.42004 7.81477 14.0237 7.3478 21.184C6.88082 13.0898 13.4184 6.55214 20.89 6.7078C28.5173 6.86346 34.8992 12.9341 34.4323 21.184Z" fill="#EF7B56"/>
<path d="M25.249 22.2667L26.0273 27.0921C26.183 27.8704 25.4047 28.3374 24.7821 28.0261L20.5793 25.8469C20.268 25.6912 19.9567 25.6912 19.801 25.8469L15.5982 28.0261C14.9756 28.3374 14.1973 27.8704 14.353 27.0921L15.1313 22.2667C15.1313 21.9554 15.1313 21.6441 14.82 21.4884L11.3955 18.064C10.9285 17.597 11.0842 16.663 11.8625 16.5074L16.6879 15.7291C16.9992 15.7291 17.1548 15.5734 17.3105 15.2621L19.334 11.215C19.6453 10.5924 20.5793 10.5924 20.8906 11.215L23.0698 15.5734C23.2255 15.8848 23.3811 16.0404 23.6924 16.0404L28.5178 16.8187C29.2961 16.9744 29.6074 17.7526 28.9848 18.3753L25.5603 21.4884C25.4047 21.7998 25.249 21.9554 25.249 22.2667Z" fill="#EF7B56"/>
<path d="M26.0297 23.0507L26.808 27.8761C26.9636 28.6544 26.1853 29.1213 25.5627 28.81L21.3599 26.6308C21.0486 26.4752 20.7373 26.4752 20.5817 26.6308L16.2232 28.81C15.6006 29.1213 14.8223 28.6544 14.978 27.8761L15.7563 23.0507C15.7563 22.7394 15.7563 22.4281 15.445 22.2724L12.0205 18.8479C11.5535 18.381 11.7092 17.447 12.4875 17.2914L17.3128 16.5131C17.6242 16.5131 17.7798 16.3574 17.9355 16.0461L20.1147 11.6877C20.426 11.065 21.36 11.065 21.6713 11.6877L23.8505 16.0461C24.0061 16.3574 24.1618 16.5131 24.4731 16.5131L29.2985 17.2914C30.0768 17.447 30.3881 18.2253 29.7655 18.8479L26.341 22.2724C26.0297 22.4281 26.0297 22.7394 26.0297 23.0507Z" fill="#F9CF6B"/>
<g opacity="0.5">
<path d="M12.9475 18.9915C12.4805 18.5245 12.7918 17.7463 13.4145 17.5906L17.6172 16.968C17.9285 16.968 18.0842 16.8123 18.2399 16.501L20.1078 12.6096C20.4191 11.9869 21.1974 11.9869 21.5087 12.6096L23.3766 16.501C23.5322 16.8123 23.6879 16.968 23.9992 16.968L28.202 17.5906C28.8246 17.7463 29.1359 18.5245 28.6689 18.9915C28.6689 18.9915 26.0227 21.949 20.5747 21.949C16.5276 21.949 12.9475 18.9915 12.9475 18.9915Z" fill="white"/>
</g>
<g opacity="0.7">
<path d="M19.6468 16.817C18.8685 16.5057 20.1138 13.2369 20.8921 13.5482C21.359 13.7039 20.5807 17.1283 19.6468 16.817Z" fill="white"/>
</g>
</svg>
