<svg width="30" height="30" viewBox="0 0 30 30" fill="none" xmlns="http://www.w3.org/2000/svg">
    <path d="m13.362 7.479-.954-.3.954.3zm-2.65 4.446.601-.8-.6.8zm.626 1.989.954.3-.954-.3zm2.65 1.988-.6-.8.6.8zm2.024 0 .6-.8-.6.8zm2.65-1.988-.955.3.954-.3zm.625-1.989-.6-.8.6.8zm-2.65-4.446.954-.3-.954.3zm-4.296 14.81-.866-.5.866.5zm-2.196 3.803.866.5-.866-.5zm-7.857-4.537-.866-.5.866.5zm2.196-3.803.866.5-.866-.5zM7.79 25.89l-.946.324.946-.324zm-.305-.892.946-.323-.946.323zm-2.922-1.687-.193-.98.193.98zm-.924.182.193.982-.193-.982zm2.912-.251.5-.866-.5.866zm-4.955.264-.82.573.82-.573zm11.378-2.341-.799-.602-.048.064-.037.07.884.468zm4.336 1.124.866-.5-.866.5zm2.196 3.803.866-.5-.866.5zm7.857-4.537.866-.5-.866.5zm-2.196-3.803-.866.5.866-.5zm-3.307 8.138.946.324-.946-.324zm.305-.892-.947-.323.947.323zm2.922-1.687.193-.98-.193.98zm.924.182-.193.982.193-.982zm2.043.014.82.572-.82-.573zM16.67 21.154h-1v.247l.116.219.884-.466zm-10.637-5.47-.896.443.896-.444zm7.02 5.376.193-.981-.194.98zm3.617.05-.165-.986.165.986zm7.22-5.279-.889-.459.889.46zm-18.29.166-.75-.66.75.66zM6 11.25a9 9 0 0 1 9-9v-2c-6.075 0-11 4.925-11 11h2zm9-9a9 9 0 0 1 9 9h2c0-6.075-4.925-11-11-11v2zm-3.275 7.458c1.2 0 2.235-.797 2.591-1.929l-1.908-.6a.728.728 0 0 1-.683.529v2zm-.412 1.418c-.29-.218-.376-.559-.272-.89.104-.327.353-.528.684-.528v-2c-2.701 0-3.672 3.471-1.612 5.017l1.2-1.6zm.98 3.088a2.812 2.812 0 0 0-.98-3.088l-1.2 1.6c.256.191.378.55.271.888l1.908.6zm1.095.888a.649.649 0 0 1-.824 0 .778.778 0 0 1-.272-.888l-1.908-.6a2.777 2.777 0 0 0 .98 3.088c.871.654 2.153.804 3.224 0l-1.2-1.6zm3.224 0a2.677 2.677 0 0 0-3.224 0l1.2 1.6a.677.677 0 0 1 .824 0l1.2-1.6zm1.095-.888a.778.778 0 0 1-.271.888.649.649 0 0 1-.824 0l-1.2 1.6c1.07.804 2.353.654 3.224 0a2.777 2.777 0 0 0 .98-3.088l-1.909.6zm.98-3.088a2.812 2.812 0 0 0-.98 3.088l1.908-.6a.812.812 0 0 1 .272-.889l-1.2-1.6zm-.412-1.418c.331 0 .58.201.683.529.104.33.019.67-.271.889l1.2 1.6c2.06-1.547 1.089-5.018-1.612-5.018v2zm-2.592-1.929c.357 1.132 1.392 1.929 2.592 1.929v-2a.729.729 0 0 1-.684-.53l-1.908.601zm1.908-.6c-.809-2.572-4.374-2.572-5.183 0l1.908.6a.706.706 0 0 1 1.367 0l1.908-.6zm-6.116 14.61-2.196 3.803 1.732 1 2.196-3.803-1.732-1zm-8.321.266 2.196-3.803-1.732-1-2.196 3.803 1.732 1zm5.583 3.512-.305-.892-1.892.647.305.892 1.892-.647zM4.371 22.33l-.924.182.386 1.963.924-.182-.386-1.963zm4.061 2.345c-.164-.48-.316-.93-.488-1.284-.185-.377-.445-.758-.892-1.015l-1 1.732c-.03-.018.003-.026.095.162.104.213.212.522.393 1.052l1.892-.647zm-3.675-.382c.55-.108.87-.17 1.107-.186.21-.014.22.019.188 0l1-1.731c-.446-.258-.906-.293-1.325-.264-.391.027-.857.12-1.356.218l.386 1.963zm-3.335-3.238c-.293.508-.571.984-.729 1.377-.149.37-.345 1.032.084 1.647l1.64-1.145c.19.274.03.497.132.244.092-.229.278-.557.605-1.123l-1.732-1zm2.025 1.457c-.635.125-1 .194-1.24.206-.112.006-.116-.008-.067.008a.55.55 0 0 1 .277.209l-1.64 1.144c.434.622 1.13.656 1.53.637.42-.021.958-.13 1.526-.241l-.386-1.963zm5.832 3.08c-.326.565-.517.891-.67 1.086-.167.214-.055-.037.277-.009l-.17 1.993c.747.064 1.222-.437 1.468-.75.26-.334.534-.813.827-1.32l-1.732-1zm-2.434.622c.187.547.362 1.067.554 1.442.182.355.56.941 1.317 1.006l.17-1.993a.55.55 0 0 1 .32.136c.037.035.024.038-.027-.062-.11-.214-.232-.564-.442-1.176l-1.892.647zM5.35 18.252c.535-.927.777-1.336 1.003-1.594l-1.503-1.32c-.39.445-.745 1.07-1.232 1.914l1.732 1zm7.857 4.537c.262-.455.481-.834.652-1.157l-1.768-.934c-.15.282-.347.624-.616 1.09l1.732 1zm3.238 0 2.195 3.803 1.733-1-2.196-3.803-1.732 1zm11.785-1.734-2.196-3.803-1.732 1 2.196 3.803 1.732-1zm-5.423 5.159.305-.892-1.893-.647-.304.892 1.892.647zm2.088-1.921.924.182.386-1.963-.924-.182-.386 1.963zm-1.783 1.029c.181-.53.289-.839.393-1.052.092-.188.125-.18.094-.162l-1-1.732c-.446.257-.706.638-.89 1.015-.173.353-.325.803-.49 1.284l1.893.647zm2.169-2.992c-.5-.098-.965-.191-1.356-.218-.42-.029-.88.006-1.326.264l1 1.732c-.03.018-.02-.015.188 0 .237.015.558.076 1.108.185l.386-1.963zm1.217-.275c.326.566.513.894.605 1.123.102.253-.059.03.132-.244l1.64 1.145c.429-.615.233-1.277.084-1.647-.158-.393-.436-.869-.729-1.377l-1.732 1zm-.679 2.42c.568.111 1.106.22 1.527.24.398.02 1.095-.014 1.529-.636l-1.64-1.145a.55.55 0 0 1 .277-.208c.05-.015.045-.002-.067-.008-.24-.012-.605-.08-1.24-.206l-.386 1.963zm-7.178 2.117c.293.507.566.986.827 1.32.246.313.721.814 1.468.75l-.17-1.993c.332-.028.444.223.276.009-.152-.195-.343-.52-.67-1.086l-1.732 1zm2.274-1.025c-.21.612-.332.962-.442 1.176-.051.1-.065.097-.027.062a.55.55 0 0 1 .32-.136l.17 1.993c.757-.065 1.134-.65 1.317-1.006.192-.375.367-.895.554-1.442l-1.892-.647zm-2.738-3.778a35.685 35.685 0 0 1-.62-1.1l-1.77.932c.171.325.393.708.658 1.168l1.732-1zM6.93 15.24A8.959 8.959 0 0 1 6 11.25H4c0 1.75.41 3.407 1.138 4.878l1.792-.888zM15 20.25c-.6 0-1.187-.059-1.753-.17l-.387 1.962a11.05 11.05 0 0 0 2.14.208v-2zm-1.753-.17a9.016 9.016 0 0 1-6.317-4.84l-1.792.888a11.016 11.016 0 0 0 7.722 5.914l.387-1.962zm.527 1.686.078-.104-1.598-1.203-.078.104 1.598 1.203zm2.732-1.641A9.066 9.066 0 0 1 15 20.25v2c.625 0 1.24-.052 1.837-.153l-.331-1.972zm1.165 1.03v-.044h-2v.044h2zM24 11.25c0 1.488-.36 2.89-.998 4.123l1.777.918a10.957 10.957 0 0 0 1.22-5.041h-2zm-.998 4.123a9.012 9.012 0 0 1-6.496 4.752l.331 1.972a11.012 11.012 0 0 0 7.942-5.806l-1.777-.918zm3.032 1.88c-.562-.975-.951-1.67-1.457-2.148l-1.373 1.454c.239.226.464.594 1.098 1.693l1.732-1zm-19.68-.595a.753.753 0 0 1 .125-.078l-.89-1.792c-.223.111-.502.28-.739.55l1.503 1.32z" fill="url(#f7jsa19w3a)"/>
    <defs>
        <linearGradient id="f7jsa19w3a" x1="14.826" y1="1.25" x2="14.826" y2="27.667" gradientUnits="userSpaceOnUse">
            <stop stop-color="#FFDCA6"/>
            <stop offset="1" stop-color="#F1D3A7"/>
        </linearGradient>
    </defs>
</svg>
