<svg width="30" height="30" viewBox="0 0 30 30" fill="none" xmlns="http://www.w3.org/2000/svg">
    <path d="M5 8.75c0-1.165 0-1.747.19-2.207A2.5 2.5 0 0 1 6.543 5.19C7.003 5 7.585 5 8.75 5c1.165 0 1.747 0 2.207.19a2.5 2.5 0 0 1 1.353 1.353c.19.46.19 1.042.19 2.207 0 1.165 0 1.747-.19 2.207a2.5 2.5 0 0 1-1.353 1.353c-.46.19-1.042.19-2.207.19-1.165 0-1.747 0-2.207-.19a2.5 2.5 0 0 1-1.353-1.353C5 10.497 5 9.915 5 8.75zM17.5 8.75c0-1.165 0-1.747.19-2.207a2.5 2.5 0 0 1 1.353-1.353C19.503 5 20.085 5 21.25 5c1.165 0 1.747 0 2.207.19a2.5 2.5 0 0 1 1.353 1.353c.19.46.19 1.042.19 2.207 0 1.165 0 1.747-.19 2.207a2.5 2.5 0 0 1-1.353 1.353c-.46.19-1.042.19-2.207.19-1.165 0-1.747 0-2.207-.19a2.5 2.5 0 0 1-1.353-1.353c-.19-.46-.19-1.042-.19-2.207zM5 21.25c0-1.165 0-1.747.19-2.207a2.5 2.5 0 0 1 1.353-1.353c.46-.19 1.042-.19 2.207-.19 1.165 0 1.747 0 2.207.19a2.5 2.5 0 0 1 1.353 1.353c.19.46.19 1.042.19 2.207 0 1.165 0 1.747-.19 2.207a2.5 2.5 0 0 1-1.353 1.353c-.46.19-1.042.19-2.207.19-1.165 0-1.747 0-2.207-.19a2.5 2.5 0 0 1-1.353-1.353C5 22.997 5 22.415 5 21.25zM17.5 21.25c0-1.165 0-1.747.19-2.207a2.5 2.5 0 0 1 1.353-1.353c.46-.19 1.042-.19 2.207-.19 1.165 0 1.747 0 2.207.19a2.5 2.5 0 0 1 1.353 1.353c.19.46.19 1.042.19 2.207 0 1.165 0 1.747-.19 2.207a2.5 2.5 0 0 1-1.353 1.353c-.46.19-1.042.19-2.207.19-1.165 0-1.747 0-2.207-.19a2.5 2.5 0 0 1-1.353-1.353c-.19-.46-.19-1.042-.19-2.207z" stroke="#656565" stroke-width="2.5"/>
</svg>
