<svg width="44" height="45" viewBox="0 0 44 45" fill="none" xmlns="http://www.w3.org/2000/svg">
    <path d="M38.5 18.834c0-5.134 0-7.7-1-9.662a9.167 9.167 0 0 0-4.005-4.006c-1.96-.999-4.528-.999-9.662-.999h-3.666c-5.134 0-7.701 0-9.662 1A9.167 9.167 0 0 0 6.5 9.171C5.5 11.133 5.5 13.7 5.5 18.834v7.752a6.915 6.915 0 0 0 6.915 6.915h1.103a2.019 2.019 0 0 1 1.874 2.769c-.748 1.872 1.408 3.564 3.049 2.392l4.786-3.419.097-.069a9.167 9.167 0 0 1 5.222-1.673h.146c.572 0 .858 0 1.075-.01a9.166 9.166 0 0 0 8.723-8.724c.01-.216.01-.472.01-.985v-4.948z" stroke="#AEAEB1" stroke-width="2.933"/>
    <path d="M16.5 18.834a1.833 1.833 0 1 1-3.667 0 1.833 1.833 0 0 1 3.667 0zM23.833 18.834a1.833 1.833 0 1 1-3.666 0 1.833 1.833 0 0 1 3.666 0zM31.167 18.834a1.833 1.833 0 1 1-3.667 0 1.833 1.833 0 0 1 3.667 0z" fill="#AEAEB1"/>
</svg>
