<svg width="30" height="30" viewBox="0 0 30 30" fill="none" xmlns="http://www.w3.org/2000/svg">
<path fill-rule="evenodd" clip-rule="evenodd" d="M26.728 5.86757C27.5 7.38278 27.5 9.36629 27.5 13.3333V17.1567C27.5 17.5528 27.5 17.7509 27.4921 17.9183C27.3193 21.567 24.4003 24.486 20.7516 24.6587C20.5842 24.6667 20.3633 24.6667 19.9213 24.6667C19.8609 24.6667 19.8306 24.6667 19.8079 24.6668C18.3626 24.6761 16.9547 25.1273 15.7732 25.9598C15.7546 25.9729 15.7358 25.9863 15.6981 26.0133L11.9995 28.6551C10.7316 29.5607 9.06552 28.2529 9.64419 26.8062C10.0541 25.7814 9.29939 24.6667 8.19567 24.6667H7.34318C4.39222 24.6667 2 22.2744 2 19.3235V13.3333C2 9.36629 2 7.38278 2.77204 5.86757C3.45114 4.53475 4.53475 3.45114 5.86757 2.77204C7.38278 2 9.36629 2 13.3333 2H16.1667C20.1337 2 22.1172 2 23.6324 2.77204C24.9652 3.45114 26.0489 4.53475 26.728 5.86757ZM10.5003 13.3333C10.5003 14.1157 9.86606 14.75 9.08366 14.75C8.30126 14.75 7.66699 14.1157 7.66699 13.3333C7.66699 12.5509 8.30126 11.9166 9.08366 11.9166C9.86606 11.9166 10.5003 12.5509 10.5003 13.3333ZM16.167 13.3333C16.167 14.1157 15.5327 14.75 14.7503 14.75C13.9679 14.75 13.3337 14.1157 13.3337 13.3333C13.3337 12.5509 13.9679 11.9166 14.7503 11.9166C15.5327 11.9166 16.167 12.5509 16.167 13.3333ZM20.417 14.75C21.1994 14.75 21.8337 14.1157 21.8337 13.3333C21.8337 12.5509 21.1994 11.9166 20.417 11.9166C19.6346 11.9166 19.0003 12.5509 19.0003 13.3333C19.0003 14.1157 19.6346 14.75 20.417 14.75Z" fill="#AEAEB1"/>
</svg>
