<svg width="40" height="40" viewBox="0 0 40 40" fill="none" xmlns="http://www.w3.org/2000/svg">
<path d="M9.28643 29.4829C9.28643 28.9734 9.71191 28.5604 10.2368 28.5604H29.7985C30.3234 28.5604 30.7488 28.9734 30.7488 29.4829V33.1673C30.7488 33.6768 30.3234 34.0898 29.7985 34.0898H10.2368C9.71191 34.0898 9.28643 33.6768 9.28643 33.1673V29.4829Z" fill="#FF7A00"/>
<path d="M14.1188 14.6044L18.3855 6.01769C19.0598 4.66077 20.9757 4.66077 21.65 6.01769L25.9167 14.6044C26.4262 15.6297 27.7275 15.942 28.6385 15.2576L32.0882 12.6658C33.3738 11.6998 35.1791 12.7555 34.9918 14.3638L33.0986 30.6194C32.9903 31.5493 32.2107 32.2501 31.2846 32.2501H8.75095C7.82477 32.2501 7.04518 31.5493 6.93688 30.6194L5.04375 14.3638C4.85645 12.7555 6.66169 11.6998 7.94735 12.6658L11.3971 15.2576C12.308 15.942 13.6093 15.6297 14.1188 14.6044Z" fill="url(#paint0_radial_2413_59034)"/>
<path d="M6.00749 30.7276C6.15415 31.9869 7.12531 32.9775 8.35076 33.1568V33.1673C8.35076 34.2196 9.22163 35.0255 10.2368 35.0255H29.7985C30.8136 35.0255 31.6845 34.2196 31.6845 33.1673V33.1568C32.9101 32.9776 33.8814 31.987 34.028 30.7277L35.9212 14.4721C36.2007 12.0721 33.4894 10.4426 31.5261 11.9177L28.0764 14.5096C27.6377 14.8392 27.0063 14.6945 26.7546 14.1881L22.4879 5.60133C21.4696 3.552 18.5659 3.552 17.5476 5.60133L13.2809 14.1881C13.0292 14.6945 12.3978 14.8392 11.9591 14.5096L8.50939 11.9177C6.54613 10.4426 3.83486 12.0721 4.11436 14.4721L6.00749 30.7276Z" stroke="white" stroke-width="0"/>
<path d="M9.28643 29.4829C9.28643 28.9734 9.71191 28.5604 10.2368 28.5604H29.7985C30.3234 28.5604 30.7488 28.9734 30.7488 29.4829V33.1673C30.7488 33.6768 30.3234 34.0898 29.7985 34.0898H10.2368C9.71191 34.0898 9.28643 33.6768 9.28643 33.1673V29.4829Z" fill="#FF7A00"/>
<path d="M14.1188 14.6044L18.3855 6.01769C19.0598 4.66077 20.9757 4.66077 21.65 6.01769L25.9167 14.6044C26.4262 15.6297 27.7275 15.942 28.6385 15.2576L32.0882 12.6658C33.3738 11.6998 35.1791 12.7555 34.9918 14.3638L33.0986 30.6194C32.9903 31.5493 32.2107 32.2501 31.2846 32.2501H8.75095C7.82477 32.2501 7.04518 31.5493 6.93688 30.6194L5.04375 14.3638C4.85645 12.7555 6.66169 11.6998 7.94735 12.6658L11.3971 15.2576C12.308 15.942 13.6093 15.6297 14.1188 14.6044Z" fill="url(#paint1_radial_2413_59034)"/>
<path d="M22.2999 16.4018V27.2896H19.3441V19.1237H19.2803L16.8986 20.5485V18.0392L19.578 16.4018H22.2999Z" fill="url(#paint2_linear_2413_59034)"/>
<defs>
<radialGradient id="paint0_radial_2413_59034" cx="0" cy="0" r="1" gradientUnits="userSpaceOnUse" gradientTransform="translate(13.9097 16.5374) rotate(58.5917) scale(20.5658 17.795)">
<stop stop-color="#FFEB81"/>
<stop offset="0.682292" stop-color="#FFC839"/>
</radialGradient>
<radialGradient id="paint1_radial_2413_59034" cx="0" cy="0" r="1" gradientUnits="userSpaceOnUse" gradientTransform="translate(13.9097 16.5374) rotate(58.5917) scale(20.5658 17.795)">
<stop stop-color="#FFEB81"/>
<stop offset="0.682292" stop-color="#FFC839"/>
</radialGradient>
<linearGradient id="paint2_linear_2413_59034" x1="20.0259" y1="16.5644" x2="20.0259" y2="26.3889" gradientUnits="userSpaceOnUse">
<stop stop-color="#FF2B5E"/>
<stop offset="1" stop-color="#AD0000"/>
</linearGradient>
</defs>
</svg>
