<svg width="60" height="60" viewBox="0 0 60 60" fill="currentColor" xmlns="http://www.w3.org/2000/svg">
<path d="M46.3534 33.4932L47.572 34.368L46.3534 33.4932ZM46.3534 26.5094L45.1349 27.3842L46.3534 26.5094ZM47.9997 30.0013L46.4997 30.0013L47.9997 30.0013ZM13.6462 33.4932L14.8647 32.6184L13.6462 33.4932ZM13.6462 26.5094L12.4277 25.6346L13.6462 26.5094ZM12 30.0013L10.5 30.0013L12 30.0013ZM12.4277 34.368C14.0476 36.6244 16.4603 39.5926 19.4133 42.0105C22.3492 44.4143 25.9778 46.4032 29.9998 46.4032V43.4032C26.9682 43.4032 24.0009 41.8893 21.3139 39.6893C18.644 37.5032 16.4068 34.7664 14.8647 32.6184L12.4277 34.368ZM29.9998 46.4032C34.0219 46.4032 37.6504 44.4143 40.5863 42.0105C43.5393 39.5926 45.9521 36.6244 47.572 34.368L45.1349 32.6184C43.5929 34.7664 41.3556 37.5032 38.6858 39.6893C35.9987 41.8893 33.0315 43.4032 29.9998 43.4032V46.4032ZM47.572 25.6346C45.952 23.3782 43.5393 20.41 40.5863 17.9921C37.6504 15.5883 34.0219 13.5994 29.9998 13.5994V16.5994C33.0315 16.5994 35.9987 18.1132 38.6858 20.3133C41.3556 22.4993 43.5929 25.2362 45.1349 27.3842L47.572 25.6346ZM29.9998 13.5994C25.9778 13.5994 22.3492 15.5883 19.4133 17.9921C16.4603 20.41 14.0476 23.3782 12.4277 25.6346L14.8647 27.3842C16.4068 25.2362 18.644 22.4993 21.3139 20.3133C24.0009 18.1132 26.9682 16.5994 29.9998 16.5994V13.5994ZM47.572 34.368C48.5999 32.9361 49.4997 31.7702 49.4997 30.0013L46.4997 30.0013C46.4997 30.63 46.302 30.9928 45.1349 32.6184L47.572 34.368ZM45.1349 27.3842C46.302 29.0098 46.4997 29.3726 46.4997 30.0013L49.4997 30.0013C49.4997 28.2324 48.5999 27.0664 47.572 25.6346L45.1349 27.3842ZM14.8647 32.6184C13.6977 30.9928 13.5 30.63 13.5 30.0013L10.5 30.0013C10.5 31.7702 11.3998 32.9361 12.4277 34.368L14.8647 32.6184ZM12.4277 25.6346C11.3998 27.0664 10.5 28.2324 10.5 30.0013L13.5 30.0013C13.5 29.3726 13.6977 29.0098 14.8647 27.3842L12.4277 25.6346ZM22.9116 30.0013C22.9116 33.916 26.0851 37.0895 29.9998 37.0895V34.0895C27.742 34.0895 25.9116 32.2591 25.9116 30.0013H22.9116ZM29.9998 37.0895C33.9145 37.0895 37.088 33.916 37.088 30.0013H34.088C34.088 32.2591 32.2577 34.0895 29.9998 34.0895V37.0895ZM37.088 30.0013C37.088 26.0866 33.9145 22.9131 29.9998 22.9131V25.9131C32.2577 25.9131 34.088 27.7434 34.088 30.0013H37.088ZM29.9998 22.9131C26.0851 22.9131 22.9116 26.0866 22.9116 30.0013H25.9116C25.9116 27.7434 27.742 25.9131 29.9998 25.9131V22.9131Z" fill="currentColor"/>
</svg>
