<svg width="73" height="63" viewBox="0 0 73 63" fill="none" xmlns="http://www.w3.org/2000/svg">
<path d="M0.0322266 19V38V63L72.5003 0H20.5003C8.00037 0 0.0322783 10 0.0322266 19Z" fill="#34C759"/>
<path d="M10.0969 28.895L11.8746 27.3125L20.9573 37.5155L19.1796 39.098L10.0969 28.895ZM11.0231 28.0705L18.2086 21.6741L21.9719 25.9017L14.7865 32.2981L13.4168 30.7594L18.8096 25.9588L17.7856 24.8085L12.3928 29.6091L11.0231 28.0705ZM15.5928 33.294L23.7193 26.0598L28.1343 31.0194L26.3417 32.6152L23.323 29.2242L16.9891 34.8626L15.5928 33.294ZM18.1908 36.1223L25.5256 29.5929L26.922 31.1615L19.5871 37.6909L18.1908 36.1223ZM9.85138 22.3927L11.7635 20.6905L14.1173 23.3346L12.2052 25.0368L9.85138 22.3927ZM5.34135 28.3354L18.2184 16.8724L21.5163 20.5771L19.6938 22.1995L17.8985 20.1828L8.59185 28.4675L10.3871 30.4842L8.6393 32.0401L5.34135 28.3354ZM21.0965 16.5863L34.6457 4.52483L36.175 6.24276L22.6258 18.3042L21.0965 16.5863ZM29.344 15.8046L35.0655 10.7114L36.5815 12.4144L30.86 17.5076L29.344 15.8046ZM34.4082 11.2965L36.2605 9.64756C36.2605 9.64756 36.7243 10.1986 36.8923 10.4776C40.2671 14.8101 41.4561 16.7774 41.4437 17.9666C41.421 18.8436 41.076 19.4185 40.4553 20.1049C39.9275 20.6551 38.9134 21.5311 37.8859 22.3922C37.3906 21.896 36.4568 21.3884 35.6743 21.2013C36.7849 20.3733 37.8455 19.4292 38.2787 19.0435C38.6074 18.751 38.8032 18.5499 38.8512 18.2127C38.9536 17.4253 37.7214 15.4697 34.6459 11.5937L34.4082 11.2965ZM26.318 13.7589L28.3347 11.9637C31.6745 16.1667 35.1543 20.8877 32.5647 27.4237C31.8702 27.185 30.7473 27.0064 29.9368 27.0585C32.4887 21.172 29.2006 17.2979 26.318 13.7589ZM24.6686 8.98831L26.521 7.33934L29.3136 10.4764L27.4612 12.1254L24.6686 8.98831Z" fill="white"/>
</svg>
