<svg width="44" height="44" viewBox="0 0 44 44" fill="none" xmlns="http://www.w3.org/2000/svg">
<path d="M19.7907 9.62789C19.7907 8.8958 19.1972 8.30232 18.4651 8.30232C17.733 8.30232 17.1395 8.8958 17.1395 9.62789V13.1628C17.1395 13.8949 17.733 14.4883 18.4651 14.4883C19.1972 14.4883 19.7907 13.8949 19.7907 13.1628V9.62789Z" fill="#656565"/>
<path d="M26.8604 9.62789C26.8604 8.8958 26.267 8.30232 25.5349 8.30232C24.8028 8.30232 24.2093 8.8958 24.2093 9.62789V13.1628C24.2093 13.8949 24.8028 14.4883 25.5349 14.4883C26.267 14.4883 26.8604 13.8949 26.8604 13.1628V9.62789Z" fill="#656565"/>
<path fill-rule="evenodd" clip-rule="evenodd" d="M18.3732 3C16.7852 2.99995 15.461 2.99991 14.4098 3.14124C13.3002 3.29042 12.2984 3.61858 11.4934 4.4236C10.6884 5.22861 10.3602 6.2304 10.211 7.33998C10.0697 8.39122 10.0697 9.71542 10.0698 11.3034L10.0698 15.8541C6.70227 16.9292 4.11443 19.6902 3.28083 23.1624C3.2624 23.2392 3.2452 23.3165 3.22916 23.3946C2.99972 24.5112 2.99984 25.8611 3.00002 28.0007L3.00002 28.4004C2.99975 30.6604 2.99958 32.0381 3.28083 33.2096C4.17296 36.9256 7.07434 39.827 10.7903 40.7191C11.9618 41.0004 13.3395 41.0002 15.5996 40.9999H28.4004C30.6605 41.0002 32.0381 41.0004 33.2096 40.7191C36.9256 39.827 39.827 36.9256 40.7191 33.2096C41.0004 32.0381 41.0002 30.6604 40.9999 28.4003L40.9999 28.0208C41.0001 25.9645 41.0002 24.6377 40.8022 23.5565C40.7778 23.4231 40.7503 23.292 40.7191 23.1624C39.8855 19.6902 37.2977 16.9292 33.9302 15.8541V11.3034C33.9302 9.71543 33.9303 8.39123 33.7889 7.33999C33.6398 6.2304 33.3116 5.22861 32.5066 4.4236C31.7016 3.61859 30.6998 3.29042 29.5902 3.14124C28.539 2.99991 27.2148 2.99995 25.6268 3H18.3732ZM15.6445 15.3721C14.4584 15.372 13.5149 15.3719 12.7209 15.4101V11.3953C12.7209 9.6915 12.7238 8.54698 12.8385 7.69324C12.9482 6.87764 13.1377 6.52858 13.368 6.29825C13.5983 6.06792 13.9474 5.87841 14.763 5.76876C15.6168 5.65398 16.7613 5.65116 18.4651 5.65116L25.5349 5.65116C27.2387 5.65116 28.3832 5.65398 29.2369 5.76876C30.0525 5.87841 30.4016 6.06792 30.6319 6.29825C30.8623 6.52858 31.0518 6.87764 31.1614 7.69324C31.2762 8.54698 31.279 9.6915 31.279 11.3953V15.4101C30.485 15.3719 29.5416 15.372 28.3554 15.3721L15.6445 15.3721ZM11.6397 18.1817C12.4539 18.029 13.5221 18.0232 15.814 18.0232L28.186 18.0232C30.4779 18.0232 31.5461 18.029 32.3602 18.1817C32.4404 18.1967 32.5169 18.213 32.5907 18.2308C34.9726 18.8026 36.9017 20.4913 37.802 22.721L36.1149 22.9874C27.3423 24.3726 18.4094 24.407 9.62644 23.0896L6.25491 22.5838C7.17802 20.4222 9.07646 18.7908 11.4092 18.2308C11.4831 18.213 11.5596 18.1967 11.6397 18.1817ZM36.5284 25.6061L38.3189 25.3234C38.347 26.0092 38.3488 26.9071 38.3488 28.186C38.3488 30.7273 38.3395 31.7647 38.1412 32.5907C37.4818 35.3373 35.3373 37.4818 32.5907 38.1412C31.7647 38.3395 30.7273 38.3487 28.186 38.3487H15.814C13.2727 38.3487 12.2353 38.3395 11.4092 38.1412C8.66263 37.4818 6.51814 35.3373 5.85873 32.5907C5.66042 31.7647 5.65119 30.7273 5.65119 28.186C5.65119 26.8141 5.65347 25.8807 5.68758 25.1795L9.23317 25.7114C18.2837 27.069 27.4886 27.0335 36.5284 25.6061Z" fill="#656565"/>
</svg>
