<svg width="38" height="41" viewBox="0 0 38 41" fill="none" xmlns="http://www.w3.org/2000/svg">
<path d="M22.2095 25.2105C23.0379 25.2105 23.7095 24.539 23.7095 23.7105C23.7095 22.8821 23.0379 22.2105 22.2095 22.2105V25.2105ZM22.2095 41C23.0379 41 23.7095 40.3284 23.7095 39.5C23.7095 38.6716 23.0379 38 22.2095 38V41ZM24.1832 30.1053C23.3548 30.1053 22.6832 30.7768 22.6832 31.6053C22.6832 32.4337 23.3548 33.1053 24.1832 33.1053V30.1053ZM36.0253 33.1053C36.8537 33.1053 37.5253 32.4337 37.5253 31.6053C37.5253 30.7768 36.8537 30.1053 36.0253 30.1053V33.1053ZM28.6042 37.5263C28.6042 38.3547 29.2758 39.0263 30.1042 39.0263C30.9327 39.0263 31.6042 38.3547 31.6042 37.5263H28.6042ZM31.6042 25.6842C31.6042 24.8558 30.9327 24.1842 30.1042 24.1842C29.2758 24.1842 28.6042 24.8558 28.6042 25.6842H31.6042ZM22.6832 9.89474C22.6832 13.4265 19.8202 16.2895 16.2884 16.2895V19.2895C21.477 19.2895 25.6832 15.0833 25.6832 9.89474H22.6832ZM16.2884 16.2895C12.7567 16.2895 9.89371 13.4265 9.89371 9.89474H6.89371C6.89371 15.0833 11.0999 19.2895 16.2884 19.2895V16.2895ZM9.89371 9.89474C9.89371 6.36302 12.7567 3.5 16.2884 3.5V0.5C11.0999 0.5 6.89371 4.70617 6.89371 9.89474H9.89371ZM16.2884 3.5C19.8202 3.5 22.6832 6.36302 22.6832 9.89474H25.6832C25.6832 4.70617 21.477 0.5 16.2884 0.5V3.5ZM10.3674 25.2105H22.2095V22.2105H10.3674V25.2105ZM22.2095 38H10.3674V41H22.2095V38ZM10.3674 38C6.83568 38 3.97266 35.137 3.97266 31.6053H0.972656C0.972656 36.7938 5.17882 41 10.3674 41V38ZM10.3674 22.2105C5.17882 22.2105 0.972656 26.4167 0.972656 31.6053H3.97266C3.97266 28.0735 6.83568 25.2105 10.3674 25.2105V22.2105ZM24.1832 33.1053H36.0253V30.1053H24.1832V33.1053ZM31.6042 37.5263V25.6842H28.6042V37.5263H31.6042Z" fill="#434343"/>
</svg>
