<svg width="70" height="70" viewBox="0 0 70 70" fill="none" xmlns="http://www.w3.org/2000/svg">
<g clip-path="url(#clip0_2310_89434)">
<rect width="70" height="70" rx="23.3333" fill="#369BCE"/>
<g clip-path="url(#clip1_2310_89434)">
<path d="M53.0511 39.3987C52.233 37.1943 49.0286 32.2173 48.9832 29.7174H48.9604C48.9604 29.5811 48.9832 29.4447 48.9832 29.3084C48.9832 20.218 42.4608 12.832 34.4158 12.832C26.3708 12.8548 19.8485 20.218 19.8485 29.3311C19.8485 29.4674 19.8712 29.6038 19.8712 29.7401H19.8485C19.803 32.24 16.6214 37.217 15.7805 39.4214C14.9397 41.6258 14.7351 43.8302 15.1215 45.6029C15.5078 47.3528 15.826 48.4436 16.1896 48.7845C16.5532 49.1254 16.8941 49.5117 17.985 48.7163C18.8713 47.9891 19.8258 46.5119 19.8258 46.5119C19.8258 46.5119 20.6212 48.8072 22.3938 50.5798C21.0075 51.2389 18.9849 52.6934 18.8485 53.6706C18.7122 54.6251 20.9621 58.2385 26.2572 58.3294C31.5524 58.3976 33.3023 56.125 33.4841 55.9432C33.984 55.4205 34.3931 55.1023 34.3931 55.1023C34.3931 55.1023 34.8249 55.4205 35.3021 55.9432C35.484 56.125 37.2338 58.4203 42.529 58.3294C47.8241 58.2385 50.074 54.6251 49.9377 53.6706C49.8013 52.7161 47.7787 51.2389 46.3924 50.5798C48.165 48.83 48.9604 46.5119 48.9604 46.5119C48.9604 46.5119 49.9149 47.9891 50.8012 48.7163C51.8921 49.489 52.233 49.1254 52.5966 48.7845C52.9602 48.4436 53.2784 47.3528 53.6647 45.6029C54.0965 43.8302 53.8693 41.6031 53.0511 39.3987Z" fill="white"/>
</g>
</g>
<defs>
<clipPath id="clip0_2310_89434">
<rect width="70" height="70" fill="white"/>
</clipPath>
<clipPath id="clip1_2310_89434">
<rect width="45.5" height="45.5" fill="white" transform="translate(11.666 12.832)"/>
</clipPath>
</defs>
</svg>
