<svg width="40" height="40" viewBox="0 0 40 40" fill="none" xmlns="http://www.w3.org/2000/svg">
    <path fill-rule="evenodd" clip-rule="evenodd" d="M36 3.334c.368 0 .666.298.666.667v8.666a.667.667 0 0 1-.666.667h-8.667a.667.667 0 0 1-.667-.667V4.001c0-.369.299-.667.667-.667H36zm-2.5 2.5c.368 0 .666.298.666.667v3.666a.667.667 0 0 1-.666.667h-3.667a.667.667 0 0 1-.667-.667V6.501c0-.369.299-.667.667-.667H33.5zM12.666 26.667c.368 0 .667.299.667.667v8.667a.667.667 0 0 1-.667.666H4a.667.667 0 0 1-.667-.666v-8.667c0-.368.298-.667.667-.667h8.666zm-2.5 2.5c.368 0 .667.299.667.667v3.667a.667.667 0 0 1-.667.666H6.5a.667.667 0 0 1-.667-.666v-3.667c0-.368.298-.667.667-.667h3.666zM13.333 4a.667.667 0 0 0-.667-.666H4a.667.667 0 0 0-.667.667v8.666c0 .369.298.667.667.667h8.666a.667.667 0 0 0 .667-.667V4.001zm-2.5 2.5a.667.667 0 0 0-.667-.666H6.5a.667.667 0 0 0-.667.667v3.666c0 .369.298.667.667.667h3.666a.667.667 0 0 0 .667-.667V6.501z" fill="#34C759"/>
    <path d="M18.333 3.334H15v3.333h3.333v3.334H15v3.333h-1.667v3.333h3.333v6.667h6.667v-3.333H20v-3.334h-3.334v-3.333h5v3.333H25v-3.333h-3.334V6.667H25V3.334h-3.334v3.333h-3.333V3.334zM26.666 23.334v-6.667h10v6.667h-3.333v-3.333H30v3.333h-3.334zM33.333 36.667v-3.333H30v-3.333h-3.334v-3.334h6.667v3.334h3.333v6.666h-3.333z" fill="#34C759"/>
    <path d="M26.666 33.334H30v3.333h-3.334v-3.333zM25 26.667v3.334h-3.334v-3.334H25zM18.333 30v-3.333H15v3.334h3.333z" fill="#34C759"/>
    <path d="M18.333 30h3.333v3.334H25v3.333H15v-3.333h3.333v-3.333zM10 20h3.333v3.334H10v-3.333zM10 16.667v3.334H6.666v3.333H3.333v-6.667H10z" fill="#34C759"/>
</svg>
