<svg width="50" height="50" viewBox="0 0 50 50" fill="none" xmlns="http://www.w3.org/2000/svg">
<path d="M9.22008 5.27005H40.6901C41.2101 5.27005 41.2101 3.80005 40.6901 3.80005H9.22008C8.70008 3.80005 8.70008 5.27005 9.22008 5.27005Z" fill="url(#paint0_linear_2413_56441)"/>
<path d="M35.1705 42.1C35.1705 41.58 34.7505 41.16 34.2305 41.16H15.7005C15.1805 41.16 14.7605 41.58 14.7605 42.1V44.96H12.4805V46.06H37.4505V44.96H35.1705V42.1Z" fill="url(#paint1_linear_2413_56441)"/>
<path d="M46.7796 11.6H46.7596C45.7496 9.71001 43.2296 8.27001 40.8696 8.82001C40.6996 8.86001 40.5496 8.92001 40.3896 8.98001C40.5796 7.09001 40.5696 6.13 40.5696 6.13H9.33963C9.33963 6.13 9.32963 7.08 9.51963 8.96C9.37963 8.91 9.24963 8.85001 9.09963 8.82001C6.73963 8.27001 4.21963 9.71001 3.20963 11.61C2.62963 12.71 1.93963 15.06 5.01963 17.94C5.60963 18.48 6.60963 19.07 7.87963 19.81C10.2396 21.19 13.8096 23.28 14.0696 25.19C14.1496 25.76 13.8996 26.34 13.2996 26.95C12.9496 27.3 12.3896 27.23 11.9796 27C11.7296 26.86 11.0296 26.36 11.0596 25.23C11.0696 24.78 10.8096 24.38 10.3796 24.26L10.2196 24.22C9.64963 24.07 9.08963 24.5 9.06963 25.09C8.99963 26.91 9.98963 28.17 10.9996 28.74C11.5396 29.04 12.1196 29.19 12.6796 29.19C13.4596 29.19 14.3596 28.98 14.9096 28.42C15.5296 27.78 15.8696 27.09 16.0196 26.37C17.2096 27.34 18.5496 28.15 20.0096 28.8C21.0496 29.26 22.0896 29.55 22.9396 29.73C21.4596 37.92 17.0596 40.39 17.0596 40.39H32.8696C32.8696 40.39 28.4696 37.93 26.9896 29.73C27.8396 29.55 28.8796 29.26 29.9196 28.8C31.3996 28.14 32.7596 27.32 33.9596 26.33C34.0996 27.06 34.4396 27.77 35.0796 28.41C35.6296 28.97 36.5296 29.18 37.3096 29.18C37.8696 29.18 38.4496 29.03 38.9896 28.73C39.9996 28.16 40.9996 26.91 40.9196 25.08C40.8996 24.49 40.3396 24.06 39.7696 24.21L39.6096 24.25C39.1796 24.36 38.9196 24.77 38.9296 25.22C38.9596 26.35 38.2596 26.85 38.0096 26.99C37.5996 27.22 37.0296 27.3 36.6896 26.94C36.0996 26.33 35.8396 25.76 35.9196 25.18C36.1796 23.27 39.7496 21.18 42.1096 19.8C43.3796 19.06 44.3796 18.47 44.9696 17.93C48.0596 15.05 47.3696 12.7 46.7796 11.6ZM8.90963 18.09H8.88963C7.81963 17.46 6.80963 16.87 6.38963 16.48C5.48963 15.64 4.24963 13.93 4.97963 12.56C5.56963 11.45 7.16963 10.44 8.65963 10.78C9.15963 10.9 9.55963 11.2 9.85963 11.6C9.96963 12.36 10.1096 13.19 10.2796 14.1C10.1196 14.47 9.86963 14.78 9.61963 14.99C9.23963 15.32 9.12963 15.85 9.33963 16.31C9.58963 16.86 10.2896 17.01 10.7596 16.64L10.7796 16.62C10.9196 17.31 11.0796 18.01 11.2596 18.77C11.3396 19.09 11.4396 19.39 11.5396 19.69C10.6696 19.12 9.75963 18.59 8.90963 18.09ZM28.1296 23.1C28.0796 23.36 27.7896 23.47 27.5796 23.32L24.6396 21.2L22.6296 22.71C22.3996 22.89 22.0596 22.71 22.0696 22.41L22.1796 19.34L27.8296 12.8L21.0096 18.85L17.6396 16.77C17.3996 16.63 17.4196 16.28 17.6696 16.16L29.9796 10.05C30.2396 9.92 30.5296 10.14 30.4796 10.43L28.1296 23.11V23.1ZM43.5696 16.47H43.5796C43.1596 16.87 42.1496 17.46 41.0796 18.09C40.2096 18.6 39.2696 19.15 38.3796 19.74C38.4796 19.42 38.5896 19.11 38.6696 18.77C38.8496 18 39.0096 17.28 39.1496 16.58C39.1696 16.6 39.1996 16.62 39.2196 16.64C39.6896 17.02 40.3896 16.86 40.6396 16.31C40.8496 15.86 40.7396 15.32 40.3596 14.99C40.0796 14.75 39.8096 14.42 39.6496 14C39.7996 13.16 39.9296 12.39 40.0296 11.69C40.3296 11.24 40.7596 10.9 41.2996 10.77C42.7796 10.43 44.3796 11.44 44.9796 12.55C45.7096 13.93 44.4796 15.63 43.5696 16.47Z" fill="url(#paint2_linear_2413_56441)"/>
<defs>
<linearGradient id="paint0_linear_2413_56441" x1="24.9601" y1="53.8401" x2="24.9601" y2="11" gradientUnits="userSpaceOnUse">
<stop stop-color="#8962F4"/>
<stop offset="1" stop-color="#B7A1FC"/>
</linearGradient>
<linearGradient id="paint1_linear_2413_56441" x1="24.9605" y1="-12" x2="24.9605" y2="-12" gradientUnits="userSpaceOnUse">
<stop stop-color="#8962F4"/>
<stop offset="1" stop-color="#B7A1FC"/>
</linearGradient>
<linearGradient id="paint2_linear_2413_56441" x1="24.9996" y1="-12" x2="24.9996" y2="-12" gradientUnits="userSpaceOnUse">
<stop stop-color="#8962F4"/>
<stop offset="1" stop-color="#B7A1FC"/>
</linearGradient>
</defs>
</svg>
