<svg width="50" height="50" viewBox="0 0 50 50" fill="none" xmlns="http://www.w3.org/2000/svg">
<path d="M9.22008 4.47H40.6901C41.2101 4.47 41.2101 3 40.6901 3H9.22008C8.70008 3 8.70008 4.47 9.22008 4.47Z" fill="url(#paint0_linear_2413_56437)"/>
<path d="M35.1705 41.3C35.1705 40.78 34.7505 40.36 34.2305 40.36H15.7005C15.1805 40.36 14.7605 40.78 14.7605 41.3V44.16H12.4805V45.26H37.4505V44.16H35.1705V41.3Z" fill="url(#paint1_linear_2413_56437)"/>
<path d="M46.7796 10.8H46.7596C45.7496 8.90996 43.2296 7.46996 40.8696 8.01996C40.6996 8.05996 40.5496 8.11996 40.3896 8.17996C40.5796 6.28996 40.5696 5.32996 40.5696 5.32996H9.33963C9.33963 5.32996 9.32963 6.27996 9.51963 8.15996C9.37963 8.10996 9.24963 8.04996 9.09963 8.01996C6.73963 7.46996 4.21963 8.90996 3.20963 10.81C2.62963 11.91 1.93963 14.26 5.01963 17.14C5.60963 17.68 6.60963 18.27 7.87963 19.01C10.2396 20.39 13.8096 22.48 14.0696 24.39C14.1496 24.96 13.8996 25.54 13.2996 26.15C12.9496 26.5 12.3896 26.43 11.9796 26.2C11.7296 26.06 11.0296 25.56 11.0596 24.43C11.0696 23.98 10.8096 23.58 10.3796 23.46L10.2196 23.42C9.64963 23.27 9.08963 23.7 9.06963 24.29C8.99963 26.11 9.98963 27.37 10.9996 27.94C11.5396 28.24 12.1196 28.39 12.6796 28.39C13.4596 28.39 14.3596 28.18 14.9096 27.62C15.5296 26.98 15.8696 26.29 16.0196 25.57C17.2096 26.54 18.5496 27.35 20.0096 28C21.0496 28.46 22.0896 28.75 22.9396 28.93C21.4596 37.12 17.0596 39.59 17.0596 39.59H32.8696C32.8696 39.59 28.4696 37.13 26.9896 28.93C27.8396 28.75 28.8796 28.46 29.9196 28C31.3996 27.34 32.7596 26.52 33.9596 25.53C34.0996 26.26 34.4396 26.97 35.0796 27.61C35.6296 28.17 36.5296 28.38 37.3096 28.38C37.8696 28.38 38.4496 28.23 38.9896 27.93C39.9996 27.36 40.9996 26.11 40.9196 24.28C40.8996 23.69 40.3396 23.26 39.7696 23.41L39.6096 23.45C39.1796 23.56 38.9196 23.97 38.9296 24.42C38.9596 25.55 38.2596 26.05 38.0096 26.19C37.5996 26.42 37.0296 26.5 36.6896 26.14C36.0996 25.53 35.8396 24.96 35.9196 24.38C36.1796 22.47 39.7496 20.38 42.1096 19C43.3796 18.26 44.3796 17.67 44.9696 17.13C48.0596 14.25 47.3696 11.9 46.7796 10.8ZM8.90963 17.29H8.88963C7.81963 16.66 6.80963 16.07 6.38963 15.68C5.48963 14.84 4.24963 13.13 4.97963 11.76C5.56963 10.65 7.16963 9.63996 8.65963 9.97996C9.15963 10.1 9.55963 10.4 9.85963 10.8C9.96963 11.56 10.1096 12.39 10.2796 13.3C10.1196 13.67 9.86963 13.98 9.61963 14.19C9.23963 14.52 9.12963 15.05 9.33963 15.51C9.58963 16.06 10.2896 16.21 10.7596 15.84L10.7796 15.82C10.9196 16.51 11.0796 17.21 11.2596 17.97C11.3396 18.29 11.4396 18.59 11.5396 18.89C10.6696 18.32 9.75963 17.79 8.90963 17.29ZM32.3196 15.5H32.3096C31.7696 16.12 26.6896 21.81 25.9596 22.31C25.4296 22.68 24.9896 22.68 24.9896 22.68C24.9896 22.68 24.5496 22.68 24.0196 22.31C23.2896 21.81 18.2096 16.12 17.6696 15.5C16.7396 14.43 16.2596 11.31 19.3196 9.37996C22.3796 7.44996 24.9996 10.42 24.9996 10.42H25.0096C25.0096 10.42 25.0396 10.46 25.0596 10.49L27.5996 13.1C27.7996 13.31 28.1296 13.31 28.3296 13.1C28.5396 12.9 28.5396 12.57 28.3396 12.37L25.7996 9.75996C25.7996 9.75996 25.7696 9.73996 25.7596 9.72996C26.7496 8.98996 28.6096 8.06996 30.6696 9.36996C33.7296 11.3 33.2496 14.43 32.3196 15.49V15.5ZM43.5696 15.67H43.5796C43.1596 16.07 42.1496 16.66 41.0796 17.29C40.2096 17.8 39.2696 18.35 38.3796 18.94C38.4796 18.62 38.5896 18.31 38.6696 17.97C38.8496 17.2 39.0096 16.48 39.1496 15.78C39.1696 15.8 39.1996 15.82 39.2196 15.84C39.6896 16.22 40.3896 16.06 40.6396 15.51C40.8496 15.06 40.7396 14.52 40.3596 14.19C40.0796 13.95 39.8096 13.62 39.6496 13.2C39.7996 12.36 39.9296 11.59 40.0296 10.89C40.3296 10.44 40.7596 10.1 41.2996 9.96996C42.7796 9.62996 44.3796 10.64 44.9796 11.75C45.7096 13.13 44.4796 14.83 43.5696 15.67Z" fill="url(#paint2_linear_2413_56437)"/>
<defs>
<linearGradient id="paint0_linear_2413_56437" x1="24.9601" y1="48.4" x2="24.9601" y2="11.41" gradientUnits="userSpaceOnUse">
<stop stop-color="#F55353"/>
<stop offset="1" stop-color="#FB8A8A"/>
</linearGradient>
<linearGradient id="paint1_linear_2413_56437" x1="24.9705" y1="-13" x2="24.9705" y2="-13" gradientUnits="userSpaceOnUse">
<stop stop-color="#F55353"/>
<stop offset="1" stop-color="#FB8A8A"/>
</linearGradient>
<linearGradient id="paint2_linear_2413_56437" x1="24.9996" y1="-13" x2="24.9996" y2="-13" gradientUnits="userSpaceOnUse">
<stop stop-color="#F55353"/>
<stop offset="1" stop-color="#FB8A8A"/>
</linearGradient>
</defs>
</svg>
