<svg width="50" height="50" viewBox="0 0 50 50" fill="none" xmlns="http://www.w3.org/2000/svg">
<path d="M9.22008 5.36001H40.6901C41.2101 5.36001 41.2101 3.89001 40.6901 3.89001H9.22008C8.70008 3.89001 8.70008 5.36001 9.22008 5.36001Z" fill="url(#paint0_linear_2413_56433)"/>
<path d="M35.1705 42.19C35.1705 41.67 34.7505 41.25 34.2305 41.25H15.7005C15.1805 41.25 14.7605 41.67 14.7605 42.19V45.05H12.4805V46.15H37.4505V45.05H35.1705V42.19Z" fill="url(#paint1_linear_2413_56433)"/>
<path d="M46.7796 11.69H46.7596C45.7496 9.79997 43.2296 8.35997 40.8696 8.90997C40.6996 8.94997 40.5496 9.00997 40.3896 9.06997C40.5796 7.17997 40.5696 6.21997 40.5696 6.21997H9.33963C9.33963 6.21997 9.32963 7.16997 9.51963 9.04997C9.37963 8.99997 9.24963 8.93997 9.09963 8.90997C6.73963 8.35997 4.21963 9.79997 3.20963 11.7C2.62963 12.8 1.93963 15.15 5.01963 18.03C5.60963 18.57 6.60963 19.16 7.87963 19.9C10.2396 21.28 13.8096 23.37 14.0696 25.28C14.1496 25.85 13.8996 26.43 13.2996 27.04C12.9496 27.39 12.3896 27.32 11.9796 27.09C11.7296 26.95 11.0296 26.45 11.0596 25.32C11.0696 24.87 10.8096 24.47 10.3796 24.35L10.2196 24.31C9.64963 24.16 9.08963 24.59 9.06963 25.18C8.99963 27 9.98963 28.26 10.9996 28.83C11.5396 29.13 12.1196 29.28 12.6796 29.28C13.4596 29.28 14.3596 29.07 14.9096 28.51C15.5296 27.87 15.8696 27.18 16.0196 26.46C17.2096 27.43 18.5496 28.24 20.0096 28.89C21.0496 29.35 22.0896 29.64 22.9396 29.82C21.4596 38.01 17.0596 40.48 17.0596 40.48H32.8696C32.8696 40.48 28.4696 38.02 26.9896 29.82C27.8396 29.64 28.8796 29.35 29.9196 28.89C31.3996 28.23 32.7596 27.41 33.9596 26.42C34.0996 27.15 34.4396 27.86 35.0796 28.5C35.6296 29.06 36.5296 29.27 37.3096 29.27C37.8696 29.27 38.4496 29.12 38.9896 28.82C39.9996 28.25 40.9996 27 40.9196 25.17C40.8996 24.58 40.3396 24.15 39.7696 24.3L39.6096 24.34C39.1796 24.45 38.9196 24.86 38.9296 25.31C38.9596 26.44 38.2596 26.94 38.0096 27.08C37.5996 27.31 37.0296 27.39 36.6896 27.03C36.0996 26.42 35.8396 25.85 35.9196 25.27C36.1796 23.36 39.7496 21.27 42.1096 19.89C43.3796 19.15 44.3796 18.56 44.9696 18.02C48.0596 15.14 47.3696 12.79 46.7796 11.69ZM8.90963 18.18H8.88963C7.81963 17.55 6.80963 16.96 6.38963 16.57C5.48963 15.73 4.24963 14.02 4.97963 12.65C5.56963 11.54 7.16963 10.53 8.65963 10.87C9.15963 10.99 9.55963 11.29 9.85963 11.69C9.96963 12.45 10.1096 13.28 10.2796 14.19C10.1196 14.56 9.86963 14.87 9.61963 15.08C9.23963 15.41 9.12963 15.94 9.33963 16.4C9.58963 16.95 10.2896 17.1 10.7596 16.73L10.7796 16.71C10.9196 17.4 11.0796 18.1 11.2596 18.86C11.3396 19.18 11.4396 19.48 11.5396 19.78C10.6696 19.21 9.75963 18.68 8.90963 18.18ZM31.4596 15.45L28.7496 18.52L29.1296 22.47C29.1496 22.74 28.8996 22.93 28.6496 22.82L24.8896 21.19L21.2496 22.77C20.9996 22.88 20.7396 22.69 20.7696 22.42L21.1596 18.35L18.5296 15.38C18.3496 15.18 18.4496 14.87 18.7096 14.82L22.6996 13.93L24.7196 10.51C24.8596 10.28 25.1796 10.28 25.3096 10.51L27.3896 14.03L31.2596 14.89C31.5196 14.95 31.6196 15.25 31.4396 15.45H31.4596ZM43.5696 16.56H43.5796C43.1596 16.96 42.1496 17.55 41.0796 18.18C40.2096 18.69 39.2696 19.24 38.3796 19.83C38.4796 19.51 38.5896 19.2 38.6696 18.86C38.8496 18.09 39.0096 17.37 39.1496 16.67C39.1696 16.69 39.1996 16.71 39.2196 16.73C39.6896 17.11 40.3896 16.95 40.6396 16.4C40.8496 15.95 40.7396 15.41 40.3596 15.08C40.0796 14.84 39.8096 14.51 39.6496 14.09C39.7996 13.25 39.9296 12.48 40.0296 11.78C40.3296 11.33 40.7596 10.99 41.2996 10.86C42.7796 10.52 44.3796 11.53 44.9796 12.64C45.7096 14.02 44.4796 15.72 43.5696 16.56Z" fill="url(#paint2_linear_2413_56433)"/>
<defs>
<linearGradient id="paint0_linear_2413_56433" x1="24.9601" y1="0.800014" x2="24.9601" y2="39.68" gradientUnits="userSpaceOnUse">
<stop stop-color="#FA84D1"/>
<stop offset="1" stop-color="#F555AF"/>
</linearGradient>
<linearGradient id="paint1_linear_2413_56433" x1="24.9705" y1="-12" x2="24.9705" y2="-12" gradientUnits="userSpaceOnUse">
<stop stop-color="#FA84D1"/>
<stop offset="1" stop-color="#F555AF"/>
</linearGradient>
<linearGradient id="paint2_linear_2413_56433" x1="24.9996" y1="-12" x2="24.9996" y2="-12" gradientUnits="userSpaceOnUse">
<stop stop-color="#FA84D1"/>
<stop offset="1" stop-color="#F555AF"/>
</linearGradient>
</defs>
</svg>
