<svg width="50" height="50" viewBox="0 0 50 50" fill="none" xmlns="http://www.w3.org/2000/svg">
<path d="M9.05992 4.73001H40.5299C41.0499 4.73001 41.0499 3.26001 40.5299 3.26001H9.05992C8.53992 3.26001 8.53992 4.73001 9.05992 4.73001Z" fill="url(#paint0_linear_2413_56445)"/>
<path d="M35.0103 41.56C35.0103 41.04 34.5903 40.62 34.0703 40.62H15.5403C15.0203 40.62 14.6003 41.04 14.6003 41.56V44.42H12.3203V45.52H37.2903V44.42H35.0103V41.56Z" fill="url(#paint1_linear_2413_56445)"/>
<path d="M21.9499 8.22C21.5599 8.26 21.2499 8.51 21.1699 8.86C21.0699 9.31 21.3399 9.79 21.9099 10.17H23.8499C23.6199 9.45 23.0599 8.15 21.9499 8.22Z" fill="url(#paint2_linear_2413_56445)"/>
<path d="M27.7398 8.24004C26.6398 8.15004 26.0698 9.45004 25.8398 10.18H27.7798C28.3498 9.80004 28.6298 9.32004 28.5198 8.87004C28.4398 8.51004 28.1298 8.26004 27.7398 8.24004Z" fill="url(#paint3_linear_2413_56445)"/>
<path d="M46.6204 11.06H46.6004C45.5904 9.16997 43.0704 7.72997 40.7104 8.27997C40.5404 8.31997 40.3904 8.37997 40.2304 8.43997C40.4204 6.54997 40.4104 5.58997 40.4104 5.58997H9.18045C9.18045 5.58997 9.17045 6.53997 9.36045 8.41997C9.22045 8.36997 9.09045 8.30997 8.94045 8.27997C6.58045 7.72997 4.06045 9.16997 3.05045 11.07C2.47045 12.17 1.78045 14.52 4.86045 17.4C5.45045 17.94 6.45045 18.53 7.72045 19.27C10.0804 20.65 13.6504 22.74 13.9104 24.65C13.9904 25.22 13.7404 25.8 13.1404 26.41C12.7904 26.76 12.2304 26.69 11.8204 26.46C11.5704 26.32 10.8704 25.82 10.9004 24.69C10.9104 24.24 10.6504 23.84 10.2204 23.72L10.0604 23.68C9.49045 23.53 8.93045 23.96 8.91045 24.55C8.84045 26.37 9.83045 27.63 10.8405 28.2C11.3805 28.5 11.9605 28.65 12.5205 28.65C13.3005 28.65 14.2005 28.44 14.7505 27.88C15.3705 27.24 15.7105 26.55 15.8605 25.83C17.0505 26.8 18.3905 27.61 19.8505 28.26C20.8905 28.72 21.9304 29.01 22.7804 29.19C21.3004 37.38 16.9004 39.85 16.9004 39.85H32.7104C32.7104 39.85 28.3105 37.39 26.8305 29.19C27.6805 29.01 28.7204 28.72 29.7604 28.26C31.2404 27.6 32.6004 26.78 33.8004 25.79C33.9404 26.52 34.2804 27.23 34.9204 27.87C35.4704 28.43 36.3705 28.64 37.1505 28.64C37.7105 28.64 38.2905 28.49 38.8305 28.19C39.8405 27.62 40.8404 26.37 40.7604 24.54C40.7404 23.95 40.1805 23.52 39.6105 23.67L39.4505 23.71C39.0205 23.82 38.7605 24.23 38.7705 24.68C38.8005 25.81 38.1004 26.31 37.8504 26.45C37.4404 26.68 36.8704 26.76 36.5304 26.4C35.9404 25.79 35.6804 25.22 35.7604 24.64C36.0204 22.73 39.5905 20.64 41.9505 19.26C43.2205 18.52 44.2205 17.93 44.8105 17.39C47.9005 14.51 47.2104 12.16 46.6204 11.06ZM8.75045 17.55H8.73045C7.66045 16.92 6.65045 16.33 6.23045 15.94C5.33045 15.1 4.09045 13.39 4.82045 12.02C5.41045 10.91 7.01045 9.89997 8.50045 10.24C9.00045 10.36 9.40045 10.66 9.70045 11.06C9.81045 11.82 9.95045 12.65 10.1205 13.56C9.96045 13.93 9.71045 14.24 9.46045 14.45C9.08045 14.78 8.97045 15.31 9.18045 15.77C9.43045 16.32 10.1305 16.47 10.6005 16.1L10.6205 16.08C10.7605 16.77 10.9205 17.47 11.1005 18.23C11.1805 18.55 11.2804 18.85 11.3804 19.15C10.5104 18.58 9.60045 18.05 8.75045 17.55ZM20.6905 20.6C20.2205 20.6 19.8405 20.22 19.8405 19.75V15.18H24.2804V20.6H20.6905ZM29.8504 19.75C29.8504 20.22 29.4705 20.6 29.0005 20.6H25.4104V15.18H29.8504V19.75ZM29.8405 14.05H25.4005V11.53H24.2705V14.05H19.8305C19.2905 14.05 18.8405 13.61 18.8405 13.06V11.16C18.8405 10.61 19.2805 10.17 19.8305 10.17H20.6105C20.2805 9.69997 20.1605 9.17997 20.2805 8.64997C20.4505 7.90997 21.1005 7.37997 21.8805 7.32997C23.8005 7.19997 24.5605 9.34997 24.7705 10.17H24.8805C25.1005 9.35997 25.8505 7.19997 27.7705 7.32997C28.5505 7.37997 29.2004 7.90997 29.3704 8.64997C29.4904 9.17997 29.3705 9.69997 29.0405 10.17H29.8204C30.3704 10.17 30.8105 10.61 30.8105 11.16V13.06H30.8305C30.8305 13.6 30.3905 14.05 29.8405 14.05ZM43.4104 15.93H43.4204C43.0004 16.33 41.9904 16.92 40.9204 17.55C40.0504 18.06 39.1105 18.61 38.2205 19.2C38.3205 18.88 38.4304 18.57 38.5104 18.23C38.6904 17.46 38.8505 16.74 38.9905 16.04C39.0105 16.06 39.0405 16.08 39.0605 16.1C39.5305 16.48 40.2304 16.32 40.4804 15.77C40.6904 15.32 40.5805 14.78 40.2005 14.45C39.9205 14.21 39.6505 13.88 39.4905 13.46C39.6405 12.62 39.7704 11.85 39.8704 11.15C40.1704 10.7 40.6004 10.36 41.1404 10.23C42.6204 9.88997 44.2204 10.9 44.8204 12.01C45.5504 13.39 44.3205 15.09 43.4104 15.93Z" fill="url(#paint4_linear_2413_56445)"/>
<defs>
<linearGradient id="paint0_linear_2413_56445" x1="24.7899" y1="47.09" x2="24.7899" y2="6.04001" gradientUnits="userSpaceOnUse">
<stop stop-color="#F55656"/>
<stop offset="0.99" stop-color="#FA8686"/>
</linearGradient>
<linearGradient id="paint1_linear_2413_56445" x1="24.8003" y1="-13" x2="24.8003" y2="-13" gradientUnits="userSpaceOnUse">
<stop stop-color="#F55656"/>
<stop offset="0.99" stop-color="#FA8686"/>
</linearGradient>
<linearGradient id="paint2_linear_2413_56445" x1="22.4999" y1="-13" x2="22.4999" y2="-13" gradientUnits="userSpaceOnUse">
<stop stop-color="#F55656"/>
<stop offset="0.99" stop-color="#FA8686"/>
</linearGradient>
<linearGradient id="paint3_linear_2413_56445" x1="27.1898" y1="-13" x2="27.1898" y2="-13" gradientUnits="userSpaceOnUse">
<stop stop-color="#F55656"/>
<stop offset="0.99" stop-color="#FA8686"/>
</linearGradient>
<linearGradient id="paint4_linear_2413_56445" x1="24.8405" y1="-13" x2="24.8405" y2="-13" gradientUnits="userSpaceOnUse">
<stop stop-color="#F55656"/>
<stop offset="0.99" stop-color="#FA8686"/>
</linearGradient>
</defs>
</svg>
