<svg width="50" height="50" viewBox="0 0 50 50" fill="none" xmlns="http://www.w3.org/2000/svg">
<path d="M9.22008 5.2698H40.6901C41.2101 5.2698 41.2101 3.7998 40.6901 3.7998H9.22008C8.70008 3.7998 8.70008 5.2698 9.22008 5.2698Z" fill="url(#paint0_linear_6800_185733)"/>
<path d="M35.1705 42.1002C35.1705 41.5802 34.7505 41.1602 34.2305 41.1602H15.7005C15.1805 41.1602 14.7605 41.5802 14.7605 42.1002V44.9602H12.4805V46.0602H37.4505V44.9602H35.1705V42.1002Z" fill="url(#paint1_linear_6800_185733)"/>
<path fill-rule="evenodd" clip-rule="evenodd" d="M46.7606 11.6009H46.7806C47.3706 12.7009 48.0606 15.0509 44.9706 17.9309C44.3806 18.4709 43.3806 19.0609 42.1106 19.8009C39.7506 21.1809 36.1806 23.2709 35.9206 25.1809C35.8406 25.7609 36.1006 26.3309 36.6906 26.9409C37.0306 27.3009 37.6006 27.2209 38.0106 26.9909C38.2606 26.8509 38.9606 26.3509 38.9306 25.2209C38.9206 24.7709 39.1806 24.3609 39.6106 24.2509L39.7706 24.2109C40.3406 24.0609 40.9006 24.4909 40.9206 25.0809C41.0006 26.9109 40.0006 28.1609 38.9906 28.7309C38.4506 29.0309 37.8706 29.1809 37.3106 29.1809C36.5306 29.1809 35.6306 28.9709 35.0806 28.4109C34.4406 27.7709 34.1006 27.0609 33.9606 26.3309C32.7606 27.3209 31.4006 28.1409 29.9206 28.8009C28.8806 29.2609 27.8406 29.5509 26.9906 29.7309C28.4706 37.9309 32.8706 40.3909 32.8706 40.3909H17.0606C17.0606 40.3909 21.4606 37.9209 22.9406 29.7309C22.0906 29.5509 21.0506 29.2609 20.0106 28.8009C18.5506 28.1509 17.2106 27.3409 16.0206 26.3709C15.8706 27.0909 15.5306 27.7809 14.9106 28.4209C14.3606 28.9809 13.4606 29.1909 12.6806 29.1909C12.1206 29.1909 11.5406 29.0409 11.0006 28.7409C9.99061 28.1709 9.00061 26.9109 9.07061 25.0909C9.09061 24.5009 9.65061 24.0709 10.2206 24.2209L10.3806 24.2609C10.8106 24.3809 11.0706 24.7809 11.0606 25.2309C11.0306 26.3609 11.7306 26.8609 11.9806 27.0009C12.3906 27.2309 12.9506 27.3009 13.3006 26.9509C13.9006 26.3409 14.1506 25.7609 14.0706 25.1909C13.8106 23.2809 10.2406 21.1909 7.88061 19.8109C6.61061 19.0709 5.61061 18.4809 5.02061 17.9409C1.94061 15.0609 2.63061 12.7109 3.21061 11.6109C4.22061 9.71086 6.74061 8.27086 9.10061 8.82086C9.21031 8.8428 9.30932 8.88079 9.40937 8.91918C9.44612 8.93328 9.483 8.94743 9.52061 8.96086C9.33061 7.08086 9.34061 6.13086 9.34061 6.13086H40.5706C40.5706 6.13086 40.5806 7.09086 40.3906 8.98086C40.4099 8.97363 40.429 8.96639 40.4481 8.95919C40.5871 8.90668 40.7211 8.85604 40.8706 8.82086C43.2306 8.27086 45.7506 9.71086 46.7606 11.6009ZM8.89061 18.0909H8.91061C8.97569 18.1291 9.04112 18.1676 9.10686 18.2062C9.89972 18.6723 10.7372 19.1645 11.5406 19.6909C11.4406 19.3909 11.3406 19.0909 11.2606 18.7709C11.0806 18.0109 10.9206 17.3109 10.7806 16.6209L10.7606 16.6409C10.2906 17.0109 9.59061 16.8609 9.34061 16.3109C9.13061 15.8509 9.24061 15.3209 9.62061 14.9909C9.87061 14.7809 10.1206 14.4709 10.2806 14.1009C10.1106 13.1909 9.97061 12.3609 9.86061 11.6009C9.56061 11.2009 9.16061 10.9009 8.66061 10.7809C7.17061 10.4409 5.57061 11.4509 4.98061 12.5609C4.25061 13.9309 5.49061 15.6409 6.39061 16.4809C6.79767 16.8588 7.75895 17.4247 8.79193 18.0328C8.82475 18.0521 8.85765 18.0715 8.89061 18.0909ZM43.5806 16.4709H43.5706C44.4806 15.6309 45.7106 13.9309 44.9806 12.5509C44.3806 11.4409 42.7806 10.4309 41.3006 10.7709C40.7606 10.9009 40.3306 11.2409 40.0306 11.6909C39.9306 12.3909 39.8006 13.1609 39.6506 14.0009C39.8106 14.4209 40.0806 14.7509 40.3606 14.9909C40.7406 15.3209 40.8506 15.8609 40.6406 16.3109C40.3906 16.8609 39.6906 17.0209 39.2206 16.6409C39.2106 16.6309 39.1981 16.6209 39.1856 16.6109C39.1731 16.6009 39.1606 16.5909 39.1506 16.5809C39.0106 17.2809 38.8506 18.0009 38.6706 18.7709C38.6106 19.0259 38.5337 19.264 38.4569 19.5021C38.4312 19.5815 38.4056 19.6609 38.3806 19.7409C39.2575 19.1596 40.1829 18.6171 41.0421 18.1134L41.0806 18.0909L41.1732 18.0364C42.2085 17.4269 43.1727 16.8593 43.5806 16.4709ZM19.6227 11.7708C18.8221 11.8997 18.0216 12.0037 17.2663 12.0851C17.2009 11.6596 16.9554 10.9887 16.7427 10.5633C18.8373 10.2687 21.1609 9.77781 22.6827 9.20508L23.7136 10.8087C23.0429 11.0423 22.2845 11.2451 21.4882 11.4197V13.7378H23.7627V15.5705H21.4882V15.7935C22.0038 16.2531 23.545 17.8427 23.8773 18.2542L22.8136 19.8578C22.541 19.3227 22.0005 18.4637 21.4882 17.7112V24.4724H19.6227V18.4524C19.0282 19.7856 18.3334 21.0299 17.61 21.9033C17.43 21.3305 16.9554 20.496 16.6445 19.9724C17.6497 18.9275 18.6441 17.1665 19.291 15.5705H16.9227V13.7378H19.6227V11.7708ZM30.1445 19.2033L28.41 19.8414C29.2282 21.2814 30.0954 23.196 30.39 24.3905L32.2554 23.6378C31.9118 22.4269 30.9954 20.5942 30.1445 19.2033ZM27.1173 19.7269L25.17 19.2687C24.7609 20.8233 23.9754 22.3614 22.9773 23.3269C23.4518 23.5887 24.27 24.1451 24.63 24.456C25.6445 23.3433 26.5936 21.5433 27.1173 19.7269ZM26.0209 16.0942V12.0196H29.5227V16.0942H26.0209ZM31.4864 10.1542H24.1391V17.9596H31.4864V10.1542Z" fill="url(#paint2_linear_6800_185733)"/>
<defs>
<linearGradient id="paint0_linear_6800_185733" x1="24.9601" y1="53.8398" x2="24.9601" y2="10.9998" gradientUnits="userSpaceOnUse">
<stop stop-color="#8962F4"/>
<stop offset="1" stop-color="#B7A1FC"/>
</linearGradient>
<linearGradient id="paint1_linear_6800_185733" x1="24.9605" y1="-11.9999" x2="24.9605" y2="-11.9999" gradientUnits="userSpaceOnUse">
<stop stop-color="#8962F4"/>
<stop offset="1" stop-color="#B7A1FC"/>
</linearGradient>
<linearGradient id="paint2_linear_6800_185733" x1="2.70898" y1="23.2609" x2="47.2895" y2="23.2609" gradientUnits="userSpaceOnUse">
<stop stop-color="#8962F4"/>
<stop offset="1" stop-color="#B7A1FC"/>
</linearGradient>
</defs>
</svg>
