<svg width="40" height="40" viewBox="0 0 40 40" fill="none" xmlns="http://www.w3.org/2000/svg">
<path d="M5.125 19.9878C5.125 20.6781 5.68464 21.2378 6.375 21.2378C7.06536 21.2378 7.625 20.6781 7.625 19.9878H5.125ZM34.8755 19.9878C34.8755 19.2974 34.3158 18.7378 33.6255 18.7378C32.9351 18.7378 32.3755 19.2974 32.3755 19.9878H34.8755ZM10.5952 28.0313C10.1462 27.5068 9.35712 27.4457 8.8327 27.8946C8.30827 28.3436 8.2471 29.1327 8.69607 29.6571L10.5952 28.0313ZM29.4053 11.9443C29.8543 12.4687 30.6434 12.5299 31.1678 12.0809C31.6922 11.6319 31.7534 10.8429 31.3044 10.3184L29.4053 11.9443ZM33.0443 4.99442C33.0412 4.30407 32.479 3.74693 31.7887 3.75001C31.0983 3.75309 30.5412 4.31523 30.5443 5.00558L33.0443 4.99442ZM31.8063 7.70558L33.0563 7.70001L33.0563 7.7L31.8063 7.70558ZM26.7923 12.7197L26.7867 13.9697L26.7867 13.9697L26.7923 12.7197ZM24.0922 11.4576C23.4019 11.4545 22.8398 12.0117 22.8367 12.702C22.8336 13.3924 23.3907 13.9545 24.0811 13.9576L24.0922 11.4576ZM31.2497 11.68L32.2382 12.445L32.2382 12.445L31.2497 11.68ZM30.7667 12.163L31.5317 13.1516L31.5317 13.1516L30.7667 12.163ZM6.84431 34.8716C6.84739 35.5619 7.40952 36.119 8.09987 36.116C8.79022 36.1129 9.34736 35.5507 9.34428 34.8604L6.84431 34.8716ZM8.08222 32.1604L6.83223 32.166L6.83223 32.166L8.08222 32.1604ZM13.0963 27.1463L13.1019 25.8963L13.1019 25.8963L13.0963 27.1463ZM15.7963 28.4084C16.4867 28.4114 17.0488 27.8543 17.0519 27.164C17.055 26.4736 16.4978 25.9115 15.8075 25.9084L15.7963 28.4084ZM8.63888 28.186L7.65033 27.4209L7.65033 27.4209L8.63888 28.186ZM9.12189 27.703L8.35686 26.7144L8.35685 26.7144L9.12189 27.703ZM20.0002 5.11252C11.7849 5.11252 5.125 11.7724 5.125 19.9878H7.625C7.625 13.1531 13.1656 7.61252 20.0002 7.61252V5.11252ZM20.0002 34.863C28.2156 34.863 34.8755 28.2031 34.8755 19.9878H32.3755C32.3755 26.8224 26.8349 32.363 20.0002 32.363V34.863ZM8.69607 29.6571C11.4224 32.8416 15.4759 34.863 20.0002 34.863V32.363C16.2369 32.363 12.8668 30.6847 10.5952 28.0313L8.69607 29.6571ZM31.3044 10.3184C28.5781 7.1339 24.5246 5.11252 20.0002 5.11252V7.61252C23.7636 7.61252 27.1337 9.29087 29.4053 11.9443L31.3044 10.3184ZM30.5443 5.00558L30.5564 7.71116L33.0563 7.7L33.0443 4.99442L30.5443 5.00558ZM26.7978 11.4697L24.0922 11.4576L24.0811 13.9576L26.7867 13.9697L26.7978 11.4697ZM30.5564 7.71116C30.5613 8.81938 30.5626 9.54491 30.5032 10.0895C30.4464 10.6089 30.3477 10.8031 30.2611 10.915L32.2382 12.445C32.7228 11.8189 32.9072 11.1048 32.9884 10.3609C33.0669 9.64214 33.061 8.74944 33.0563 7.70001L30.5564 7.71116ZM26.7867 13.9697C27.8361 13.9743 28.7288 13.9802 29.4476 13.9017C30.1914 13.8205 30.9056 13.6361 31.5317 13.1516L30.0016 11.1745C29.8898 11.261 29.6956 11.3598 29.1762 11.4165C28.6316 11.476 27.906 11.4746 26.7978 11.4697L26.7867 13.9697ZM30.2611 10.915C30.186 11.0121 30.0988 11.0993 30.0016 11.1745L31.5317 13.1516C31.7962 12.9469 32.0336 12.7095 32.2382 12.445L30.2611 10.915ZM9.34428 34.8604L9.33221 32.1548L6.83223 32.166L6.84431 34.8716L9.34428 34.8604ZM13.0907 28.3963L15.7963 28.4084L15.8075 25.9084L13.1019 25.8963L13.0907 28.3963ZM9.33221 32.1548C9.32727 31.0466 9.32592 30.3211 9.38539 29.7765C9.44212 29.2571 9.54087 29.0628 9.62743 28.951L7.65033 27.4209C7.16579 28.047 6.9814 28.7612 6.90017 29.5051C6.82168 30.2238 6.82755 31.1165 6.83223 32.166L9.33221 32.1548ZM13.1019 25.8963C12.0525 25.8916 11.1598 25.8858 10.441 25.9642C9.69713 26.0455 8.98296 26.2299 8.35686 26.7144L9.88692 28.6915C9.99876 28.605 10.193 28.5062 10.7124 28.4495C11.257 28.39 11.9825 28.3913 13.0907 28.3963L13.1019 25.8963ZM9.62742 28.951C9.7026 28.8539 9.78978 28.7667 9.88692 28.6915L8.35685 26.7144C8.09239 26.9191 7.85501 27.1565 7.65033 27.4209L9.62742 28.951Z" fill="#434343"/>
</svg>
