<svg width="40" height="40" viewBox="0 0 40 40" fill="none" xmlns="http://www.w3.org/2000/svg">
<path d="M25.2828 36.0733L24.4825 37.0335L24.4825 37.0335L25.2828 36.0733ZM23.7182 34.7692L24.5185 33.809L24.5185 33.809L23.7182 34.7692ZM16.2805 34.7692L15.4802 33.809L15.4802 33.809L16.2805 34.7692ZM14.7159 36.0733L15.5162 37.0335L15.5162 37.0335L14.7159 36.0733ZM29.9988 23.8536L28.7489 23.8324L28.7487 23.8443L28.7488 23.8563L29.9988 23.8536ZM29.9993 23.8188L29.0622 22.9916L29.0622 22.9916L29.9993 23.8188ZM10 23.8195L10.9371 22.9923L10 23.8195ZM7.91602 14.9993C7.91602 8.32591 13.3259 2.91602 19.9993 2.91602V0.416016C11.9452 0.416016 5.41602 6.9452 5.41602 14.9993H7.91602ZM19.9993 2.91602C26.6728 2.91602 32.0827 8.32591 32.0827 14.9993H34.5827C34.5827 6.9452 28.0535 0.416016 19.9993 0.416016V2.91602ZM28.7493 24.7236V33.9638H31.2493V24.7236H28.7493ZM11.2493 33.9638V24.7236H8.74935V33.9638H11.2493ZM26.0831 35.1131L24.5185 33.809L22.9178 35.7294L24.4825 37.0335L26.0831 35.1131ZM15.4802 33.809L13.9156 35.1131L15.5162 37.0335L17.0809 35.7294L15.4802 33.809ZM24.5185 33.809C23.6557 33.0898 22.9215 32.4749 22.2651 32.0534C21.5787 31.6125 20.8563 31.3005 19.9993 31.3005V33.8005C20.1993 33.8005 20.449 33.8582 20.9141 34.1569C21.4093 34.4749 22.006 34.9694 22.9178 35.7294L24.5185 33.809ZM17.0809 35.7294C17.9927 34.9694 18.5894 34.4749 19.0846 34.1569C19.5497 33.8582 19.7993 33.8005 19.9993 33.8005V31.3005C19.1424 31.3005 18.42 31.6125 17.7336 32.0534C17.0772 32.4749 16.343 33.0898 15.4802 33.809L17.0809 35.7294ZM8.74935 33.9638C8.74935 35.2238 8.74596 36.3147 8.86693 37.1273C8.98569 37.925 9.29004 38.9264 10.3206 39.3874L11.3413 37.1052C11.5403 37.1942 11.4288 37.3579 11.3397 36.7591C11.2527 36.1752 11.2493 35.3109 11.2493 33.9638H8.74935ZM13.9156 35.1131C12.8657 35.9882 12.1842 36.5521 11.6662 36.8713C11.1299 37.2018 11.1581 37.0233 11.3413 37.1052L10.3206 39.3874C11.3355 39.8413 12.2884 39.4245 12.9778 38.9997C13.6855 38.5635 14.5306 37.855 15.5162 37.0335L13.9156 35.1131ZM28.7493 33.9638C28.7493 35.3109 28.746 36.1752 28.659 36.7591C28.5699 37.3579 28.4584 37.1942 28.6574 37.1052L29.6781 39.3874C30.7087 38.9264 31.013 37.925 31.1318 37.1273C31.2527 36.3147 31.2493 35.2238 31.2493 33.9638H28.7493ZM24.4825 37.0335C25.4681 37.855 26.3132 38.5635 27.0209 38.9997C27.7103 39.4245 28.6632 39.8413 29.6781 39.3874L28.6574 37.1052C28.8406 37.0233 28.8688 37.2018 28.3325 36.8713C27.8145 36.5521 27.133 35.9882 26.0831 35.1131L24.4825 37.0335ZM31.2493 24.7236C31.2493 24.4162 31.2493 24.1253 31.2488 23.8509L28.7488 23.8563C28.7493 24.1275 28.7493 24.4156 28.7493 24.7236H31.2493ZM32.0827 14.9993C32.0827 18.0647 30.9429 20.8607 29.0622 22.9916L30.9365 24.6459C33.2049 22.0759 34.5827 18.697 34.5827 14.9993H32.0827ZM29.0622 22.9916C26.8462 25.5022 23.6081 27.0827 19.9993 27.0827V29.5827C24.3552 29.5827 28.2662 27.6714 30.9365 24.6459L29.0622 22.9916ZM31.2486 23.8747L31.2492 23.8399L28.7495 23.7976L28.7489 23.8324L31.2486 23.8747ZM11.2493 24.7236C11.2493 24.4027 11.2493 24.1035 11.25 23.8225L8.75002 23.8166C8.74935 24.1011 8.74935 24.4034 8.74935 24.7236H11.2493ZM19.9993 27.0827C16.3909 27.0827 13.153 25.5025 10.9371 22.9923L9.0629 24.6468C11.7332 27.6718 15.6439 29.5827 19.9993 29.5827V27.0827ZM10.9371 22.9923C9.05604 20.8613 7.91602 18.065 7.91602 14.9993H5.41602C5.41602 18.6974 6.7941 22.0766 9.0629 24.6468L10.9371 22.9923Z" fill="currentColor"/>
<path d="M15.2897 8.59539H17.1551V22.4718H15.2897V8.59539ZM12.5897 11.7372H19.4297V13.5699H12.5897V11.7372ZM15.3551 12.4736L16.5497 13.0136C15.8624 15.3863 14.6187 18.2827 13.2769 19.9027C13.0969 19.3299 12.6224 18.4954 12.3115 17.9718C13.5551 16.679 14.7824 14.2899 15.3551 12.4736ZM18.3497 7.20448L19.3806 8.80811C17.5478 9.4463 15.0606 9.85539 12.9333 10.0845C12.8678 9.65902 12.6224 8.98811 12.4097 8.56266C14.5042 8.26811 16.8278 7.77721 18.3497 7.20448ZM17.106 13.7499C17.5642 14.1427 19.2006 15.8281 19.5442 16.2536L18.4806 17.8572C18.0387 16.9899 16.8933 15.2718 16.3042 14.5354L17.106 13.7499ZM24.0769 17.8408L25.8115 17.2027C26.6624 18.5936 27.5787 20.4263 27.9224 21.6372L26.0569 22.3899C25.7624 21.1954 24.8951 19.2808 24.0769 17.8408ZM20.8369 17.2681L22.7842 17.7263C22.2606 19.5427 21.3115 21.3427 20.2969 22.4554C19.9369 22.1445 19.1187 21.5881 18.6442 21.3263C19.6424 20.3608 20.4278 18.8227 20.8369 17.2681ZM21.6878 10.019V14.0936H25.1897V10.019H21.6878ZM19.806 8.15357H27.1533V15.959H19.806V8.15357Z" fill="currentColor"/>
</svg>
