<svg width="45" height="45" viewBox="0 0 45 45" fill="none" xmlns="http://www.w3.org/2000/svg">
    <path d="M8.203 8.203c-.47.47-.828 1.371-.828 3.297a1.375 1.375 0 1 1-2.75 0c0-2.124.366-3.973 1.634-5.241C7.527 4.99 9.376 4.625 11.5 4.625a1.375 1.375 0 1 1 0 2.75c-1.926 0-2.827.359-3.297.828zM15.9 19.567a2.2 2.2 0 1 0 0-4.4 2.2 2.2 0 0 0 0 4.4z" fill="currentColor"/>
    <path fill-rule="evenodd" clip-rule="evenodd" d="M15.167 10.767h14.666a7.333 7.333 0 0 1 7.334 7.333v8.8a7.333 7.333 0 0 1-7.334 7.334H15.167A7.333 7.333 0 0 1 7.833 26.9v-8.8a7.333 7.333 0 0 1 7.334-7.333zm14.666 2.75H15.167a4.583 4.583 0 0 0-4.584 4.583v8.8c0 1.563.782 2.942 1.976 3.77l2.415-4.367c.91-1.405 2.993-1.317 3.782.159.903 1.69 3.387 1.494 4.014-.317l1.542-4.451c.612-1.768 3.044-1.942 3.902-.279l4.342 9.173a4.577 4.577 0 0 0 1.86-3.688v-8.8a4.583 4.583 0 0 0-4.583-4.583z" fill="currentColor"/>
    <path d="M33.5 4.625a1.375 1.375 0 1 0 0 2.75c1.926 0 2.827.359 3.297.828.47.47.828 1.371.828 3.297a1.375 1.375 0 1 0 2.75 0c0-2.124-.366-3.973-1.634-5.241-1.268-1.268-3.117-1.634-5.241-1.634zM39 32.125c.76 0 1.375.616 1.375 1.375 0 2.124-.366 3.973-1.634 5.241-1.268 1.268-3.117 1.634-5.241 1.634a1.375 1.375 0 1 1 0-2.75c1.926 0 2.827-.359 3.297-.828.47-.47.828-1.371.828-3.297 0-.76.616-1.375 1.375-1.375zM7.375 33.5a1.375 1.375 0 1 0-2.75 0c0 2.124.366 3.973 1.634 5.241 1.268 1.268 3.117 1.634 5.241 1.634a1.375 1.375 0 1 0 0-2.75c-1.926 0-2.827-.359-3.297-.828-.47-.47-.828-1.371-.828-3.297z" fill="currentColor"/>
</svg>
