<svg width="60" height="60" viewBox="0 0 60 60" fill="none" xmlns="http://www.w3.org/2000/svg">
<path fill-rule="evenodd" clip-rule="evenodd" d="M7.01098 27.1907C21.2181 20.9055 30.7149 16.8431 35.4253 14.8502C48.9486 9.1782 51.7597 8.18176 53.5831 8.18176C53.9629 8.18176 54.8746 8.25841 55.4824 8.71831C55.9382 9.10155 56.0902 9.63809 56.1662 10.0213C56.2421 10.4046 56.3181 11.2477 56.2421 11.9376C55.4824 19.6791 52.3675 38.6114 50.696 47.2727C50.0123 50.9519 48.6447 52.1783 47.3532 52.3316C44.5421 52.5615 42.3389 50.4153 39.6038 48.6524C35.3493 45.8164 32.9181 44.0535 28.7395 41.2941C23.9532 38.0749 27.0681 36.3119 29.8032 33.4759C30.4869 32.7094 43.0227 21.2887 43.2506 20.2156C43.2506 20.0624 43.3266 19.6025 43.0227 19.3725C42.7188 19.1426 42.3389 19.2192 42.035 19.2959C41.5792 19.3725 34.7415 23.9714 21.446 33.016C19.4707 34.3957 17.7233 35.0089 16.1279 35.0089C14.3805 35.0089 11.0376 34.0125 8.53046 33.1693C5.4915 32.1729 3.06033 31.6363 3.28826 29.9501C3.51618 29.0303 4.73176 28.1105 7.01098 27.1907Z" fill="#34C759"/>
</svg>
