<svg width="60" height="60" viewBox="0 0 60 60" fill="none" xmlns="http://www.w3.org/2000/svg">
<path d="M18.1554 43.0558L19.0371 41.8422H19.0371L18.1554 43.0558ZM16.5421 41.4425L15.3286 42.3242H15.3286L16.5421 41.4425ZM40.0089 41.4425L38.7954 40.5608L38.7954 40.5608L40.0089 41.4425ZM38.3956 43.0558L37.5139 41.8422H37.5139L38.3956 43.0558ZM18.1554 19.589L17.2737 18.3755L18.1554 19.589ZM16.5421 21.2023L15.3286 20.3206L15.3286 20.3206L16.5421 21.2023ZM31.1744 19.7067C32.0028 19.7166 32.6824 19.0531 32.6923 18.2248C32.7022 17.3964 32.0388 16.7168 31.2104 16.7069L31.1744 19.7067ZM42.891 28.3875C42.881 27.5591 42.2015 26.8956 41.3731 26.9056C40.5447 26.9155 39.8813 27.5951 39.8912 28.4234L42.891 28.3875ZM26.5378 30.0418C25.952 30.6276 25.952 31.5774 26.5378 32.1632C27.1235 32.749 28.0733 32.749 28.6591 32.1632L26.5378 30.0418ZM34.8107 12.0707C33.9823 12.0744 33.3137 12.749 33.3174 13.5774C33.3211 14.4058 33.9957 15.0744 34.8241 15.0707L34.8107 12.0707ZM38.4375 13.5546L38.4442 15.0545L38.4375 13.5546ZM45.1464 20.2634L46.6464 20.2701L45.1464 20.2634ZM43.6302 23.8768C43.6265 24.7053 44.2951 25.3798 45.1235 25.3835C45.952 25.3872 46.6265 24.7186 46.6302 23.8902L43.6302 23.8768ZM43.7553 14.2994L44.6733 13.1131L44.6733 13.1131L43.7553 14.2994ZM44.4016 14.9456L45.5878 14.0276V14.0276L44.4016 14.9456ZM44.0666 14.6343L43.1466 13.4496L43.0724 13.5072L43.0059 13.5737L44.0666 14.6343ZM28.2755 42.9485C25.5077 42.9485 23.5523 42.9464 22.045 42.7831C20.5659 42.6228 19.6972 42.3218 19.0371 41.8422L17.2737 44.2693C18.5305 45.1824 19.9875 45.5777 21.7219 45.7656C23.4283 45.9505 25.5745 45.9485 28.2755 45.9485V42.9485ZM13.6494 31.3224C13.6494 34.0234 13.6474 36.1696 13.8322 37.876C14.0201 39.6104 14.4155 41.0674 15.3286 42.3242L17.7556 40.5608C17.276 39.9007 16.975 39.032 16.8148 37.5528C16.6515 36.0456 16.6494 34.0902 16.6494 31.3224H13.6494ZM19.0371 41.8422C18.5453 41.485 18.1129 41.0525 17.7556 40.5608L15.3286 42.3242C15.8709 43.0706 16.5273 43.727 17.2737 44.2693L19.0371 41.8422ZM39.9016 31.3224C39.9016 34.0902 39.8995 36.0456 39.7362 37.5528C39.576 39.032 39.275 39.9007 38.7954 40.5608L41.2224 42.3242C42.1355 41.0674 42.5309 39.6104 42.7188 37.876C42.9036 36.1696 42.9016 34.0234 42.9016 31.3224H39.9016ZM28.2755 45.9485C30.9765 45.9485 33.1227 45.9505 34.8291 45.7656C36.5635 45.5777 38.0205 45.1824 39.2773 44.2693L37.5139 41.8422C36.8538 42.3218 35.9851 42.6228 34.506 42.7831C32.9987 42.9464 31.0433 42.9485 28.2755 42.9485V45.9485ZM38.7954 40.5608C38.4381 41.0525 38.0057 41.485 37.5139 41.8422L39.2773 44.2693C40.0237 43.727 40.6801 43.0706 41.2224 42.3242L38.7954 40.5608ZM28.2755 16.6963C25.5745 16.6963 23.4283 16.6942 21.7219 16.8791C19.9875 17.067 18.5305 17.4624 17.2737 18.3755L19.0371 20.8025C19.6972 20.3229 20.5659 20.0219 22.045 19.8617C23.5523 19.6983 25.5077 19.6963 28.2755 19.6963V16.6963ZM16.6494 31.3224C16.6494 28.5546 16.6515 26.5992 16.8148 25.0919C16.975 23.6127 17.276 22.7441 17.7556 22.0839L15.3286 20.3206C14.4155 21.5774 14.0201 23.0343 13.8322 24.7688C13.6474 26.4751 13.6494 28.6214 13.6494 31.3224H16.6494ZM17.2737 18.3755C16.5273 18.9178 15.8709 19.5742 15.3286 20.3206L17.7556 22.0839C18.1129 21.5922 18.5453 21.1598 19.0371 20.8025L17.2737 18.3755ZM28.2755 19.6963C29.3506 19.6963 30.3084 19.6963 31.1744 19.7067L31.2104 16.7069C30.3229 16.6963 29.3458 16.6963 28.2755 16.6963V19.6963ZM42.9016 31.3224C42.9016 30.2521 42.9016 29.275 42.891 28.3875L39.8912 28.4234C39.9016 29.2894 39.9016 30.2473 39.9016 31.3224H42.9016ZM34.8241 15.0707L38.4442 15.0545L38.4308 12.0546L34.8107 12.0707L34.8241 15.0707ZM43.6464 20.2567L43.6302 23.8768L46.6302 23.8902L46.6464 20.2701L43.6464 20.2567ZM38.4442 15.0545C39.9229 15.0479 40.9052 15.0458 41.6459 15.1267C42.3564 15.2043 42.6521 15.3423 42.8373 15.4856L44.6733 13.1131C43.8711 12.4922 42.9514 12.2514 41.9716 12.1444C41.0219 12.0407 39.839 12.0483 38.4308 12.0546L38.4442 15.0545ZM46.6464 20.2701C46.6526 18.8619 46.6602 17.679 46.5565 16.7294C46.4495 15.7495 46.2087 14.8298 45.5878 14.0276L43.2153 15.8637C43.3586 16.0488 43.4966 16.3446 43.5742 17.055C43.6551 17.7957 43.653 18.778 43.6464 20.2567L46.6464 20.2701ZM28.6591 32.1632L45.1273 15.695L43.0059 13.5737L26.5378 30.0418L28.6591 32.1632ZM42.8373 15.4856C42.9089 15.5411 42.9768 15.601 43.0407 15.665L45.1654 13.5471C45.011 13.3922 44.8466 13.2472 44.6733 13.1131L42.8373 15.4856ZM43.0407 15.665C43.1029 15.7275 43.1612 15.7938 43.2153 15.8637L45.5878 14.0276C45.457 13.8586 45.3159 13.6981 45.1654 13.5471L43.0407 15.665ZM44.9866 15.819L45.023 15.7908L43.183 13.4213L43.1466 13.4496L44.9866 15.819Z" fill="#434343"/>
</svg>
