<svg width="44" height="44" viewBox="0 0 44 44" fill="none" xmlns="http://www.w3.org/2000/svg">
<path d="M19.851 30.8963C20.4795 31.1741 21.2 31.313 22.0125 31.313C22.8458 31.313 23.5837 31.1775 24.226 30.9067C24.8719 30.6324 25.3753 30.2574 25.7364 29.7817C26.101 29.3025 26.2833 28.7539 26.2833 28.1359C26.2868 27.4796 26.0767 26.9328 25.6531 26.4953C25.233 26.0578 24.6097 25.7904 23.7833 25.6932V25.6098C24.4014 25.5196 24.9066 25.28 25.2989 24.8911C25.6948 24.5022 25.891 24.0074 25.8875 23.4067C25.8875 22.8269 25.726 22.3078 25.4031 21.8494C25.0802 21.3876 24.6288 21.023 24.0489 20.7557C23.4691 20.4883 22.7972 20.3546 22.0333 20.3546C21.266 20.3546 20.5819 20.4918 19.9812 20.7661C19.384 21.0404 18.9118 21.4206 18.5646 21.9067C18.2174 22.3894 18.0403 22.9484 18.0333 23.5838H20.4969C20.5038 23.3407 20.575 23.1272 20.7104 22.9432C20.8458 22.7591 21.0281 22.6168 21.2573 22.5161C21.4899 22.4154 21.7486 22.365 22.0333 22.365C22.3042 22.365 22.542 22.4154 22.7469 22.5161C22.9552 22.6168 23.1167 22.7591 23.2312 22.9432C23.3493 23.1237 23.4066 23.3338 23.4031 23.5734C23.4066 23.8199 23.3406 24.0387 23.2052 24.2296C23.0698 24.4171 22.8805 24.563 22.6375 24.6671C22.3979 24.7713 22.1201 24.8234 21.8042 24.8234H20.7677V26.6567H21.8042C22.1653 26.6567 22.4778 26.7105 22.7417 26.8182C23.009 26.9258 23.2156 27.0769 23.3614 27.2713C23.5073 27.4657 23.5785 27.688 23.575 27.938C23.5785 28.188 23.5142 28.4102 23.3823 28.6046C23.2503 28.7956 23.0663 28.9466 22.8302 29.0578C22.5976 29.1654 22.3285 29.2192 22.0229 29.2192C21.7174 29.2192 21.4448 29.1689 21.2052 29.0682C20.9656 28.9675 20.7764 28.8286 20.6375 28.6515C20.4986 28.471 20.4239 28.2644 20.4135 28.0317H17.8198C17.8267 28.6741 18.0108 29.2418 18.3719 29.7348C18.733 30.2279 19.226 30.615 19.851 30.8963Z" fill="#434343"/>
<path fill-rule="evenodd" clip-rule="evenodd" d="M13.2915 9.93051V15.7156C13.0178 16.1098 12.8186 16.5643 12.7177 17.062C12.5088 18.0923 11.8629 18.9813 10.9476 19.4984C9.30909 20.4241 8.65104 22.4493 9.4325 24.1613C9.86906 25.1177 9.86906 26.2165 9.4325 27.1729C8.65104 28.8848 9.30909 30.9101 10.9476 31.8358C11.8629 32.3529 12.5088 33.2418 12.7177 34.2722C13.0918 36.1165 14.8146 37.3682 16.6842 37.154C17.7287 37.0344 18.7737 37.3739 19.5484 38.0846C20.9351 39.3569 23.0646 39.3569 24.4513 38.0846C25.226 37.3739 26.271 37.0344 27.3154 37.154C29.1851 37.3682 30.9079 36.1165 31.282 34.2722C31.4909 33.2418 32.1368 32.3529 33.0521 31.8358C34.6906 30.9101 35.3486 28.8848 34.5672 27.1729C34.1306 26.2165 34.1306 25.1177 34.5672 24.1613C35.3486 22.4493 34.6906 20.4241 33.0521 19.4984C32.1368 18.9813 31.4909 18.0923 31.282 17.062C31.181 16.5643 30.9819 16.1098 30.7082 15.7156V9.93051C30.7082 6.03072 26.6042 3.4943 23.1161 5.23834C22.4134 5.58968 21.5863 5.58968 20.8836 5.23834C17.3955 3.4943 13.2915 6.03072 13.2915 9.93051ZM19.6538 7.69801C17.9942 6.86822 16.0415 8.07502 16.0415 9.93051V14.1634C16.2525 14.1502 16.4674 14.1553 16.6842 14.1802C17.7287 14.2998 18.7737 13.9603 19.5484 13.2495C20.9351 11.9773 23.0646 11.9773 24.4513 13.2495C25.226 13.9603 26.271 14.2998 27.3154 14.1802C27.5323 14.1553 27.7471 14.1502 27.9582 14.1634V9.93051C27.9582 8.07502 26.0055 6.86822 24.3459 7.69801C22.869 8.43646 21.1306 8.43646 19.6538 7.69801ZM15.9617 16.9631C15.8578 17.254 15.6586 17.4998 15.4017 17.6626C15.0228 19.4514 13.8938 20.9924 12.3003 21.8927C11.9044 22.1164 11.7454 22.6057 11.9342 23.0194C12.7018 24.7011 12.7018 26.6331 11.9342 28.3148C11.7454 28.7285 11.9044 29.2178 12.3003 29.4415C13.9098 30.3508 15.0454 31.9139 15.4128 33.7256C15.5032 34.1712 15.9195 34.4737 16.3713 34.4219C18.2078 34.2115 20.0453 34.8085 21.4075 36.0583C21.7426 36.3657 22.2571 36.3657 22.5922 36.0583C23.9543 34.8085 25.7918 34.2115 27.6284 34.4219C28.0802 34.4737 28.4964 34.1712 28.5868 33.7256C28.9543 31.9139 30.0899 30.3508 31.6994 29.4415C32.0953 29.2178 32.2543 28.7285 32.0655 28.3148C31.2978 26.6331 31.2978 24.7011 32.0655 23.0194C32.2543 22.6057 32.0953 22.1164 31.6994 21.8927C30.1059 20.9924 28.9769 19.4514 28.598 17.6626C28.3411 17.4998 28.1419 17.254 28.0379 16.9631C27.9112 16.915 27.7716 16.8959 27.6284 16.9123C25.7918 17.1227 23.9543 16.5256 22.5922 15.2759C22.2571 14.9685 21.7426 14.9685 21.4075 15.2759C20.0453 16.5256 18.2078 17.1227 16.3713 16.9123C16.2281 16.8959 16.0885 16.915 15.9617 16.9631Z" fill="#434343"/>
</svg>
