<svg width="44" height="44" viewBox="0 0 44 44" fill="none" xmlns="http://www.w3.org/2000/svg">
<path d="M9.72756 35.5575L10.4885 34.5101H10.4885L9.72756 35.5575ZM8.05668 33.8866L7.0093 34.6475H7.0093L8.05668 33.8866ZM32.3612 33.8866L31.3139 33.1256L31.3139 33.1256L32.3612 33.8866ZM30.6904 35.5575L29.9294 34.5101L30.6904 35.5575ZM9.72756 11.2529L8.96659 10.2055H8.96659L9.72756 11.2529ZM8.05668 12.9238L7.0093 12.1628H7.0093L8.05668 12.9238ZM23.2145 11.1159C23.9294 11.1245 24.516 10.5518 24.5245 9.83688C24.5331 9.12193 23.9605 8.5354 23.2455 8.52683L23.2145 11.1159ZM35.0873 20.3686C35.0787 19.6537 34.4922 19.081 33.7773 19.0896C33.0623 19.0982 32.4897 19.6847 32.4982 20.3997L35.0873 20.3686ZM18.5923 22.262C18.0867 22.7676 18.0867 23.5873 18.5923 24.0929C19.0979 24.5985 19.9176 24.5985 20.4231 24.0929L18.5923 22.262ZM26.9786 3.72514C26.2636 3.72833 25.6866 4.31053 25.6898 5.02553C25.693 5.74052 26.2752 6.31756 26.9902 6.31437L26.9786 3.72514ZM30.7337 5.00303L30.7395 6.29764L30.7337 5.00303ZM37.6821 11.9514L38.9768 11.9572V11.9572L37.6821 11.9514ZM36.3708 15.695C36.3676 16.41 36.9446 16.9922 37.6596 16.9954C38.3746 16.9986 38.9568 16.4215 38.96 15.7065L36.3708 15.695ZM36.2414 5.77443L37.0337 4.75059L37.0337 4.75059L36.2414 5.77443ZM36.9107 6.44377L37.9346 5.65142V5.65142L36.9107 6.44377ZM36.5638 6.12136L35.7697 5.09886L35.7057 5.14859L35.6484 5.20592L36.5638 6.12136ZM20.209 35.7053C17.3481 35.7053 15.3064 35.7035 13.7282 35.5325C12.1742 35.3641 11.2237 35.0442 10.4885 34.5101L8.96659 36.6048C10.2167 37.5131 11.675 37.9144 13.4493 38.1067C15.1994 38.2963 17.4058 38.2945 20.209 38.2945V35.7053ZM5.31963 23.4052C5.31963 26.2084 5.31785 28.4148 5.50747 30.1649C5.6997 31.9392 6.10103 33.3974 7.0093 34.6475L9.10405 33.1256C8.56991 32.3904 8.25002 31.44 8.08165 29.886C7.91066 28.3077 7.90888 26.266 7.90888 23.4052H5.31963ZM10.4885 34.5101C9.95725 34.1241 9.49005 33.6569 9.10405 33.1256L7.0093 34.6475C7.555 35.3986 8.21551 36.0591 8.96659 36.6048L10.4885 34.5101ZM32.509 23.4052C32.509 26.266 32.5073 28.3077 32.3363 29.886C32.1679 31.44 31.848 32.3904 31.3139 33.1256L33.4086 34.6475C34.3169 33.3974 34.7182 31.9392 34.9105 30.1649C35.1001 28.4148 35.0983 26.2084 35.0983 23.4052H32.509ZM20.209 38.2945C23.0121 38.2945 25.2185 38.2963 26.9686 38.1067C28.743 37.9144 30.2012 37.5131 31.4513 36.6048L29.9294 34.5101C29.1942 35.0442 28.2438 35.3641 26.6897 35.5325C25.1115 35.7035 23.0698 35.7053 20.209 35.7053V38.2945ZM31.3139 33.1256C30.9279 33.6569 30.4607 34.1241 29.9294 34.5101L31.4513 36.6048C32.2024 36.0591 32.8629 35.3986 33.4086 34.6475L31.3139 33.1256ZM20.209 8.51585C17.4058 8.51585 15.1994 8.51408 13.4493 8.70369C11.675 8.89592 10.2167 9.29725 8.96659 10.2055L10.4885 12.3003C11.2237 11.7661 12.1742 11.4462 13.7282 11.2779C15.3064 11.1069 17.3481 11.1051 20.209 11.1051V8.51585ZM7.90888 23.4052C7.90888 20.5443 7.91066 18.5027 8.08165 16.9244C8.25002 15.3704 8.56991 14.4199 9.10405 13.6847L7.0093 12.1628C6.10103 13.4129 5.6997 14.8712 5.50747 16.6455C5.31785 18.3956 5.31963 20.602 5.31963 23.4052H7.90888ZM8.96659 10.2055C8.21551 10.7512 7.555 11.4117 7.0093 12.1628L9.10405 13.6847C9.49004 13.1535 9.95725 12.6863 10.4885 12.3003L8.96659 10.2055ZM20.209 11.1051C21.322 11.1051 22.3157 11.1051 23.2145 11.1159L23.2455 8.52683C22.3282 8.51583 21.3179 8.51585 20.209 8.51585V11.1051ZM35.0983 23.4052C35.0983 22.2963 35.0983 21.286 35.0873 20.3686L32.4982 20.3997C32.509 21.2984 32.509 22.2921 32.509 23.4052H35.0983ZM26.9902 6.31437L30.7395 6.29764L30.728 3.70841L26.9786 3.72514L26.9902 6.31437ZM36.3875 11.9457L36.3708 15.695L38.96 15.7065L38.9768 11.9572L36.3875 11.9457ZM30.7395 6.29764C32.265 6.29083 33.2997 6.28818 34.0848 6.37392C34.8439 6.45682 35.2041 6.60866 35.4491 6.79827L37.0337 4.75059C36.2561 4.14878 35.3575 3.90825 34.3659 3.79997C33.4004 3.69453 32.1925 3.70188 30.728 3.70841L30.7395 6.29764ZM38.9768 11.9572C38.9833 10.4926 38.9906 9.28481 38.8852 8.31928C38.7769 7.32771 38.5364 6.42905 37.9346 5.65142L35.8869 7.23611C36.0765 7.48112 36.2284 7.84128 36.3113 8.60037C36.397 9.38551 36.3943 10.4202 36.3875 11.9457L38.9768 11.9572ZM20.4231 24.0929L37.4793 7.0368L35.6484 5.20592L18.5923 22.262L20.4231 24.0929ZM35.4491 6.79826C35.532 6.86249 35.6107 6.9319 35.6846 7.00605L37.5184 5.17809C37.3663 5.02551 37.2045 4.8827 37.0337 4.75059L35.4491 6.79826ZM35.6846 7.00605C35.7567 7.07836 35.8243 7.15518 35.8869 7.23612L37.9346 5.65142C37.8057 5.48495 37.6667 5.32688 37.5184 5.17809L35.6846 7.00605ZM37.3579 7.14386L37.3956 7.11457L35.8075 5.06957L35.7697 5.09886L37.3579 7.14386Z" fill="#34C759"/>
</svg>
