<svg width="44" height="44" viewBox="0 0 44 44" fill="none" xmlns="http://www.w3.org/2000/svg">
<path d="M10.875 9.87515L10.5711 11.0876L10.875 9.87515ZM17.0617 6.30326L15.8597 5.96022L17.0617 6.30326ZM5.93693 18.4282L6.83501 17.5587L5.93693 18.4282ZM5.93693 25.572L5.03884 24.7025H5.03884L5.93693 25.572ZM10.875 34.125L11.179 35.3375L10.875 34.125ZM17.0617 37.6969L15.8597 38.0399L17.0617 37.6969ZM26.9379 37.6969L28.1399 38.0399L26.9379 37.6969ZM33.1246 34.125L33.4285 32.9125L33.1246 34.125ZM38.0627 25.572L37.1646 26.4414L38.0627 25.572ZM38.0627 18.4282L37.1646 17.5587L38.0627 18.4282ZM33.1246 9.87515L32.8207 8.66266L33.1246 9.87515ZM26.9379 6.30326L28.1399 5.96022L26.9379 6.30326ZM10.5711 11.0876C13.9137 11.9255 17.318 9.95997 18.2637 6.6463L15.8597 5.96022C15.2843 7.9765 13.2128 9.17247 11.179 8.66266L10.5711 11.0876ZM6.83501 17.5587C4.11622 14.7504 6.77963 10.1373 10.5711 11.0876L11.179 8.66266C4.94783 7.10075 0.57063 14.6823 5.03885 19.2976L6.83501 17.5587ZM6.83501 26.4414C9.23189 23.9656 9.23189 20.0346 6.83501 17.5587L5.03885 19.2976C6.49728 20.8041 6.49728 23.196 5.03884 24.7025L6.83501 26.4414ZM10.5711 32.9125C6.77963 33.8629 4.11622 29.2497 6.83501 26.4414L5.03884 24.7025C0.570628 29.3179 4.94783 36.8994 11.179 35.3375L10.5711 32.9125ZM18.2637 37.3539C17.318 34.0402 13.9137 32.0747 10.5711 32.9125L11.179 35.3375C13.2128 34.8277 15.2843 36.0236 15.8597 38.0399L18.2637 37.3539ZM25.7359 37.3539C24.6632 41.1126 19.3364 41.1126 18.2637 37.3539L15.8597 38.0399C17.6226 44.2172 26.377 44.2172 28.1399 38.0399L25.7359 37.3539ZM33.4285 32.9125C30.086 32.0747 26.6816 34.0402 25.7359 37.3539L28.1399 38.0399C28.7153 36.0236 30.7868 34.8277 32.8207 35.3375L33.4285 32.9125ZM37.1646 26.4414C39.8834 29.2497 37.22 33.8629 33.4285 32.9125L32.8207 35.3375C39.0518 36.8994 43.429 29.3179 38.9608 24.7025L37.1646 26.4414ZM37.1646 17.5587C34.7677 20.0346 34.7677 23.9656 37.1646 26.4414L38.9608 24.7025C37.5023 23.196 37.5023 20.8041 38.9608 19.2976L37.1646 17.5587ZM33.4285 11.0876C37.22 10.1373 39.8834 14.7504 37.1646 17.5587L38.9608 19.2976C43.429 14.6823 39.0518 7.10075 32.8207 8.66266L33.4285 11.0876ZM25.7359 6.6463C26.6816 9.95997 30.086 11.9255 33.4285 11.0876L32.8207 8.66266C30.7868 9.17247 28.7153 7.9765 28.1399 5.96022L25.7359 6.6463ZM28.1399 5.96022C26.377 -0.217048 17.6226 -0.217046 15.8597 5.96022L18.2637 6.6463C19.3364 2.88759 24.6632 2.88759 25.7359 6.6463L28.1399 5.96022ZM15.2498 22.0001C15.2498 25.728 18.2719 28.7501 21.9998 28.7501V26.2501C19.6526 26.2501 17.7498 24.3473 17.7498 22.0001H15.2498ZM21.9998 28.7501C25.7277 28.7501 28.7498 25.728 28.7498 22.0001H26.2498C26.2498 24.3473 24.347 26.2501 21.9998 26.2501V28.7501ZM28.7498 22.0001C28.7498 18.2721 25.7277 15.2501 21.9998 15.2501V17.7501C24.347 17.7501 26.2498 19.6529 26.2498 22.0001H28.7498ZM21.9998 15.2501C18.2719 15.2501 15.2498 18.2721 15.2498 22.0001H17.7498C17.7498 19.6529 19.6526 17.7501 21.9998 17.7501V15.2501Z" fill="#656565"/>
</svg>
