<svg width="44" height="44" viewBox="0 0 44 44" fill="none" xmlns="http://www.w3.org/2000/svg">
<path d="M37.1251 20.3638V17.875C37.1251 13.8636 35.5315 10.0165 32.695 7.18001C29.8586 4.34352 26.0115 2.75 22.0001 2.75C17.9887 2.75 14.1416 4.34352 11.3051 7.18001C8.46858 10.0165 6.87506 13.8636 6.87506 17.875V20.3638C5.30645 21.2737 4.08134 22.6751 3.38921 24.3512C2.69707 26.0273 2.57647 27.8848 3.04606 29.6364C3.51564 31.3879 4.54925 32.936 5.98703 34.0411C7.42481 35.1462 9.18664 35.7468 11.0001 35.75H12.3751C13.4691 35.75 14.5183 35.3154 15.2919 34.5418C16.0655 33.7682 16.5001 32.719 16.5001 31.625V23.375C16.5001 22.281 16.0655 21.2318 15.2919 20.4582C14.5183 19.6846 13.4691 19.25 12.3751 19.25H11.0001C10.5393 19.2565 10.0796 19.2979 9.62506 19.3738V17.875C9.62506 14.5929 10.9288 11.4453 13.2496 9.12455C15.5704 6.80379 18.718 5.5 22.0001 5.5C25.2821 5.5 28.4297 6.80379 30.7505 9.12455C33.0713 11.4453 34.3751 14.5929 34.3751 17.875V19.3738C33.9205 19.2979 33.4609 19.2565 33.0001 19.25H31.6251C30.531 19.25 29.4818 19.6846 28.7082 20.4582C27.9347 21.2318 27.5001 22.281 27.5001 23.375V31.625C27.5043 32.3638 27.7069 33.0878 28.0866 33.7215C28.4664 34.3553 29.0094 34.8754 29.6588 35.2275L28.4076 37.7438C28.2922 37.9726 28.1153 38.1647 27.8966 38.2983C27.678 38.4319 27.4263 38.5018 27.1701 38.5H22.0001C21.6354 38.5 21.2856 38.6449 21.0278 38.9027C20.7699 39.1606 20.6251 39.5103 20.6251 39.875C20.6251 40.2397 20.7699 40.5894 21.0278 40.8473C21.2856 41.1051 21.6354 41.25 22.0001 41.25H27.1701C27.9379 41.2515 28.691 41.0387 29.3444 40.6354C29.9979 40.2322 30.5258 39.6545 30.8688 38.9675L32.4776 35.75H33.0001C34.8135 35.7468 36.5753 35.1462 38.0131 34.0411C39.4509 32.936 40.4845 31.3879 40.9541 29.6364C41.4236 27.8848 41.303 26.0273 40.6109 24.3512C39.9188 22.6751 38.6937 21.2737 37.1251 20.3638ZM12.3751 22C12.7397 22 13.0895 22.1449 13.3473 22.4027C13.6052 22.6606 13.7501 23.0103 13.7501 23.375V31.625C13.7501 31.9897 13.6052 32.3394 13.3473 32.5973C13.0895 32.8551 12.7397 33 12.3751 33H11.0001C9.54137 33 8.14242 32.4205 7.11097 31.3891C6.07952 30.3576 5.50006 28.9587 5.50006 27.5C5.50006 26.0413 6.07952 24.6424 7.11097 23.6109C8.14242 22.5795 9.54137 22 11.0001 22H12.3751ZM33.0001 33H31.6251C31.2604 33 30.9106 32.8551 30.6528 32.5973C30.3949 32.3394 30.2501 31.9897 30.2501 31.625V23.375C30.2501 23.0103 30.3949 22.6606 30.6528 22.4027C30.9106 22.1449 31.2604 22 31.6251 22H33.0001C34.4587 22 35.8577 22.5795 36.8891 23.6109C37.9206 24.6424 38.5001 26.0413 38.5001 27.5C38.5001 28.9587 37.9206 30.3576 36.8891 31.3891C35.8577 32.4205 34.4587 33 33.0001 33Z" fill="#656565"/>
</svg>
