<svg width="50" height="50" viewBox="0 0 50 50" fill="none" xmlns="http://www.w3.org/2000/svg">
<path d="M29.7275 2.5V4.5V2.5ZM32.2275 2.5V0.5V2.5ZM47.2275 17.5H49.2275H47.2275ZM47.2275 32.5H45.2275H47.2275ZM32.2275 47.5V49.5V47.5ZM29.7275 47.5V45.5V47.5ZM47.0736 36.9554L49.049 37.2683V37.2683L47.0736 36.9554ZM36.683 47.3461L36.3701 45.3707L36.683 47.3461ZM36.683 2.65389L36.9958 0.678518L36.9958 0.678517L36.683 2.65389ZM47.0736 13.0446L49.049 12.7317V12.7317L47.0736 13.0446ZM21.0264 3.39995C20.1432 4.06333 19.965 5.31706 20.6284 6.20024C21.2918 7.08342 22.5455 7.2616 23.4287 6.59822L21.0264 3.39995ZM23.4287 43.4018C22.5455 42.7384 21.2918 42.9166 20.6284 43.7998C19.965 44.6829 20.1432 45.9367 21.0264 46.6L23.4287 43.4018ZM2.22754 23C1.12297 23 0.227539 23.8954 0.227539 25C0.227539 26.1046 1.12297 27 2.22754 27L2.22754 23ZM34.7275 25V23V25ZM25.985 33.4328C25.1194 34.1191 24.9741 35.3771 25.6604 36.2426C26.3466 37.1081 27.6046 37.2534 28.4701 36.5672L25.985 33.4328ZM31.635 31.5054L30.3924 29.9382L31.635 31.5054ZM31.635 18.4946L30.3924 20.0618L31.635 18.4946ZM28.4701 13.4328C27.6046 12.7466 26.3466 12.8919 25.6604 13.7574C24.9741 14.6229 25.1194 15.8809 25.9849 16.5672L28.4701 13.4328ZM37.1778 25.6267L39.1529 25.9414L39.1529 25.9413L37.1778 25.6267ZM37.1778 24.3733L39.1529 24.0587L39.1529 24.0586L37.1778 24.3733ZM29.7275 4.5H32.2275V0.5L29.7275 0.5V4.5ZM45.2275 17.5V32.5H49.2275V17.5H45.2275ZM32.2275 45.5H29.7275V49.5H32.2275V45.5ZM45.2275 32.5C45.2275 34.8989 45.2213 35.8656 45.0983 36.6426L49.049 37.2683C49.2337 36.102 49.2275 34.7461 49.2275 32.5H45.2275ZM32.2275 49.5C34.4736 49.5 35.8295 49.5062 36.9958 49.3215L36.3701 45.3707C35.5931 45.4938 34.6265 45.5 32.2275 45.5V49.5ZM45.0983 36.6426C44.3867 41.1354 40.863 44.6591 36.3701 45.3707L36.9958 49.3215C43.2003 48.3388 48.0663 43.4727 49.049 37.2683L45.0983 36.6426ZM32.2275 4.5C34.6265 4.5 35.5931 4.50621 36.3701 4.62927L36.9958 0.678517C35.8295 0.493793 34.4736 0.5 32.2275 0.5V4.5ZM49.2275 17.5C49.2275 15.2539 49.2337 13.898 49.049 12.7317L45.0983 13.3574C45.2213 14.1344 45.2275 15.1011 45.2275 17.5H49.2275ZM36.3701 4.62927C40.863 5.34087 44.3867 8.86457 45.0983 13.3574L49.049 12.7317C48.0663 6.52726 43.2003 1.6612 36.9958 0.678518L36.3701 4.62927ZM29.7275 0.5C26.4656 0.5 23.45 1.57951 21.0264 3.39995L23.4287 6.59822C25.1834 5.28021 27.3615 4.5 29.7275 4.5V0.5ZM29.7275 45.5C27.3615 45.5 25.1834 44.7198 23.4287 43.4018L21.0264 46.6C23.45 48.4205 26.4656 49.5 29.7275 49.5V45.5ZM2.22754 27L34.7275 27V23L2.22754 23L2.22754 27ZM28.4701 36.5672L32.8776 33.0725L30.3924 29.9382L25.985 33.4328L28.4701 36.5672ZM32.8775 16.9275L28.4701 13.4328L25.9849 16.5672L30.3924 20.0618L32.8775 16.9275ZM32.8775 33.0725C34.5967 31.7094 36.0225 30.5829 37.0345 29.5748C38.0554 28.5577 38.9184 27.4132 39.1529 25.9414L35.2027 25.312C35.1666 25.5385 35.0156 25.9399 34.2115 26.7409C33.3984 27.5508 32.1881 28.5144 30.3924 29.9382L32.8775 33.0725ZM30.3924 20.0618C32.1881 21.4856 33.3984 22.4492 34.2115 23.2591C35.0156 24.0601 35.1666 24.4615 35.2027 24.688L39.1529 24.0586C38.9184 22.5868 38.0554 21.4423 37.0345 20.4252C36.0224 19.4171 34.5967 18.2905 32.8775 16.9275L30.3924 20.0618ZM39.1529 25.9413C39.2026 25.6296 39.2275 25.3151 39.2275 25H35.2275C35.2275 25.1035 35.2194 25.2076 35.2027 25.312L39.1529 25.9413ZM39.2275 25C39.2275 24.6849 39.2026 24.3704 39.1529 24.0587L35.2027 24.688C35.2194 24.7924 35.2275 24.8965 35.2275 25H39.2275ZM34.7275 27H37.2275V23H34.7275V27Z" fill="#34C759"/>
</svg>
