<svg width="44" height="44" viewBox="0 0 44 44" fill="none" xmlns="http://www.w3.org/2000/svg">
<path d="M34.4309 6.3611C33.894 5.82413 33.0234 5.82413 32.4864 6.3611C31.9494 6.89807 31.9494 7.76868 32.4864 8.30565L33.8143 9.63359C30.4516 9.76901 27.3446 11.5048 25.4683 14.3192L16.2442 28.1554C14.7991 30.323 12.3663 31.625 9.76114 31.625H9.16699C8.4076 31.625 7.79199 32.2407 7.79199 33C7.79199 33.7594 8.4076 34.375 9.16699 34.375H9.76114C13.2858 34.375 16.5772 32.6135 18.5323 29.6808L27.7565 15.8447C29.0171 13.9537 31.0295 12.7214 33.2523 12.4377L32.1201 13.3812C31.5367 13.8674 31.4579 14.7344 31.944 15.3178C32.4302 15.9012 33.2972 15.98 33.8806 15.4938L36.4633 13.3416C37.1678 12.7545 37.5542 11.931 37.6105 11.0922C37.6699 10.2075 37.3629 9.2931 36.678 8.60821L34.4309 6.3611Z" fill="#656565"/>
<path d="M9.16699 9.62504C8.4076 9.62504 7.79199 10.2406 7.79199 11C7.79199 11.7594 8.4076 12.375 9.16699 12.375H9.76114C12.3663 12.375 14.7991 13.677 16.2442 15.8447C16.6654 16.4765 17.5191 16.6473 18.151 16.226C18.7828 15.8048 18.9536 14.9511 18.5323 14.3192C16.5772 11.3866 13.2858 9.62504 9.76114 9.62504H9.16699Z" fill="#656565"/>
<path d="M27.7565 28.1554C27.3352 27.5236 26.4815 27.3528 25.8497 27.7741C25.2178 28.1953 25.0471 29.049 25.4683 29.6808C27.2617 32.371 30.1796 34.0757 33.3705 34.3392L32.1201 35.3812C31.5367 35.8674 31.4579 36.7344 31.944 37.3178C32.4302 37.9012 33.2972 37.98 33.8806 37.4938L36.4633 35.3416C37.1678 34.7545 37.5542 33.931 37.6105 33.0922C37.6699 32.2075 37.3629 31.2931 36.678 30.6082L34.4309 28.3611C33.894 27.8241 33.0234 27.8241 32.4864 28.3611C31.9494 28.8981 31.9494 29.7687 32.4864 30.3056L33.793 31.6123C31.3585 31.4728 29.1186 30.1987 27.7565 28.1554Z" fill="#656565"/>
</svg>
