<svg width="44" height="44" viewBox="0 0 44 44" fill="none" xmlns="http://www.w3.org/2000/svg">
<path fill-rule="evenodd" clip-rule="evenodd" d="M15.6465 12.0999C16.5437 11.5952 18.553 10.811 20.3165 12.4097C21.314 13.3138 21.6418 14.476 21.5162 15.6046C21.398 16.6663 20.8905 17.6619 20.2986 18.472C19.6975 19.2948 18.9354 20.028 18.1628 20.566C17.4396 21.0695 16.5071 21.5416 15.5837 21.5416C14.6603 21.5416 13.7277 21.0695 13.0045 20.566C12.2319 20.028 11.4699 19.2948 10.8687 18.472C10.2768 17.6619 9.76928 16.6663 9.65111 15.6046C9.5255 14.476 9.85329 13.3138 10.8508 12.4097C12.6143 10.811 14.6236 11.5952 15.5208 12.0999C15.5208 12.0999 15.5255 12.1014 15.5301 12.1025C15.543 12.1057 15.5617 12.1085 15.5836 12.1085C15.6056 12.1085 15.6243 12.1057 15.6372 12.1025C15.6418 12.1014 15.6465 12.0999 15.6465 12.0999ZM17.8309 14.2105C17.576 14.2271 17.2805 14.3356 16.9926 14.4979C16.14 14.9786 15.0273 14.9786 14.1747 14.4979C13.8868 14.3356 13.5913 14.2271 13.3364 14.2105C13.1298 14.1971 12.9293 14.2372 12.6977 14.4471C12.4254 14.694 12.3452 14.9497 12.3842 15.3003C12.4307 15.7179 12.6604 16.2629 13.0891 16.8496C13.5085 17.4236 14.0504 17.9433 14.5758 18.3091C14.8369 18.4909 15.0733 18.6202 15.2677 18.7004C15.3638 18.74 15.4409 18.7641 15.4986 18.7776C15.5553 18.7909 15.5836 18.7916 15.5836 18.7916C15.5836 18.7916 15.6101 18.7914 15.6687 18.7776C15.7264 18.7641 15.8036 18.74 15.8996 18.7004C16.094 18.6202 16.3304 18.4909 16.5915 18.3091C17.1169 17.9433 17.6588 17.4236 18.0782 16.8496C18.5069 16.2629 18.7366 15.7179 18.7831 15.3004C18.8221 14.9497 18.742 14.694 18.4696 14.4471C18.238 14.2372 18.0375 14.1971 17.8309 14.2105Z" fill="#656565"/>
<path fill-rule="evenodd" clip-rule="evenodd" d="M28.4799 12.0999C29.377 11.5951 31.3863 10.811 33.1499 12.4097C34.1474 13.3138 34.4752 14.476 34.3495 15.6046C34.2314 16.6663 33.7239 17.6619 33.132 18.472C32.5308 19.2948 31.7687 20.028 30.9962 20.566C30.2729 21.0695 29.3404 21.5416 28.417 21.5416C27.4936 21.5416 26.561 21.0695 25.8378 20.566C25.0653 20.028 24.3032 19.2948 23.702 18.472C23.1101 17.6619 22.6026 16.6663 22.4844 15.6046C22.3588 14.476 22.6866 13.3138 23.6841 12.4097C25.4477 10.811 27.4569 11.5952 28.3541 12.0999L28.3587 12.1024C28.3548 12.1002 28.3541 12.0999 28.3541 12.0999C28.3541 12.0999 28.3588 12.1014 28.3634 12.1025C28.3764 12.1057 28.395 12.1085 28.417 12.1085C28.439 12.1085 28.4576 12.1057 28.4706 12.1025C28.4751 12.1014 28.4799 12.0999 28.4799 12.0999ZM30.6643 14.2105C30.4094 14.2271 30.1138 14.3356 29.826 14.4979C28.9733 14.9786 27.8606 14.9786 27.008 14.4979C26.7202 14.3356 26.4246 14.2271 26.1697 14.2105C25.9631 14.1971 25.7626 14.2372 25.531 14.4471C25.2587 14.694 25.1785 14.9497 25.2176 15.3003C25.264 15.7179 25.4938 16.2629 25.9225 16.8496C26.3419 17.4236 26.8837 17.9433 27.4092 18.3091C27.6702 18.4909 27.9066 18.6202 28.1011 18.7004C28.1971 18.74 28.2743 18.7641 28.332 18.7776C28.3886 18.7909 28.417 18.7916 28.417 18.7916C28.417 18.7916 28.4434 18.7914 28.502 18.7776C28.5597 18.7641 28.6369 18.74 28.7329 18.7004C28.9274 18.6202 29.1638 18.4909 29.4248 18.3091C29.9503 17.9433 30.4921 17.4236 30.9115 16.8496C31.3402 16.2629 31.5699 15.7179 31.6164 15.3004C31.6554 14.9497 31.5753 14.694 31.3029 14.4471C31.0714 14.2372 30.8709 14.1971 30.6643 14.2105ZM28.4799 12.0999L28.4753 12.1024C28.4792 12.1002 28.4799 12.0999 28.4799 12.0999Z" fill="#656565"/>
<path fill-rule="evenodd" clip-rule="evenodd" d="M13.1281 27.6824C13.651 26.7547 14.6634 26.125 15.8494 26.125H28.1512C29.3372 26.125 30.3497 26.7547 30.8725 27.6824C31.4072 28.631 31.4042 29.8591 30.6416 30.867C29.7196 32.0857 28.5169 33.3978 27.0892 34.4157C25.6622 35.4332 23.9353 36.2083 22.0003 36.2083C20.0653 36.2083 18.3384 35.4332 16.9114 34.4157C15.4837 33.3978 14.2811 32.0857 13.359 30.867C12.5965 29.8591 12.5935 28.631 13.1281 27.6824ZM15.5031 29.1044C15.5035 29.112 15.5054 29.146 15.5521 29.2078C16.3668 30.2846 17.3771 31.3704 18.5078 32.1766C19.6393 32.9832 20.8164 33.4583 22.0003 33.4583C23.1843 33.4583 24.3614 32.9832 25.4928 32.1766C26.6236 31.3704 27.6338 30.2846 28.4486 29.2078C28.4953 29.146 28.4971 29.112 28.4975 29.1044C28.4982 29.091 28.4959 29.0665 28.4769 29.0327C28.4391 28.9657 28.3399 28.875 28.1512 28.875H15.8494C15.6607 28.875 15.5615 28.9657 15.5238 29.0327C15.5048 29.0665 15.5024 29.091 15.5031 29.1044Z" fill="#656565"/>
<path fill-rule="evenodd" clip-rule="evenodd" d="M2.29199 22C2.29199 11.1153 11.1157 2.29163 22.0003 2.29163C32.8849 2.29163 41.7087 11.1153 41.7087 22C41.7087 32.8846 32.8849 41.7083 22.0003 41.7083C11.1157 41.7083 2.29199 32.8846 2.29199 22ZM22.0003 5.04163C12.6345 5.04163 5.04199 12.6341 5.04199 22C5.04199 31.3658 12.6345 38.9583 22.0003 38.9583C31.3662 38.9583 38.9587 31.3658 38.9587 22C38.9587 12.6341 31.3662 5.04163 22.0003 5.04163Z" fill="#656565"/>
</svg>
