<svg width="44" height="44" viewBox="0 0 44 44" fill="none" xmlns="http://www.w3.org/2000/svg">
<path fill-rule="evenodd" clip-rule="evenodd" d="M22.2432 1.45898C17.3078 1.45898 13.2342 5.35082 12.6299 10.3838C10.3286 10.4844 8.58338 10.7718 7.125 11.6211C5.26227 12.7059 3.79142 14.4062 2.93686 16.4575C2.91054 16.5207 2.88481 16.5842 2.85967 16.648C2.34543 17.9536 2.20838 19.38 2.25021 21.0946C2.29138 22.7824 2.51219 24.8786 2.79448 27.5585L2.80695 27.6769C3.03761 29.8667 3.21882 31.5872 3.46813 32.9677C3.72249 34.3761 4.06368 35.5324 4.66409 36.5684C5.65516 38.2786 7.10098 39.6437 8.82172 40.4938C9.86418 41.0089 10.9913 41.2389 12.3464 41.3501C13.6746 41.459 15.3156 41.459 17.4042 41.459H27.082C29.1707 41.459 30.8117 41.459 32.1399 41.3501C33.4951 41.2389 34.6222 41.0089 35.6646 40.4938C37.3853 39.6437 38.8312 38.2786 39.8222 36.5684C40.4226 35.5324 40.7638 34.3761 41.0182 32.9677C41.2675 31.5872 41.4487 29.8669 41.6793 27.6772L41.6918 27.5587C41.9741 24.8788 42.1949 22.7823 42.2361 21.0946C42.278 19.38 42.1409 17.9536 41.6267 16.648C41.5603 16.4795 41.4897 16.3131 41.4152 16.1492C40.5452 14.2359 39.1299 12.651 37.3613 11.6211C35.8972 10.7684 34.1577 10.4984 31.8587 10.4032C31.2626 5.36079 27.1848 1.45898 22.2432 1.45898ZM16.0976 10.3429C15.7876 10.3412 15.486 10.3395 15.1933 10.3388C15.7937 6.8064 18.7217 4.12565 22.2432 4.12565C25.7691 4.12565 28.6999 6.81312 29.2953 10.3521C28.5976 10.3479 27.8467 10.3479 27.0384 10.3479H17.4574C16.9879 10.3479 16.5344 10.3454 16.0976 10.3429ZM13.8406 13.0143C14.5148 13.0008 15.2321 13.0048 16.04 13.0094C16.4826 13.0119 16.9525 13.0145 17.4574 13.0145H27.0289C28.4184 13.0145 29.6072 13.0146 30.6461 13.0351C33.5716 13.0929 35.05 13.3211 36.1395 13.9556C37.1802 14.5616 38.0553 15.4276 38.6934 16.469L33.0619 22.4094C30.2278 25.399 28.1902 27.5444 26.4327 28.9589C24.7044 30.3499 23.3964 30.9078 22.0387 30.9078C20.681 30.9078 19.3729 30.3499 17.6446 28.9589C15.8872 27.5444 13.8496 25.399 11.0154 22.4094L5.63685 16.7358C6.28479 15.5752 7.21855 14.6127 8.34681 13.9556C9.43731 13.3205 10.9382 13.0725 13.8406 13.0143ZM39.6527 19.2283C39.7076 19.7373 39.7261 20.3253 39.709 21.026C39.6709 22.587 39.463 24.5707 39.1727 27.3268C38.9349 29.5843 38.7637 31.2019 38.5349 32.4687C38.309 33.7192 38.0433 34.5255 37.6654 35.1776C36.9328 36.4416 35.8642 37.4506 34.5923 38.079C33.9362 38.4031 33.1472 38.5928 31.944 38.6914C30.7251 38.7914 29.1822 38.7923 27.0289 38.7923H17.4574C15.3041 38.7923 13.7612 38.7914 12.5423 38.6914C11.3392 38.5928 10.5501 38.4031 9.894 38.079C8.62215 37.4506 7.5535 36.4416 6.82098 35.1776C6.44307 34.5255 6.17729 33.7192 5.95145 32.4687C5.72267 31.2019 5.5514 29.5843 5.31361 27.3268C5.0233 24.5707 4.81543 22.587 4.77735 21.026C4.76451 20.4997 4.77173 20.037 4.7994 19.6236L9.29628 24.3672C12.0472 27.269 14.203 29.5431 16.1112 31.0789C18.0644 32.6509 19.906 33.5745 22.0387 33.5745C24.1714 33.5745 26.013 32.6509 27.9661 31.0789C29.8744 29.5431 32.0302 27.269 34.7811 24.3672L39.6527 19.2283Z" fill="#656565"/>
</svg>
