<svg width="44" height="44" viewBox="0 0 44 44" fill="none" xmlns="http://www.w3.org/2000/svg">
<path d="M13.9999 11.4003C13.9999 9.16013 13.9999 9.0392 14.4358 8.18357C14.8193 7.43093 15.4308 6.81946 16.1834 6.43597C17.0391 6 18.16 6 20.4002 6H31.6C33.8402 6 34.9597 6 35.8154 6.43597C36.568 6.81946 37.1805 7.43093 37.564 8.18357C38 9.0392 38 10.1593 38 12.3995V23.5994C38 25.8396 38 26.9597 37.564 27.8153C37.1805 28.5679 36.5674 29.1807 35.8148 29.5642C34.96 29.9997 34.8416 29.9997 32.6058 29.9997M22.6002 14.9999C24.8404 14.9999 25.9599 14.9999 26.8155 15.4358C27.5681 15.8193 28.1807 16.4308 28.5642 17.1834C28.9997 18.0382 28.9997 19.1578 28.9997 21.3937L28.9997 32.6058C28.9997 34.8416 28.9997 35.96 28.5642 36.8148C28.1807 37.5674 27.5681 38.1805 26.8155 38.564C25.9607 38.9996 24.8427 38.9996 22.6069 38.9996H11.3937C9.15794 38.9996 8.03837 38.9996 7.18357 38.564C6.43093 38.1805 5.81946 37.568 5.43597 36.8154C5 35.9597 5 34.8402 5 32.6V21.4002C5 19.16 5 18.0391 5.43597 17.1834C5.81946 16.4308 6.43093 15.8193 7.18357 15.4358C8.0392 14.9999 9.16013 14.9999 11.4003 14.9999L22.5 15" stroke="#34C759" stroke-width="2.6" stroke-linecap="round" stroke-linejoin="round"/>
</svg>
