<svg width="44" height="44" viewBox="0 0 44 44" fill="none" xmlns="http://www.w3.org/2000/svg">
<path d="M18.4894 29.313V31.1671H26.3853V29.089H22.0623V29.0213L23.3384 27.8442C24.1127 27.1706 24.7099 26.5925 25.13 26.1098C25.5537 25.6272 25.8471 25.1862 26.0103 24.7869C26.1734 24.3876 26.255 23.9848 26.255 23.5786C26.255 22.9397 26.0901 22.3789 25.7603 21.8963C25.4339 21.4102 24.9721 21.0317 24.3748 20.7609C23.7776 20.49 23.0745 20.3546 22.2655 20.3546C21.4807 20.3546 20.7915 20.4987 20.1978 20.7869C19.6075 21.0716 19.1491 21.4779 18.8228 22.0057C18.4964 22.5335 18.3332 23.1602 18.3332 23.8859H20.7759C20.7759 23.563 20.8366 23.2887 20.9582 23.063C21.0832 22.8373 21.2568 22.6654 21.479 22.5473C21.7012 22.4258 21.9599 22.365 22.255 22.365C22.5467 22.365 22.8054 22.4223 23.0311 22.5369C23.2568 22.6515 23.4339 22.8147 23.5623 23.0265C23.6908 23.2348 23.755 23.4866 23.755 23.7817C23.755 24.0456 23.7012 24.2904 23.5936 24.5161C23.4859 24.7383 23.3297 24.9605 23.1248 25.1828C22.92 25.4015 22.6717 25.6428 22.38 25.9067L18.4894 29.313Z" fill="#434343"/>
<path fill-rule="evenodd" clip-rule="evenodd" d="M13.2915 9.93051V15.7156C13.0178 16.1098 12.8186 16.5643 12.7177 17.062C12.5088 18.0923 11.8629 18.9813 10.9476 19.4984C9.30909 20.4241 8.65104 22.4493 9.4325 24.1613C9.86906 25.1177 9.86906 26.2165 9.4325 27.1729C8.65104 28.8848 9.30909 30.9101 10.9476 31.8358C11.8629 32.3529 12.5088 33.2418 12.7177 34.2722C13.0918 36.1165 14.8146 37.3682 16.6842 37.154C17.7287 37.0344 18.7737 37.3739 19.5484 38.0846C20.9351 39.3569 23.0646 39.3569 24.4513 38.0846C25.226 37.3739 26.271 37.0344 27.3154 37.154C29.1851 37.3682 30.9079 36.1165 31.282 34.2722C31.4909 33.2418 32.1368 32.3529 33.0521 31.8358C34.6906 30.9101 35.3486 28.8848 34.5672 27.1729C34.1306 26.2165 34.1306 25.1177 34.5672 24.1613C35.3486 22.4493 34.6906 20.4241 33.0521 19.4984C32.1368 18.9813 31.4909 18.0923 31.282 17.062C31.181 16.5643 30.9819 16.1098 30.7082 15.7156V9.93051C30.7082 6.03072 26.6042 3.4943 23.1161 5.23834C22.4134 5.58968 21.5863 5.58968 20.8836 5.23834C17.3955 3.4943 13.2915 6.03072 13.2915 9.93051ZM19.6538 7.69801C17.9942 6.86822 16.0415 8.07502 16.0415 9.93051V14.1634C16.2525 14.1502 16.4674 14.1553 16.6842 14.1802C17.7287 14.2998 18.7737 13.9603 19.5484 13.2495C20.9351 11.9773 23.0646 11.9773 24.4513 13.2495C25.226 13.9603 26.271 14.2998 27.3154 14.1802C27.5323 14.1553 27.7471 14.1502 27.9582 14.1634V9.93051C27.9582 8.07502 26.0055 6.86822 24.3459 7.69801C22.869 8.43646 21.1306 8.43646 19.6538 7.69801ZM15.9617 16.9631C15.8578 17.254 15.6586 17.4998 15.4017 17.6626C15.0228 19.4514 13.8938 20.9924 12.3003 21.8927C11.9044 22.1164 11.7454 22.6057 11.9342 23.0194C12.7018 24.7011 12.7018 26.6331 11.9342 28.3148C11.7454 28.7285 11.9044 29.2178 12.3003 29.4415C13.9098 30.3508 15.0454 31.9139 15.4128 33.7256C15.5032 34.1712 15.9195 34.4737 16.3713 34.4219C18.2078 34.2115 20.0453 34.8085 21.4075 36.0583C21.7426 36.3657 22.2571 36.3657 22.5922 36.0583C23.9543 34.8085 25.7918 34.2115 27.6284 34.4219C28.0802 34.4737 28.4964 34.1712 28.5868 33.7256C28.9543 31.9139 30.0899 30.3508 31.6994 29.4415C32.0953 29.2178 32.2543 28.7285 32.0655 28.3148C31.2978 26.6331 31.2978 24.7011 32.0655 23.0194C32.2543 22.6057 32.0953 22.1164 31.6994 21.8927C30.1059 20.9924 28.9769 19.4514 28.598 17.6626C28.3411 17.4998 28.1419 17.254 28.0379 16.9631C27.9112 16.915 27.7716 16.8959 27.6284 16.9123C25.7918 17.1227 23.9543 16.5256 22.5922 15.2759C22.2571 14.9685 21.7426 14.9685 21.4075 15.2759C20.0453 16.5256 18.2078 17.1227 16.3713 16.9123C16.2281 16.8959 16.0885 16.915 15.9617 16.9631Z" fill="#434343"/>
</svg>
