<svg width="44" height="44" viewBox="0 0 44 44" fill="none" xmlns="http://www.w3.org/2000/svg">
<path d="M23.375 12.8333C23.375 12.0739 22.7594 11.4583 22 11.4583C21.2406 11.4583 20.625 12.0739 20.625 12.8333V31.1667C20.625 31.9261 21.2406 32.5417 22 32.5417C22.7594 32.5417 23.375 31.9261 23.375 31.1667V12.8333Z" fill="#656565"/>
<path d="M30.7083 20.1667C30.7083 19.4073 30.0927 18.7917 29.3333 18.7917C28.5739 18.7917 27.9583 19.4073 27.9583 20.1667V31.1667C27.9583 31.9261 28.5739 32.5417 29.3333 32.5417C30.0927 32.5417 30.7083 31.9261 30.7083 31.1667V20.1667Z" fill="#656565"/>
<path d="M16.0417 23.8333C16.0417 23.0739 15.4261 22.4583 14.6667 22.4583C13.9073 22.4583 13.2917 23.0739 13.2917 23.8333V31.1667C13.2917 31.9261 13.9073 32.5417 14.6667 32.5417C15.4261 32.5417 16.0417 31.9261 16.0417 31.1667V23.8333Z" fill="#656565"/>
<path fill-rule="evenodd" clip-rule="evenodd" d="M30.1831 4.35184C28.0892 4.12497 25.4499 4.12499 22.083 4.125H21.917C18.5501 4.12499 15.9108 4.12497 13.8169 4.35184C11.6801 4.58334 9.94869 5.06426 8.47043 6.13828C7.5755 6.78849 6.78849 7.5755 6.13828 8.47043C5.06426 9.94869 4.58334 11.6801 4.35184 13.8169C4.12497 15.9108 4.12499 18.5501 4.125 21.917V22.083C4.12499 25.4499 4.12497 28.0892 4.35184 30.1831C4.58334 32.3199 5.06426 34.0513 6.13828 35.5296C6.78848 36.4245 7.5755 37.2115 8.47043 37.8617C9.94869 38.9357 11.6801 39.4167 13.8169 39.6482C15.9108 39.875 18.55 39.875 21.9169 39.875H22.083C25.4499 39.875 28.0892 39.875 30.1831 39.6482C32.3199 39.4167 34.0513 38.9357 35.5296 37.8617C36.4245 37.2115 37.2115 36.4245 37.8617 35.5296C38.9357 34.0513 39.4167 32.3199 39.6482 30.1831C39.875 28.0892 39.875 25.45 39.875 22.0831V21.917C39.875 18.5501 39.875 15.9108 39.6482 13.8169C39.4167 11.6801 38.9357 9.94869 37.8617 8.47043C37.2115 7.5755 36.4245 6.78848 35.5296 6.13828C34.0513 5.06426 32.3199 4.58334 30.1831 4.35184ZM10.0868 8.36308C11.0182 7.68642 12.2102 7.292 14.1131 7.08584C16.0417 6.87689 18.5321 6.875 22 6.875C25.4679 6.875 27.9583 6.87689 29.8869 7.08584C31.7898 7.292 32.9818 7.68642 33.9132 8.36308C34.5746 8.84366 35.1563 9.42537 35.6369 10.0868C36.3136 11.0182 36.708 12.2102 36.9142 14.1131C37.1231 16.0417 37.125 18.5321 37.125 22C37.125 25.4679 37.1231 27.9583 36.9142 29.8869C36.708 31.7898 36.3136 32.9818 35.6369 33.9132C35.1563 34.5746 34.5746 35.1563 33.9132 35.6369C32.9818 36.3136 31.7898 36.708 29.8869 36.9142C27.9583 37.1231 25.4679 37.125 22 37.125C18.5321 37.125 16.0417 37.1231 14.1131 36.9142C12.2102 36.708 11.0182 36.3136 10.0868 35.6369C9.42537 35.1563 8.84366 34.5746 8.36308 33.9132C7.68642 32.9818 7.292 31.7898 7.08584 29.8869C6.87689 27.9583 6.875 25.4679 6.875 22C6.875 18.5321 6.87689 16.0417 7.08584 14.1131C7.292 12.2102 7.68642 11.0182 8.36308 10.0868C8.84366 9.42537 9.42537 8.84366 10.0868 8.36308Z" fill="#656565"/>
</svg>
