<svg width="44" height="44" viewBox="0 0 44 44" fill="none" xmlns="http://www.w3.org/2000/svg">
<path fill-rule="evenodd" clip-rule="evenodd" d="M22.917 5.5C21.3982 5.5 20.167 6.73122 20.167 8.25V35.75C20.167 37.2688 21.3982 38.5 22.917 38.5H26.5837C28.1024 38.5 29.3337 37.2688 29.3337 35.75V8.25C29.3337 6.73122 28.1024 5.5 26.5837 5.5H22.917ZM26.5837 8.25L22.917 8.25V35.75H26.5837V8.25Z" fill="#656565"/>
<path fill-rule="evenodd" clip-rule="evenodd" d="M14.247 5.59439C12.7799 5.2013 11.272 6.0719 10.8789 7.53893L3.76138 34.1019C3.36829 35.5689 4.23889 37.0768 5.70592 37.4699L9.24765 38.4189C10.7147 38.812 12.2226 37.9414 12.6157 36.4744L19.7332 9.91144C20.1263 8.44441 19.2557 6.93648 17.7887 6.54339L14.247 5.59439ZM17.0769 9.19969L13.5352 8.25068L6.41767 34.8136L9.9594 35.7626L17.0769 9.19969Z" fill="#656565"/>
<path fill-rule="evenodd" clip-rule="evenodd" d="M31.167 8.25C31.167 6.73122 32.3982 5.5 33.917 5.5H37.5837C39.1024 5.5 40.3337 6.73122 40.3337 8.25V35.75C40.3337 37.2688 39.1024 38.5 37.5837 38.5H33.917C32.3982 38.5 31.167 37.2688 31.167 35.75V8.25ZM33.917 8.25L37.5837 8.25V35.75H33.917V8.25Z" fill="#656565"/>
</svg>
