<svg width="26" height="26" viewBox="0 0 26 26" fill="none" xmlns="http://www.w3.org/2000/svg">
    <path d="M19.5 9.208v7.584a1.626 1.626 0 0 1-3.25 0V9.208a1.626 1.626 0 0 1 3.25 0zM12.458 0c-.897 0-1.625.728-1.625 1.625v22.75a1.626 1.626 0 0 0 3.25 0V1.625C14.083.728 13.355 0 12.458 0zm10.834 4.333c-.897 0-1.625.728-1.625 1.625v14.084a1.626 1.626 0 0 0 3.25 0V5.958c0-.897-.728-1.625-1.625-1.625zM7.042 5.417c-.897 0-1.625.728-1.625 1.625v11.916a1.626 1.626 0 0 0 3.25 0V7.042c0-.897-.728-1.625-1.625-1.625zM1.625 9.75C.728 9.75 0 10.478 0 11.375v3.25a1.626 1.626 0 0 0 3.25 0v-3.25c0-.897-.728-1.625-1.625-1.625z" fill="currentColor"/>
</svg>
