<svg width="30" height="30" viewBox="0 0 30 30" fill="none" xmlns="http://www.w3.org/2000/svg">
<path d="M28.7025 12.7401L22.5668 18.5982L24.0158 26.8722C24.0788 27.234 23.9271 27.5996 23.6238 27.8158C23.4524 27.9383 23.2485 28 23.0446 28C22.888 28 22.7304 27.9634 22.5865 27.8891L15 23.9827L7.41443 27.8881C7.08347 28.0598 6.6806 28.0319 6.37722 27.8148C6.07384 27.5987 5.92214 27.233 5.98518 26.8712L7.43414 18.5973L1.29752 12.7401C1.0296 12.4834 0.932081 12.0994 1.04831 11.7511C1.16454 11.4029 1.47285 11.1472 1.8442 11.0941L10.3242 9.88815L14.1164 2.36091C14.4484 1.70196 15.5516 1.70196 15.8836 2.36091L19.6758 9.88815L28.1558 11.0941C28.5271 11.1472 28.8355 11.4019 28.9517 11.7511C29.0679 12.1004 28.9704 12.4825 28.7025 12.7401Z" fill="#AEAEB1"/>
</svg>
