<svg width="44" height="45" viewBox="0 0 44 45" fill="none" xmlns="http://www.w3.org/2000/svg">
    <path d="M20.97 3.347a1.143 1.143 0 0 1 2.06 0l5.455 11.175c.168.343.491.58.865.636l12.198 1.792c.943.138 1.319 1.309.637 1.98l-8.827 8.7a1.17 1.17 0 0 0-.33 1.027l2.084 12.283c.16.948-.824 1.672-1.667 1.224l-10.91-5.799a1.138 1.138 0 0 0-1.07 0l-10.91 5.799c-.843.448-1.828-.276-1.667-1.224l2.084-12.283a1.17 1.17 0 0 0-.33-1.028l-8.827-8.698c-.682-.672-.306-1.843.637-1.981l12.198-1.792a1.15 1.15 0 0 0 .865-.636L20.97 3.347z" stroke="#656565" stroke-width="2.933" stroke-linejoin="round"/>
</svg>
