<svg width="44" height="44" viewBox="0 0 44 44" fill="none" xmlns="http://www.w3.org/2000/svg">
<path d="M7.33301 12.832C7.33301 11.1236 7.33301 10.2694 7.61212 9.59553C7.98426 8.69709 8.69807 7.98328 9.5965 7.61114C10.2703 7.33203 11.1246 7.33203 12.833 7.33203C14.5415 7.33203 15.3957 7.33203 16.0695 7.61114C16.968 7.98328 17.6818 8.69709 18.0539 9.59553C18.333 10.2694 18.333 11.1236 18.333 12.832C18.333 14.5405 18.333 15.3947 18.0539 16.0685C17.6818 16.967 16.968 17.6808 16.0695 18.0529C15.3957 18.332 14.5415 18.332 12.833 18.332C11.1246 18.332 10.2703 18.332 9.5965 18.0529C8.69807 17.6808 7.98426 16.967 7.61212 16.0685C7.33301 15.3947 7.33301 14.5405 7.33301 12.832Z" stroke="#656565" stroke-width="2.5"/>
<path d="M25.6663 12.832C25.6663 11.1236 25.6663 10.2694 25.9454 9.59553C26.3176 8.69709 27.0314 7.98328 27.9298 7.61114C28.6037 7.33203 29.4579 7.33203 31.1663 7.33203C32.8748 7.33203 33.729 7.33203 34.4028 7.61114C35.3013 7.98328 36.0151 8.69709 36.3872 9.59553C36.6663 10.2694 36.6663 11.1236 36.6663 12.832C36.6663 14.5405 36.6663 15.3947 36.3872 16.0685C36.0151 16.967 35.3013 17.6808 34.4028 18.0529C33.729 18.332 32.8748 18.332 31.1663 18.332C29.4579 18.332 28.6037 18.332 27.9298 18.0529C27.0314 17.6808 26.3176 16.967 25.9454 16.0685C25.6663 15.3947 25.6663 14.5405 25.6663 12.832Z" stroke="#656565" stroke-width="2.5"/>
<path d="M7.33301 31.1654C7.33301 29.4569 7.33301 28.6027 7.61212 27.9289C7.98426 27.0304 8.69807 26.3166 9.5965 25.9445C10.2703 25.6654 11.1246 25.6654 12.833 25.6654C14.5415 25.6654 15.3957 25.6654 16.0695 25.9445C16.968 26.3166 17.6818 27.0304 18.0539 27.9289C18.333 28.6027 18.333 29.4569 18.333 31.1654C18.333 32.8738 18.333 33.728 18.0539 34.4019C17.6818 35.3003 16.968 36.0141 16.0695 36.3863C15.3957 36.6654 14.5415 36.6654 12.833 36.6654C11.1246 36.6654 10.2703 36.6654 9.5965 36.3863C8.69807 36.0141 7.98426 35.3003 7.61212 34.4019C7.33301 33.728 7.33301 32.8738 7.33301 31.1654Z" stroke="#656565" stroke-width="2.5"/>
<path d="M25.6663 31.1654C25.6663 29.4569 25.6663 28.6027 25.9454 27.9289C26.3176 27.0304 27.0314 26.3166 27.9298 25.9445C28.6037 25.6654 29.4579 25.6654 31.1663 25.6654C32.8748 25.6654 33.729 25.6654 34.4028 25.9445C35.3013 26.3166 36.0151 27.0304 36.3872 27.9289C36.6663 28.6027 36.6663 29.4569 36.6663 31.1654C36.6663 32.8738 36.6663 33.728 36.3872 34.4019C36.0151 35.3003 35.3013 36.0141 34.4028 36.3863C33.729 36.6654 32.8748 36.6654 31.1663 36.6654C29.4579 36.6654 28.6037 36.6654 27.9298 36.3863C27.0314 36.0141 26.3176 35.3003 25.9454 34.4019C25.6663 33.728 25.6663 32.8738 25.6663 31.1654Z" stroke="#656565" stroke-width="2.5"/>
</svg>
