<svg width="40" height="41" viewBox="0 0 40 41" fill="none" xmlns="http://www.w3.org/2000/svg">
    <path d="M14.917 16.521c.725 0 1.313.588 1.313 1.313v7a1.312 1.312 0 1 1-2.626 0v-7c0-.725.588-1.313 1.313-1.313z" fill="#434343"/>
    <path fill-rule="evenodd" clip-rule="evenodd" d="M27.308 17.123c1.475-.68 3 .845 2.32 2.32l-.532 1.16a1.75 1.75 0 0 0 0 1.462l.532 1.16c.68 1.475-.845 3-2.32 2.32l-1.16-.533a1.75 1.75 0 0 0-1.462 0l-1.16.533c-1.475.68-2.999-.845-2.32-2.32l.533-1.16a1.75 1.75 0 0 0 0-1.462l-.533-1.16c-.679-1.475.845-3 2.32-2.32l1.16.533a1.75 1.75 0 0 0 1.462 0l1.16-.533zM24 20c.666.158 2.335.158 3 0-.158.665-.158 2.335 0 3-.665-.158-2.334-.158-3 0 .158-.665.158-2.335 0-3z" fill="#434343"/>
    <path fill-rule="evenodd" clip-rule="evenodd" d="M3.88 23.696c.706-1.123 1.155-1.985 1.155-2.362 0-.446-.516-1.575-1.284-3.008-2.621-4.89.688-10.992 6.27-10.992h20.59c3.897 0 7.056 3.134 7.056 7v14c0 3.866-3.159 7-7.056 7H9.851c-5.888 0-9.085-6.681-5.97-11.638zM30.612 9.959H16.23v2.625a1.312 1.312 0 1 1-2.626 0V9.959h-3.583c-3.405 0-5.733 3.813-3.957 7.126.399.744.758 1.456 1.024 2.068.133.304.26.623.358.933.08.258.214.723.214 1.248 0 .538-.143.995-.23 1.24-.1.29-.23.573-.357.83a20.286 20.286 0 0 1-.97 1.688c-2.175 3.463.218 7.617 3.747 7.617h3.755v-2.625a1.312 1.312 0 1 1 2.625 0v2.625H30.61c2.467 0 4.431-1.978 4.431-4.375v-14c0-2.397-1.964-4.375-4.43-4.375z" fill="#434343"/>
</svg>
