<svg width="60" height="60" viewBox="0 0 60 60" fill="none" xmlns="http://www.w3.org/2000/svg">
<path d="M46.25 8.125C47.2855 8.125 48.125 8.96447 48.125 10V13.125H51.25C52.2855 13.125 53.125 13.9645 53.125 15C53.125 16.0355 52.2855 16.875 51.25 16.875H48.125V20C48.125 21.0355 47.2855 21.875 46.25 21.875C45.2145 21.875 44.375 21.0355 44.375 20V16.875H41.25C40.2145 16.875 39.375 16.0355 39.375 15C39.375 13.9645 40.2145 13.125 41.25 13.125H44.375V10C44.375 8.96447 45.2145 8.125 46.25 8.125Z" fill="#656565"/>
<path d="M35.625 10C36.6605 10 37.5 10.8395 37.5 11.875C37.5 12.9105 36.6605 13.75 35.625 13.75H15C11.5482 13.75 8.75 16.5482 8.75 20V40C8.75 41.9929 9.68278 43.768 11.1356 44.9124L16.3524 38.7664C18.082 36.3881 21.6781 36.5471 23.1911 39.0687C24.9468 41.9949 29.299 41.6251 30.5358 38.4447L33.2948 31.3503C34.4855 28.2884 38.6897 27.9642 40.3358 30.8074L49.0617 44.7504C50.4011 43.6041 51.25 41.9012 51.25 40V24.375C51.25 23.3395 52.0895 22.5 53.125 22.5C54.1605 22.5 55 23.3395 55 24.375V40C55 43.2384 53.4606 46.1174 51.0737 47.9449C49.813 48.91 48.316 49.582 46.6844 49.8587C46.3015 49.9237 45.9111 49.9669 45.5146 49.987C45.3442 49.9956 45.1727 50 45.0002 50H15.0002C14.8276 50 14.6558 49.9956 14.4854 49.987C9.2017 49.7192 5 45.3503 5 40V20C5 14.4772 9.47715 10 15 10H35.625Z" fill="#656565"/>
<path d="M22.5002 21.25C22.5002 23.3211 20.8213 25 18.7502 25C16.6791 25 15.0002 23.3211 15.0002 21.25C15.0002 19.1789 16.6791 17.5 18.7502 17.5C20.8213 17.5 22.5002 19.1789 22.5002 21.25Z" fill="#656565"/>
</svg>
