<svg width="42" height="44" viewBox="0 0 42 44" fill="none" xmlns="http://www.w3.org/2000/svg">
<path d="M14.3362 36.707L13.2555 37.7472H13.2555L14.3362 36.707ZM14.3198 36.69L13.2448 37.7362L14.3198 36.69ZM12.8396 36.0603L12.8479 34.5603L12.8396 36.0603ZM29.1579 36.0603L29.1496 34.5603L29.1579 36.0603ZM27.6613 36.707L26.5806 35.6668L27.6613 36.707ZM27.6778 36.69L28.7527 37.7362L27.6778 36.69ZM26.9974 37.3968L28.0781 38.437L26.9974 37.3968ZM15.0001 37.3968L16.0808 36.3566H16.0808L15.0001 37.3968ZM20.9988 41.7891V43.2891V41.7891ZM2.26623 25.7653L0.766318 25.7814L2.26623 25.7653ZM12.5606 36.0596L12.5444 37.5595L12.5606 36.0596ZM39.7313 25.7653L41.2312 25.7814L39.7313 25.7653ZM29.4369 36.0596L29.4531 37.5595L29.4369 36.0596ZM34.3123 3.27303L33.5934 4.58955L34.3123 3.27303ZM38.4589 7.41961L37.1423 8.13848L38.4589 7.41961ZM7.68523 3.27303L8.4041 4.58955L7.68523 3.27303ZM3.53866 7.41961L4.85518 8.13848L3.53866 7.41961ZM6.98998 34.373L6.16989 35.629L6.98998 34.373ZM35.0075 34.373L35.8276 35.629L35.0075 34.373ZM27.8246 14.4888C27.8246 18.2586 24.7686 21.3146 20.9988 21.3146V24.3146C26.4254 24.3146 30.8246 19.9154 30.8246 14.4888H27.8246ZM20.9988 21.3146C17.2289 21.3146 14.1729 18.2586 14.1729 14.4888H11.1729C11.1729 19.9154 15.5721 24.3146 20.9988 24.3146V21.3146ZM14.1729 14.4888C14.1729 10.7189 17.2289 7.66292 20.9988 7.66292V4.66292C15.5721 4.66292 11.1729 9.06209 11.1729 14.4888H14.1729ZM20.9988 7.66292C24.7686 7.66292 27.8246 10.7189 27.8246 14.4888H30.8246C30.8246 9.06209 26.4254 4.66292 20.9988 4.66292V7.66292ZM19.2957 3.5H22.7018V0.5H19.2957V3.5ZM38.2319 19.0301V25.5099H41.2319V19.0301H38.2319ZM3.76562 25.5099V19.0301H0.765625V25.5099H3.76562ZM26.5806 35.6668L25.9167 36.3566L28.0781 38.437L28.742 37.7472L26.5806 35.6668ZM16.0808 36.3566L15.4169 35.6668L13.2555 37.7472L13.9194 38.437L16.0808 36.3566ZM15.4169 35.6668C15.41 35.6596 15.4023 35.6517 15.3947 35.6438L13.2448 37.7362C13.2446 37.736 13.245 37.7363 13.2467 37.7381C13.2486 37.7401 13.251 37.7427 13.2555 37.7472L15.4169 35.6668ZM12.8159 37.5602C12.8295 37.5602 12.8307 37.5602 12.8313 37.5602L12.8479 34.5603C12.837 34.5602 12.8262 34.5602 12.8159 34.5602V37.5602ZM15.3947 35.6438C14.7253 34.956 13.8077 34.5656 12.8479 34.5603L12.8313 37.5602C12.9871 37.5611 13.1361 37.6245 13.2448 37.7362L15.3947 35.6438ZM29.1816 34.5602C29.1713 34.5602 29.1605 34.5602 29.1496 34.5603L29.1662 37.5602C29.1668 37.5602 29.168 37.5602 29.1816 37.5602V34.5602ZM28.742 37.7472C28.7512 37.7378 28.7522 37.7367 28.7527 37.7362L26.6028 35.6438C26.5953 35.6515 26.588 35.6591 26.5806 35.6668L28.742 37.7472ZM29.1496 34.5603C28.1898 34.5656 27.2722 34.956 26.6028 35.6438L28.7527 37.7362C28.8614 37.6245 29.0104 37.5611 29.1662 37.5602L29.1496 34.5603ZM25.9167 36.3566C24.4775 37.8519 23.5022 38.8605 22.6751 39.5143C21.8822 40.1411 21.4102 40.2891 20.9988 40.2891V43.2891C22.3584 43.2891 23.4766 42.705 24.5356 41.8677C25.5605 41.0574 26.6989 39.8699 28.0781 38.437L25.9167 36.3566ZM13.9194 38.437C15.2986 39.8699 16.437 41.0574 17.4619 41.8677C18.5209 42.7049 19.6391 43.2891 20.9988 43.2891V40.2891C20.5873 40.2891 20.1153 40.1411 19.3224 39.5143C18.4954 38.8605 17.52 37.8518 16.0808 36.3566L13.9194 38.437ZM0.765625 25.5099C0.765625 25.6388 0.765603 25.7152 0.766318 25.7814L3.76614 25.7491C3.76565 25.703 3.76562 25.6466 3.76562 25.5099H0.765625ZM12.8159 34.5602C12.6792 34.5602 12.6228 34.5602 12.5768 34.5597L12.5444 37.5595C12.6107 37.5603 12.6871 37.5602 12.8159 37.5602V34.5602ZM38.2319 25.5099C38.2319 25.6466 38.2319 25.703 38.2314 25.7491L41.2312 25.7814C41.2319 25.7152 41.2319 25.6388 41.2319 25.5099H38.2319ZM29.1816 37.5602C29.3104 37.5602 29.3868 37.5603 29.4531 37.5595L29.4207 34.5597C29.3747 34.5602 29.3183 34.5602 29.1816 34.5602V37.5602ZM22.7018 3.5C25.8211 3.5 28.0649 3.50131 29.8231 3.65354C31.5622 3.80411 32.6854 4.09375 33.5934 4.58955L35.0312 1.95652C33.6078 1.17928 32.0187 0.83241 30.0819 0.66472C28.1643 0.498689 25.7685 0.5 22.7018 0.5V3.5ZM41.2319 19.0301C41.2319 15.9634 41.2332 13.5676 41.0672 11.65C40.8995 9.71314 40.5526 8.12412 39.7754 6.70073L37.1423 8.13848C37.6381 9.04647 37.9278 10.1697 38.0783 11.9087C38.2306 13.667 38.2319 15.9108 38.2319 19.0301H41.2319ZM33.5934 4.58955C35.0921 5.4079 36.324 6.63979 37.1423 8.13848L39.7754 6.70073C38.6814 4.69727 37.0346 3.05049 35.0312 1.95652L33.5934 4.58955ZM19.2957 0.5C16.229 0.5 13.8332 0.498689 11.9156 0.66472C9.97877 0.83241 8.38975 1.17928 6.96636 1.95652L8.4041 4.58955C9.31209 4.09375 10.4353 3.80411 12.1744 3.65354C13.9326 3.50131 16.1764 3.5 19.2957 3.5V0.5ZM3.76562 19.0301C3.76562 15.9108 3.76694 13.667 3.91916 11.9087C4.06973 10.1697 4.35938 9.04647 4.85518 8.13848L2.22214 6.70073C1.44491 8.12412 1.09803 9.71314 0.930345 11.65C0.764314 13.5676 0.765625 15.9634 0.765625 19.0301H3.76562ZM6.96636 1.95652C4.9629 3.05049 3.31611 4.69727 2.22214 6.70073L4.85518 8.13848C5.67353 6.63979 6.90541 5.4079 8.4041 4.58955L6.96636 1.95652ZM14.7544 30.559H27.2431V27.559H14.7544V30.559ZM14.7544 27.559C10.5788 27.559 7.01516 30.1629 5.59163 33.8302L8.38832 34.9158C9.3789 32.3639 11.8577 30.559 14.7544 30.559V27.559ZM0.766318 25.7814C0.810851 29.9077 2.95257 33.5282 6.16989 35.629L7.81007 33.117C5.39711 31.5415 3.79943 28.8332 3.76614 25.7491L0.766318 25.7814ZM6.16989 35.629C8.00648 36.8282 10.1956 37.5342 12.5444 37.5595L12.5768 34.5597C10.8162 34.5407 9.18231 34.0131 7.81007 33.117L6.16989 35.629ZM27.2431 30.559C30.1398 30.559 32.6186 32.3639 33.6092 34.9158L36.4059 33.8302C34.9823 30.1629 31.4187 27.559 27.2431 27.559V30.559ZM38.2314 25.7491C38.1981 28.8332 36.6004 31.5415 34.1874 33.117L35.8276 35.629C39.0449 33.5282 41.1867 29.9077 41.2312 25.7814L38.2314 25.7491ZM34.1874 33.117C32.8152 34.0131 31.1813 34.5407 29.4207 34.5597L29.4531 37.5595C31.8019 37.5342 33.991 36.8282 35.8276 35.629L34.1874 33.117Z" fill="#434343"/>
</svg>
