<svg width="70" height="70" viewBox="0 0 70 70" fill="none" xmlns="http://www.w3.org/2000/svg">
<g clip-path="url(#clip0_2310_89438)">
<rect width="70" height="70" rx="23.3333" fill="#19BD29"/>
<path d="M25.7124 49.4279L25.704 49.423H25.7308L25.7124 49.4279Z" fill="white"/>
<path d="M40.9615 36.6072C42.0341 36.1514 43.2408 36.7681 44.1793 37.3312C44.3362 37.4293 44.5129 37.5301 44.6982 37.6358C45.5266 38.1083 46.5295 38.6804 46.7267 39.5569C46.8339 40.0663 46.7267 40.6294 46.539 41.1121C45.8686 42.7478 44.1793 43.8204 42.4631 44.1422C40.9046 44.4487 39.5896 44.0007 38.17 43.517C38.0997 43.4931 38.0291 43.469 37.9583 43.445C36.6176 42.9891 35.3036 42.3456 34.097 41.5948C31.6837 40.0931 29.5921 38.1089 27.9028 35.8296C27.3933 35.1324 26.9107 34.4084 26.4816 33.6576C25.8917 32.6655 25.3822 31.6197 25.1141 30.4935C24.98 30.0377 24.9264 29.555 24.9264 29.0723C24.8996 27.3562 25.5431 25.6669 26.8838 24.5675C27.6615 23.9239 28.7877 23.6558 29.6726 24.1384C30.4977 24.6099 30.9912 25.7239 31.39 26.624C31.4448 26.7477 31.4978 26.8674 31.5496 26.9808C31.8982 27.7316 32.2736 28.6969 32.1396 29.5282C32.013 30.313 31.4322 30.9783 30.9164 31.5692C30.8859 31.6042 30.8556 31.6389 30.8256 31.6733C30.477 32.1024 30.4234 32.451 30.7183 32.9068C32.4613 35.8028 34.8746 37.8943 38.0119 39.1546C38.4409 39.3423 38.7896 39.2887 39.0577 38.9401C39.2231 38.7334 39.3885 38.4654 39.5625 38.1834C39.9528 37.5511 40.3866 36.8483 40.9615 36.6072Z" fill="white"/>
<path fill-rule="evenodd" clip-rule="evenodd" d="M16.1044 45.079L12.833 57.2797L12.8598 57.2528L25.1141 53.9815C28.4123 55.778 32.0859 56.7166 35.8132 56.7166C48.2283 56.7166 58.3374 46.6074 58.3374 34.1923C58.3374 21.7771 48.2283 11.668 35.8132 11.668C23.398 11.668 13.2888 21.7771 13.2888 34.1923C13.2888 37.9999 14.2542 41.7272 16.1044 45.079ZM26.4816 49.8788L25.7124 49.4279L18.8931 51.2464L20.7165 44.4355L20.2339 43.6578C18.4641 40.7887 17.5524 37.5173 17.5524 34.1923C17.5524 24.1368 25.7577 15.9315 35.8132 15.9315C45.8687 15.9315 54.0739 24.1368 54.0739 34.1923C54.0739 44.2478 45.8955 52.453 35.8132 52.453C32.5418 52.453 29.324 51.5681 26.4816 49.8788Z" fill="white"/>
</g>
<defs>
<clipPath id="clip0_2310_89438">
<rect width="70" height="70" fill="white"/>
</clipPath>
</defs>
</svg>
