<svg width="70" height="70" viewBox="0 0 70 70" fill="none" xmlns="http://www.w3.org/2000/svg">
<g clip-path="url(#clip0_2310_89431)">
<rect width="70" height="70" rx="23.3333" fill="#1EB52D"/>
<path fill-rule="evenodd" clip-rule="evenodd" d="M9.33301 29.9095C9.33301 21.1237 17.8185 14 28.2475 14C37.6811 14 45.2659 19.7939 46.688 27.44C46.3562 27.3925 46.2614 27.3925 45.9295 27.3925C36.4012 27.3925 28.6742 33.8988 28.6742 41.9248C28.6742 43.2545 28.8638 44.5843 29.2904 45.8191C28.9586 45.8666 28.5794 45.8666 28.2475 45.8666C26.1143 45.8666 24.0285 45.5816 22.0849 45.0117C21.8953 44.9642 21.7057 44.9167 21.516 44.9167C21.1842 44.9167 20.8524 45.0117 20.5205 45.2017L16.3963 47.6237C16.3666 47.6337 16.339 47.6436 16.3126 47.653C16.2125 47.689 16.1296 47.7187 16.0171 47.7187C15.6853 47.7187 15.4008 47.4338 15.4008 47.1013C15.4008 46.9114 15.4482 46.7689 15.4956 46.6264C15.5183 46.581 15.6385 46.112 15.7941 45.5051C15.9639 44.8429 16.1758 44.0165 16.3489 43.397C16.3489 43.3258 16.3608 43.2545 16.3726 43.1833C16.3845 43.1121 16.3963 43.0408 16.3963 42.9696C16.3963 42.5422 16.2067 42.1623 15.8749 41.9248C11.8929 39.0278 9.33301 34.7061 9.33301 29.9095ZM32.3243 24.828C32.3243 26.1102 33.3198 27.1076 34.5524 27.1076C35.7849 27.1076 36.7804 26.1102 36.7804 24.828C36.7804 23.5457 35.7849 22.5484 34.5524 22.5484C33.3198 22.5484 32.3243 23.5457 32.3243 24.828ZM19.7147 24.828C19.7147 26.1102 20.7102 27.1076 21.9427 27.1076C23.1752 27.1076 24.1707 26.1102 24.1707 24.828C24.1707 23.5457 23.1752 22.5484 21.9427 22.5484C20.7102 22.5484 19.7147 23.5457 19.7147 24.828Z" fill="white"/>
<path fill-rule="evenodd" clip-rule="evenodd" d="M61.6677 41.9248C61.6677 45.9141 59.5345 49.5234 56.2162 51.9454C55.9791 52.1354 55.7895 52.4678 55.7895 52.8478C55.7895 52.9427 55.7895 53.0852 55.8369 53.1802C56.1214 54.1775 56.548 55.7447 56.548 55.8397C56.5954 55.9347 56.6428 56.0772 56.6428 56.2196C56.6428 56.5046 56.4058 56.742 56.1214 56.742C56.0266 56.742 55.9317 56.6945 55.8369 56.6471L52.3764 54.6524C52.092 54.51 51.8075 54.415 51.5231 54.415C51.3335 54.415 51.1913 54.415 51.049 54.4625C49.4373 54.9374 47.6833 55.1748 45.8819 55.1748C37.1594 55.1748 30.0961 49.2384 30.0961 41.9248C30.0961 34.6112 37.1594 28.6748 45.8819 28.6748C54.6044 28.6748 61.6677 34.6112 61.6677 41.9248ZM49.1529 37.6506C49.1529 38.7429 50.0535 39.6452 51.1439 39.6452C52.2342 39.6452 53.1349 38.7429 53.1349 37.6506C53.1349 36.5583 52.2342 35.656 51.1439 35.656C50.0535 35.656 49.1529 36.5583 49.1529 37.6506ZM38.6764 37.6506C38.6764 38.7429 39.5771 39.6452 40.6674 39.6452C41.7577 39.6452 42.6584 38.7429 42.6584 37.6506C42.6584 36.5583 41.7577 35.656 40.6674 35.656C39.5771 35.656 38.6764 36.5583 38.6764 37.6506Z" fill="white"/>
</g>
<defs>
<clipPath id="clip0_2310_89431">
<rect width="70" height="70" fill="white"/>
</clipPath>
</defs>
</svg>
